<?xml version="1.0" encoding="utf-8"?>
<!-- Generator: Adobe Illustrator 16.0.0, SVG Export Plug-In . SVG Version: 6.00 Build 0)  -->
<!DOCTYPE svg PUBLIC "-//W3C//DTD SVG 1.1//EN" "http://www.w3.org/Graphics/SVG/1.1/DTD/svg11.dtd">
<svg version="1.1" id="Layer_1" xmlns="http://www.w3.org/2000/svg" xmlns:xlink="http://www.w3.org/1999/xlink" x="0px" y="0px"
	 width="1024px" height="1024px" viewBox="0 0 1024 1024" enable-background="new 0 0 1024 1024" xml:space="preserve">
<pattern  width="110.551" height="65" patternUnits="userSpaceOnUse" id="New_Pattern_5" viewBox="38.611 -99.5 110.551 65" overflow="visible">
	<g>
		<polygon fill="none" points="38.611,-99.5 149.162,-99.5 149.162,-34.5 38.611,-34.5 		"/>
		<g>
			
				<polygon fill="#6F706F" stroke="#000000" stroke-width="4" stroke-linecap="round" stroke-linejoin="round" stroke-miterlimit="10" points="
				130.879,-66.251 112.551,-34.5 112.551,-34.5 149.173,-34.5 149.173,-34.5 130.879,-66.251 			"/>
			
				<polygon fill="#6F706F" stroke="#000000" stroke-width="4" stroke-linecap="round" stroke-linejoin="round" stroke-miterlimit="10" points="
				167.479,-66.251 149.151,-34.5 149.151,-34.5 185.773,-34.5 185.773,-34.5 167.479,-66.251 			"/>
			
				<polygon fill="#6F706F" stroke="#000000" stroke-width="4" stroke-linecap="round" stroke-linejoin="round" stroke-miterlimit="10" points="
				149.179,-34.251 130.851,-2.5 130.851,-2.5 167.474,-2.5 167.474,-2.5 149.179,-34.251 			"/>
			
				<polygon fill="#6F706F" stroke="#000000" stroke-width="4" stroke-linecap="round" stroke-linejoin="round" stroke-miterlimit="10" points="
				167.445,-2.748 185.773,-34.5 185.773,-34.5 149.151,-34.5 149.151,-34.5 167.445,-2.748 			"/>
			
				<polygon fill="#6F706F" stroke="#000000" stroke-width="4" stroke-linecap="round" stroke-linejoin="round" stroke-miterlimit="10" points="
				130.845,-2.748 149.173,-34.5 149.173,-34.5 112.551,-34.5 112.551,-34.5 130.845,-2.748 			"/>
			
				<polygon fill="#6F706F" stroke="#000000" stroke-width="4" stroke-linecap="round" stroke-linejoin="round" stroke-miterlimit="10" points="
				149.145,-34.749 167.474,-66.5 167.474,-66.5 130.851,-66.5 130.851,-66.5 149.145,-34.749 			"/>
		</g>
		<g>
			
				<polygon fill="#6F706F" stroke="#000000" stroke-width="4" stroke-linecap="round" stroke-linejoin="round" stroke-miterlimit="10" points="
				75.604,-33.751 57.275,-2 57.275,-2 93.898,-2 93.898,-2 75.604,-33.751 			"/>
			
				<polygon fill="#6F706F" stroke="#000000" stroke-width="4" stroke-linecap="round" stroke-linejoin="round" stroke-miterlimit="10" points="
				112.204,-33.751 93.875,-2 93.875,-2 130.498,-2 130.498,-2 112.204,-33.751 			"/>
			
				<polygon fill="#6F706F" stroke="#000000" stroke-width="4" stroke-linecap="round" stroke-linejoin="round" stroke-miterlimit="10" points="
				93.87,-2.249 112.198,-34 112.198,-34 75.575,-34 75.575,-34 93.87,-2.249 			"/>
		</g>
		<g>
			
				<polygon fill="#6F706F" stroke="#000000" stroke-width="4" stroke-linecap="round" stroke-linejoin="round" stroke-miterlimit="10" points="
				20.329,-66.251 2,-34.5 2,-34.5 38.623,-34.5 38.623,-34.5 20.329,-66.251 			"/>
			
				<polygon fill="#6F706F" stroke="#000000" stroke-width="4" stroke-linecap="round" stroke-linejoin="round" stroke-miterlimit="10" points="
				56.929,-66.251 38.6,-34.5 38.6,-34.5 75.223,-34.5 75.223,-34.5 56.929,-66.251 			"/>
			
				<polygon fill="#6F706F" stroke="#000000" stroke-width="4" stroke-linecap="round" stroke-linejoin="round" stroke-miterlimit="10" points="
				38.628,-34.251 20.3,-2.5 20.3,-2.5 56.923,-2.5 56.923,-2.5 38.628,-34.251 			"/>
			
				<polygon fill="#6F706F" stroke="#000000" stroke-width="4" stroke-linecap="round" stroke-linejoin="round" stroke-miterlimit="10" points="
				56.894,-2.748 75.223,-34.5 75.223,-34.5 38.6,-34.5 38.6,-34.5 56.894,-2.748 			"/>
			
				<polygon fill="#6F706F" stroke="#000000" stroke-width="4" stroke-linecap="round" stroke-linejoin="round" stroke-miterlimit="10" points="
				20.294,-2.748 38.623,-34.5 38.623,-34.5 2,-34.5 2,-34.5 20.294,-2.748 			"/>
			
				<polygon fill="#6F706F" stroke="#000000" stroke-width="4" stroke-linecap="round" stroke-linejoin="round" stroke-miterlimit="10" points="
				38.594,-34.749 56.923,-66.5 56.923,-66.5 20.3,-66.5 20.3,-66.5 38.594,-34.749 			"/>
		</g>
		<g>
			
				<polygon fill="#6F706F" stroke="#000000" stroke-width="4" stroke-linecap="round" stroke-linejoin="round" stroke-miterlimit="10" points="
				130.879,-131.251 112.551,-99.5 112.551,-99.5 149.173,-99.5 149.173,-99.5 130.879,-131.251 			"/>
			
				<polygon fill="#6F706F" stroke="#000000" stroke-width="4" stroke-linecap="round" stroke-linejoin="round" stroke-miterlimit="10" points="
				167.479,-131.251 149.151,-99.5 149.151,-99.5 185.773,-99.5 185.773,-99.5 167.479,-131.251 			"/>
			
				<polygon fill="#6F706F" stroke="#000000" stroke-width="4" stroke-linecap="round" stroke-linejoin="round" stroke-miterlimit="10" points="
				149.179,-99.251 130.851,-67.5 130.851,-67.5 167.474,-67.5 167.474,-67.5 149.179,-99.251 			"/>
			
				<polygon fill="#6F706F" stroke="#000000" stroke-width="4" stroke-linecap="round" stroke-linejoin="round" stroke-miterlimit="10" points="
				167.445,-67.748 185.773,-99.5 185.773,-99.5 149.151,-99.5 149.151,-99.5 167.445,-67.748 			"/>
			
				<polygon fill="#6F706F" stroke="#000000" stroke-width="4" stroke-linecap="round" stroke-linejoin="round" stroke-miterlimit="10" points="
				130.845,-67.748 149.173,-99.5 149.173,-99.5 112.551,-99.5 112.551,-99.5 130.845,-67.748 			"/>
			
				<polygon fill="#6F706F" stroke="#000000" stroke-width="4" stroke-linecap="round" stroke-linejoin="round" stroke-miterlimit="10" points="
				149.145,-99.749 167.474,-131.5 167.474,-131.5 130.851,-131.5 130.851,-131.5 149.145,-99.749 			"/>
		</g>
		<g>
			
				<polygon fill="#6F706F" stroke="#000000" stroke-width="4" stroke-linecap="round" stroke-linejoin="round" stroke-miterlimit="10" points="
				75.604,-98.751 57.275,-67 57.275,-67 93.898,-67 93.898,-67 75.604,-98.751 			"/>
			
				<polygon fill="#6F706F" stroke="#000000" stroke-width="4" stroke-linecap="round" stroke-linejoin="round" stroke-miterlimit="10" points="
				112.204,-98.751 93.875,-67 93.875,-67 130.498,-67 130.498,-67 112.204,-98.751 			"/>
			
				<polygon fill="#6F706F" stroke="#000000" stroke-width="4" stroke-linecap="round" stroke-linejoin="round" stroke-miterlimit="10" points="
				93.904,-66.751 75.575,-35 75.575,-35 112.198,-35 112.198,-35 93.904,-66.751 			"/>
			
				<polygon fill="#6F706F" stroke="#000000" stroke-width="4" stroke-linecap="round" stroke-linejoin="round" stroke-miterlimit="10" points="
				112.169,-35.248 130.498,-67 130.498,-67 93.875,-67 93.875,-67 112.169,-35.248 			"/>
			
				<polygon fill="#6F706F" stroke="#000000" stroke-width="4" stroke-linecap="round" stroke-linejoin="round" stroke-miterlimit="10" points="
				75.569,-35.248 93.898,-67 93.898,-67 57.275,-67 57.275,-67 75.569,-35.248 			"/>
			
				<polygon fill="#6F706F" stroke="#000000" stroke-width="4" stroke-linecap="round" stroke-linejoin="round" stroke-miterlimit="10" points="
				93.87,-67.249 112.198,-99 112.198,-99 75.575,-99 75.575,-99 93.87,-67.249 			"/>
		</g>
		<g>
			
				<polygon fill="#6F706F" stroke="#000000" stroke-width="4" stroke-linecap="round" stroke-linejoin="round" stroke-miterlimit="10" points="
				20.329,-131.251 2,-99.5 2,-99.5 38.623,-99.5 38.623,-99.5 20.329,-131.251 			"/>
			
				<polygon fill="#6F706F" stroke="#000000" stroke-width="4" stroke-linecap="round" stroke-linejoin="round" stroke-miterlimit="10" points="
				56.929,-131.251 38.6,-99.5 38.6,-99.5 75.223,-99.5 75.223,-99.5 56.929,-131.251 			"/>
			
				<polygon fill="#6F706F" stroke="#000000" stroke-width="4" stroke-linecap="round" stroke-linejoin="round" stroke-miterlimit="10" points="
				38.628,-99.251 20.3,-67.5 20.3,-67.5 56.923,-67.5 56.923,-67.5 38.628,-99.251 			"/>
			
				<polygon fill="#6F706F" stroke="#000000" stroke-width="4" stroke-linecap="round" stroke-linejoin="round" stroke-miterlimit="10" points="
				56.894,-67.748 75.223,-99.5 75.223,-99.5 38.6,-99.5 38.6,-99.5 56.894,-67.748 			"/>
			
				<polygon fill="#6F706F" stroke="#000000" stroke-width="4" stroke-linecap="round" stroke-linejoin="round" stroke-miterlimit="10" points="
				20.294,-67.748 38.623,-99.5 38.623,-99.5 2,-99.5 2,-99.5 20.294,-67.748 			"/>
			
				<polygon fill="#6F706F" stroke="#000000" stroke-width="4" stroke-linecap="round" stroke-linejoin="round" stroke-miterlimit="10" points="
				38.594,-99.749 56.923,-131.5 56.923,-131.5 20.3,-131.5 20.3,-131.5 38.594,-99.749 			"/>
		</g>
		<g>
			
				<polygon fill="#6F706F" stroke="#000000" stroke-width="4" stroke-linecap="round" stroke-linejoin="round" stroke-miterlimit="10" points="
				93.904,-131.751 75.575,-100 75.575,-100 112.198,-100 112.198,-100 93.904,-131.751 			"/>
			
				<polygon fill="#6F706F" stroke="#000000" stroke-width="4" stroke-linecap="round" stroke-linejoin="round" stroke-miterlimit="10" points="
				112.169,-100.248 130.498,-132 130.498,-132 93.875,-132 93.875,-132 112.169,-100.248 			"/>
			
				<polygon fill="#6F706F" stroke="#000000" stroke-width="4" stroke-linecap="round" stroke-linejoin="round" stroke-miterlimit="10" points="
				75.569,-100.248 93.898,-132 93.898,-132 57.275,-132 57.275,-132 75.569,-100.248 			"/>
		</g>
	</g>
</pattern>
<pattern  width="110.551" height="65" patternUnits="userSpaceOnUse" id="New_Pattern_6" viewBox="38.611 -99.5 110.551 65" overflow="visible">
	<g>
		<polygon fill="none" points="38.611,-99.5 149.162,-99.5 149.162,-34.5 38.611,-34.5 		"/>
		<g>
			
				<polygon fill="#333333" stroke="#000000" stroke-width="4" stroke-linecap="round" stroke-linejoin="round" stroke-miterlimit="10" points="
				130.879,-66.251 112.551,-34.5 112.551,-34.5 149.173,-34.5 149.173,-34.5 130.879,-66.251 			"/>
			
				<polygon fill="#333333" stroke="#000000" stroke-width="4" stroke-linecap="round" stroke-linejoin="round" stroke-miterlimit="10" points="
				167.479,-66.251 149.151,-34.5 149.151,-34.5 185.773,-34.5 185.773,-34.5 167.479,-66.251 			"/>
			
				<polygon fill="#333333" stroke="#000000" stroke-width="4" stroke-linecap="round" stroke-linejoin="round" stroke-miterlimit="10" points="
				149.179,-34.251 130.851,-2.5 130.851,-2.5 167.474,-2.5 167.474,-2.5 149.179,-34.251 			"/>
			
				<polygon fill="#333333" stroke="#000000" stroke-width="4" stroke-linecap="round" stroke-linejoin="round" stroke-miterlimit="10" points="
				167.445,-2.748 185.773,-34.5 185.773,-34.5 149.151,-34.5 149.151,-34.5 167.445,-2.748 			"/>
			
				<polygon fill="#333333" stroke="#000000" stroke-width="4" stroke-linecap="round" stroke-linejoin="round" stroke-miterlimit="10" points="
				130.845,-2.748 149.173,-34.5 149.173,-34.5 112.551,-34.5 112.551,-34.5 130.845,-2.748 			"/>
			
				<polygon fill="#333333" stroke="#000000" stroke-width="4" stroke-linecap="round" stroke-linejoin="round" stroke-miterlimit="10" points="
				149.145,-34.749 167.474,-66.5 167.474,-66.5 130.851,-66.5 130.851,-66.5 149.145,-34.749 			"/>
		</g>
		<g>
			
				<polygon fill="#333333" stroke="#000000" stroke-width="4" stroke-linecap="round" stroke-linejoin="round" stroke-miterlimit="10" points="
				75.604,-33.751 57.275,-2 57.275,-2 93.898,-2 93.898,-2 75.604,-33.751 			"/>
			
				<polygon fill="#333333" stroke="#000000" stroke-width="4" stroke-linecap="round" stroke-linejoin="round" stroke-miterlimit="10" points="
				112.204,-33.751 93.875,-2 93.875,-2 130.498,-2 130.498,-2 112.204,-33.751 			"/>
			
				<polygon fill="#333333" stroke="#000000" stroke-width="4" stroke-linecap="round" stroke-linejoin="round" stroke-miterlimit="10" points="
				93.87,-2.249 112.198,-34 112.198,-34 75.575,-34 75.575,-34 93.87,-2.249 			"/>
		</g>
		<g>
			
				<polygon fill="#333333" stroke="#000000" stroke-width="4" stroke-linecap="round" stroke-linejoin="round" stroke-miterlimit="10" points="
				20.329,-66.251 2,-34.5 2,-34.5 38.623,-34.5 38.623,-34.5 20.329,-66.251 			"/>
			
				<polygon fill="#333333" stroke="#000000" stroke-width="4" stroke-linecap="round" stroke-linejoin="round" stroke-miterlimit="10" points="
				56.929,-66.251 38.6,-34.5 38.6,-34.5 75.223,-34.5 75.223,-34.5 56.929,-66.251 			"/>
			
				<polygon fill="#333333" stroke="#000000" stroke-width="4" stroke-linecap="round" stroke-linejoin="round" stroke-miterlimit="10" points="
				38.628,-34.251 20.3,-2.5 20.3,-2.5 56.923,-2.5 56.923,-2.5 38.628,-34.251 			"/>
			
				<polygon fill="#333333" stroke="#000000" stroke-width="4" stroke-linecap="round" stroke-linejoin="round" stroke-miterlimit="10" points="
				56.894,-2.748 75.223,-34.5 75.223,-34.5 38.6,-34.5 38.6,-34.5 56.894,-2.748 			"/>
			
				<polygon fill="#333333" stroke="#000000" stroke-width="4" stroke-linecap="round" stroke-linejoin="round" stroke-miterlimit="10" points="
				20.294,-2.748 38.623,-34.5 38.623,-34.5 2,-34.5 2,-34.5 20.294,-2.748 			"/>
			
				<polygon fill="#333333" stroke="#000000" stroke-width="4" stroke-linecap="round" stroke-linejoin="round" stroke-miterlimit="10" points="
				38.594,-34.749 56.923,-66.5 56.923,-66.5 20.3,-66.5 20.3,-66.5 38.594,-34.749 			"/>
		</g>
		<g>
			
				<polygon fill="#333333" stroke="#000000" stroke-width="4" stroke-linecap="round" stroke-linejoin="round" stroke-miterlimit="10" points="
				130.879,-131.251 112.551,-99.5 112.551,-99.5 149.173,-99.5 149.173,-99.5 130.879,-131.251 			"/>
			
				<polygon fill="#333333" stroke="#000000" stroke-width="4" stroke-linecap="round" stroke-linejoin="round" stroke-miterlimit="10" points="
				167.479,-131.251 149.151,-99.5 149.151,-99.5 185.773,-99.5 185.773,-99.5 167.479,-131.251 			"/>
			
				<polygon fill="#333333" stroke="#000000" stroke-width="4" stroke-linecap="round" stroke-linejoin="round" stroke-miterlimit="10" points="
				149.179,-99.251 130.851,-67.5 130.851,-67.5 167.474,-67.5 167.474,-67.5 149.179,-99.251 			"/>
			
				<polygon fill="#333333" stroke="#000000" stroke-width="4" stroke-linecap="round" stroke-linejoin="round" stroke-miterlimit="10" points="
				167.445,-67.748 185.773,-99.5 185.773,-99.5 149.151,-99.5 149.151,-99.5 167.445,-67.748 			"/>
			
				<polygon fill="#333333" stroke="#000000" stroke-width="4" stroke-linecap="round" stroke-linejoin="round" stroke-miterlimit="10" points="
				130.845,-67.748 149.173,-99.5 149.173,-99.5 112.551,-99.5 112.551,-99.5 130.845,-67.748 			"/>
			
				<polygon fill="#333333" stroke="#000000" stroke-width="4" stroke-linecap="round" stroke-linejoin="round" stroke-miterlimit="10" points="
				149.145,-99.749 167.474,-131.5 167.474,-131.5 130.851,-131.5 130.851,-131.5 149.145,-99.749 			"/>
		</g>
		<g>
			
				<polygon fill="#333333" stroke="#000000" stroke-width="4" stroke-linecap="round" stroke-linejoin="round" stroke-miterlimit="10" points="
				75.604,-98.751 57.275,-67 57.275,-67 93.898,-67 93.898,-67 75.604,-98.751 			"/>
			
				<polygon fill="#333333" stroke="#000000" stroke-width="4" stroke-linecap="round" stroke-linejoin="round" stroke-miterlimit="10" points="
				112.204,-98.751 93.875,-67 93.875,-67 130.498,-67 130.498,-67 112.204,-98.751 			"/>
			
				<polygon fill="#333333" stroke="#000000" stroke-width="4" stroke-linecap="round" stroke-linejoin="round" stroke-miterlimit="10" points="
				93.904,-66.751 75.575,-35 75.575,-35 112.198,-35 112.198,-35 93.904,-66.751 			"/>
			
				<polygon fill="#333333" stroke="#000000" stroke-width="4" stroke-linecap="round" stroke-linejoin="round" stroke-miterlimit="10" points="
				112.169,-35.248 130.498,-67 130.498,-67 93.875,-67 93.875,-67 112.169,-35.248 			"/>
			
				<polygon fill="#333333" stroke="#000000" stroke-width="4" stroke-linecap="round" stroke-linejoin="round" stroke-miterlimit="10" points="
				75.569,-35.248 93.898,-67 93.898,-67 57.275,-67 57.275,-67 75.569,-35.248 			"/>
			
				<polygon fill="#333333" stroke="#000000" stroke-width="4" stroke-linecap="round" stroke-linejoin="round" stroke-miterlimit="10" points="
				93.87,-67.249 112.198,-99 112.198,-99 75.575,-99 75.575,-99 93.87,-67.249 			"/>
		</g>
		<g>
			
				<polygon fill="#333333" stroke="#000000" stroke-width="4" stroke-linecap="round" stroke-linejoin="round" stroke-miterlimit="10" points="
				20.329,-131.251 2,-99.5 2,-99.5 38.623,-99.5 38.623,-99.5 20.329,-131.251 			"/>
			
				<polygon fill="#333333" stroke="#000000" stroke-width="4" stroke-linecap="round" stroke-linejoin="round" stroke-miterlimit="10" points="
				56.929,-131.251 38.6,-99.5 38.6,-99.5 75.223,-99.5 75.223,-99.5 56.929,-131.251 			"/>
			
				<polygon fill="#333333" stroke="#000000" stroke-width="4" stroke-linecap="round" stroke-linejoin="round" stroke-miterlimit="10" points="
				38.628,-99.251 20.3,-67.5 20.3,-67.5 56.923,-67.5 56.923,-67.5 38.628,-99.251 			"/>
			
				<polygon fill="#333333" stroke="#000000" stroke-width="4" stroke-linecap="round" stroke-linejoin="round" stroke-miterlimit="10" points="
				56.894,-67.748 75.223,-99.5 75.223,-99.5 38.6,-99.5 38.6,-99.5 56.894,-67.748 			"/>
			
				<polygon fill="#333333" stroke="#000000" stroke-width="4" stroke-linecap="round" stroke-linejoin="round" stroke-miterlimit="10" points="
				20.294,-67.748 38.623,-99.5 38.623,-99.5 2,-99.5 2,-99.5 20.294,-67.748 			"/>
			
				<polygon fill="#333333" stroke="#000000" stroke-width="4" stroke-linecap="round" stroke-linejoin="round" stroke-miterlimit="10" points="
				38.594,-99.749 56.923,-131.5 56.923,-131.5 20.3,-131.5 20.3,-131.5 38.594,-99.749 			"/>
		</g>
		<g>
			
				<polygon fill="#333333" stroke="#000000" stroke-width="4" stroke-linecap="round" stroke-linejoin="round" stroke-miterlimit="10" points="
				93.904,-131.751 75.575,-100 75.575,-100 112.198,-100 112.198,-100 93.904,-131.751 			"/>
			
				<polygon fill="#333333" stroke="#000000" stroke-width="4" stroke-linecap="round" stroke-linejoin="round" stroke-miterlimit="10" points="
				112.169,-100.248 130.498,-132 130.498,-132 93.875,-132 93.875,-132 112.169,-100.248 			"/>
			
				<polygon fill="#333333" stroke="#000000" stroke-width="4" stroke-linecap="round" stroke-linejoin="round" stroke-miterlimit="10" points="
				75.569,-100.248 93.898,-132 93.898,-132 57.275,-132 57.275,-132 75.569,-100.248 			"/>
		</g>
	</g>
</pattern>
<circle fill="url(#New_Pattern_5)" stroke="#000000" stroke-width="59" stroke-miterlimit="10" cx="512" cy="511.999" r="480"/>
<path fill="url(#New_Pattern_6)" stroke="#000000" stroke-miterlimit="10" d="M31.5,494.073
	C123.5,323.987,303.623,209.5,510.926,209.5h0.125c207.303,0,387.25,114.594,479.875,284.68l-0.358-0.748
	C979.794,237.876,769.432,34,511.225,34C253.117,34,41.5,238.443,31.5,493.86V494.073z"/>
<circle fill="none" stroke="#000000" stroke-width="59" stroke-miterlimit="10" cx="512" cy="511.999" r="480"/>
</svg>
