<?xml version="1.0" encoding="utf-8"?>
<!-- Generator: Adobe Illustrator 16.0.0, SVG Export Plug-In . SVG Version: 6.00 Build 0)  -->
<!DOCTYPE svg PUBLIC "-//W3C//DTD SVG 1.1//EN" "http://www.w3.org/Graphics/SVG/1.1/DTD/svg11.dtd">
<svg version="1.1" id="Layer_1" xmlns="http://www.w3.org/2000/svg" xmlns:xlink="http://www.w3.org/1999/xlink" x="0px" y="0px"
	 width="1024px" height="1024px" viewBox="0 0 1024 1024" enable-background="new 0 0 1024 1024" xml:space="preserve">
<pattern  width="110.551" height="65" patternUnits="userSpaceOnUse" id="New_Pattern_12" viewBox="38.611 -99.5 110.551 65" overflow="visible">
	<g>
		<polygon fill="none" points="38.611,-99.5 149.162,-99.5 149.162,-34.5 38.611,-34.5 		"/>
		<g>
			
				<polygon fill="#1A1A1A" stroke="#000000" stroke-width="4" stroke-linecap="round" stroke-linejoin="round" stroke-miterlimit="10" points="
				130.879,-66.251 112.551,-34.5 112.551,-34.5 149.173,-34.5 149.173,-34.5 130.879,-66.251 			"/>
			
				<polygon fill="#1A1A1A" stroke="#000000" stroke-width="4" stroke-linecap="round" stroke-linejoin="round" stroke-miterlimit="10" points="
				167.479,-66.251 149.151,-34.5 149.151,-34.5 185.773,-34.5 185.773,-34.5 167.479,-66.251 			"/>
			
				<polygon fill="#1A1A1A" stroke="#000000" stroke-width="4" stroke-linecap="round" stroke-linejoin="round" stroke-miterlimit="10" points="
				149.179,-34.251 130.851,-2.5 130.851,-2.5 167.474,-2.5 167.474,-2.5 149.179,-34.251 			"/>
			
				<polygon fill="#1A1A1A" stroke="#000000" stroke-width="4" stroke-linecap="round" stroke-linejoin="round" stroke-miterlimit="10" points="
				167.445,-2.748 185.773,-34.5 185.773,-34.5 149.151,-34.5 149.151,-34.5 167.445,-2.748 			"/>
			
				<polygon fill="#1A1A1A" stroke="#000000" stroke-width="4" stroke-linecap="round" stroke-linejoin="round" stroke-miterlimit="10" points="
				130.845,-2.748 149.173,-34.5 149.173,-34.5 112.551,-34.5 112.551,-34.5 130.845,-2.748 			"/>
			
				<polygon fill="#1A1A1A" stroke="#000000" stroke-width="4" stroke-linecap="round" stroke-linejoin="round" stroke-miterlimit="10" points="
				149.145,-34.749 167.474,-66.5 167.474,-66.5 130.851,-66.5 130.851,-66.5 149.145,-34.749 			"/>
		</g>
		<g>
			
				<polygon fill="#1A1A1A" stroke="#000000" stroke-width="4" stroke-linecap="round" stroke-linejoin="round" stroke-miterlimit="10" points="
				75.604,-33.751 57.275,-2 57.275,-2 93.898,-2 93.898,-2 75.604,-33.751 			"/>
			
				<polygon fill="#1A1A1A" stroke="#000000" stroke-width="4" stroke-linecap="round" stroke-linejoin="round" stroke-miterlimit="10" points="
				112.204,-33.751 93.875,-2 93.875,-2 130.498,-2 130.498,-2 112.204,-33.751 			"/>
			
				<polygon fill="#1A1A1A" stroke="#000000" stroke-width="4" stroke-linecap="round" stroke-linejoin="round" stroke-miterlimit="10" points="
				93.87,-2.249 112.198,-34 112.198,-34 75.575,-34 75.575,-34 93.87,-2.249 			"/>
		</g>
		<g>
			
				<polygon fill="#1A1A1A" stroke="#000000" stroke-width="4" stroke-linecap="round" stroke-linejoin="round" stroke-miterlimit="10" points="
				20.329,-66.251 2,-34.5 2,-34.5 38.623,-34.5 38.623,-34.5 20.329,-66.251 			"/>
			
				<polygon fill="#1A1A1A" stroke="#000000" stroke-width="4" stroke-linecap="round" stroke-linejoin="round" stroke-miterlimit="10" points="
				56.929,-66.251 38.6,-34.5 38.6,-34.5 75.223,-34.5 75.223,-34.5 56.929,-66.251 			"/>
			
				<polygon fill="#1A1A1A" stroke="#000000" stroke-width="4" stroke-linecap="round" stroke-linejoin="round" stroke-miterlimit="10" points="
				38.628,-34.251 20.3,-2.5 20.3,-2.5 56.923,-2.5 56.923,-2.5 38.628,-34.251 			"/>
			
				<polygon fill="#1A1A1A" stroke="#000000" stroke-width="4" stroke-linecap="round" stroke-linejoin="round" stroke-miterlimit="10" points="
				56.894,-2.748 75.223,-34.5 75.223,-34.5 38.6,-34.5 38.6,-34.5 56.894,-2.748 			"/>
			
				<polygon fill="#1A1A1A" stroke="#000000" stroke-width="4" stroke-linecap="round" stroke-linejoin="round" stroke-miterlimit="10" points="
				20.294,-2.748 38.623,-34.5 38.623,-34.5 2,-34.5 2,-34.5 20.294,-2.748 			"/>
			
				<polygon fill="#1A1A1A" stroke="#000000" stroke-width="4" stroke-linecap="round" stroke-linejoin="round" stroke-miterlimit="10" points="
				38.594,-34.749 56.923,-66.5 56.923,-66.5 20.3,-66.5 20.3,-66.5 38.594,-34.749 			"/>
		</g>
		<g>
			
				<polygon fill="#1A1A1A" stroke="#000000" stroke-width="4" stroke-linecap="round" stroke-linejoin="round" stroke-miterlimit="10" points="
				130.879,-131.251 112.551,-99.5 112.551,-99.5 149.173,-99.5 149.173,-99.5 130.879,-131.251 			"/>
			
				<polygon fill="#1A1A1A" stroke="#000000" stroke-width="4" stroke-linecap="round" stroke-linejoin="round" stroke-miterlimit="10" points="
				167.479,-131.251 149.151,-99.5 149.151,-99.5 185.773,-99.5 185.773,-99.5 167.479,-131.251 			"/>
			
				<polygon fill="#1A1A1A" stroke="#000000" stroke-width="4" stroke-linecap="round" stroke-linejoin="round" stroke-miterlimit="10" points="
				149.179,-99.251 130.851,-67.5 130.851,-67.5 167.474,-67.5 167.474,-67.5 149.179,-99.251 			"/>
			
				<polygon fill="#1A1A1A" stroke="#000000" stroke-width="4" stroke-linecap="round" stroke-linejoin="round" stroke-miterlimit="10" points="
				167.445,-67.748 185.773,-99.5 185.773,-99.5 149.151,-99.5 149.151,-99.5 167.445,-67.748 			"/>
			
				<polygon fill="#1A1A1A" stroke="#000000" stroke-width="4" stroke-linecap="round" stroke-linejoin="round" stroke-miterlimit="10" points="
				130.845,-67.748 149.173,-99.5 149.173,-99.5 112.551,-99.5 112.551,-99.5 130.845,-67.748 			"/>
			
				<polygon fill="#1A1A1A" stroke="#000000" stroke-width="4" stroke-linecap="round" stroke-linejoin="round" stroke-miterlimit="10" points="
				149.145,-99.749 167.474,-131.5 167.474,-131.5 130.851,-131.5 130.851,-131.5 149.145,-99.749 			"/>
		</g>
		<g>
			
				<polygon fill="#1A1A1A" stroke="#000000" stroke-width="4" stroke-linecap="round" stroke-linejoin="round" stroke-miterlimit="10" points="
				75.604,-98.751 57.275,-67 57.275,-67 93.898,-67 93.898,-67 75.604,-98.751 			"/>
			
				<polygon fill="#1A1A1A" stroke="#000000" stroke-width="4" stroke-linecap="round" stroke-linejoin="round" stroke-miterlimit="10" points="
				112.204,-98.751 93.875,-67 93.875,-67 130.498,-67 130.498,-67 112.204,-98.751 			"/>
			
				<polygon fill="#1A1A1A" stroke="#000000" stroke-width="4" stroke-linecap="round" stroke-linejoin="round" stroke-miterlimit="10" points="
				93.904,-66.751 75.575,-35 75.575,-35 112.198,-35 112.198,-35 93.904,-66.751 			"/>
			
				<polygon fill="#1A1A1A" stroke="#000000" stroke-width="4" stroke-linecap="round" stroke-linejoin="round" stroke-miterlimit="10" points="
				112.169,-35.248 130.498,-67 130.498,-67 93.875,-67 93.875,-67 112.169,-35.248 			"/>
			
				<polygon fill="#1A1A1A" stroke="#000000" stroke-width="4" stroke-linecap="round" stroke-linejoin="round" stroke-miterlimit="10" points="
				75.569,-35.248 93.898,-67 93.898,-67 57.275,-67 57.275,-67 75.569,-35.248 			"/>
			
				<polygon fill="#1A1A1A" stroke="#000000" stroke-width="4" stroke-linecap="round" stroke-linejoin="round" stroke-miterlimit="10" points="
				93.87,-67.249 112.198,-99 112.198,-99 75.575,-99 75.575,-99 93.87,-67.249 			"/>
		</g>
		<g>
			
				<polygon fill="#1A1A1A" stroke="#000000" stroke-width="4" stroke-linecap="round" stroke-linejoin="round" stroke-miterlimit="10" points="
				20.329,-131.251 2,-99.5 2,-99.5 38.623,-99.5 38.623,-99.5 20.329,-131.251 			"/>
			
				<polygon fill="#1A1A1A" stroke="#000000" stroke-width="4" stroke-linecap="round" stroke-linejoin="round" stroke-miterlimit="10" points="
				56.929,-131.251 38.6,-99.5 38.6,-99.5 75.223,-99.5 75.223,-99.5 56.929,-131.251 			"/>
			
				<polygon fill="#1A1A1A" stroke="#000000" stroke-width="4" stroke-linecap="round" stroke-linejoin="round" stroke-miterlimit="10" points="
				38.628,-99.251 20.3,-67.5 20.3,-67.5 56.923,-67.5 56.923,-67.5 38.628,-99.251 			"/>
			
				<polygon fill="#1A1A1A" stroke="#000000" stroke-width="4" stroke-linecap="round" stroke-linejoin="round" stroke-miterlimit="10" points="
				56.894,-67.748 75.223,-99.5 75.223,-99.5 38.6,-99.5 38.6,-99.5 56.894,-67.748 			"/>
			
				<polygon fill="#1A1A1A" stroke="#000000" stroke-width="4" stroke-linecap="round" stroke-linejoin="round" stroke-miterlimit="10" points="
				20.294,-67.748 38.623,-99.5 38.623,-99.5 2,-99.5 2,-99.5 20.294,-67.748 			"/>
			
				<polygon fill="#1A1A1A" stroke="#000000" stroke-width="4" stroke-linecap="round" stroke-linejoin="round" stroke-miterlimit="10" points="
				38.594,-99.749 56.923,-131.5 56.923,-131.5 20.3,-131.5 20.3,-131.5 38.594,-99.749 			"/>
		</g>
		<g>
			
				<polygon fill="#1A1A1A" stroke="#000000" stroke-width="4" stroke-linecap="round" stroke-linejoin="round" stroke-miterlimit="10" points="
				93.904,-131.751 75.575,-100 75.575,-100 112.198,-100 112.198,-100 93.904,-131.751 			"/>
			
				<polygon fill="#1A1A1A" stroke="#000000" stroke-width="4" stroke-linecap="round" stroke-linejoin="round" stroke-miterlimit="10" points="
				112.169,-100.248 130.498,-132 130.498,-132 93.875,-132 93.875,-132 112.169,-100.248 			"/>
			
				<polygon fill="#1A1A1A" stroke="#000000" stroke-width="4" stroke-linecap="round" stroke-linejoin="round" stroke-miterlimit="10" points="
				75.569,-100.248 93.898,-132 93.898,-132 57.275,-132 57.275,-132 75.569,-100.248 			"/>
		</g>
	</g>
</pattern>
<pattern  width="110.551" height="65" patternUnits="userSpaceOnUse" id="New_Pattern_14" viewBox="38.611 -99.5 110.551 65" overflow="visible">
	<g>
		<polygon fill="none" points="38.611,-99.5 149.162,-99.5 149.162,-34.5 38.611,-34.5 		"/>
		<g>
			<polygon fill="#FFFF00" stroke="#F7931E" stroke-width="4" stroke-linejoin="round" stroke-miterlimit="10" points="
				130.879,-66.251 112.551,-34.5 112.551,-34.5 149.174,-34.5 149.174,-34.5 130.879,-66.251 			"/>
			<polygon fill="#FFFF00" stroke="#F7931E" stroke-width="4" stroke-linejoin="round" stroke-miterlimit="10" points="
				167.479,-66.251 149.15,-34.5 149.15,-34.5 185.773,-34.5 185.773,-34.5 167.479,-66.251 			"/>
			<polygon fill="#FFFF00" stroke="#F7931E" stroke-width="4" stroke-linejoin="round" stroke-miterlimit="10" points="
				149.18,-34.251 130.851,-2.5 130.851,-2.5 167.474,-2.5 167.474,-2.5 149.18,-34.251 			"/>
			<polygon fill="#FFFF00" stroke="#F7931E" stroke-width="4" stroke-linejoin="round" stroke-miterlimit="10" points="
				167.445,-2.748 185.773,-34.5 185.773,-34.5 149.15,-34.5 149.15,-34.5 167.445,-2.748 			"/>
			<polygon fill="#FFFF00" stroke="#F7931E" stroke-width="4" stroke-linejoin="round" stroke-miterlimit="10" points="
				130.845,-2.748 149.174,-34.5 149.174,-34.5 112.551,-34.5 112.551,-34.5 130.845,-2.748 			"/>
			<polygon fill="#FFFF00" stroke="#F7931E" stroke-width="4" stroke-linejoin="round" stroke-miterlimit="10" points="
				149.145,-34.749 167.474,-66.5 167.474,-66.5 130.851,-66.5 130.851,-66.5 149.145,-34.749 			"/>
		</g>
		<g>
			<polygon fill="#FFFF00" stroke="#F7931E" stroke-width="4" stroke-linejoin="round" stroke-miterlimit="10" points="
				75.604,-33.751 57.275,-2 57.275,-2 93.898,-2 93.898,-2 75.604,-33.751 			"/>
			<polygon fill="#FFFF00" stroke="#F7931E" stroke-width="4" stroke-linejoin="round" stroke-miterlimit="10" points="
				112.204,-33.751 93.875,-2 93.875,-2 130.498,-2 130.498,-2 112.204,-33.751 			"/>
			<polygon fill="#FFFF00" stroke="#F7931E" stroke-width="4" stroke-linejoin="round" stroke-miterlimit="10" points="
				93.869,-2.249 112.198,-34 112.198,-34 75.575,-34 75.575,-34 93.869,-2.249 			"/>
		</g>
		<g>
			<polygon fill="#FFFF00" stroke="#F7931E" stroke-width="4" stroke-linejoin="round" stroke-miterlimit="10" points="
				20.328,-66.251 2,-34.5 2,-34.5 38.623,-34.5 38.623,-34.5 20.328,-66.251 			"/>
			<polygon fill="#FFFF00" stroke="#F7931E" stroke-width="4" stroke-linejoin="round" stroke-miterlimit="10" points="
				56.929,-66.251 38.6,-34.5 38.6,-34.5 75.223,-34.5 75.223,-34.5 56.929,-66.251 			"/>
			<polygon fill="#FFFF00" stroke="#F7931E" stroke-width="4" stroke-linejoin="round" stroke-miterlimit="10" points="
				38.629,-34.251 20.3,-2.5 20.3,-2.5 56.923,-2.5 56.923,-2.5 38.629,-34.251 			"/>
			<polygon fill="#FFFF00" stroke="#F7931E" stroke-width="4" stroke-linejoin="round" stroke-miterlimit="10" points="
				56.895,-2.748 75.223,-34.5 75.223,-34.5 38.6,-34.5 38.6,-34.5 56.895,-2.748 			"/>
			<polygon fill="#FFFF00" stroke="#F7931E" stroke-width="4" stroke-linejoin="round" stroke-miterlimit="10" points="
				20.294,-2.748 38.623,-34.5 38.623,-34.5 2,-34.5 2,-34.5 20.294,-2.748 			"/>
			<polygon fill="#FFFF00" stroke="#F7931E" stroke-width="4" stroke-linejoin="round" stroke-miterlimit="10" points="
				38.594,-34.749 56.923,-66.5 56.923,-66.5 20.3,-66.5 20.3,-66.5 38.594,-34.749 			"/>
		</g>
		<g>
			<polygon fill="#FFFF00" stroke="#F7931E" stroke-width="4" stroke-linejoin="round" stroke-miterlimit="10" points="
				130.879,-131.251 112.551,-99.5 112.551,-99.5 149.174,-99.5 149.174,-99.5 130.879,-131.251 			"/>
			<polygon fill="#FFFF00" stroke="#F7931E" stroke-width="4" stroke-linejoin="round" stroke-miterlimit="10" points="
				167.479,-131.251 149.15,-99.5 149.15,-99.5 185.773,-99.5 185.773,-99.5 167.479,-131.251 			"/>
			<polygon fill="#FFFF00" stroke="#F7931E" stroke-width="4" stroke-linejoin="round" stroke-miterlimit="10" points="
				149.18,-99.251 130.851,-67.5 130.851,-67.5 167.474,-67.5 167.474,-67.5 149.18,-99.251 			"/>
			<polygon fill="#FFFF00" stroke="#F7931E" stroke-width="4" stroke-linejoin="round" stroke-miterlimit="10" points="
				167.445,-67.748 185.773,-99.5 185.773,-99.5 149.15,-99.5 149.15,-99.5 167.445,-67.748 			"/>
			<polygon fill="#FFFF00" stroke="#F7931E" stroke-width="4" stroke-linejoin="round" stroke-miterlimit="10" points="
				130.845,-67.748 149.174,-99.5 149.174,-99.5 112.551,-99.5 112.551,-99.5 130.845,-67.748 			"/>
			<polygon fill="#FFFF00" stroke="#F7931E" stroke-width="4" stroke-linejoin="round" stroke-miterlimit="10" points="
				149.145,-99.749 167.474,-131.5 167.474,-131.5 130.851,-131.5 130.851,-131.5 149.145,-99.749 			"/>
		</g>
		<g>
			<polygon fill="#FFFF00" stroke="#F7931E" stroke-width="4" stroke-linejoin="round" stroke-miterlimit="10" points="
				75.604,-98.751 57.275,-67 57.275,-67 93.898,-67 93.898,-67 75.604,-98.751 			"/>
			<polygon fill="#FFFF00" stroke="#F7931E" stroke-width="4" stroke-linejoin="round" stroke-miterlimit="10" points="
				112.204,-98.751 93.875,-67 93.875,-67 130.498,-67 130.498,-67 112.204,-98.751 			"/>
			<polygon fill="#FFFF00" stroke="#F7931E" stroke-width="4" stroke-linejoin="round" stroke-miterlimit="10" points="
				93.904,-66.751 75.575,-35 75.575,-35 112.198,-35 112.198,-35 93.904,-66.751 			"/>
			<polygon fill="#FFFF00" stroke="#F7931E" stroke-width="4" stroke-linejoin="round" stroke-miterlimit="10" points="
				112.17,-35.248 130.498,-67 130.498,-67 93.875,-67 93.875,-67 112.17,-35.248 			"/>
			<polygon fill="#FFFF00" stroke="#F7931E" stroke-width="4" stroke-linejoin="round" stroke-miterlimit="10" points="
				75.569,-35.248 93.898,-67 93.898,-67 57.275,-67 57.275,-67 75.569,-35.248 			"/>
			<polygon fill="#FFFF00" stroke="#F7931E" stroke-width="4" stroke-linejoin="round" stroke-miterlimit="10" points="
				93.869,-67.249 112.198,-99 112.198,-99 75.575,-99 75.575,-99 93.869,-67.249 			"/>
		</g>
		<g>
			<polygon fill="#FFFF00" stroke="#F7931E" stroke-width="4" stroke-linejoin="round" stroke-miterlimit="10" points="
				20.328,-131.251 2,-99.5 2,-99.5 38.623,-99.5 38.623,-99.5 20.328,-131.251 			"/>
			<polygon fill="#FFFF00" stroke="#F7931E" stroke-width="4" stroke-linejoin="round" stroke-miterlimit="10" points="
				56.929,-131.251 38.6,-99.5 38.6,-99.5 75.223,-99.5 75.223,-99.5 56.929,-131.251 			"/>
			<polygon fill="#FFFF00" stroke="#F7931E" stroke-width="4" stroke-linejoin="round" stroke-miterlimit="10" points="
				38.629,-99.251 20.3,-67.5 20.3,-67.5 56.923,-67.5 56.923,-67.5 38.629,-99.251 			"/>
			<polygon fill="#FFFF00" stroke="#F7931E" stroke-width="4" stroke-linejoin="round" stroke-miterlimit="10" points="
				56.895,-67.748 75.223,-99.5 75.223,-99.5 38.6,-99.5 38.6,-99.5 56.895,-67.748 			"/>
			<polygon fill="#FFFF00" stroke="#F7931E" stroke-width="4" stroke-linejoin="round" stroke-miterlimit="10" points="
				20.294,-67.748 38.623,-99.5 38.623,-99.5 2,-99.5 2,-99.5 20.294,-67.748 			"/>
			<polygon fill="#FFFF00" stroke="#F7931E" stroke-width="4" stroke-linejoin="round" stroke-miterlimit="10" points="
				38.594,-99.749 56.923,-131.5 56.923,-131.5 20.3,-131.5 20.3,-131.5 38.594,-99.749 			"/>
		</g>
		<g>
			<polygon fill="#FFFF00" stroke="#F7931E" stroke-width="4" stroke-linejoin="round" stroke-miterlimit="10" points="
				93.904,-131.751 75.575,-100 75.575,-100 112.198,-100 112.198,-100 93.904,-131.751 			"/>
			<polygon fill="#FFFF00" stroke="#F7931E" stroke-width="4" stroke-linejoin="round" stroke-miterlimit="10" points="
				112.17,-100.248 130.498,-132 130.498,-132 93.875,-132 93.875,-132 112.17,-100.248 			"/>
			<polygon fill="#FFFF00" stroke="#F7931E" stroke-width="4" stroke-linejoin="round" stroke-miterlimit="10" points="
				75.569,-100.248 93.898,-132 93.898,-132 57.275,-132 57.275,-132 75.569,-100.248 			"/>
		</g>
	</g>
</pattern>
<pattern  width="110.551" height="65" patternUnits="userSpaceOnUse" id="New_Pattern_15" viewBox="38.611 -99.5 110.551 65" overflow="visible">
	<g>
		<polygon fill="none" points="38.611,-99.5 149.162,-99.5 149.162,-34.5 38.611,-34.5 		"/>
		<g>
			<polygon fill="#FFFFBE" stroke="#FFFF00" stroke-width="4" stroke-linejoin="round" stroke-miterlimit="10" points="
				130.879,-66.251 112.551,-34.5 112.551,-34.5 149.174,-34.5 149.174,-34.5 130.879,-66.251 			"/>
			<polygon fill="#FFFFBE" stroke="#FFFF00" stroke-width="4" stroke-linejoin="round" stroke-miterlimit="10" points="
				167.479,-66.251 149.15,-34.5 149.15,-34.5 185.773,-34.5 185.773,-34.5 167.479,-66.251 			"/>
			<polygon fill="#FFFFBE" stroke="#FFFF00" stroke-width="4" stroke-linejoin="round" stroke-miterlimit="10" points="
				149.18,-34.251 130.851,-2.5 130.851,-2.5 167.474,-2.5 167.474,-2.5 149.18,-34.251 			"/>
			<polygon fill="#FFFFBE" stroke="#FFFF00" stroke-width="4" stroke-linejoin="round" stroke-miterlimit="10" points="
				167.445,-2.748 185.773,-34.5 185.773,-34.5 149.15,-34.5 149.15,-34.5 167.445,-2.748 			"/>
			<polygon fill="#FFFFBE" stroke="#FFFF00" stroke-width="4" stroke-linejoin="round" stroke-miterlimit="10" points="
				130.845,-2.748 149.174,-34.5 149.174,-34.5 112.551,-34.5 112.551,-34.5 130.845,-2.748 			"/>
			<polygon fill="#FFFFBE" stroke="#FFFF00" stroke-width="4" stroke-linejoin="round" stroke-miterlimit="10" points="
				149.145,-34.749 167.474,-66.5 167.474,-66.5 130.851,-66.5 130.851,-66.5 149.145,-34.749 			"/>
		</g>
		<g>
			<polygon fill="#FFFFBE" stroke="#FFFF00" stroke-width="4" stroke-linejoin="round" stroke-miterlimit="10" points="
				75.604,-33.751 57.275,-2 57.275,-2 93.898,-2 93.898,-2 75.604,-33.751 			"/>
			<polygon fill="#FFFFBE" stroke="#FFFF00" stroke-width="4" stroke-linejoin="round" stroke-miterlimit="10" points="
				112.204,-33.751 93.875,-2 93.875,-2 130.498,-2 130.498,-2 112.204,-33.751 			"/>
			<polygon fill="#FFFFBE" stroke="#FFFF00" stroke-width="4" stroke-linejoin="round" stroke-miterlimit="10" points="
				93.869,-2.249 112.198,-34 112.198,-34 75.575,-34 75.575,-34 93.869,-2.249 			"/>
		</g>
		<g>
			<polygon fill="#FFFFBE" stroke="#FFFF00" stroke-width="4" stroke-linejoin="round" stroke-miterlimit="10" points="
				20.328,-66.251 2,-34.5 2,-34.5 38.623,-34.5 38.623,-34.5 20.328,-66.251 			"/>
			<polygon fill="#FFFFBE" stroke="#FFFF00" stroke-width="4" stroke-linejoin="round" stroke-miterlimit="10" points="
				56.929,-66.251 38.6,-34.5 38.6,-34.5 75.223,-34.5 75.223,-34.5 56.929,-66.251 			"/>
			<polygon fill="#FFFFBE" stroke="#FFFF00" stroke-width="4" stroke-linejoin="round" stroke-miterlimit="10" points="
				38.629,-34.251 20.3,-2.5 20.3,-2.5 56.923,-2.5 56.923,-2.5 38.629,-34.251 			"/>
			<polygon fill="#FFFFBE" stroke="#FFFF00" stroke-width="4" stroke-linejoin="round" stroke-miterlimit="10" points="
				56.895,-2.748 75.223,-34.5 75.223,-34.5 38.6,-34.5 38.6,-34.5 56.895,-2.748 			"/>
			<polygon fill="#FFFFBE" stroke="#FFFF00" stroke-width="4" stroke-linejoin="round" stroke-miterlimit="10" points="
				20.294,-2.748 38.623,-34.5 38.623,-34.5 2,-34.5 2,-34.5 20.294,-2.748 			"/>
			<polygon fill="#FFFFBE" stroke="#FFFF00" stroke-width="4" stroke-linejoin="round" stroke-miterlimit="10" points="
				38.594,-34.749 56.923,-66.5 56.923,-66.5 20.3,-66.5 20.3,-66.5 38.594,-34.749 			"/>
		</g>
		<g>
			<polygon fill="#FFFFBE" stroke="#FFFF00" stroke-width="4" stroke-linejoin="round" stroke-miterlimit="10" points="
				130.879,-131.251 112.551,-99.5 112.551,-99.5 149.174,-99.5 149.174,-99.5 130.879,-131.251 			"/>
			<polygon fill="#FFFFBE" stroke="#FFFF00" stroke-width="4" stroke-linejoin="round" stroke-miterlimit="10" points="
				167.479,-131.251 149.15,-99.5 149.15,-99.5 185.773,-99.5 185.773,-99.5 167.479,-131.251 			"/>
			<polygon fill="#FFFFBE" stroke="#FFFF00" stroke-width="4" stroke-linejoin="round" stroke-miterlimit="10" points="
				149.18,-99.251 130.851,-67.5 130.851,-67.5 167.474,-67.5 167.474,-67.5 149.18,-99.251 			"/>
			<polygon fill="#FFFFBE" stroke="#FFFF00" stroke-width="4" stroke-linejoin="round" stroke-miterlimit="10" points="
				167.445,-67.748 185.773,-99.5 185.773,-99.5 149.15,-99.5 149.15,-99.5 167.445,-67.748 			"/>
			<polygon fill="#FFFFBE" stroke="#FFFF00" stroke-width="4" stroke-linejoin="round" stroke-miterlimit="10" points="
				130.845,-67.748 149.174,-99.5 149.174,-99.5 112.551,-99.5 112.551,-99.5 130.845,-67.748 			"/>
			<polygon fill="#FFFFBE" stroke="#FFFF00" stroke-width="4" stroke-linejoin="round" stroke-miterlimit="10" points="
				149.145,-99.749 167.474,-131.5 167.474,-131.5 130.851,-131.5 130.851,-131.5 149.145,-99.749 			"/>
		</g>
		<g>
			<polygon fill="#FFFFBE" stroke="#FFFF00" stroke-width="4" stroke-linejoin="round" stroke-miterlimit="10" points="
				75.604,-98.751 57.275,-67 57.275,-67 93.898,-67 93.898,-67 75.604,-98.751 			"/>
			<polygon fill="#FFFFBE" stroke="#FFFF00" stroke-width="4" stroke-linejoin="round" stroke-miterlimit="10" points="
				112.204,-98.751 93.875,-67 93.875,-67 130.498,-67 130.498,-67 112.204,-98.751 			"/>
			<polygon fill="#FFFFBE" stroke="#FFFF00" stroke-width="4" stroke-linejoin="round" stroke-miterlimit="10" points="
				93.904,-66.751 75.575,-35 75.575,-35 112.198,-35 112.198,-35 93.904,-66.751 			"/>
			<polygon fill="#FFFFBE" stroke="#FFFF00" stroke-width="4" stroke-linejoin="round" stroke-miterlimit="10" points="
				112.17,-35.248 130.498,-67 130.498,-67 93.875,-67 93.875,-67 112.17,-35.248 			"/>
			<polygon fill="#FFFFBE" stroke="#FFFF00" stroke-width="4" stroke-linejoin="round" stroke-miterlimit="10" points="
				75.569,-35.248 93.898,-67 93.898,-67 57.275,-67 57.275,-67 75.569,-35.248 			"/>
			<polygon fill="#FFFFBE" stroke="#FFFF00" stroke-width="4" stroke-linejoin="round" stroke-miterlimit="10" points="
				93.869,-67.249 112.198,-99 112.198,-99 75.575,-99 75.575,-99 93.869,-67.249 			"/>
		</g>
		<g>
			<polygon fill="#FFFFBE" stroke="#FFFF00" stroke-width="4" stroke-linejoin="round" stroke-miterlimit="10" points="
				20.328,-131.251 2,-99.5 2,-99.5 38.623,-99.5 38.623,-99.5 20.328,-131.251 			"/>
			<polygon fill="#FFFFBE" stroke="#FFFF00" stroke-width="4" stroke-linejoin="round" stroke-miterlimit="10" points="
				56.929,-131.251 38.6,-99.5 38.6,-99.5 75.223,-99.5 75.223,-99.5 56.929,-131.251 			"/>
			<polygon fill="#FFFFBE" stroke="#FFFF00" stroke-width="4" stroke-linejoin="round" stroke-miterlimit="10" points="
				38.629,-99.251 20.3,-67.5 20.3,-67.5 56.923,-67.5 56.923,-67.5 38.629,-99.251 			"/>
			<polygon fill="#FFFFBE" stroke="#FFFF00" stroke-width="4" stroke-linejoin="round" stroke-miterlimit="10" points="
				56.895,-67.748 75.223,-99.5 75.223,-99.5 38.6,-99.5 38.6,-99.5 56.895,-67.748 			"/>
			<polygon fill="#FFFFBE" stroke="#FFFF00" stroke-width="4" stroke-linejoin="round" stroke-miterlimit="10" points="
				20.294,-67.748 38.623,-99.5 38.623,-99.5 2,-99.5 2,-99.5 20.294,-67.748 			"/>
			<polygon fill="#FFFFBE" stroke="#FFFF00" stroke-width="4" stroke-linejoin="round" stroke-miterlimit="10" points="
				38.594,-99.749 56.923,-131.5 56.923,-131.5 20.3,-131.5 20.3,-131.5 38.594,-99.749 			"/>
		</g>
		<g>
			<polygon fill="#FFFFBE" stroke="#FFFF00" stroke-width="4" stroke-linejoin="round" stroke-miterlimit="10" points="
				93.904,-131.751 75.575,-100 75.575,-100 112.198,-100 112.198,-100 93.904,-131.751 			"/>
			<polygon fill="#FFFFBE" stroke="#FFFF00" stroke-width="4" stroke-linejoin="round" stroke-miterlimit="10" points="
				112.17,-100.248 130.498,-132 130.498,-132 93.875,-132 93.875,-132 112.17,-100.248 			"/>
			<polygon fill="#FFFFBE" stroke="#FFFF00" stroke-width="4" stroke-linejoin="round" stroke-miterlimit="10" points="
				75.569,-100.248 93.898,-132 93.898,-132 57.275,-132 57.275,-132 75.569,-100.248 			"/>
		</g>
	</g>
</pattern>
<pattern  width="110.551" height="65" patternUnits="userSpaceOnUse" id="New_Pattern_6" viewBox="38.611 -99.5 110.551 65" overflow="visible">
	<g>
		<polygon fill="none" points="38.611,-99.5 149.162,-99.5 149.162,-34.5 38.611,-34.5 		"/>
		<g>
			
				<polygon fill="#333333" stroke="#000000" stroke-width="4" stroke-linecap="round" stroke-linejoin="round" stroke-miterlimit="10" points="
				130.879,-66.251 112.551,-34.5 112.551,-34.5 149.173,-34.5 149.173,-34.5 130.879,-66.251 			"/>
			
				<polygon fill="#333333" stroke="#000000" stroke-width="4" stroke-linecap="round" stroke-linejoin="round" stroke-miterlimit="10" points="
				167.479,-66.251 149.151,-34.5 149.151,-34.5 185.773,-34.5 185.773,-34.5 167.479,-66.251 			"/>
			
				<polygon fill="#333333" stroke="#000000" stroke-width="4" stroke-linecap="round" stroke-linejoin="round" stroke-miterlimit="10" points="
				149.179,-34.251 130.851,-2.5 130.851,-2.5 167.474,-2.5 167.474,-2.5 149.179,-34.251 			"/>
			
				<polygon fill="#333333" stroke="#000000" stroke-width="4" stroke-linecap="round" stroke-linejoin="round" stroke-miterlimit="10" points="
				167.445,-2.748 185.773,-34.5 185.773,-34.5 149.151,-34.5 149.151,-34.5 167.445,-2.748 			"/>
			
				<polygon fill="#333333" stroke="#000000" stroke-width="4" stroke-linecap="round" stroke-linejoin="round" stroke-miterlimit="10" points="
				130.845,-2.748 149.173,-34.5 149.173,-34.5 112.551,-34.5 112.551,-34.5 130.845,-2.748 			"/>
			
				<polygon fill="#333333" stroke="#000000" stroke-width="4" stroke-linecap="round" stroke-linejoin="round" stroke-miterlimit="10" points="
				149.145,-34.749 167.474,-66.5 167.474,-66.5 130.851,-66.5 130.851,-66.5 149.145,-34.749 			"/>
		</g>
		<g>
			
				<polygon fill="#333333" stroke="#000000" stroke-width="4" stroke-linecap="round" stroke-linejoin="round" stroke-miterlimit="10" points="
				75.604,-33.751 57.275,-2 57.275,-2 93.898,-2 93.898,-2 75.604,-33.751 			"/>
			
				<polygon fill="#333333" stroke="#000000" stroke-width="4" stroke-linecap="round" stroke-linejoin="round" stroke-miterlimit="10" points="
				112.204,-33.751 93.875,-2 93.875,-2 130.498,-2 130.498,-2 112.204,-33.751 			"/>
			
				<polygon fill="#333333" stroke="#000000" stroke-width="4" stroke-linecap="round" stroke-linejoin="round" stroke-miterlimit="10" points="
				93.87,-2.249 112.198,-34 112.198,-34 75.575,-34 75.575,-34 93.87,-2.249 			"/>
		</g>
		<g>
			
				<polygon fill="#333333" stroke="#000000" stroke-width="4" stroke-linecap="round" stroke-linejoin="round" stroke-miterlimit="10" points="
				20.329,-66.251 2,-34.5 2,-34.5 38.623,-34.5 38.623,-34.5 20.329,-66.251 			"/>
			
				<polygon fill="#333333" stroke="#000000" stroke-width="4" stroke-linecap="round" stroke-linejoin="round" stroke-miterlimit="10" points="
				56.929,-66.251 38.6,-34.5 38.6,-34.5 75.223,-34.5 75.223,-34.5 56.929,-66.251 			"/>
			
				<polygon fill="#333333" stroke="#000000" stroke-width="4" stroke-linecap="round" stroke-linejoin="round" stroke-miterlimit="10" points="
				38.628,-34.251 20.3,-2.5 20.3,-2.5 56.923,-2.5 56.923,-2.5 38.628,-34.251 			"/>
			
				<polygon fill="#333333" stroke="#000000" stroke-width="4" stroke-linecap="round" stroke-linejoin="round" stroke-miterlimit="10" points="
				56.894,-2.748 75.223,-34.5 75.223,-34.5 38.6,-34.5 38.6,-34.5 56.894,-2.748 			"/>
			
				<polygon fill="#333333" stroke="#000000" stroke-width="4" stroke-linecap="round" stroke-linejoin="round" stroke-miterlimit="10" points="
				20.294,-2.748 38.623,-34.5 38.623,-34.5 2,-34.5 2,-34.5 20.294,-2.748 			"/>
			
				<polygon fill="#333333" stroke="#000000" stroke-width="4" stroke-linecap="round" stroke-linejoin="round" stroke-miterlimit="10" points="
				38.594,-34.749 56.923,-66.5 56.923,-66.5 20.3,-66.5 20.3,-66.5 38.594,-34.749 			"/>
		</g>
		<g>
			
				<polygon fill="#333333" stroke="#000000" stroke-width="4" stroke-linecap="round" stroke-linejoin="round" stroke-miterlimit="10" points="
				130.879,-131.251 112.551,-99.5 112.551,-99.5 149.173,-99.5 149.173,-99.5 130.879,-131.251 			"/>
			
				<polygon fill="#333333" stroke="#000000" stroke-width="4" stroke-linecap="round" stroke-linejoin="round" stroke-miterlimit="10" points="
				167.479,-131.251 149.151,-99.5 149.151,-99.5 185.773,-99.5 185.773,-99.5 167.479,-131.251 			"/>
			
				<polygon fill="#333333" stroke="#000000" stroke-width="4" stroke-linecap="round" stroke-linejoin="round" stroke-miterlimit="10" points="
				149.179,-99.251 130.851,-67.5 130.851,-67.5 167.474,-67.5 167.474,-67.5 149.179,-99.251 			"/>
			
				<polygon fill="#333333" stroke="#000000" stroke-width="4" stroke-linecap="round" stroke-linejoin="round" stroke-miterlimit="10" points="
				167.445,-67.748 185.773,-99.5 185.773,-99.5 149.151,-99.5 149.151,-99.5 167.445,-67.748 			"/>
			
				<polygon fill="#333333" stroke="#000000" stroke-width="4" stroke-linecap="round" stroke-linejoin="round" stroke-miterlimit="10" points="
				130.845,-67.748 149.173,-99.5 149.173,-99.5 112.551,-99.5 112.551,-99.5 130.845,-67.748 			"/>
			
				<polygon fill="#333333" stroke="#000000" stroke-width="4" stroke-linecap="round" stroke-linejoin="round" stroke-miterlimit="10" points="
				149.145,-99.749 167.474,-131.5 167.474,-131.5 130.851,-131.5 130.851,-131.5 149.145,-99.749 			"/>
		</g>
		<g>
			
				<polygon fill="#333333" stroke="#000000" stroke-width="4" stroke-linecap="round" stroke-linejoin="round" stroke-miterlimit="10" points="
				75.604,-98.751 57.275,-67 57.275,-67 93.898,-67 93.898,-67 75.604,-98.751 			"/>
			
				<polygon fill="#333333" stroke="#000000" stroke-width="4" stroke-linecap="round" stroke-linejoin="round" stroke-miterlimit="10" points="
				112.204,-98.751 93.875,-67 93.875,-67 130.498,-67 130.498,-67 112.204,-98.751 			"/>
			
				<polygon fill="#333333" stroke="#000000" stroke-width="4" stroke-linecap="round" stroke-linejoin="round" stroke-miterlimit="10" points="
				93.904,-66.751 75.575,-35 75.575,-35 112.198,-35 112.198,-35 93.904,-66.751 			"/>
			
				<polygon fill="#333333" stroke="#000000" stroke-width="4" stroke-linecap="round" stroke-linejoin="round" stroke-miterlimit="10" points="
				112.169,-35.248 130.498,-67 130.498,-67 93.875,-67 93.875,-67 112.169,-35.248 			"/>
			
				<polygon fill="#333333" stroke="#000000" stroke-width="4" stroke-linecap="round" stroke-linejoin="round" stroke-miterlimit="10" points="
				75.569,-35.248 93.898,-67 93.898,-67 57.275,-67 57.275,-67 75.569,-35.248 			"/>
			
				<polygon fill="#333333" stroke="#000000" stroke-width="4" stroke-linecap="round" stroke-linejoin="round" stroke-miterlimit="10" points="
				93.87,-67.249 112.198,-99 112.198,-99 75.575,-99 75.575,-99 93.87,-67.249 			"/>
		</g>
		<g>
			
				<polygon fill="#333333" stroke="#000000" stroke-width="4" stroke-linecap="round" stroke-linejoin="round" stroke-miterlimit="10" points="
				20.329,-131.251 2,-99.5 2,-99.5 38.623,-99.5 38.623,-99.5 20.329,-131.251 			"/>
			
				<polygon fill="#333333" stroke="#000000" stroke-width="4" stroke-linecap="round" stroke-linejoin="round" stroke-miterlimit="10" points="
				56.929,-131.251 38.6,-99.5 38.6,-99.5 75.223,-99.5 75.223,-99.5 56.929,-131.251 			"/>
			
				<polygon fill="#333333" stroke="#000000" stroke-width="4" stroke-linecap="round" stroke-linejoin="round" stroke-miterlimit="10" points="
				38.628,-99.251 20.3,-67.5 20.3,-67.5 56.923,-67.5 56.923,-67.5 38.628,-99.251 			"/>
			
				<polygon fill="#333333" stroke="#000000" stroke-width="4" stroke-linecap="round" stroke-linejoin="round" stroke-miterlimit="10" points="
				56.894,-67.748 75.223,-99.5 75.223,-99.5 38.6,-99.5 38.6,-99.5 56.894,-67.748 			"/>
			
				<polygon fill="#333333" stroke="#000000" stroke-width="4" stroke-linecap="round" stroke-linejoin="round" stroke-miterlimit="10" points="
				20.294,-67.748 38.623,-99.5 38.623,-99.5 2,-99.5 2,-99.5 20.294,-67.748 			"/>
			
				<polygon fill="#333333" stroke="#000000" stroke-width="4" stroke-linecap="round" stroke-linejoin="round" stroke-miterlimit="10" points="
				38.594,-99.749 56.923,-131.5 56.923,-131.5 20.3,-131.5 20.3,-131.5 38.594,-99.749 			"/>
		</g>
		<g>
			
				<polygon fill="#333333" stroke="#000000" stroke-width="4" stroke-linecap="round" stroke-linejoin="round" stroke-miterlimit="10" points="
				93.904,-131.751 75.575,-100 75.575,-100 112.198,-100 112.198,-100 93.904,-131.751 			"/>
			
				<polygon fill="#333333" stroke="#000000" stroke-width="4" stroke-linecap="round" stroke-linejoin="round" stroke-miterlimit="10" points="
				112.169,-100.248 130.498,-132 130.498,-132 93.875,-132 93.875,-132 112.169,-100.248 			"/>
			
				<polygon fill="#333333" stroke="#000000" stroke-width="4" stroke-linecap="round" stroke-linejoin="round" stroke-miterlimit="10" points="
				75.569,-100.248 93.898,-132 93.898,-132 57.275,-132 57.275,-132 75.569,-100.248 			"/>
		</g>
	</g>
</pattern>
<path fill="#FFFF00" stroke="url(#New_Pattern_15)" stroke-miterlimit="10" d="M516.984,461.808"/>
<path fill="#FFFF00" stroke="url(#New_Pattern_15)" stroke-miterlimit="10" d="M516.984,461.808"/>
<path fill="#FFFF00" stroke="url(#New_Pattern_15)" stroke-miterlimit="10" d="M507.016,461.808"/>
<path fill="url(#New_Pattern_14)" d="M313.693,363.1c3.343-1.8,5.579-1.361,7.602,1.981c61.833-9.393,120.885,51.641,126.139,62.953
	c5.253,11.312,28.571,94.22,61.549,113.231c32.978,19.01,48.141,15.165,78.176,18.465c31.038,3.407,115.341,23.235,115.341,23.235
	l61.699,14.507c0,0,67.497,11.358,102.069,17.941c29.822,11.487,61.072,6.008,71.857,22.941
	c-0.847,12.065-0.847,12.065,0.085,22.278c-11.15,4.566-61.749-27.404-172.572-37.257c-88.082-20.66-169.942-47.599-207.037-52.371
	s-45.179-18.59-66.214-29.23c-21.036-10.643-40.261-34.31-52.448-48.045s-25.555-30.339-51.3-51.754
	c24.407,28.181,29.884,58.728,29.884,58.728s4.489,64.34-26.255,85.23c-26.146,17.765-45.438,33.453-150.197,31.84
	c-84.081-1.292-129.727-47.304-145.427-64.666c-14.363-17.813-9.435-40.391-9.435-40.391s25.362-3.471,33.41-1.491
	c8.049,1.979,71.008,56.933,102.075,62.175c17.582,2.967,120.86,6.466,141.612,1.247c20.752-5.215,34.246-39.663,27.062-49.239
	c-12.733-16.976-96.393-92.104-96.047-118.46c0.203-15.426-5.837-7.795-5.862-14.272c-0.024-6.478,4.391-4.975,3.771-6.939
	C288.935,372.127,310.35,364.898,313.693,363.1z"/>
<g>
	<defs>
		<circle id="SVGID_1_" cx="512" cy="512" r="168.75"/>
	</defs>
	<clipPath id="SVGID_2_">
		<use xlink:href="#SVGID_1_"  overflow="visible"/>
	</clipPath>
	<path clip-path="url(#SVGID_2_)" fill="url(#New_Pattern_15)" d="M313.668,363.094c3.343-1.8,5.579-1.361,7.602,1.981
		c61.833-9.393,120.885,51.641,126.139,62.953c5.253,11.312,28.571,94.22,61.549,113.231c32.978,19.01,48.141,15.165,78.176,18.465
		c31.038,3.407,115.341,23.235,115.341,23.235l61.699,14.507c0,0,67.497,11.358,102.069,17.941
		c29.822,11.487,61.072,6.008,71.857,22.941c-0.847,12.065-0.847,12.065,0.085,22.278c-11.15,4.566-61.749-27.404-172.572-37.257
		c-88.082-20.66-169.942-47.599-207.037-52.371s-45.179-18.59-66.214-29.23c-21.036-10.643-40.261-34.31-52.448-48.045
		s-25.555-30.339-51.3-51.754c24.407,28.181,29.884,58.728,29.884,58.728s4.489,64.34-26.255,85.23
		c-26.146,17.765-45.438,33.453-150.197,31.84c-84.081-1.292-129.727-47.304-145.427-64.666
		c-14.363-17.813-9.435-40.391-9.435-40.391s25.362-3.471,33.41-1.491c8.049,1.979,71.008,56.933,102.075,62.175
		c17.582,2.967,120.86,6.466,141.612,1.247c20.752-5.215,34.246-39.663,27.062-49.239c-12.733-16.976-96.393-92.104-96.047-118.46
		c0.203-15.426-5.837-7.795-5.862-14.272c-0.024-6.478,4.391-4.975,3.771-6.939C288.91,372.121,310.325,364.893,313.668,363.094z"/>
</g>
<path fill="url(#New_Pattern_12)" d="M99.638,556.358c0,0,47.252,53.29,114.979,59.308c28.934,2.569,86.857,4.45,115.419-2.807
	c28.562-7.255,52.02-17.739,66.843-30.623c17.81-15.479,20.027-46.633,20.027-46.633s10.994-59.959-28.267-93.629
	c42.757,37.045,55.011,59.641,72.526,75.237c18.855,16.788,43.22,31.629,43.22,31.629s24.729,18.703,64.771,23.875
	c-49.85,0.226-67.739-5.514-88.858-22.411c-46.234-36.99-63.213-75.251-63.213-75.251s13.958,28.983,14.931,49.976
	c0.974,20.99-2.059,46.019-17.194,59.925c-15.135,13.904-52.136,33.699-52.136,33.699l-3.097,8.054l-85.74,7.474l-9.541-4.431
	c0,0-49.417,6.442-91.476-11.266C130.775,600.774,99.638,556.358,99.638,556.358z"/>
<path fill="url(#New_Pattern_12)" d="M99.613,556.353c0,0,47.252,53.29,114.979,59.308c28.934,2.569,86.857,4.45,115.419-2.807
	c28.562-7.255,52.02-17.739,66.843-30.623c17.81-15.479,20.027-46.633,20.027-46.633s10.994-59.959-28.267-93.629
	c42.757,37.045,55.011,59.641,72.526,75.237c18.855,16.788,43.22,31.629,43.22,31.629s24.729,18.703,64.771,23.875
	c-49.85,0.226-67.739-5.514-88.858-22.411c-46.234-36.99-63.213-75.251-63.213-75.251s13.958,28.983,14.931,49.976
	c0.974,20.99-2.059,46.019-17.194,59.925c-15.135,13.904-52.136,33.699-52.136,33.699l-3.097,8.054l-85.74,7.474l-9.541-4.431
	c0,0-49.417,6.442-91.476-11.266C130.75,600.769,99.613,556.353,99.613,556.353z"/>
<g>
	<defs>
		<circle id="SVGID_3_" cx="512" cy="512" r="168.75"/>
	</defs>
	<clipPath id="SVGID_4_">
		<use xlink:href="#SVGID_3_"  overflow="visible"/>
	</clipPath>
	<path clip-path="url(#SVGID_4_)" fill="url(#New_Pattern_6)" d="M99.588,556.347c0,0,47.252,53.29,114.979,59.308
		c28.934,2.569,86.856,4.45,115.418-2.807c28.563-7.255,52.02-17.739,66.844-30.623c17.81-15.479,20.027-46.633,20.027-46.633
		s10.994-59.959-28.267-93.629c42.757,37.045,55.011,59.641,72.526,75.237c18.855,16.788,43.22,31.629,43.22,31.629
		s24.729,18.703,64.771,23.875c-49.85,0.226-67.739-5.514-88.858-22.411c-46.233-36.99-63.213-75.251-63.213-75.251
		s13.959,28.983,14.932,49.976c0.974,20.99-2.059,46.019-17.193,59.925c-15.135,13.904-52.137,33.699-52.137,33.699l-3.098,8.054
		l-85.74,7.474l-9.54-4.431c0,0-49.417,6.442-91.476-11.266C130.725,600.763,99.588,556.347,99.588,556.347z"/>
</g>
<circle fill="none" cx="512" cy="512" r="168.75"/>
<path fill="url(#New_Pattern_6)" d="M448.624,428.029c0,0,22.362,7.063,50.625,38.672c28.264,31.609,5.571,55.371-4.681,61.217
	C475.312,515.483,448.624,428.029,448.624,428.029z"/>
<path fill="url(#New_Pattern_14)" d="M236.382,530.837l-2.42-9.522l33.309-12.038c0,0,4.135-8.949,25.57-10.818
	c21.436-1.869,79.853,10.417,79.853,10.417s14.933,11.259,19.728,18.983c4.795,7.726-5.259,26.822-5.259,26.822l-105.499-19.848
	L236.382,530.837z"/>
<g>
	<defs>
		<circle id="SVGID_5_" cx="512" cy="512" r="168.75"/>
	</defs>
	<clipPath id="SVGID_6_">
		<use xlink:href="#SVGID_5_"  overflow="visible"/>
	</clipPath>
	<path clip-path="url(#SVGID_6_)" fill="url(#New_Pattern_15)" d="M236.357,530.831l-2.42-9.522l33.309-12.038
		c0,0,4.135-8.949,25.57-10.818c21.436-1.869,79.853,10.417,79.853,10.417s14.933,11.259,19.728,18.983
		c4.795,7.726-5.259,26.822-5.259,26.822l-105.499-19.848L236.357,530.831z"/>
</g>
<path fill="url(#New_Pattern_15)" d="M544.977,548.127c0,0,40.409-23.979,50.464-43.077c7.933-15.068,46.773-38.949,80.835-44.383
	c-53.539,18.672-54.051,39.516-55.205,49.646c-1.153,10.131-25.443,43.576-25.443,43.576L544.977,548.127z"/>
<path fill="url(#New_Pattern_12)" d="M687.591,460.624c35.444,1.956,62.437,45.293,55.016,57.567
	c-22.2,36.719-58.521,39.536-65.392,33.607c5.904-13.723,2.304-20.859-11.442-33.315c-13.744-12.456-42.924-10.558-42.924-10.558
	s-3.622-13.089,12.413-25.063C651.298,470.887,663.179,459.279,687.591,460.624z"/>
<g>
	<defs>
		<circle id="SVGID_7_" cx="512" cy="512" r="168.75"/>
	</defs>
	<clipPath id="SVGID_8_">
		<use xlink:href="#SVGID_7_"  overflow="visible"/>
	</clipPath>
	<path clip-path="url(#SVGID_8_)" fill="url(#New_Pattern_6)" d="M687.565,460.617c35.444,1.956,62.437,45.293,55.016,57.567
		c-22.2,36.719-58.521,39.536-65.392,33.607c5.904-13.723,2.304-20.859-11.442-33.315c-13.744-12.455-42.924-10.559-42.924-10.559
		s-3.622-13.088,12.413-25.063C651.272,470.881,663.153,459.273,687.565,460.617z"/>
</g>
<path fill="url(#New_Pattern_6)" d="M553.58,598.721l18.565,6.63c0,0-4.066,7.462,1.149,8.705
	c5.215,1.244,16.303-0.062,16.303-0.062l20.508-11.316c0,0-4.917-1.468-5.376-4.149s24.975-10.371,24.975-10.371L579.397,574.5
	l-3.774,6.045l-10.26,3.243l-16.048,9.29L553.58,598.721z"/>
<path fill="url(#New_Pattern_14)" d="M603.092,559.525l13.026-20.003c0,0,9.522-2.419,21.74-0.083
	c12.219,2.334,27.732,9.424,27.732,9.424s19.683,7.37,34.856,3.738c15.175-3.631,26.765-10.524,40.973-32.914
	c-5.543,30.397-52.791,57.678-52.791,57.678L603.092,559.525z"/>
<g>
	<defs>
		<circle id="SVGID_9_" cx="512" cy="512" r="168.75"/>
	</defs>
	<clipPath id="SVGID_10_">
		<use xlink:href="#SVGID_9_"  overflow="visible"/>
	</clipPath>
	<path clip-path="url(#SVGID_10_)" fill="url(#New_Pattern_15)" d="M603.066,559.52l13.026-20.003c0,0,9.522-2.419,21.74-0.083
		c12.219,2.334,27.732,9.424,27.732,9.424s19.683,7.37,34.856,3.738c15.175-3.631,26.765-10.524,40.973-32.914
		c-5.543,30.397-52.791,57.678-52.791,57.678L603.066,559.52z"/>
</g>
<path fill="url(#New_Pattern_6)" d="M522.338,547.024c13.09-3.327,184.478,35.332,184.478,35.332s-132.626-26.894-148.706-25.939
	C542.031,557.372,528.903,550.869,522.338,547.024z"/>
<path fill="url(#New_Pattern_12)" d="M306.546,382.56l75.648,59.722c0,0-54.752-46.402-49.404-49.549
	c5.349-3.147,22.346,2.595,22.346,2.595l3.095-8.499l23.261,8.399c0,0,8.403,17.685,67.714,68.536
	c-34.117-30.656-27.864-44.118-44.175-66.389c-21.975-30.003-85.733-28.713-85.733-28.713s12.547,10.227,7.204,14.714
	c-5.344,4.488-22.81-8.249-22.81-8.249L306.546,382.56z"/>
<g>
	<defs>
		<circle id="SVGID_11_" cx="512" cy="512" r="168.75"/>
	</defs>
	<clipPath id="SVGID_12_">
		<use xlink:href="#SVGID_11_"  overflow="visible"/>
	</clipPath>
	<path clip-path="url(#SVGID_12_)" fill="url(#New_Pattern_6)" d="M306.521,382.554l75.648,59.722c0,0-54.752-46.402-49.404-49.549
		c5.349-3.147,22.346,2.595,22.346,2.595l3.095-8.499l23.261,8.399c0,0,8.403,17.685,67.714,68.536
		c-34.117-30.656-27.864-44.118-44.175-66.389c-21.975-30.003-85.733-28.713-85.733-28.713s12.547,10.227,7.204,14.714
		c-5.344,4.488-22.81-8.249-22.81-8.249L306.521,382.554z"/>
</g>
<polygon points="565.825,549.839 595.168,513.097 570.593,550.416 "/>
<path fill="url(#New_Pattern_12)" d="M268.106,533.246c39.731-6.035,121.417,14.878,121.417,14.878l-2.361,5.964
	C387.162,554.088,318.387,539.979,268.106,533.246z"/>
</svg>
