<?xml version="1.0" encoding="utf-8"?>
<!-- Generator: Adobe Illustrator 16.0.0, SVG Export Plug-In . SVG Version: 6.00 Build 0)  -->
<!DOCTYPE svg PUBLIC "-//W3C//DTD SVG 1.1//EN" "http://www.w3.org/Graphics/SVG/1.1/DTD/svg11.dtd">
<svg version="1.1" id="Layer_1" xmlns="http://www.w3.org/2000/svg" xmlns:xlink="http://www.w3.org/1999/xlink" x="0px" y="0px"
	 width="1024px" height="1024px" viewBox="0 0 1024 1024" enable-background="new 0 0 1024 1024" xml:space="preserve">
<pattern  width="110.551" height="65" patternUnits="userSpaceOnUse" id="New_Pattern_12" viewBox="38.611 -99.5 110.551 65" overflow="visible">
	<g>
		<polygon fill="none" points="38.611,-99.5 149.162,-99.5 149.162,-34.5 38.611,-34.5 		"/>
		<g>
			
				<polygon fill="#1A1A1A" stroke="#000000" stroke-width="4" stroke-linecap="round" stroke-linejoin="round" stroke-miterlimit="10" points="
				130.879,-66.251 112.551,-34.5 112.551,-34.5 149.173,-34.5 149.173,-34.5 130.879,-66.251 			"/>
			
				<polygon fill="#1A1A1A" stroke="#000000" stroke-width="4" stroke-linecap="round" stroke-linejoin="round" stroke-miterlimit="10" points="
				167.479,-66.251 149.151,-34.5 149.151,-34.5 185.773,-34.5 185.773,-34.5 167.479,-66.251 			"/>
			
				<polygon fill="#1A1A1A" stroke="#000000" stroke-width="4" stroke-linecap="round" stroke-linejoin="round" stroke-miterlimit="10" points="
				149.179,-34.251 130.851,-2.5 130.851,-2.5 167.474,-2.5 167.474,-2.5 149.179,-34.251 			"/>
			
				<polygon fill="#1A1A1A" stroke="#000000" stroke-width="4" stroke-linecap="round" stroke-linejoin="round" stroke-miterlimit="10" points="
				167.445,-2.748 185.773,-34.5 185.773,-34.5 149.151,-34.5 149.151,-34.5 167.445,-2.748 			"/>
			
				<polygon fill="#1A1A1A" stroke="#000000" stroke-width="4" stroke-linecap="round" stroke-linejoin="round" stroke-miterlimit="10" points="
				130.845,-2.748 149.173,-34.5 149.173,-34.5 112.551,-34.5 112.551,-34.5 130.845,-2.748 			"/>
			
				<polygon fill="#1A1A1A" stroke="#000000" stroke-width="4" stroke-linecap="round" stroke-linejoin="round" stroke-miterlimit="10" points="
				149.145,-34.749 167.474,-66.5 167.474,-66.5 130.851,-66.5 130.851,-66.5 149.145,-34.749 			"/>
		</g>
		<g>
			
				<polygon fill="#1A1A1A" stroke="#000000" stroke-width="4" stroke-linecap="round" stroke-linejoin="round" stroke-miterlimit="10" points="
				75.604,-33.751 57.275,-2 57.275,-2 93.898,-2 93.898,-2 75.604,-33.751 			"/>
			
				<polygon fill="#1A1A1A" stroke="#000000" stroke-width="4" stroke-linecap="round" stroke-linejoin="round" stroke-miterlimit="10" points="
				112.204,-33.751 93.875,-2 93.875,-2 130.498,-2 130.498,-2 112.204,-33.751 			"/>
			
				<polygon fill="#1A1A1A" stroke="#000000" stroke-width="4" stroke-linecap="round" stroke-linejoin="round" stroke-miterlimit="10" points="
				93.87,-2.249 112.198,-34 112.198,-34 75.575,-34 75.575,-34 93.87,-2.249 			"/>
		</g>
		<g>
			
				<polygon fill="#1A1A1A" stroke="#000000" stroke-width="4" stroke-linecap="round" stroke-linejoin="round" stroke-miterlimit="10" points="
				20.329,-66.251 2,-34.5 2,-34.5 38.623,-34.5 38.623,-34.5 20.329,-66.251 			"/>
			
				<polygon fill="#1A1A1A" stroke="#000000" stroke-width="4" stroke-linecap="round" stroke-linejoin="round" stroke-miterlimit="10" points="
				56.929,-66.251 38.6,-34.5 38.6,-34.5 75.223,-34.5 75.223,-34.5 56.929,-66.251 			"/>
			
				<polygon fill="#1A1A1A" stroke="#000000" stroke-width="4" stroke-linecap="round" stroke-linejoin="round" stroke-miterlimit="10" points="
				38.628,-34.251 20.3,-2.5 20.3,-2.5 56.923,-2.5 56.923,-2.5 38.628,-34.251 			"/>
			
				<polygon fill="#1A1A1A" stroke="#000000" stroke-width="4" stroke-linecap="round" stroke-linejoin="round" stroke-miterlimit="10" points="
				56.894,-2.748 75.223,-34.5 75.223,-34.5 38.6,-34.5 38.6,-34.5 56.894,-2.748 			"/>
			
				<polygon fill="#1A1A1A" stroke="#000000" stroke-width="4" stroke-linecap="round" stroke-linejoin="round" stroke-miterlimit="10" points="
				20.294,-2.748 38.623,-34.5 38.623,-34.5 2,-34.5 2,-34.5 20.294,-2.748 			"/>
			
				<polygon fill="#1A1A1A" stroke="#000000" stroke-width="4" stroke-linecap="round" stroke-linejoin="round" stroke-miterlimit="10" points="
				38.594,-34.749 56.923,-66.5 56.923,-66.5 20.3,-66.5 20.3,-66.5 38.594,-34.749 			"/>
		</g>
		<g>
			
				<polygon fill="#1A1A1A" stroke="#000000" stroke-width="4" stroke-linecap="round" stroke-linejoin="round" stroke-miterlimit="10" points="
				130.879,-131.251 112.551,-99.5 112.551,-99.5 149.173,-99.5 149.173,-99.5 130.879,-131.251 			"/>
			
				<polygon fill="#1A1A1A" stroke="#000000" stroke-width="4" stroke-linecap="round" stroke-linejoin="round" stroke-miterlimit="10" points="
				167.479,-131.251 149.151,-99.5 149.151,-99.5 185.773,-99.5 185.773,-99.5 167.479,-131.251 			"/>
			
				<polygon fill="#1A1A1A" stroke="#000000" stroke-width="4" stroke-linecap="round" stroke-linejoin="round" stroke-miterlimit="10" points="
				149.179,-99.251 130.851,-67.5 130.851,-67.5 167.474,-67.5 167.474,-67.5 149.179,-99.251 			"/>
			
				<polygon fill="#1A1A1A" stroke="#000000" stroke-width="4" stroke-linecap="round" stroke-linejoin="round" stroke-miterlimit="10" points="
				167.445,-67.748 185.773,-99.5 185.773,-99.5 149.151,-99.5 149.151,-99.5 167.445,-67.748 			"/>
			
				<polygon fill="#1A1A1A" stroke="#000000" stroke-width="4" stroke-linecap="round" stroke-linejoin="round" stroke-miterlimit="10" points="
				130.845,-67.748 149.173,-99.5 149.173,-99.5 112.551,-99.5 112.551,-99.5 130.845,-67.748 			"/>
			
				<polygon fill="#1A1A1A" stroke="#000000" stroke-width="4" stroke-linecap="round" stroke-linejoin="round" stroke-miterlimit="10" points="
				149.145,-99.749 167.474,-131.5 167.474,-131.5 130.851,-131.5 130.851,-131.5 149.145,-99.749 			"/>
		</g>
		<g>
			
				<polygon fill="#1A1A1A" stroke="#000000" stroke-width="4" stroke-linecap="round" stroke-linejoin="round" stroke-miterlimit="10" points="
				75.604,-98.751 57.275,-67 57.275,-67 93.898,-67 93.898,-67 75.604,-98.751 			"/>
			
				<polygon fill="#1A1A1A" stroke="#000000" stroke-width="4" stroke-linecap="round" stroke-linejoin="round" stroke-miterlimit="10" points="
				112.204,-98.751 93.875,-67 93.875,-67 130.498,-67 130.498,-67 112.204,-98.751 			"/>
			
				<polygon fill="#1A1A1A" stroke="#000000" stroke-width="4" stroke-linecap="round" stroke-linejoin="round" stroke-miterlimit="10" points="
				93.904,-66.751 75.575,-35 75.575,-35 112.198,-35 112.198,-35 93.904,-66.751 			"/>
			
				<polygon fill="#1A1A1A" stroke="#000000" stroke-width="4" stroke-linecap="round" stroke-linejoin="round" stroke-miterlimit="10" points="
				112.169,-35.248 130.498,-67 130.498,-67 93.875,-67 93.875,-67 112.169,-35.248 			"/>
			
				<polygon fill="#1A1A1A" stroke="#000000" stroke-width="4" stroke-linecap="round" stroke-linejoin="round" stroke-miterlimit="10" points="
				75.569,-35.248 93.898,-67 93.898,-67 57.275,-67 57.275,-67 75.569,-35.248 			"/>
			
				<polygon fill="#1A1A1A" stroke="#000000" stroke-width="4" stroke-linecap="round" stroke-linejoin="round" stroke-miterlimit="10" points="
				93.87,-67.249 112.198,-99 112.198,-99 75.575,-99 75.575,-99 93.87,-67.249 			"/>
		</g>
		<g>
			
				<polygon fill="#1A1A1A" stroke="#000000" stroke-width="4" stroke-linecap="round" stroke-linejoin="round" stroke-miterlimit="10" points="
				20.329,-131.251 2,-99.5 2,-99.5 38.623,-99.5 38.623,-99.5 20.329,-131.251 			"/>
			
				<polygon fill="#1A1A1A" stroke="#000000" stroke-width="4" stroke-linecap="round" stroke-linejoin="round" stroke-miterlimit="10" points="
				56.929,-131.251 38.6,-99.5 38.6,-99.5 75.223,-99.5 75.223,-99.5 56.929,-131.251 			"/>
			
				<polygon fill="#1A1A1A" stroke="#000000" stroke-width="4" stroke-linecap="round" stroke-linejoin="round" stroke-miterlimit="10" points="
				38.628,-99.251 20.3,-67.5 20.3,-67.5 56.923,-67.5 56.923,-67.5 38.628,-99.251 			"/>
			
				<polygon fill="#1A1A1A" stroke="#000000" stroke-width="4" stroke-linecap="round" stroke-linejoin="round" stroke-miterlimit="10" points="
				56.894,-67.748 75.223,-99.5 75.223,-99.5 38.6,-99.5 38.6,-99.5 56.894,-67.748 			"/>
			
				<polygon fill="#1A1A1A" stroke="#000000" stroke-width="4" stroke-linecap="round" stroke-linejoin="round" stroke-miterlimit="10" points="
				20.294,-67.748 38.623,-99.5 38.623,-99.5 2,-99.5 2,-99.5 20.294,-67.748 			"/>
			
				<polygon fill="#1A1A1A" stroke="#000000" stroke-width="4" stroke-linecap="round" stroke-linejoin="round" stroke-miterlimit="10" points="
				38.594,-99.749 56.923,-131.5 56.923,-131.5 20.3,-131.5 20.3,-131.5 38.594,-99.749 			"/>
		</g>
		<g>
			
				<polygon fill="#1A1A1A" stroke="#000000" stroke-width="4" stroke-linecap="round" stroke-linejoin="round" stroke-miterlimit="10" points="
				93.904,-131.751 75.575,-100 75.575,-100 112.198,-100 112.198,-100 93.904,-131.751 			"/>
			
				<polygon fill="#1A1A1A" stroke="#000000" stroke-width="4" stroke-linecap="round" stroke-linejoin="round" stroke-miterlimit="10" points="
				112.169,-100.248 130.498,-132 130.498,-132 93.875,-132 93.875,-132 112.169,-100.248 			"/>
			
				<polygon fill="#1A1A1A" stroke="#000000" stroke-width="4" stroke-linecap="round" stroke-linejoin="round" stroke-miterlimit="10" points="
				75.569,-100.248 93.898,-132 93.898,-132 57.275,-132 57.275,-132 75.569,-100.248 			"/>
		</g>
	</g>
</pattern>
<pattern  width="110.551" height="65" patternUnits="userSpaceOnUse" id="New_Pattern_14" viewBox="38.611 -99.5 110.551 65" overflow="visible">
	<g>
		<polygon fill="none" points="38.611,-99.5 149.162,-99.5 149.162,-34.5 38.611,-34.5 		"/>
		<g>
			<polygon fill="#FFFF00" stroke="#F7931E" stroke-width="4" stroke-linejoin="round" stroke-miterlimit="10" points="
				130.879,-66.251 112.551,-34.5 112.551,-34.5 149.174,-34.5 149.174,-34.5 130.879,-66.251 			"/>
			<polygon fill="#FFFF00" stroke="#F7931E" stroke-width="4" stroke-linejoin="round" stroke-miterlimit="10" points="
				167.479,-66.251 149.15,-34.5 149.15,-34.5 185.773,-34.5 185.773,-34.5 167.479,-66.251 			"/>
			<polygon fill="#FFFF00" stroke="#F7931E" stroke-width="4" stroke-linejoin="round" stroke-miterlimit="10" points="
				149.18,-34.251 130.851,-2.5 130.851,-2.5 167.474,-2.5 167.474,-2.5 149.18,-34.251 			"/>
			<polygon fill="#FFFF00" stroke="#F7931E" stroke-width="4" stroke-linejoin="round" stroke-miterlimit="10" points="
				167.445,-2.748 185.773,-34.5 185.773,-34.5 149.15,-34.5 149.15,-34.5 167.445,-2.748 			"/>
			<polygon fill="#FFFF00" stroke="#F7931E" stroke-width="4" stroke-linejoin="round" stroke-miterlimit="10" points="
				130.845,-2.748 149.174,-34.5 149.174,-34.5 112.551,-34.5 112.551,-34.5 130.845,-2.748 			"/>
			<polygon fill="#FFFF00" stroke="#F7931E" stroke-width="4" stroke-linejoin="round" stroke-miterlimit="10" points="
				149.145,-34.749 167.474,-66.5 167.474,-66.5 130.851,-66.5 130.851,-66.5 149.145,-34.749 			"/>
		</g>
		<g>
			<polygon fill="#FFFF00" stroke="#F7931E" stroke-width="4" stroke-linejoin="round" stroke-miterlimit="10" points="
				75.604,-33.751 57.275,-2 57.275,-2 93.898,-2 93.898,-2 75.604,-33.751 			"/>
			<polygon fill="#FFFF00" stroke="#F7931E" stroke-width="4" stroke-linejoin="round" stroke-miterlimit="10" points="
				112.204,-33.751 93.875,-2 93.875,-2 130.498,-2 130.498,-2 112.204,-33.751 			"/>
			<polygon fill="#FFFF00" stroke="#F7931E" stroke-width="4" stroke-linejoin="round" stroke-miterlimit="10" points="
				93.869,-2.249 112.198,-34 112.198,-34 75.575,-34 75.575,-34 93.869,-2.249 			"/>
		</g>
		<g>
			<polygon fill="#FFFF00" stroke="#F7931E" stroke-width="4" stroke-linejoin="round" stroke-miterlimit="10" points="
				20.328,-66.251 2,-34.5 2,-34.5 38.623,-34.5 38.623,-34.5 20.328,-66.251 			"/>
			<polygon fill="#FFFF00" stroke="#F7931E" stroke-width="4" stroke-linejoin="round" stroke-miterlimit="10" points="
				56.929,-66.251 38.6,-34.5 38.6,-34.5 75.223,-34.5 75.223,-34.5 56.929,-66.251 			"/>
			<polygon fill="#FFFF00" stroke="#F7931E" stroke-width="4" stroke-linejoin="round" stroke-miterlimit="10" points="
				38.629,-34.251 20.3,-2.5 20.3,-2.5 56.923,-2.5 56.923,-2.5 38.629,-34.251 			"/>
			<polygon fill="#FFFF00" stroke="#F7931E" stroke-width="4" stroke-linejoin="round" stroke-miterlimit="10" points="
				56.895,-2.748 75.223,-34.5 75.223,-34.5 38.6,-34.5 38.6,-34.5 56.895,-2.748 			"/>
			<polygon fill="#FFFF00" stroke="#F7931E" stroke-width="4" stroke-linejoin="round" stroke-miterlimit="10" points="
				20.294,-2.748 38.623,-34.5 38.623,-34.5 2,-34.5 2,-34.5 20.294,-2.748 			"/>
			<polygon fill="#FFFF00" stroke="#F7931E" stroke-width="4" stroke-linejoin="round" stroke-miterlimit="10" points="
				38.594,-34.749 56.923,-66.5 56.923,-66.5 20.3,-66.5 20.3,-66.5 38.594,-34.749 			"/>
		</g>
		<g>
			<polygon fill="#FFFF00" stroke="#F7931E" stroke-width="4" stroke-linejoin="round" stroke-miterlimit="10" points="
				130.879,-131.251 112.551,-99.5 112.551,-99.5 149.174,-99.5 149.174,-99.5 130.879,-131.251 			"/>
			<polygon fill="#FFFF00" stroke="#F7931E" stroke-width="4" stroke-linejoin="round" stroke-miterlimit="10" points="
				167.479,-131.251 149.15,-99.5 149.15,-99.5 185.773,-99.5 185.773,-99.5 167.479,-131.251 			"/>
			<polygon fill="#FFFF00" stroke="#F7931E" stroke-width="4" stroke-linejoin="round" stroke-miterlimit="10" points="
				149.18,-99.251 130.851,-67.5 130.851,-67.5 167.474,-67.5 167.474,-67.5 149.18,-99.251 			"/>
			<polygon fill="#FFFF00" stroke="#F7931E" stroke-width="4" stroke-linejoin="round" stroke-miterlimit="10" points="
				167.445,-67.748 185.773,-99.5 185.773,-99.5 149.15,-99.5 149.15,-99.5 167.445,-67.748 			"/>
			<polygon fill="#FFFF00" stroke="#F7931E" stroke-width="4" stroke-linejoin="round" stroke-miterlimit="10" points="
				130.845,-67.748 149.174,-99.5 149.174,-99.5 112.551,-99.5 112.551,-99.5 130.845,-67.748 			"/>
			<polygon fill="#FFFF00" stroke="#F7931E" stroke-width="4" stroke-linejoin="round" stroke-miterlimit="10" points="
				149.145,-99.749 167.474,-131.5 167.474,-131.5 130.851,-131.5 130.851,-131.5 149.145,-99.749 			"/>
		</g>
		<g>
			<polygon fill="#FFFF00" stroke="#F7931E" stroke-width="4" stroke-linejoin="round" stroke-miterlimit="10" points="
				75.604,-98.751 57.275,-67 57.275,-67 93.898,-67 93.898,-67 75.604,-98.751 			"/>
			<polygon fill="#FFFF00" stroke="#F7931E" stroke-width="4" stroke-linejoin="round" stroke-miterlimit="10" points="
				112.204,-98.751 93.875,-67 93.875,-67 130.498,-67 130.498,-67 112.204,-98.751 			"/>
			<polygon fill="#FFFF00" stroke="#F7931E" stroke-width="4" stroke-linejoin="round" stroke-miterlimit="10" points="
				93.904,-66.751 75.575,-35 75.575,-35 112.198,-35 112.198,-35 93.904,-66.751 			"/>
			<polygon fill="#FFFF00" stroke="#F7931E" stroke-width="4" stroke-linejoin="round" stroke-miterlimit="10" points="
				112.17,-35.248 130.498,-67 130.498,-67 93.875,-67 93.875,-67 112.17,-35.248 			"/>
			<polygon fill="#FFFF00" stroke="#F7931E" stroke-width="4" stroke-linejoin="round" stroke-miterlimit="10" points="
				75.569,-35.248 93.898,-67 93.898,-67 57.275,-67 57.275,-67 75.569,-35.248 			"/>
			<polygon fill="#FFFF00" stroke="#F7931E" stroke-width="4" stroke-linejoin="round" stroke-miterlimit="10" points="
				93.869,-67.249 112.198,-99 112.198,-99 75.575,-99 75.575,-99 93.869,-67.249 			"/>
		</g>
		<g>
			<polygon fill="#FFFF00" stroke="#F7931E" stroke-width="4" stroke-linejoin="round" stroke-miterlimit="10" points="
				20.328,-131.251 2,-99.5 2,-99.5 38.623,-99.5 38.623,-99.5 20.328,-131.251 			"/>
			<polygon fill="#FFFF00" stroke="#F7931E" stroke-width="4" stroke-linejoin="round" stroke-miterlimit="10" points="
				56.929,-131.251 38.6,-99.5 38.6,-99.5 75.223,-99.5 75.223,-99.5 56.929,-131.251 			"/>
			<polygon fill="#FFFF00" stroke="#F7931E" stroke-width="4" stroke-linejoin="round" stroke-miterlimit="10" points="
				38.629,-99.251 20.3,-67.5 20.3,-67.5 56.923,-67.5 56.923,-67.5 38.629,-99.251 			"/>
			<polygon fill="#FFFF00" stroke="#F7931E" stroke-width="4" stroke-linejoin="round" stroke-miterlimit="10" points="
				56.895,-67.748 75.223,-99.5 75.223,-99.5 38.6,-99.5 38.6,-99.5 56.895,-67.748 			"/>
			<polygon fill="#FFFF00" stroke="#F7931E" stroke-width="4" stroke-linejoin="round" stroke-miterlimit="10" points="
				20.294,-67.748 38.623,-99.5 38.623,-99.5 2,-99.5 2,-99.5 20.294,-67.748 			"/>
			<polygon fill="#FFFF00" stroke="#F7931E" stroke-width="4" stroke-linejoin="round" stroke-miterlimit="10" points="
				38.594,-99.749 56.923,-131.5 56.923,-131.5 20.3,-131.5 20.3,-131.5 38.594,-99.749 			"/>
		</g>
		<g>
			<polygon fill="#FFFF00" stroke="#F7931E" stroke-width="4" stroke-linejoin="round" stroke-miterlimit="10" points="
				93.904,-131.751 75.575,-100 75.575,-100 112.198,-100 112.198,-100 93.904,-131.751 			"/>
			<polygon fill="#FFFF00" stroke="#F7931E" stroke-width="4" stroke-linejoin="round" stroke-miterlimit="10" points="
				112.17,-100.248 130.498,-132 130.498,-132 93.875,-132 93.875,-132 112.17,-100.248 			"/>
			<polygon fill="#FFFF00" stroke="#F7931E" stroke-width="4" stroke-linejoin="round" stroke-miterlimit="10" points="
				75.569,-100.248 93.898,-132 93.898,-132 57.275,-132 57.275,-132 75.569,-100.248 			"/>
		</g>
	</g>
</pattern>
<pattern  width="110.551" height="65" patternUnits="userSpaceOnUse" id="New_Pattern_15" viewBox="38.611 -99.5 110.551 65" overflow="visible">
	<g>
		<polygon fill="none" points="38.611,-99.5 149.162,-99.5 149.162,-34.5 38.611,-34.5 		"/>
		<g>
			<polygon fill="#FFFFBE" stroke="#FFFF00" stroke-width="4" stroke-linejoin="round" stroke-miterlimit="10" points="
				130.879,-66.251 112.551,-34.5 112.551,-34.5 149.174,-34.5 149.174,-34.5 130.879,-66.251 			"/>
			<polygon fill="#FFFFBE" stroke="#FFFF00" stroke-width="4" stroke-linejoin="round" stroke-miterlimit="10" points="
				167.479,-66.251 149.15,-34.5 149.15,-34.5 185.773,-34.5 185.773,-34.5 167.479,-66.251 			"/>
			<polygon fill="#FFFFBE" stroke="#FFFF00" stroke-width="4" stroke-linejoin="round" stroke-miterlimit="10" points="
				149.18,-34.251 130.851,-2.5 130.851,-2.5 167.474,-2.5 167.474,-2.5 149.18,-34.251 			"/>
			<polygon fill="#FFFFBE" stroke="#FFFF00" stroke-width="4" stroke-linejoin="round" stroke-miterlimit="10" points="
				167.445,-2.748 185.773,-34.5 185.773,-34.5 149.15,-34.5 149.15,-34.5 167.445,-2.748 			"/>
			<polygon fill="#FFFFBE" stroke="#FFFF00" stroke-width="4" stroke-linejoin="round" stroke-miterlimit="10" points="
				130.845,-2.748 149.174,-34.5 149.174,-34.5 112.551,-34.5 112.551,-34.5 130.845,-2.748 			"/>
			<polygon fill="#FFFFBE" stroke="#FFFF00" stroke-width="4" stroke-linejoin="round" stroke-miterlimit="10" points="
				149.145,-34.749 167.474,-66.5 167.474,-66.5 130.851,-66.5 130.851,-66.5 149.145,-34.749 			"/>
		</g>
		<g>
			<polygon fill="#FFFFBE" stroke="#FFFF00" stroke-width="4" stroke-linejoin="round" stroke-miterlimit="10" points="
				75.604,-33.751 57.275,-2 57.275,-2 93.898,-2 93.898,-2 75.604,-33.751 			"/>
			<polygon fill="#FFFFBE" stroke="#FFFF00" stroke-width="4" stroke-linejoin="round" stroke-miterlimit="10" points="
				112.204,-33.751 93.875,-2 93.875,-2 130.498,-2 130.498,-2 112.204,-33.751 			"/>
			<polygon fill="#FFFFBE" stroke="#FFFF00" stroke-width="4" stroke-linejoin="round" stroke-miterlimit="10" points="
				93.869,-2.249 112.198,-34 112.198,-34 75.575,-34 75.575,-34 93.869,-2.249 			"/>
		</g>
		<g>
			<polygon fill="#FFFFBE" stroke="#FFFF00" stroke-width="4" stroke-linejoin="round" stroke-miterlimit="10" points="
				20.328,-66.251 2,-34.5 2,-34.5 38.623,-34.5 38.623,-34.5 20.328,-66.251 			"/>
			<polygon fill="#FFFFBE" stroke="#FFFF00" stroke-width="4" stroke-linejoin="round" stroke-miterlimit="10" points="
				56.929,-66.251 38.6,-34.5 38.6,-34.5 75.223,-34.5 75.223,-34.5 56.929,-66.251 			"/>
			<polygon fill="#FFFFBE" stroke="#FFFF00" stroke-width="4" stroke-linejoin="round" stroke-miterlimit="10" points="
				38.629,-34.251 20.3,-2.5 20.3,-2.5 56.923,-2.5 56.923,-2.5 38.629,-34.251 			"/>
			<polygon fill="#FFFFBE" stroke="#FFFF00" stroke-width="4" stroke-linejoin="round" stroke-miterlimit="10" points="
				56.895,-2.748 75.223,-34.5 75.223,-34.5 38.6,-34.5 38.6,-34.5 56.895,-2.748 			"/>
			<polygon fill="#FFFFBE" stroke="#FFFF00" stroke-width="4" stroke-linejoin="round" stroke-miterlimit="10" points="
				20.294,-2.748 38.623,-34.5 38.623,-34.5 2,-34.5 2,-34.5 20.294,-2.748 			"/>
			<polygon fill="#FFFFBE" stroke="#FFFF00" stroke-width="4" stroke-linejoin="round" stroke-miterlimit="10" points="
				38.594,-34.749 56.923,-66.5 56.923,-66.5 20.3,-66.5 20.3,-66.5 38.594,-34.749 			"/>
		</g>
		<g>
			<polygon fill="#FFFFBE" stroke="#FFFF00" stroke-width="4" stroke-linejoin="round" stroke-miterlimit="10" points="
				130.879,-131.251 112.551,-99.5 112.551,-99.5 149.174,-99.5 149.174,-99.5 130.879,-131.251 			"/>
			<polygon fill="#FFFFBE" stroke="#FFFF00" stroke-width="4" stroke-linejoin="round" stroke-miterlimit="10" points="
				167.479,-131.251 149.15,-99.5 149.15,-99.5 185.773,-99.5 185.773,-99.5 167.479,-131.251 			"/>
			<polygon fill="#FFFFBE" stroke="#FFFF00" stroke-width="4" stroke-linejoin="round" stroke-miterlimit="10" points="
				149.18,-99.251 130.851,-67.5 130.851,-67.5 167.474,-67.5 167.474,-67.5 149.18,-99.251 			"/>
			<polygon fill="#FFFFBE" stroke="#FFFF00" stroke-width="4" stroke-linejoin="round" stroke-miterlimit="10" points="
				167.445,-67.748 185.773,-99.5 185.773,-99.5 149.15,-99.5 149.15,-99.5 167.445,-67.748 			"/>
			<polygon fill="#FFFFBE" stroke="#FFFF00" stroke-width="4" stroke-linejoin="round" stroke-miterlimit="10" points="
				130.845,-67.748 149.174,-99.5 149.174,-99.5 112.551,-99.5 112.551,-99.5 130.845,-67.748 			"/>
			<polygon fill="#FFFFBE" stroke="#FFFF00" stroke-width="4" stroke-linejoin="round" stroke-miterlimit="10" points="
				149.145,-99.749 167.474,-131.5 167.474,-131.5 130.851,-131.5 130.851,-131.5 149.145,-99.749 			"/>
		</g>
		<g>
			<polygon fill="#FFFFBE" stroke="#FFFF00" stroke-width="4" stroke-linejoin="round" stroke-miterlimit="10" points="
				75.604,-98.751 57.275,-67 57.275,-67 93.898,-67 93.898,-67 75.604,-98.751 			"/>
			<polygon fill="#FFFFBE" stroke="#FFFF00" stroke-width="4" stroke-linejoin="round" stroke-miterlimit="10" points="
				112.204,-98.751 93.875,-67 93.875,-67 130.498,-67 130.498,-67 112.204,-98.751 			"/>
			<polygon fill="#FFFFBE" stroke="#FFFF00" stroke-width="4" stroke-linejoin="round" stroke-miterlimit="10" points="
				93.904,-66.751 75.575,-35 75.575,-35 112.198,-35 112.198,-35 93.904,-66.751 			"/>
			<polygon fill="#FFFFBE" stroke="#FFFF00" stroke-width="4" stroke-linejoin="round" stroke-miterlimit="10" points="
				112.17,-35.248 130.498,-67 130.498,-67 93.875,-67 93.875,-67 112.17,-35.248 			"/>
			<polygon fill="#FFFFBE" stroke="#FFFF00" stroke-width="4" stroke-linejoin="round" stroke-miterlimit="10" points="
				75.569,-35.248 93.898,-67 93.898,-67 57.275,-67 57.275,-67 75.569,-35.248 			"/>
			<polygon fill="#FFFFBE" stroke="#FFFF00" stroke-width="4" stroke-linejoin="round" stroke-miterlimit="10" points="
				93.869,-67.249 112.198,-99 112.198,-99 75.575,-99 75.575,-99 93.869,-67.249 			"/>
		</g>
		<g>
			<polygon fill="#FFFFBE" stroke="#FFFF00" stroke-width="4" stroke-linejoin="round" stroke-miterlimit="10" points="
				20.328,-131.251 2,-99.5 2,-99.5 38.623,-99.5 38.623,-99.5 20.328,-131.251 			"/>
			<polygon fill="#FFFFBE" stroke="#FFFF00" stroke-width="4" stroke-linejoin="round" stroke-miterlimit="10" points="
				56.929,-131.251 38.6,-99.5 38.6,-99.5 75.223,-99.5 75.223,-99.5 56.929,-131.251 			"/>
			<polygon fill="#FFFFBE" stroke="#FFFF00" stroke-width="4" stroke-linejoin="round" stroke-miterlimit="10" points="
				38.629,-99.251 20.3,-67.5 20.3,-67.5 56.923,-67.5 56.923,-67.5 38.629,-99.251 			"/>
			<polygon fill="#FFFFBE" stroke="#FFFF00" stroke-width="4" stroke-linejoin="round" stroke-miterlimit="10" points="
				56.895,-67.748 75.223,-99.5 75.223,-99.5 38.6,-99.5 38.6,-99.5 56.895,-67.748 			"/>
			<polygon fill="#FFFFBE" stroke="#FFFF00" stroke-width="4" stroke-linejoin="round" stroke-miterlimit="10" points="
				20.294,-67.748 38.623,-99.5 38.623,-99.5 2,-99.5 2,-99.5 20.294,-67.748 			"/>
			<polygon fill="#FFFFBE" stroke="#FFFF00" stroke-width="4" stroke-linejoin="round" stroke-miterlimit="10" points="
				38.594,-99.749 56.923,-131.5 56.923,-131.5 20.3,-131.5 20.3,-131.5 38.594,-99.749 			"/>
		</g>
		<g>
			<polygon fill="#FFFFBE" stroke="#FFFF00" stroke-width="4" stroke-linejoin="round" stroke-miterlimit="10" points="
				93.904,-131.751 75.575,-100 75.575,-100 112.198,-100 112.198,-100 93.904,-131.751 			"/>
			<polygon fill="#FFFFBE" stroke="#FFFF00" stroke-width="4" stroke-linejoin="round" stroke-miterlimit="10" points="
				112.17,-100.248 130.498,-132 130.498,-132 93.875,-132 93.875,-132 112.17,-100.248 			"/>
			<polygon fill="#FFFFBE" stroke="#FFFF00" stroke-width="4" stroke-linejoin="round" stroke-miterlimit="10" points="
				75.569,-100.248 93.898,-132 93.898,-132 57.275,-132 57.275,-132 75.569,-100.248 			"/>
		</g>
	</g>
</pattern>
<pattern  width="110.551" height="65" patternUnits="userSpaceOnUse" id="New_Pattern_16" viewBox="38.611 -99.5 110.551 65" overflow="visible">
	<g>
		<polygon fill="none" points="38.611,-99.5 149.162,-99.5 149.162,-34.5 38.611,-34.5 		"/>
		<g>
			<polygon fill="#F7931E" stroke="#754C24" stroke-width="4" stroke-linejoin="round" stroke-miterlimit="10" points="
				130.879,-66.251 112.551,-34.5 112.551,-34.5 149.174,-34.5 149.174,-34.5 130.879,-66.251 			"/>
			<polygon fill="#F7931E" stroke="#754C24" stroke-width="4" stroke-linejoin="round" stroke-miterlimit="10" points="
				167.479,-66.251 149.15,-34.5 149.15,-34.5 185.773,-34.5 185.773,-34.5 167.479,-66.251 			"/>
			<polygon fill="#F7931E" stroke="#754C24" stroke-width="4" stroke-linejoin="round" stroke-miterlimit="10" points="
				149.18,-34.251 130.851,-2.5 130.851,-2.5 167.474,-2.5 167.474,-2.5 149.18,-34.251 			"/>
			<polygon fill="#F7931E" stroke="#754C24" stroke-width="4" stroke-linejoin="round" stroke-miterlimit="10" points="
				167.445,-2.748 185.773,-34.5 185.773,-34.5 149.15,-34.5 149.15,-34.5 167.445,-2.748 			"/>
			<polygon fill="#F7931E" stroke="#754C24" stroke-width="4" stroke-linejoin="round" stroke-miterlimit="10" points="
				130.845,-2.748 149.174,-34.5 149.174,-34.5 112.551,-34.5 112.551,-34.5 130.845,-2.748 			"/>
			<polygon fill="#F7931E" stroke="#754C24" stroke-width="4" stroke-linejoin="round" stroke-miterlimit="10" points="
				149.145,-34.749 167.474,-66.5 167.474,-66.5 130.851,-66.5 130.851,-66.5 149.145,-34.749 			"/>
		</g>
		<g>
			<polygon fill="#F7931E" stroke="#754C24" stroke-width="4" stroke-linejoin="round" stroke-miterlimit="10" points="
				75.604,-33.751 57.275,-2 57.275,-2 93.898,-2 93.898,-2 75.604,-33.751 			"/>
			<polygon fill="#F7931E" stroke="#754C24" stroke-width="4" stroke-linejoin="round" stroke-miterlimit="10" points="
				112.204,-33.751 93.875,-2 93.875,-2 130.498,-2 130.498,-2 112.204,-33.751 			"/>
			<polygon fill="#F7931E" stroke="#754C24" stroke-width="4" stroke-linejoin="round" stroke-miterlimit="10" points="
				93.869,-2.249 112.198,-34 112.198,-34 75.575,-34 75.575,-34 93.869,-2.249 			"/>
		</g>
		<g>
			<polygon fill="#F7931E" stroke="#754C24" stroke-width="4" stroke-linejoin="round" stroke-miterlimit="10" points="
				20.328,-66.251 2,-34.5 2,-34.5 38.623,-34.5 38.623,-34.5 20.328,-66.251 			"/>
			<polygon fill="#F7931E" stroke="#754C24" stroke-width="4" stroke-linejoin="round" stroke-miterlimit="10" points="
				56.929,-66.251 38.6,-34.5 38.6,-34.5 75.223,-34.5 75.223,-34.5 56.929,-66.251 			"/>
			<polygon fill="#F7931E" stroke="#754C24" stroke-width="4" stroke-linejoin="round" stroke-miterlimit="10" points="
				38.629,-34.251 20.3,-2.5 20.3,-2.5 56.923,-2.5 56.923,-2.5 38.629,-34.251 			"/>
			<polygon fill="#F7931E" stroke="#754C24" stroke-width="4" stroke-linejoin="round" stroke-miterlimit="10" points="
				56.895,-2.748 75.223,-34.5 75.223,-34.5 38.6,-34.5 38.6,-34.5 56.895,-2.748 			"/>
			<polygon fill="#F7931E" stroke="#754C24" stroke-width="4" stroke-linejoin="round" stroke-miterlimit="10" points="
				20.294,-2.748 38.623,-34.5 38.623,-34.5 2,-34.5 2,-34.5 20.294,-2.748 			"/>
			<polygon fill="#F7931E" stroke="#754C24" stroke-width="4" stroke-linejoin="round" stroke-miterlimit="10" points="
				38.594,-34.749 56.923,-66.5 56.923,-66.5 20.3,-66.5 20.3,-66.5 38.594,-34.749 			"/>
		</g>
		<g>
			<polygon fill="#F7931E" stroke="#754C24" stroke-width="4" stroke-linejoin="round" stroke-miterlimit="10" points="
				130.879,-131.251 112.551,-99.5 112.551,-99.5 149.174,-99.5 149.174,-99.5 130.879,-131.251 			"/>
			<polygon fill="#F7931E" stroke="#754C24" stroke-width="4" stroke-linejoin="round" stroke-miterlimit="10" points="
				167.479,-131.251 149.15,-99.5 149.15,-99.5 185.773,-99.5 185.773,-99.5 167.479,-131.251 			"/>
			<polygon fill="#F7931E" stroke="#754C24" stroke-width="4" stroke-linejoin="round" stroke-miterlimit="10" points="
				149.18,-99.251 130.851,-67.5 130.851,-67.5 167.474,-67.5 167.474,-67.5 149.18,-99.251 			"/>
			<polygon fill="#F7931E" stroke="#754C24" stroke-width="4" stroke-linejoin="round" stroke-miterlimit="10" points="
				167.445,-67.748 185.773,-99.5 185.773,-99.5 149.15,-99.5 149.15,-99.5 167.445,-67.748 			"/>
			<polygon fill="#F7931E" stroke="#754C24" stroke-width="4" stroke-linejoin="round" stroke-miterlimit="10" points="
				130.845,-67.748 149.174,-99.5 149.174,-99.5 112.551,-99.5 112.551,-99.5 130.845,-67.748 			"/>
			<polygon fill="#F7931E" stroke="#754C24" stroke-width="4" stroke-linejoin="round" stroke-miterlimit="10" points="
				149.145,-99.749 167.474,-131.5 167.474,-131.5 130.851,-131.5 130.851,-131.5 149.145,-99.749 			"/>
		</g>
		<g>
			<polygon fill="#F7931E" stroke="#754C24" stroke-width="4" stroke-linejoin="round" stroke-miterlimit="10" points="
				75.604,-98.751 57.275,-67 57.275,-67 93.898,-67 93.898,-67 75.604,-98.751 			"/>
			<polygon fill="#F7931E" stroke="#754C24" stroke-width="4" stroke-linejoin="round" stroke-miterlimit="10" points="
				112.204,-98.751 93.875,-67 93.875,-67 130.498,-67 130.498,-67 112.204,-98.751 			"/>
			<polygon fill="#F7931E" stroke="#754C24" stroke-width="4" stroke-linejoin="round" stroke-miterlimit="10" points="
				93.904,-66.751 75.575,-35 75.575,-35 112.198,-35 112.198,-35 93.904,-66.751 			"/>
			<polygon fill="#F7931E" stroke="#754C24" stroke-width="4" stroke-linejoin="round" stroke-miterlimit="10" points="
				112.17,-35.248 130.498,-67 130.498,-67 93.875,-67 93.875,-67 112.17,-35.248 			"/>
			<polygon fill="#F7931E" stroke="#754C24" stroke-width="4" stroke-linejoin="round" stroke-miterlimit="10" points="
				75.569,-35.248 93.898,-67 93.898,-67 57.275,-67 57.275,-67 75.569,-35.248 			"/>
			<polygon fill="#F7931E" stroke="#754C24" stroke-width="4" stroke-linejoin="round" stroke-miterlimit="10" points="
				93.869,-67.249 112.198,-99 112.198,-99 75.575,-99 75.575,-99 93.869,-67.249 			"/>
		</g>
		<g>
			<polygon fill="#F7931E" stroke="#754C24" stroke-width="4" stroke-linejoin="round" stroke-miterlimit="10" points="
				20.328,-131.251 2,-99.5 2,-99.5 38.623,-99.5 38.623,-99.5 20.328,-131.251 			"/>
			<polygon fill="#F7931E" stroke="#754C24" stroke-width="4" stroke-linejoin="round" stroke-miterlimit="10" points="
				56.929,-131.251 38.6,-99.5 38.6,-99.5 75.223,-99.5 75.223,-99.5 56.929,-131.251 			"/>
			<polygon fill="#F7931E" stroke="#754C24" stroke-width="4" stroke-linejoin="round" stroke-miterlimit="10" points="
				38.629,-99.251 20.3,-67.5 20.3,-67.5 56.923,-67.5 56.923,-67.5 38.629,-99.251 			"/>
			<polygon fill="#F7931E" stroke="#754C24" stroke-width="4" stroke-linejoin="round" stroke-miterlimit="10" points="
				56.895,-67.748 75.223,-99.5 75.223,-99.5 38.6,-99.5 38.6,-99.5 56.895,-67.748 			"/>
			<polygon fill="#F7931E" stroke="#754C24" stroke-width="4" stroke-linejoin="round" stroke-miterlimit="10" points="
				20.294,-67.748 38.623,-99.5 38.623,-99.5 2,-99.5 2,-99.5 20.294,-67.748 			"/>
			<polygon fill="#F7931E" stroke="#754C24" stroke-width="4" stroke-linejoin="round" stroke-miterlimit="10" points="
				38.594,-99.749 56.923,-131.5 56.923,-131.5 20.3,-131.5 20.3,-131.5 38.594,-99.749 			"/>
		</g>
		<g>
			<polygon fill="#F7931E" stroke="#754C24" stroke-width="4" stroke-linejoin="round" stroke-miterlimit="10" points="
				93.904,-131.751 75.575,-100 75.575,-100 112.198,-100 112.198,-100 93.904,-131.751 			"/>
			<polygon fill="#F7931E" stroke="#754C24" stroke-width="4" stroke-linejoin="round" stroke-miterlimit="10" points="
				112.17,-100.248 130.498,-132 130.498,-132 93.875,-132 93.875,-132 112.17,-100.248 			"/>
			<polygon fill="#F7931E" stroke="#754C24" stroke-width="4" stroke-linejoin="round" stroke-miterlimit="10" points="
				75.569,-100.248 93.898,-132 93.898,-132 57.275,-132 57.275,-132 75.569,-100.248 			"/>
		</g>
	</g>
</pattern>
<pattern  width="110.551" height="65" patternUnits="userSpaceOnUse" id="New_Pattern_18" viewBox="38.611 -99.5 110.551 65" overflow="visible">
	<g>
		<polygon fill="none" points="38.611,-99.5 149.162,-99.5 149.162,-34.5 38.611,-34.5 		"/>
		<g>
			
				<polygon fill="#FFFFFF" stroke="#E6E6E6" stroke-width="4" stroke-linecap="round" stroke-linejoin="round" stroke-miterlimit="10" points="
				130.879,-66.251 112.551,-34.5 112.551,-34.5 149.173,-34.5 149.173,-34.5 130.879,-66.251 			"/>
			
				<polygon fill="#FFFFFF" stroke="#E6E6E6" stroke-width="4" stroke-linecap="round" stroke-linejoin="round" stroke-miterlimit="10" points="
				167.479,-66.251 149.151,-34.5 149.151,-34.5 185.773,-34.5 185.773,-34.5 167.479,-66.251 			"/>
			
				<polygon fill="#FFFFFF" stroke="#E6E6E6" stroke-width="4" stroke-linecap="round" stroke-linejoin="round" stroke-miterlimit="10" points="
				149.179,-34.251 130.851,-2.5 130.851,-2.5 167.474,-2.5 167.474,-2.5 149.179,-34.251 			"/>
			
				<polygon fill="#FFFFFF" stroke="#E6E6E6" stroke-width="4" stroke-linecap="round" stroke-linejoin="round" stroke-miterlimit="10" points="
				167.445,-2.748 185.773,-34.5 185.773,-34.5 149.151,-34.5 149.151,-34.5 167.445,-2.748 			"/>
			
				<polygon fill="#FFFFFF" stroke="#E6E6E6" stroke-width="4" stroke-linecap="round" stroke-linejoin="round" stroke-miterlimit="10" points="
				130.845,-2.748 149.173,-34.5 149.173,-34.5 112.551,-34.5 112.551,-34.5 130.845,-2.748 			"/>
			
				<polygon fill="#FFFFFF" stroke="#E6E6E6" stroke-width="4" stroke-linecap="round" stroke-linejoin="round" stroke-miterlimit="10" points="
				149.145,-34.749 167.474,-66.5 167.474,-66.5 130.851,-66.5 130.851,-66.5 149.145,-34.749 			"/>
		</g>
		<g>
			
				<polygon fill="#FFFFFF" stroke="#E6E6E6" stroke-width="4" stroke-linecap="round" stroke-linejoin="round" stroke-miterlimit="10" points="
				75.604,-33.751 57.275,-2 57.275,-2 93.898,-2 93.898,-2 75.604,-33.751 			"/>
			
				<polygon fill="#FFFFFF" stroke="#E6E6E6" stroke-width="4" stroke-linecap="round" stroke-linejoin="round" stroke-miterlimit="10" points="
				112.204,-33.751 93.875,-2 93.875,-2 130.498,-2 130.498,-2 112.204,-33.751 			"/>
			
				<polygon fill="#FFFFFF" stroke="#E6E6E6" stroke-width="4" stroke-linecap="round" stroke-linejoin="round" stroke-miterlimit="10" points="
				93.87,-2.249 112.198,-34 112.198,-34 75.575,-34 75.575,-34 93.87,-2.249 			"/>
		</g>
		<g>
			
				<polygon fill="#FFFFFF" stroke="#E6E6E6" stroke-width="4" stroke-linecap="round" stroke-linejoin="round" stroke-miterlimit="10" points="
				20.329,-66.251 2,-34.5 2,-34.5 38.623,-34.5 38.623,-34.5 20.329,-66.251 			"/>
			
				<polygon fill="#FFFFFF" stroke="#E6E6E6" stroke-width="4" stroke-linecap="round" stroke-linejoin="round" stroke-miterlimit="10" points="
				56.929,-66.251 38.6,-34.5 38.6,-34.5 75.223,-34.5 75.223,-34.5 56.929,-66.251 			"/>
			
				<polygon fill="#FFFFFF" stroke="#E6E6E6" stroke-width="4" stroke-linecap="round" stroke-linejoin="round" stroke-miterlimit="10" points="
				38.628,-34.251 20.3,-2.5 20.3,-2.5 56.923,-2.5 56.923,-2.5 38.628,-34.251 			"/>
			
				<polygon fill="#FFFFFF" stroke="#E6E6E6" stroke-width="4" stroke-linecap="round" stroke-linejoin="round" stroke-miterlimit="10" points="
				56.895,-2.748 75.223,-34.5 75.223,-34.5 38.6,-34.5 38.6,-34.5 56.895,-2.748 			"/>
			
				<polygon fill="#FFFFFF" stroke="#E6E6E6" stroke-width="4" stroke-linecap="round" stroke-linejoin="round" stroke-miterlimit="10" points="
				20.294,-2.748 38.623,-34.5 38.623,-34.5 2,-34.5 2,-34.5 20.294,-2.748 			"/>
			
				<polygon fill="#FFFFFF" stroke="#E6E6E6" stroke-width="4" stroke-linecap="round" stroke-linejoin="round" stroke-miterlimit="10" points="
				38.594,-34.749 56.923,-66.5 56.923,-66.5 20.3,-66.5 20.3,-66.5 38.594,-34.749 			"/>
		</g>
		<g>
			
				<polygon fill="#FFFFFF" stroke="#E6E6E6" stroke-width="4" stroke-linecap="round" stroke-linejoin="round" stroke-miterlimit="10" points="
				130.879,-131.251 112.551,-99.5 112.551,-99.5 149.173,-99.5 149.173,-99.5 130.879,-131.251 			"/>
			
				<polygon fill="#FFFFFF" stroke="#E6E6E6" stroke-width="4" stroke-linecap="round" stroke-linejoin="round" stroke-miterlimit="10" points="
				167.479,-131.251 149.151,-99.5 149.151,-99.5 185.773,-99.5 185.773,-99.5 167.479,-131.251 			"/>
			
				<polygon fill="#FFFFFF" stroke="#E6E6E6" stroke-width="4" stroke-linecap="round" stroke-linejoin="round" stroke-miterlimit="10" points="
				149.179,-99.251 130.851,-67.5 130.851,-67.5 167.474,-67.5 167.474,-67.5 149.179,-99.251 			"/>
			
				<polygon fill="#FFFFFF" stroke="#E6E6E6" stroke-width="4" stroke-linecap="round" stroke-linejoin="round" stroke-miterlimit="10" points="
				167.445,-67.748 185.773,-99.5 185.773,-99.5 149.151,-99.5 149.151,-99.5 167.445,-67.748 			"/>
			
				<polygon fill="#FFFFFF" stroke="#E6E6E6" stroke-width="4" stroke-linecap="round" stroke-linejoin="round" stroke-miterlimit="10" points="
				130.845,-67.748 149.173,-99.5 149.173,-99.5 112.551,-99.5 112.551,-99.5 130.845,-67.748 			"/>
			
				<polygon fill="#FFFFFF" stroke="#E6E6E6" stroke-width="4" stroke-linecap="round" stroke-linejoin="round" stroke-miterlimit="10" points="
				149.145,-99.749 167.474,-131.5 167.474,-131.5 130.851,-131.5 130.851,-131.5 149.145,-99.749 			"/>
		</g>
		<g>
			
				<polygon fill="#FFFFFF" stroke="#E6E6E6" stroke-width="4" stroke-linecap="round" stroke-linejoin="round" stroke-miterlimit="10" points="
				75.604,-98.751 57.275,-67 57.275,-67 93.898,-67 93.898,-67 75.604,-98.751 			"/>
			
				<polygon fill="#FFFFFF" stroke="#E6E6E6" stroke-width="4" stroke-linecap="round" stroke-linejoin="round" stroke-miterlimit="10" points="
				112.204,-98.751 93.875,-67 93.875,-67 130.498,-67 130.498,-67 112.204,-98.751 			"/>
			
				<polygon fill="#FFFFFF" stroke="#E6E6E6" stroke-width="4" stroke-linecap="round" stroke-linejoin="round" stroke-miterlimit="10" points="
				93.904,-66.751 75.575,-35 75.575,-35 112.198,-35 112.198,-35 93.904,-66.751 			"/>
			
				<polygon fill="#FFFFFF" stroke="#E6E6E6" stroke-width="4" stroke-linecap="round" stroke-linejoin="round" stroke-miterlimit="10" points="
				112.17,-35.248 130.498,-67 130.498,-67 93.875,-67 93.875,-67 112.17,-35.248 			"/>
			
				<polygon fill="#FFFFFF" stroke="#E6E6E6" stroke-width="4" stroke-linecap="round" stroke-linejoin="round" stroke-miterlimit="10" points="
				75.569,-35.248 93.898,-67 93.898,-67 57.275,-67 57.275,-67 75.569,-35.248 			"/>
			
				<polygon fill="#FFFFFF" stroke="#E6E6E6" stroke-width="4" stroke-linecap="round" stroke-linejoin="round" stroke-miterlimit="10" points="
				93.87,-67.249 112.198,-99 112.198,-99 75.575,-99 75.575,-99 93.87,-67.249 			"/>
		</g>
		<g>
			
				<polygon fill="#FFFFFF" stroke="#E6E6E6" stroke-width="4" stroke-linecap="round" stroke-linejoin="round" stroke-miterlimit="10" points="
				20.329,-131.251 2,-99.5 2,-99.5 38.623,-99.5 38.623,-99.5 20.329,-131.251 			"/>
			
				<polygon fill="#FFFFFF" stroke="#E6E6E6" stroke-width="4" stroke-linecap="round" stroke-linejoin="round" stroke-miterlimit="10" points="
				56.929,-131.251 38.6,-99.5 38.6,-99.5 75.223,-99.5 75.223,-99.5 56.929,-131.251 			"/>
			
				<polygon fill="#FFFFFF" stroke="#E6E6E6" stroke-width="4" stroke-linecap="round" stroke-linejoin="round" stroke-miterlimit="10" points="
				38.628,-99.251 20.3,-67.5 20.3,-67.5 56.923,-67.5 56.923,-67.5 38.628,-99.251 			"/>
			
				<polygon fill="#FFFFFF" stroke="#E6E6E6" stroke-width="4" stroke-linecap="round" stroke-linejoin="round" stroke-miterlimit="10" points="
				56.895,-67.748 75.223,-99.5 75.223,-99.5 38.6,-99.5 38.6,-99.5 56.895,-67.748 			"/>
			
				<polygon fill="#FFFFFF" stroke="#E6E6E6" stroke-width="4" stroke-linecap="round" stroke-linejoin="round" stroke-miterlimit="10" points="
				20.294,-67.748 38.623,-99.5 38.623,-99.5 2,-99.5 2,-99.5 20.294,-67.748 			"/>
			
				<polygon fill="#FFFFFF" stroke="#E6E6E6" stroke-width="4" stroke-linecap="round" stroke-linejoin="round" stroke-miterlimit="10" points="
				38.594,-99.749 56.923,-131.5 56.923,-131.5 20.3,-131.5 20.3,-131.5 38.594,-99.749 			"/>
		</g>
		<g>
			
				<polygon fill="#FFFFFF" stroke="#E6E6E6" stroke-width="4" stroke-linecap="round" stroke-linejoin="round" stroke-miterlimit="10" points="
				93.904,-131.751 75.575,-100 75.575,-100 112.198,-100 112.198,-100 93.904,-131.751 			"/>
			
				<polygon fill="#FFFFFF" stroke="#E6E6E6" stroke-width="4" stroke-linecap="round" stroke-linejoin="round" stroke-miterlimit="10" points="
				112.17,-100.248 130.498,-132 130.498,-132 93.875,-132 93.875,-132 112.17,-100.248 			"/>
			
				<polygon fill="#FFFFFF" stroke="#E6E6E6" stroke-width="4" stroke-linecap="round" stroke-linejoin="round" stroke-miterlimit="10" points="
				75.569,-100.248 93.898,-132 93.898,-132 57.275,-132 57.275,-132 75.569,-100.248 			"/>
		</g>
	</g>
</pattern>
<pattern  width="110.551" height="65" patternUnits="userSpaceOnUse" id="New_Pattern_5" viewBox="38.611 -99.5 110.551 65" overflow="visible">
	<g>
		<polygon fill="none" points="38.611,-99.5 149.162,-99.5 149.162,-34.5 38.611,-34.5 		"/>
		<g>
			
				<polygon fill="#6F706F" stroke="#000000" stroke-width="4" stroke-linecap="round" stroke-linejoin="round" stroke-miterlimit="10" points="
				130.879,-66.251 112.551,-34.5 112.551,-34.5 149.173,-34.5 149.173,-34.5 130.879,-66.251 			"/>
			
				<polygon fill="#6F706F" stroke="#000000" stroke-width="4" stroke-linecap="round" stroke-linejoin="round" stroke-miterlimit="10" points="
				167.479,-66.251 149.151,-34.5 149.151,-34.5 185.773,-34.5 185.773,-34.5 167.479,-66.251 			"/>
			
				<polygon fill="#6F706F" stroke="#000000" stroke-width="4" stroke-linecap="round" stroke-linejoin="round" stroke-miterlimit="10" points="
				149.179,-34.251 130.851,-2.5 130.851,-2.5 167.474,-2.5 167.474,-2.5 149.179,-34.251 			"/>
			
				<polygon fill="#6F706F" stroke="#000000" stroke-width="4" stroke-linecap="round" stroke-linejoin="round" stroke-miterlimit="10" points="
				167.445,-2.748 185.773,-34.5 185.773,-34.5 149.151,-34.5 149.151,-34.5 167.445,-2.748 			"/>
			
				<polygon fill="#6F706F" stroke="#000000" stroke-width="4" stroke-linecap="round" stroke-linejoin="round" stroke-miterlimit="10" points="
				130.845,-2.748 149.173,-34.5 149.173,-34.5 112.551,-34.5 112.551,-34.5 130.845,-2.748 			"/>
			
				<polygon fill="#6F706F" stroke="#000000" stroke-width="4" stroke-linecap="round" stroke-linejoin="round" stroke-miterlimit="10" points="
				149.145,-34.749 167.474,-66.5 167.474,-66.5 130.851,-66.5 130.851,-66.5 149.145,-34.749 			"/>
		</g>
		<g>
			
				<polygon fill="#6F706F" stroke="#000000" stroke-width="4" stroke-linecap="round" stroke-linejoin="round" stroke-miterlimit="10" points="
				75.604,-33.751 57.275,-2 57.275,-2 93.898,-2 93.898,-2 75.604,-33.751 			"/>
			
				<polygon fill="#6F706F" stroke="#000000" stroke-width="4" stroke-linecap="round" stroke-linejoin="round" stroke-miterlimit="10" points="
				112.204,-33.751 93.875,-2 93.875,-2 130.498,-2 130.498,-2 112.204,-33.751 			"/>
			
				<polygon fill="#6F706F" stroke="#000000" stroke-width="4" stroke-linecap="round" stroke-linejoin="round" stroke-miterlimit="10" points="
				93.87,-2.249 112.198,-34 112.198,-34 75.575,-34 75.575,-34 93.87,-2.249 			"/>
		</g>
		<g>
			
				<polygon fill="#6F706F" stroke="#000000" stroke-width="4" stroke-linecap="round" stroke-linejoin="round" stroke-miterlimit="10" points="
				20.329,-66.251 2,-34.5 2,-34.5 38.623,-34.5 38.623,-34.5 20.329,-66.251 			"/>
			
				<polygon fill="#6F706F" stroke="#000000" stroke-width="4" stroke-linecap="round" stroke-linejoin="round" stroke-miterlimit="10" points="
				56.929,-66.251 38.6,-34.5 38.6,-34.5 75.223,-34.5 75.223,-34.5 56.929,-66.251 			"/>
			
				<polygon fill="#6F706F" stroke="#000000" stroke-width="4" stroke-linecap="round" stroke-linejoin="round" stroke-miterlimit="10" points="
				38.628,-34.251 20.3,-2.5 20.3,-2.5 56.923,-2.5 56.923,-2.5 38.628,-34.251 			"/>
			
				<polygon fill="#6F706F" stroke="#000000" stroke-width="4" stroke-linecap="round" stroke-linejoin="round" stroke-miterlimit="10" points="
				56.894,-2.748 75.223,-34.5 75.223,-34.5 38.6,-34.5 38.6,-34.5 56.894,-2.748 			"/>
			
				<polygon fill="#6F706F" stroke="#000000" stroke-width="4" stroke-linecap="round" stroke-linejoin="round" stroke-miterlimit="10" points="
				20.294,-2.748 38.623,-34.5 38.623,-34.5 2,-34.5 2,-34.5 20.294,-2.748 			"/>
			
				<polygon fill="#6F706F" stroke="#000000" stroke-width="4" stroke-linecap="round" stroke-linejoin="round" stroke-miterlimit="10" points="
				38.594,-34.749 56.923,-66.5 56.923,-66.5 20.3,-66.5 20.3,-66.5 38.594,-34.749 			"/>
		</g>
		<g>
			
				<polygon fill="#6F706F" stroke="#000000" stroke-width="4" stroke-linecap="round" stroke-linejoin="round" stroke-miterlimit="10" points="
				130.879,-131.251 112.551,-99.5 112.551,-99.5 149.173,-99.5 149.173,-99.5 130.879,-131.251 			"/>
			
				<polygon fill="#6F706F" stroke="#000000" stroke-width="4" stroke-linecap="round" stroke-linejoin="round" stroke-miterlimit="10" points="
				167.479,-131.251 149.151,-99.5 149.151,-99.5 185.773,-99.5 185.773,-99.5 167.479,-131.251 			"/>
			
				<polygon fill="#6F706F" stroke="#000000" stroke-width="4" stroke-linecap="round" stroke-linejoin="round" stroke-miterlimit="10" points="
				149.179,-99.251 130.851,-67.5 130.851,-67.5 167.474,-67.5 167.474,-67.5 149.179,-99.251 			"/>
			
				<polygon fill="#6F706F" stroke="#000000" stroke-width="4" stroke-linecap="round" stroke-linejoin="round" stroke-miterlimit="10" points="
				167.445,-67.748 185.773,-99.5 185.773,-99.5 149.151,-99.5 149.151,-99.5 167.445,-67.748 			"/>
			
				<polygon fill="#6F706F" stroke="#000000" stroke-width="4" stroke-linecap="round" stroke-linejoin="round" stroke-miterlimit="10" points="
				130.845,-67.748 149.173,-99.5 149.173,-99.5 112.551,-99.5 112.551,-99.5 130.845,-67.748 			"/>
			
				<polygon fill="#6F706F" stroke="#000000" stroke-width="4" stroke-linecap="round" stroke-linejoin="round" stroke-miterlimit="10" points="
				149.145,-99.749 167.474,-131.5 167.474,-131.5 130.851,-131.5 130.851,-131.5 149.145,-99.749 			"/>
		</g>
		<g>
			
				<polygon fill="#6F706F" stroke="#000000" stroke-width="4" stroke-linecap="round" stroke-linejoin="round" stroke-miterlimit="10" points="
				75.604,-98.751 57.275,-67 57.275,-67 93.898,-67 93.898,-67 75.604,-98.751 			"/>
			
				<polygon fill="#6F706F" stroke="#000000" stroke-width="4" stroke-linecap="round" stroke-linejoin="round" stroke-miterlimit="10" points="
				112.204,-98.751 93.875,-67 93.875,-67 130.498,-67 130.498,-67 112.204,-98.751 			"/>
			
				<polygon fill="#6F706F" stroke="#000000" stroke-width="4" stroke-linecap="round" stroke-linejoin="round" stroke-miterlimit="10" points="
				93.904,-66.751 75.575,-35 75.575,-35 112.198,-35 112.198,-35 93.904,-66.751 			"/>
			
				<polygon fill="#6F706F" stroke="#000000" stroke-width="4" stroke-linecap="round" stroke-linejoin="round" stroke-miterlimit="10" points="
				112.169,-35.248 130.498,-67 130.498,-67 93.875,-67 93.875,-67 112.169,-35.248 			"/>
			
				<polygon fill="#6F706F" stroke="#000000" stroke-width="4" stroke-linecap="round" stroke-linejoin="round" stroke-miterlimit="10" points="
				75.569,-35.248 93.898,-67 93.898,-67 57.275,-67 57.275,-67 75.569,-35.248 			"/>
			
				<polygon fill="#6F706F" stroke="#000000" stroke-width="4" stroke-linecap="round" stroke-linejoin="round" stroke-miterlimit="10" points="
				93.87,-67.249 112.198,-99 112.198,-99 75.575,-99 75.575,-99 93.87,-67.249 			"/>
		</g>
		<g>
			
				<polygon fill="#6F706F" stroke="#000000" stroke-width="4" stroke-linecap="round" stroke-linejoin="round" stroke-miterlimit="10" points="
				20.329,-131.251 2,-99.5 2,-99.5 38.623,-99.5 38.623,-99.5 20.329,-131.251 			"/>
			
				<polygon fill="#6F706F" stroke="#000000" stroke-width="4" stroke-linecap="round" stroke-linejoin="round" stroke-miterlimit="10" points="
				56.929,-131.251 38.6,-99.5 38.6,-99.5 75.223,-99.5 75.223,-99.5 56.929,-131.251 			"/>
			
				<polygon fill="#6F706F" stroke="#000000" stroke-width="4" stroke-linecap="round" stroke-linejoin="round" stroke-miterlimit="10" points="
				38.628,-99.251 20.3,-67.5 20.3,-67.5 56.923,-67.5 56.923,-67.5 38.628,-99.251 			"/>
			
				<polygon fill="#6F706F" stroke="#000000" stroke-width="4" stroke-linecap="round" stroke-linejoin="round" stroke-miterlimit="10" points="
				56.894,-67.748 75.223,-99.5 75.223,-99.5 38.6,-99.5 38.6,-99.5 56.894,-67.748 			"/>
			
				<polygon fill="#6F706F" stroke="#000000" stroke-width="4" stroke-linecap="round" stroke-linejoin="round" stroke-miterlimit="10" points="
				20.294,-67.748 38.623,-99.5 38.623,-99.5 2,-99.5 2,-99.5 20.294,-67.748 			"/>
			
				<polygon fill="#6F706F" stroke="#000000" stroke-width="4" stroke-linecap="round" stroke-linejoin="round" stroke-miterlimit="10" points="
				38.594,-99.749 56.923,-131.5 56.923,-131.5 20.3,-131.5 20.3,-131.5 38.594,-99.749 			"/>
		</g>
		<g>
			
				<polygon fill="#6F706F" stroke="#000000" stroke-width="4" stroke-linecap="round" stroke-linejoin="round" stroke-miterlimit="10" points="
				93.904,-131.751 75.575,-100 75.575,-100 112.198,-100 112.198,-100 93.904,-131.751 			"/>
			
				<polygon fill="#6F706F" stroke="#000000" stroke-width="4" stroke-linecap="round" stroke-linejoin="round" stroke-miterlimit="10" points="
				112.169,-100.248 130.498,-132 130.498,-132 93.875,-132 93.875,-132 112.169,-100.248 			"/>
			
				<polygon fill="#6F706F" stroke="#000000" stroke-width="4" stroke-linecap="round" stroke-linejoin="round" stroke-miterlimit="10" points="
				75.569,-100.248 93.898,-132 93.898,-132 57.275,-132 57.275,-132 75.569,-100.248 			"/>
		</g>
	</g>
</pattern>
<pattern  width="110.551" height="65" patternUnits="userSpaceOnUse" id="New_Pattern_6" viewBox="38.611 -99.5 110.551 65" overflow="visible">
	<g>
		<polygon fill="none" points="38.611,-99.5 149.162,-99.5 149.162,-34.5 38.611,-34.5 		"/>
		<g>
			
				<polygon fill="#333333" stroke="#000000" stroke-width="4" stroke-linecap="round" stroke-linejoin="round" stroke-miterlimit="10" points="
				130.879,-66.251 112.551,-34.5 112.551,-34.5 149.173,-34.5 149.173,-34.5 130.879,-66.251 			"/>
			
				<polygon fill="#333333" stroke="#000000" stroke-width="4" stroke-linecap="round" stroke-linejoin="round" stroke-miterlimit="10" points="
				167.479,-66.251 149.151,-34.5 149.151,-34.5 185.773,-34.5 185.773,-34.5 167.479,-66.251 			"/>
			
				<polygon fill="#333333" stroke="#000000" stroke-width="4" stroke-linecap="round" stroke-linejoin="round" stroke-miterlimit="10" points="
				149.179,-34.251 130.851,-2.5 130.851,-2.5 167.474,-2.5 167.474,-2.5 149.179,-34.251 			"/>
			
				<polygon fill="#333333" stroke="#000000" stroke-width="4" stroke-linecap="round" stroke-linejoin="round" stroke-miterlimit="10" points="
				167.445,-2.748 185.773,-34.5 185.773,-34.5 149.151,-34.5 149.151,-34.5 167.445,-2.748 			"/>
			
				<polygon fill="#333333" stroke="#000000" stroke-width="4" stroke-linecap="round" stroke-linejoin="round" stroke-miterlimit="10" points="
				130.845,-2.748 149.173,-34.5 149.173,-34.5 112.551,-34.5 112.551,-34.5 130.845,-2.748 			"/>
			
				<polygon fill="#333333" stroke="#000000" stroke-width="4" stroke-linecap="round" stroke-linejoin="round" stroke-miterlimit="10" points="
				149.145,-34.749 167.474,-66.5 167.474,-66.5 130.851,-66.5 130.851,-66.5 149.145,-34.749 			"/>
		</g>
		<g>
			
				<polygon fill="#333333" stroke="#000000" stroke-width="4" stroke-linecap="round" stroke-linejoin="round" stroke-miterlimit="10" points="
				75.604,-33.751 57.275,-2 57.275,-2 93.898,-2 93.898,-2 75.604,-33.751 			"/>
			
				<polygon fill="#333333" stroke="#000000" stroke-width="4" stroke-linecap="round" stroke-linejoin="round" stroke-miterlimit="10" points="
				112.204,-33.751 93.875,-2 93.875,-2 130.498,-2 130.498,-2 112.204,-33.751 			"/>
			
				<polygon fill="#333333" stroke="#000000" stroke-width="4" stroke-linecap="round" stroke-linejoin="round" stroke-miterlimit="10" points="
				93.87,-2.249 112.198,-34 112.198,-34 75.575,-34 75.575,-34 93.87,-2.249 			"/>
		</g>
		<g>
			
				<polygon fill="#333333" stroke="#000000" stroke-width="4" stroke-linecap="round" stroke-linejoin="round" stroke-miterlimit="10" points="
				20.329,-66.251 2,-34.5 2,-34.5 38.623,-34.5 38.623,-34.5 20.329,-66.251 			"/>
			
				<polygon fill="#333333" stroke="#000000" stroke-width="4" stroke-linecap="round" stroke-linejoin="round" stroke-miterlimit="10" points="
				56.929,-66.251 38.6,-34.5 38.6,-34.5 75.223,-34.5 75.223,-34.5 56.929,-66.251 			"/>
			
				<polygon fill="#333333" stroke="#000000" stroke-width="4" stroke-linecap="round" stroke-linejoin="round" stroke-miterlimit="10" points="
				38.628,-34.251 20.3,-2.5 20.3,-2.5 56.923,-2.5 56.923,-2.5 38.628,-34.251 			"/>
			
				<polygon fill="#333333" stroke="#000000" stroke-width="4" stroke-linecap="round" stroke-linejoin="round" stroke-miterlimit="10" points="
				56.894,-2.748 75.223,-34.5 75.223,-34.5 38.6,-34.5 38.6,-34.5 56.894,-2.748 			"/>
			
				<polygon fill="#333333" stroke="#000000" stroke-width="4" stroke-linecap="round" stroke-linejoin="round" stroke-miterlimit="10" points="
				20.294,-2.748 38.623,-34.5 38.623,-34.5 2,-34.5 2,-34.5 20.294,-2.748 			"/>
			
				<polygon fill="#333333" stroke="#000000" stroke-width="4" stroke-linecap="round" stroke-linejoin="round" stroke-miterlimit="10" points="
				38.594,-34.749 56.923,-66.5 56.923,-66.5 20.3,-66.5 20.3,-66.5 38.594,-34.749 			"/>
		</g>
		<g>
			
				<polygon fill="#333333" stroke="#000000" stroke-width="4" stroke-linecap="round" stroke-linejoin="round" stroke-miterlimit="10" points="
				130.879,-131.251 112.551,-99.5 112.551,-99.5 149.173,-99.5 149.173,-99.5 130.879,-131.251 			"/>
			
				<polygon fill="#333333" stroke="#000000" stroke-width="4" stroke-linecap="round" stroke-linejoin="round" stroke-miterlimit="10" points="
				167.479,-131.251 149.151,-99.5 149.151,-99.5 185.773,-99.5 185.773,-99.5 167.479,-131.251 			"/>
			
				<polygon fill="#333333" stroke="#000000" stroke-width="4" stroke-linecap="round" stroke-linejoin="round" stroke-miterlimit="10" points="
				149.179,-99.251 130.851,-67.5 130.851,-67.5 167.474,-67.5 167.474,-67.5 149.179,-99.251 			"/>
			
				<polygon fill="#333333" stroke="#000000" stroke-width="4" stroke-linecap="round" stroke-linejoin="round" stroke-miterlimit="10" points="
				167.445,-67.748 185.773,-99.5 185.773,-99.5 149.151,-99.5 149.151,-99.5 167.445,-67.748 			"/>
			
				<polygon fill="#333333" stroke="#000000" stroke-width="4" stroke-linecap="round" stroke-linejoin="round" stroke-miterlimit="10" points="
				130.845,-67.748 149.173,-99.5 149.173,-99.5 112.551,-99.5 112.551,-99.5 130.845,-67.748 			"/>
			
				<polygon fill="#333333" stroke="#000000" stroke-width="4" stroke-linecap="round" stroke-linejoin="round" stroke-miterlimit="10" points="
				149.145,-99.749 167.474,-131.5 167.474,-131.5 130.851,-131.5 130.851,-131.5 149.145,-99.749 			"/>
		</g>
		<g>
			
				<polygon fill="#333333" stroke="#000000" stroke-width="4" stroke-linecap="round" stroke-linejoin="round" stroke-miterlimit="10" points="
				75.604,-98.751 57.275,-67 57.275,-67 93.898,-67 93.898,-67 75.604,-98.751 			"/>
			
				<polygon fill="#333333" stroke="#000000" stroke-width="4" stroke-linecap="round" stroke-linejoin="round" stroke-miterlimit="10" points="
				112.204,-98.751 93.875,-67 93.875,-67 130.498,-67 130.498,-67 112.204,-98.751 			"/>
			
				<polygon fill="#333333" stroke="#000000" stroke-width="4" stroke-linecap="round" stroke-linejoin="round" stroke-miterlimit="10" points="
				93.904,-66.751 75.575,-35 75.575,-35 112.198,-35 112.198,-35 93.904,-66.751 			"/>
			
				<polygon fill="#333333" stroke="#000000" stroke-width="4" stroke-linecap="round" stroke-linejoin="round" stroke-miterlimit="10" points="
				112.169,-35.248 130.498,-67 130.498,-67 93.875,-67 93.875,-67 112.169,-35.248 			"/>
			
				<polygon fill="#333333" stroke="#000000" stroke-width="4" stroke-linecap="round" stroke-linejoin="round" stroke-miterlimit="10" points="
				75.569,-35.248 93.898,-67 93.898,-67 57.275,-67 57.275,-67 75.569,-35.248 			"/>
			
				<polygon fill="#333333" stroke="#000000" stroke-width="4" stroke-linecap="round" stroke-linejoin="round" stroke-miterlimit="10" points="
				93.87,-67.249 112.198,-99 112.198,-99 75.575,-99 75.575,-99 93.87,-67.249 			"/>
		</g>
		<g>
			
				<polygon fill="#333333" stroke="#000000" stroke-width="4" stroke-linecap="round" stroke-linejoin="round" stroke-miterlimit="10" points="
				20.329,-131.251 2,-99.5 2,-99.5 38.623,-99.5 38.623,-99.5 20.329,-131.251 			"/>
			
				<polygon fill="#333333" stroke="#000000" stroke-width="4" stroke-linecap="round" stroke-linejoin="round" stroke-miterlimit="10" points="
				56.929,-131.251 38.6,-99.5 38.6,-99.5 75.223,-99.5 75.223,-99.5 56.929,-131.251 			"/>
			
				<polygon fill="#333333" stroke="#000000" stroke-width="4" stroke-linecap="round" stroke-linejoin="round" stroke-miterlimit="10" points="
				38.628,-99.251 20.3,-67.5 20.3,-67.5 56.923,-67.5 56.923,-67.5 38.628,-99.251 			"/>
			
				<polygon fill="#333333" stroke="#000000" stroke-width="4" stroke-linecap="round" stroke-linejoin="round" stroke-miterlimit="10" points="
				56.894,-67.748 75.223,-99.5 75.223,-99.5 38.6,-99.5 38.6,-99.5 56.894,-67.748 			"/>
			
				<polygon fill="#333333" stroke="#000000" stroke-width="4" stroke-linecap="round" stroke-linejoin="round" stroke-miterlimit="10" points="
				20.294,-67.748 38.623,-99.5 38.623,-99.5 2,-99.5 2,-99.5 20.294,-67.748 			"/>
			
				<polygon fill="#333333" stroke="#000000" stroke-width="4" stroke-linecap="round" stroke-linejoin="round" stroke-miterlimit="10" points="
				38.594,-99.749 56.923,-131.5 56.923,-131.5 20.3,-131.5 20.3,-131.5 38.594,-99.749 			"/>
		</g>
		<g>
			
				<polygon fill="#333333" stroke="#000000" stroke-width="4" stroke-linecap="round" stroke-linejoin="round" stroke-miterlimit="10" points="
				93.904,-131.751 75.575,-100 75.575,-100 112.198,-100 112.198,-100 93.904,-131.751 			"/>
			
				<polygon fill="#333333" stroke="#000000" stroke-width="4" stroke-linecap="round" stroke-linejoin="round" stroke-miterlimit="10" points="
				112.169,-100.248 130.498,-132 130.498,-132 93.875,-132 93.875,-132 112.169,-100.248 			"/>
			
				<polygon fill="#333333" stroke="#000000" stroke-width="4" stroke-linecap="round" stroke-linejoin="round" stroke-miterlimit="10" points="
				75.569,-100.248 93.898,-132 93.898,-132 57.275,-132 57.275,-132 75.569,-100.248 			"/>
		</g>
	</g>
</pattern>
<pattern  width="110.551" height="65" patternUnits="userSpaceOnUse" id="New_Pattern_7" viewBox="38.611 -99.5 110.551 65" overflow="visible">
	<g>
		<polygon fill="none" points="38.611,-99.5 149.162,-99.5 149.162,-34.5 38.611,-34.5 		"/>
		<g>
			<polygon fill="#FFFFFF" stroke="#B3B3B3" stroke-width="4" stroke-linejoin="round" stroke-miterlimit="10" points="
				130.879,-66.251 112.551,-34.5 112.551,-34.5 149.174,-34.5 149.174,-34.5 130.879,-66.251 			"/>
			<polygon fill="#FFFFFF" stroke="#B3B3B3" stroke-width="4" stroke-linejoin="round" stroke-miterlimit="10" points="
				167.479,-66.251 149.15,-34.5 149.15,-34.5 185.773,-34.5 185.773,-34.5 167.479,-66.251 			"/>
			<polygon fill="#FFFFFF" stroke="#B3B3B3" stroke-width="4" stroke-linejoin="round" stroke-miterlimit="10" points="
				149.18,-34.251 130.851,-2.5 130.851,-2.5 167.474,-2.5 167.474,-2.5 149.18,-34.251 			"/>
			<polygon fill="#FFFFFF" stroke="#B3B3B3" stroke-width="4" stroke-linejoin="round" stroke-miterlimit="10" points="
				167.445,-2.748 185.773,-34.5 185.773,-34.5 149.15,-34.5 149.15,-34.5 167.445,-2.748 			"/>
			<polygon fill="#FFFFFF" stroke="#B3B3B3" stroke-width="4" stroke-linejoin="round" stroke-miterlimit="10" points="
				130.845,-2.748 149.174,-34.5 149.174,-34.5 112.551,-34.5 112.551,-34.5 130.845,-2.748 			"/>
			<polygon fill="#FFFFFF" stroke="#B3B3B3" stroke-width="4" stroke-linejoin="round" stroke-miterlimit="10" points="
				149.145,-34.749 167.474,-66.5 167.474,-66.5 130.851,-66.5 130.851,-66.5 149.145,-34.749 			"/>
		</g>
		<g>
			<polygon fill="#FFFFFF" stroke="#B3B3B3" stroke-width="4" stroke-linejoin="round" stroke-miterlimit="10" points="
				75.604,-33.751 57.275,-2 57.275,-2 93.898,-2 93.898,-2 75.604,-33.751 			"/>
			<polygon fill="#FFFFFF" stroke="#B3B3B3" stroke-width="4" stroke-linejoin="round" stroke-miterlimit="10" points="
				112.204,-33.751 93.875,-2 93.875,-2 130.498,-2 130.498,-2 112.204,-33.751 			"/>
			<polygon fill="#FFFFFF" stroke="#B3B3B3" stroke-width="4" stroke-linejoin="round" stroke-miterlimit="10" points="
				93.869,-2.249 112.198,-34 112.198,-34 75.575,-34 75.575,-34 93.869,-2.249 			"/>
		</g>
		<g>
			<polygon fill="#FFFFFF" stroke="#B3B3B3" stroke-width="4" stroke-linejoin="round" stroke-miterlimit="10" points="
				20.328,-66.251 2,-34.5 2,-34.5 38.623,-34.5 38.623,-34.5 20.328,-66.251 			"/>
			<polygon fill="#FFFFFF" stroke="#B3B3B3" stroke-width="4" stroke-linejoin="round" stroke-miterlimit="10" points="
				56.929,-66.251 38.6,-34.5 38.6,-34.5 75.223,-34.5 75.223,-34.5 56.929,-66.251 			"/>
			<polygon fill="#FFFFFF" stroke="#B3B3B3" stroke-width="4" stroke-linejoin="round" stroke-miterlimit="10" points="
				38.629,-34.251 20.3,-2.5 20.3,-2.5 56.923,-2.5 56.923,-2.5 38.629,-34.251 			"/>
			<polygon fill="#FFFFFF" stroke="#B3B3B3" stroke-width="4" stroke-linejoin="round" stroke-miterlimit="10" points="
				56.895,-2.748 75.223,-34.5 75.223,-34.5 38.6,-34.5 38.6,-34.5 56.895,-2.748 			"/>
			<polygon fill="#FFFFFF" stroke="#B3B3B3" stroke-width="4" stroke-linejoin="round" stroke-miterlimit="10" points="
				20.294,-2.748 38.623,-34.5 38.623,-34.5 2,-34.5 2,-34.5 20.294,-2.748 			"/>
			<polygon fill="#FFFFFF" stroke="#B3B3B3" stroke-width="4" stroke-linejoin="round" stroke-miterlimit="10" points="
				38.594,-34.749 56.923,-66.5 56.923,-66.5 20.3,-66.5 20.3,-66.5 38.594,-34.749 			"/>
		</g>
		<g>
			<polygon fill="#FFFFFF" stroke="#B3B3B3" stroke-width="4" stroke-linejoin="round" stroke-miterlimit="10" points="
				130.879,-131.251 112.551,-99.5 112.551,-99.5 149.174,-99.5 149.174,-99.5 130.879,-131.251 			"/>
			<polygon fill="#FFFFFF" stroke="#B3B3B3" stroke-width="4" stroke-linejoin="round" stroke-miterlimit="10" points="
				167.479,-131.251 149.15,-99.5 149.15,-99.5 185.773,-99.5 185.773,-99.5 167.479,-131.251 			"/>
			<polygon fill="#FFFFFF" stroke="#B3B3B3" stroke-width="4" stroke-linejoin="round" stroke-miterlimit="10" points="
				149.18,-99.251 130.851,-67.5 130.851,-67.5 167.474,-67.5 167.474,-67.5 149.18,-99.251 			"/>
			<polygon fill="#FFFFFF" stroke="#B3B3B3" stroke-width="4" stroke-linejoin="round" stroke-miterlimit="10" points="
				167.445,-67.748 185.773,-99.5 185.773,-99.5 149.15,-99.5 149.15,-99.5 167.445,-67.748 			"/>
			<polygon fill="#FFFFFF" stroke="#B3B3B3" stroke-width="4" stroke-linejoin="round" stroke-miterlimit="10" points="
				130.845,-67.748 149.174,-99.5 149.174,-99.5 112.551,-99.5 112.551,-99.5 130.845,-67.748 			"/>
			<polygon fill="#FFFFFF" stroke="#B3B3B3" stroke-width="4" stroke-linejoin="round" stroke-miterlimit="10" points="
				149.145,-99.749 167.474,-131.5 167.474,-131.5 130.851,-131.5 130.851,-131.5 149.145,-99.749 			"/>
		</g>
		<g>
			<polygon fill="#FFFFFF" stroke="#B3B3B3" stroke-width="4" stroke-linejoin="round" stroke-miterlimit="10" points="
				75.604,-98.751 57.275,-67 57.275,-67 93.898,-67 93.898,-67 75.604,-98.751 			"/>
			<polygon fill="#FFFFFF" stroke="#B3B3B3" stroke-width="4" stroke-linejoin="round" stroke-miterlimit="10" points="
				112.204,-98.751 93.875,-67 93.875,-67 130.498,-67 130.498,-67 112.204,-98.751 			"/>
			<polygon fill="#FFFFFF" stroke="#B3B3B3" stroke-width="4" stroke-linejoin="round" stroke-miterlimit="10" points="
				93.904,-66.751 75.575,-35 75.575,-35 112.198,-35 112.198,-35 93.904,-66.751 			"/>
			<polygon fill="#FFFFFF" stroke="#B3B3B3" stroke-width="4" stroke-linejoin="round" stroke-miterlimit="10" points="
				112.17,-35.248 130.498,-67 130.498,-67 93.875,-67 93.875,-67 112.17,-35.248 			"/>
			<polygon fill="#FFFFFF" stroke="#B3B3B3" stroke-width="4" stroke-linejoin="round" stroke-miterlimit="10" points="
				75.569,-35.248 93.898,-67 93.898,-67 57.275,-67 57.275,-67 75.569,-35.248 			"/>
			<polygon fill="#FFFFFF" stroke="#B3B3B3" stroke-width="4" stroke-linejoin="round" stroke-miterlimit="10" points="
				93.869,-67.249 112.198,-99 112.198,-99 75.575,-99 75.575,-99 93.869,-67.249 			"/>
		</g>
		<g>
			<polygon fill="#FFFFFF" stroke="#B3B3B3" stroke-width="4" stroke-linejoin="round" stroke-miterlimit="10" points="
				20.328,-131.251 2,-99.5 2,-99.5 38.623,-99.5 38.623,-99.5 20.328,-131.251 			"/>
			<polygon fill="#FFFFFF" stroke="#B3B3B3" stroke-width="4" stroke-linejoin="round" stroke-miterlimit="10" points="
				56.929,-131.251 38.6,-99.5 38.6,-99.5 75.223,-99.5 75.223,-99.5 56.929,-131.251 			"/>
			<polygon fill="#FFFFFF" stroke="#B3B3B3" stroke-width="4" stroke-linejoin="round" stroke-miterlimit="10" points="
				38.629,-99.251 20.3,-67.5 20.3,-67.5 56.923,-67.5 56.923,-67.5 38.629,-99.251 			"/>
			<polygon fill="#FFFFFF" stroke="#B3B3B3" stroke-width="4" stroke-linejoin="round" stroke-miterlimit="10" points="
				56.895,-67.748 75.223,-99.5 75.223,-99.5 38.6,-99.5 38.6,-99.5 56.895,-67.748 			"/>
			<polygon fill="#FFFFFF" stroke="#B3B3B3" stroke-width="4" stroke-linejoin="round" stroke-miterlimit="10" points="
				20.294,-67.748 38.623,-99.5 38.623,-99.5 2,-99.5 2,-99.5 20.294,-67.748 			"/>
			<polygon fill="#FFFFFF" stroke="#B3B3B3" stroke-width="4" stroke-linejoin="round" stroke-miterlimit="10" points="
				38.594,-99.749 56.923,-131.5 56.923,-131.5 20.3,-131.5 20.3,-131.5 38.594,-99.749 			"/>
		</g>
		<g>
			<polygon fill="#FFFFFF" stroke="#B3B3B3" stroke-width="4" stroke-linejoin="round" stroke-miterlimit="10" points="
				93.904,-131.751 75.575,-100 75.575,-100 112.198,-100 112.198,-100 93.904,-131.751 			"/>
			<polygon fill="#FFFFFF" stroke="#B3B3B3" stroke-width="4" stroke-linejoin="round" stroke-miterlimit="10" points="
				112.17,-100.248 130.498,-132 130.498,-132 93.875,-132 93.875,-132 112.17,-100.248 			"/>
			<polygon fill="#FFFFFF" stroke="#B3B3B3" stroke-width="4" stroke-linejoin="round" stroke-miterlimit="10" points="
				75.569,-100.248 93.898,-132 93.898,-132 57.275,-132 57.275,-132 75.569,-100.248 			"/>
		</g>
	</g>
</pattern>
<pattern  width="110.551" height="65" patternUnits="userSpaceOnUse" id="New_Pattern_8" viewBox="38.611 -99.5 110.551 65" overflow="visible">
	<g>
		<polygon fill="none" points="38.611,-99.5 149.162,-99.5 149.162,-34.5 38.611,-34.5 		"/>
		<g>
			<polygon fill="#CCCCCC" stroke="#333333" stroke-width="4" stroke-linejoin="round" stroke-miterlimit="10" points="
				130.879,-66.251 112.551,-34.5 112.551,-34.5 149.173,-34.5 149.173,-34.5 130.879,-66.251 			"/>
			<polygon fill="#CCCCCC" stroke="#333333" stroke-width="4" stroke-linejoin="round" stroke-miterlimit="10" points="
				167.479,-66.251 149.151,-34.5 149.151,-34.5 185.773,-34.5 185.773,-34.5 167.479,-66.251 			"/>
			<polygon fill="#CCCCCC" stroke="#333333" stroke-width="4" stroke-linejoin="round" stroke-miterlimit="10" points="
				149.179,-34.251 130.851,-2.5 130.851,-2.5 167.474,-2.5 167.474,-2.5 149.179,-34.251 			"/>
			<polygon fill="#CCCCCC" stroke="#333333" stroke-width="4" stroke-linejoin="round" stroke-miterlimit="10" points="
				167.445,-2.748 185.773,-34.5 185.773,-34.5 149.151,-34.5 149.151,-34.5 167.445,-2.748 			"/>
			<polygon fill="#CCCCCC" stroke="#333333" stroke-width="4" stroke-linejoin="round" stroke-miterlimit="10" points="
				130.845,-2.748 149.173,-34.5 149.173,-34.5 112.551,-34.5 112.551,-34.5 130.845,-2.748 			"/>
			<polygon fill="#CCCCCC" stroke="#333333" stroke-width="4" stroke-linejoin="round" stroke-miterlimit="10" points="
				149.145,-34.749 167.474,-66.5 167.474,-66.5 130.851,-66.5 130.851,-66.5 149.145,-34.749 			"/>
		</g>
		<g>
			<polygon fill="#CCCCCC" stroke="#333333" stroke-width="4" stroke-linejoin="round" stroke-miterlimit="10" points="
				75.604,-33.751 57.275,-2 57.275,-2 93.898,-2 93.898,-2 75.604,-33.751 			"/>
			<polygon fill="#CCCCCC" stroke="#333333" stroke-width="4" stroke-linejoin="round" stroke-miterlimit="10" points="
				112.204,-33.751 93.875,-2 93.875,-2 130.498,-2 130.498,-2 112.204,-33.751 			"/>
			<polygon fill="#CCCCCC" stroke="#333333" stroke-width="4" stroke-linejoin="round" stroke-miterlimit="10" points="
				93.87,-2.249 112.198,-34 112.198,-34 75.575,-34 75.575,-34 93.87,-2.249 			"/>
		</g>
		<g>
			<polygon fill="#CCCCCC" stroke="#333333" stroke-width="4" stroke-linejoin="round" stroke-miterlimit="10" points="
				20.329,-66.251 2,-34.5 2,-34.5 38.623,-34.5 38.623,-34.5 20.329,-66.251 			"/>
			<polygon fill="#CCCCCC" stroke="#333333" stroke-width="4" stroke-linejoin="round" stroke-miterlimit="10" points="
				56.929,-66.251 38.6,-34.5 38.6,-34.5 75.223,-34.5 75.223,-34.5 56.929,-66.251 			"/>
			<polygon fill="#CCCCCC" stroke="#333333" stroke-width="4" stroke-linejoin="round" stroke-miterlimit="10" points="
				38.628,-34.251 20.3,-2.5 20.3,-2.5 56.923,-2.5 56.923,-2.5 38.628,-34.251 			"/>
			<polygon fill="#CCCCCC" stroke="#333333" stroke-width="4" stroke-linejoin="round" stroke-miterlimit="10" points="
				56.894,-2.748 75.223,-34.5 75.223,-34.5 38.6,-34.5 38.6,-34.5 56.894,-2.748 			"/>
			<polygon fill="#CCCCCC" stroke="#333333" stroke-width="4" stroke-linejoin="round" stroke-miterlimit="10" points="
				20.294,-2.748 38.623,-34.5 38.623,-34.5 2,-34.5 2,-34.5 20.294,-2.748 			"/>
			<polygon fill="#CCCCCC" stroke="#333333" stroke-width="4" stroke-linejoin="round" stroke-miterlimit="10" points="
				38.594,-34.749 56.923,-66.5 56.923,-66.5 20.3,-66.5 20.3,-66.5 38.594,-34.749 			"/>
		</g>
		<g>
			<polygon fill="#CCCCCC" stroke="#333333" stroke-width="4" stroke-linejoin="round" stroke-miterlimit="10" points="
				130.879,-131.251 112.551,-99.5 112.551,-99.5 149.173,-99.5 149.173,-99.5 130.879,-131.251 			"/>
			<polygon fill="#CCCCCC" stroke="#333333" stroke-width="4" stroke-linejoin="round" stroke-miterlimit="10" points="
				167.479,-131.251 149.151,-99.5 149.151,-99.5 185.773,-99.5 185.773,-99.5 167.479,-131.251 			"/>
			<polygon fill="#CCCCCC" stroke="#333333" stroke-width="4" stroke-linejoin="round" stroke-miterlimit="10" points="
				149.179,-99.251 130.851,-67.5 130.851,-67.5 167.474,-67.5 167.474,-67.5 149.179,-99.251 			"/>
			<polygon fill="#CCCCCC" stroke="#333333" stroke-width="4" stroke-linejoin="round" stroke-miterlimit="10" points="
				167.445,-67.748 185.773,-99.5 185.773,-99.5 149.151,-99.5 149.151,-99.5 167.445,-67.748 			"/>
			<polygon fill="#CCCCCC" stroke="#333333" stroke-width="4" stroke-linejoin="round" stroke-miterlimit="10" points="
				130.845,-67.748 149.173,-99.5 149.173,-99.5 112.551,-99.5 112.551,-99.5 130.845,-67.748 			"/>
			<polygon fill="#CCCCCC" stroke="#333333" stroke-width="4" stroke-linejoin="round" stroke-miterlimit="10" points="
				149.145,-99.749 167.474,-131.5 167.474,-131.5 130.851,-131.5 130.851,-131.5 149.145,-99.749 			"/>
		</g>
		<g>
			<polygon fill="#CCCCCC" stroke="#333333" stroke-width="4" stroke-linejoin="round" stroke-miterlimit="10" points="
				75.604,-98.751 57.275,-67 57.275,-67 93.898,-67 93.898,-67 75.604,-98.751 			"/>
			<polygon fill="#CCCCCC" stroke="#333333" stroke-width="4" stroke-linejoin="round" stroke-miterlimit="10" points="
				112.204,-98.751 93.875,-67 93.875,-67 130.498,-67 130.498,-67 112.204,-98.751 			"/>
			<polygon fill="#CCCCCC" stroke="#333333" stroke-width="4" stroke-linejoin="round" stroke-miterlimit="10" points="
				93.904,-66.751 75.575,-35 75.575,-35 112.198,-35 112.198,-35 93.904,-66.751 			"/>
			<polygon fill="#CCCCCC" stroke="#333333" stroke-width="4" stroke-linejoin="round" stroke-miterlimit="10" points="
				112.169,-35.248 130.498,-67 130.498,-67 93.875,-67 93.875,-67 112.169,-35.248 			"/>
			<polygon fill="#CCCCCC" stroke="#333333" stroke-width="4" stroke-linejoin="round" stroke-miterlimit="10" points="
				75.569,-35.248 93.898,-67 93.898,-67 57.275,-67 57.275,-67 75.569,-35.248 			"/>
			<polygon fill="#CCCCCC" stroke="#333333" stroke-width="4" stroke-linejoin="round" stroke-miterlimit="10" points="
				93.87,-67.249 112.198,-99 112.198,-99 75.575,-99 75.575,-99 93.87,-67.249 			"/>
		</g>
		<g>
			<polygon fill="#CCCCCC" stroke="#333333" stroke-width="4" stroke-linejoin="round" stroke-miterlimit="10" points="
				20.329,-131.251 2,-99.5 2,-99.5 38.623,-99.5 38.623,-99.5 20.329,-131.251 			"/>
			<polygon fill="#CCCCCC" stroke="#333333" stroke-width="4" stroke-linejoin="round" stroke-miterlimit="10" points="
				56.929,-131.251 38.6,-99.5 38.6,-99.5 75.223,-99.5 75.223,-99.5 56.929,-131.251 			"/>
			<polygon fill="#CCCCCC" stroke="#333333" stroke-width="4" stroke-linejoin="round" stroke-miterlimit="10" points="
				38.628,-99.251 20.3,-67.5 20.3,-67.5 56.923,-67.5 56.923,-67.5 38.628,-99.251 			"/>
			<polygon fill="#CCCCCC" stroke="#333333" stroke-width="4" stroke-linejoin="round" stroke-miterlimit="10" points="
				56.894,-67.748 75.223,-99.5 75.223,-99.5 38.6,-99.5 38.6,-99.5 56.894,-67.748 			"/>
			<polygon fill="#CCCCCC" stroke="#333333" stroke-width="4" stroke-linejoin="round" stroke-miterlimit="10" points="
				20.294,-67.748 38.623,-99.5 38.623,-99.5 2,-99.5 2,-99.5 20.294,-67.748 			"/>
			<polygon fill="#CCCCCC" stroke="#333333" stroke-width="4" stroke-linejoin="round" stroke-miterlimit="10" points="
				38.594,-99.749 56.923,-131.5 56.923,-131.5 20.3,-131.5 20.3,-131.5 38.594,-99.749 			"/>
		</g>
		<g>
			<polygon fill="#CCCCCC" stroke="#333333" stroke-width="4" stroke-linejoin="round" stroke-miterlimit="10" points="
				93.904,-131.751 75.575,-100 75.575,-100 112.198,-100 112.198,-100 93.904,-131.751 			"/>
			<polygon fill="#CCCCCC" stroke="#333333" stroke-width="4" stroke-linejoin="round" stroke-miterlimit="10" points="
				112.169,-100.248 130.498,-132 130.498,-132 93.875,-132 93.875,-132 112.169,-100.248 			"/>
			<polygon fill="#CCCCCC" stroke="#333333" stroke-width="4" stroke-linejoin="round" stroke-miterlimit="10" points="
				75.569,-100.248 93.898,-132 93.898,-132 57.275,-132 57.275,-132 75.569,-100.248 			"/>
		</g>
	</g>
</pattern>
<path fill="#FFFF00" stroke="url(#New_Pattern_15)" stroke-miterlimit="10" d="M516.984,461.808"/>
<path fill="#FFFF00" stroke="url(#New_Pattern_15)" stroke-miterlimit="10" d="M516.984,461.808"/>
<path fill="#FFFF00" stroke="url(#New_Pattern_15)" stroke-miterlimit="10" d="M507.016,461.808"/>
<polyline fill="url(#New_Pattern_18)" points="357.874,274.536 385.669,373.01 442.576,360.933 "/>
<path fill="url(#New_Pattern_8)" d="M293.819,665.913c-14.306,5.537-32.21,1.727-42.455,0c-9.112-1.536-6.936,1.687-16.389,6.381
	c-9.453,4.694-15.914-4.074-38.063,0.541c-22.15,4.614-21.689-1.846-35.071-2.77c-13.382-0.922-18.92,1.847-31.379,1.385
	c-12.459-0.461-36.917-8.307-9.229-10.844c27.688-2.539,26.765-12.69,43.838-13.614c17.074-0.922,19.843,1.846,34.148-0.922
	c14.305-2.769,24.918-4.154,24.918-4.154s13.787-0.734,13.787-7.193c0-2.892-9.326-2.65-14.249-6.957
	c-7.108-6.22-20.304,3.538-20.304,3.538s-2.331-6.484-6.46-5.999c-5.008,0.586-12.505,7.898-19.689,4.307
	c-3.589-1.795,1.851-6.377-0.307-10.152c-2.462-4.307-0.616-11.69-0.616-11.69s-1.538-15.922,9.537-12.921
	c11.076,3.002,17.536,0.289,21.688,3.98c1.322,1.175,2.469,5.877,4.153,7.402c3.61,3.27,8.222,3.384,11.998,3.384
	c19.254,0,15.037,7.845,29.072,7.845l-11.845-8.767l-18.765-2.462c0,0-7.691-16.606-9.537-19.995
	c5.466-2.094,27.073,0.924-4.615-15.846c-2.447-1.294-18.15-10.918-18.15-10.918s-5.421-11.725,3.383-8.909
	s91.369,29.221,91.369,29.221S358.423,672.373,293.819,665.913z"/>
<path fill="url(#New_Pattern_7)" d="M305.202,460.719c6.768-59.683,73.525-39.379,73.525-39.379s27.216-54.684,31.913-67.027
	c4.696-12.342,16.447-18.039,33-13.573c10.302,2.78,33.758,3.622,29.533-7.999c-1.231-3.384,5.523-4.168,9.844-6.769
	c4.32-2.599,0.559-12.871,9.229-4.921c1.035,0.949,8.456,0.937,9.735,2.461c4.073,4.852-3.117,11.458,0,18.458
	c4.109,9.228,17.952,18.457,17.952,18.457s65.22,53.531,86.755,36.303c21.535-17.229,43.849-12.494,46.761-12.305
	c13.877,0.895,1.401,32.409,12.921,30.764c47.378-6.768,29.003,21.219,30.765,21.219c25.227-6.452,30.764,27.443,30.764,30.212
	c0,2.769,60.11-0.55,3.846,31.323c-13.064,7.401,0.043,14.665,6.613,22.458c5.07,6.014,0.892,14.292,11.075,11.075
	c23.381-7.382,28.304,6.152,20.224,10.721c-11.499,6.503,13.252,28.656,13.252,28.656l-276.847,39.686l-117.196,4.614
	c0,0-23.379-4.924-59.059-42.454c-35.68-37.531-39.501-75.063-41.347-92.291C286.613,463.179,305.202,460.719,305.202,460.719z"/>
<path display="none" fill="url(#New_Pattern_16)" d="M322.43,550.125c0,0,32.017-11.305,52.145-33.264
	c10.152-11.075,34.871-15.042,32.763-21.688c-3.131-9.877-24.612-8.388-35.532-18.458c-9.998-9.22-9.87-30.457-9.87-30.457
	l-3.051-8.306c0,0-10.613-10.152-7.383-18.92c3.23-8.768,13.325-2.48,17.074-8.768c3.75-6.288,5.307-14.075,11.998-17.536
	c3.297-1.706,0.101-4.096,1.846-6.922c5.343-8.646,4.615-16.151,4.615-16.151l13.382-12.921c0,0,13.383,5.076,19.843,1.384
	c6.46-3.692,1.116-15.846,7.179-18.355c3.322-1.375,9.21,9.601,14.972,10.049c8.2,0.638,11.074-8.768,16.151-8.767
	c5.076,0-3.583,17.436,3.692,17.996c2.195,0.169,2.352-2.435,7.383-4.614c7.196-3.117,15.413,11.075,15.413,11.075l2.953-4.614
	c0,0-3-11.537,0-11.537c4,0,11.583,21.458,6.045,27.457c-5.537,5.999-3.938,22.92,18.251,22.842
	c22.191-0.079-18.078-56.978-7.487-60.22c3.928-1.203,7.695-0.006,11.599-1.154c7.846-2.308,13.734-1.174,15.512-1.174
	c0.778,0,3.508,5.231,8.303,3.02c7.154-3.298,5.114,7.139,12.007,7.615c6.69,0.461,17.077,15.92,17.077,15.92
	s4.848,5.076,5.77,12.69c1.017,8.383,10.184,13.27,9.44,14.536c-2.978,5.076,8.098,21.227,10.867,18.458
	c1.283-1.284,6.801,6.244,10.383,1.154c4.383-6.229,16.611-11.306,15.458-6.46c-1.389,5.836,5.767,5.307,5.767,5.307l0.463,6.922
	c0,0,21.685,31.379,18.918,35.533c-2.767,4.153,16.705-11.306,18.807-0.692c2.101,10.613,19.958,41.569,16.729,54.471
	c-3.231,12.903,10.15,17.748,0,26.746c-10.152,8.999,3.806,33.917,3.806,33.917l-189.544,35.302L322.43,550.125z"/>
<path fill="url(#New_Pattern_8)" d="M804.654,686.613c0,0,5.538,7.999,99.829-0.087c2.489-10.767-50.722-19.996-50.722-19.996
	s-58.796,11.379-49.261-5.232c9.536-16.61-47.586-25.48-66.759-26.455c-16.463-0.838-40.607,10.46-40.607,10.46l31.688,43.992
	L804.654,686.613z"/>
<path fill="url(#New_Pattern_6)" d="M308.587,664.065c-12.805-3.848-32.188-18.571-28.265-22.609
	c3.921-4.038-10.499-1.27-17.882-3.692c-7.384-2.423-5.538-10.96-2.653-14.189c2.884-3.23,10.034-4.069,8.765-8.106
	c-1.269-4.038-17.188-4.238-8.305-6.66c-0.973-1.05-3.345-0.635-2.884-2.423c0.391-1.519,2.784,0.847,3-1.27
	c-7.499-5.076,5.768-2.884,5.768-2.884s-3.443-4.858-8.768-7.845c-2.695-1.512-8.531-0.292-9.229-2.307
	c-3.438-9.93-14.305-20.767-14.305-20.767s-10.383,3.923-13.69,0c-6.009-7.128-3.614-11.075-3.614-11.075
	c-14.075-10.844-14.306-14.997-4.999-18.151c-11.138,0.328-24.458-31.223-24.458-31.223s-0.128,4.622-6.615,0.614
	c-3.512-2.17-5.076-8-8.921-9.692c-5.381-2.366-7.949-6.466-9.691-7.381c-2.922-1.54-3.828,2.259-7.229,0.152
	c-1.502-0.929-2.979-3.793-4.153-4.46c-1.473-0.838-3.85-0.242-7.076-1.23c-1.976-0.605-3.847-2.583-5.691-3.538
	c-2.985-1.545-5.484-2.223-5.16-3.604c4.083-1.78,7.314,2.527,15.684,5.419c8.37,2.891,6.396,0.953,17.164,2.03
	c3.097,0.31,10.083,6.609,18.612,9.074c18.612,5.386,20.689,3.693,22.458,0.771c1.769-2.925-31.226-19.075-31.687-22.305
	c10.301,2.304,19.843,7.614,19.843,3.692c0-3.923-11.075-7.614-10.844-11.998c0.087-1.65,31.581,21.526,40.579,18.065
	c3.975-1.529,17.013,3.738,20.179,6.396c3.846,3.226,8.777-0.696,16.537,1.843c2.307,13.614,17.376,5.91,23.996,11.306
	c6.62,5.394,8.768,16.151,23.304,20.536l7.613,1.154c0,0,0.132,1.78,6.337,1.668c6.204-0.114,2.045-1.786,11.199-3.285
	c12.69-2.076,3.022,4.292,10.279,2.607c7.257-1.684,9.333,6.622,12.563,8.699c3.231,2.076,9.102-4.068,12.69,1.153
	c5.538,22.381,25.539,7.129,38.149,9.217c12.61,2.089,2.689,21.932,8.688,26.316c5.999,4.383,16.843,5.536,16.843,5.536
	s-6.691-8.997,0-14.305c16.844-4.153,24.458,20.305,24.458,20.305s9.921-3.461,14.074-6.23c4.153-2.769,8.076,11.765,13.613,11.534
	c5.538-0.228,3.96-9.957,10.882-8.572s22.256,14.402,28.875,10.104c6.618-4.298,0.025-27.511,7.312-35.216
	c3.075-3.252,7.94-9.818,13.613-14.074c7.771-5.829,16.336-8.964,17.27-8.296c1.614,1.153-2.271,9.68-2.271,9.68
	s16.612-8.421,18.458-6.69c1.846,1.729-2.538,11.536-2.538,11.536s2.387-0.842,5.152,0.692c2.155,1.195,4.168,5.029,7.887,4.06
	c8.491-2.214,7.342-6.828,11.88-10.289s11.625,6.439,13.92-0.385c2.296-6.824,0.405-8.247,3.664-10.353
	c3.258-2.106,10.488,0.507,10.488,0.507s-0.453-2.928,2.152-5.845c3.626-1.768,7.049-4.017,10.769-5.844
	c1.24-0.61,1.833-2.385,3.384-2.462c1.236-0.062,3.566,2.055,5.229,3.074c2.476,1.521,4.105,2.308,3.537,3.539
	c-2.09,4.535-6.768,6.29-6.768,6.29s4,2.478,4.154,5.553c0.034,0.688-0.841,3.786-3.385,5.691
	c-2.573,1.931-7.955,0.476-11.229,3.384c-6.921,6.153-18.112,14.027-17.688,15.383c0.768,2.461,13.21-0.093,19.208-5.784
	c6-5.69,18.938,7.628,26.631,1.63c7.69-5.999,31.224-8.767,31.224-8.767s18.459-0.616,25.381-4s6.483,6.574,14.021,5.498
	c7.538-1.077,11.249,7.527,17.666,3.577c8-4.923,15.06-3.898,15.06-3.898s-2.748-7.7,0.016-8.254
	c3.075-0.614,5.999-2.307,5.999-2.307s19.228,1.077,22.765,3.385c3.538,2.308,14.46-1.845,14.768,1.692
	c0.308,3.538-7.23,4.769-6.614,7.384c0.615,2.615,19.997,5.537,23.842,3.23c3.845-2.309,23.534,3.384,23.842,5.537
	c0.308,2.154-13.152,3.512-7.69,4.308c6.059,0.884,15.997-7.69,24.303-4.922c1.85,0.616,2.355,7.608-1.23,10.61
	c-5.084,4.261-10.9,10.752-18.458,15.382c-11.732,7.187-20.613,7.847-25.533,14.922c-1.3,1.868-14.868-1.063-16.306,5.846
	c-1.538,7.383-17.226,17.445-22.15,16.612c-1.847,7.69-19.996,10.768-26.148,16.304c-6.154,5.538-39.686,9.845-40.609-1.536
	c0.794,5.286,6.363,10.55,8.307,15.38c2.578,6.412,1.538,11.693,1.538,11.693l9.932,10.64c0,0,67.901,7.664,65.132,13.047
	c-2.769,5.383-122.134-4.611-132.285-1.075c-10.151,3.537-68.298-13.843-100.598-10.383c-32.302,3.458-57.222,0.809-57.222,0.809
	s-11.411-6.32-25.841-7.81c-9.427-0.971-20.116,2.169-29.841,3.385c-24.61,3.076-25.227-5.846-51.068-3.385
	c-12.615,1.202-33.69-3.707-53.221-5.228C333.944,664.318,315.141,666.034,308.587,664.065z"/>
<path fill="url(#New_Pattern_7)" d="M150.226,491.001c1.555,0.354,3.179-0.777,5.087,0c1.907,0.778-0.071,5.086,1.484,5.723
	c1.555,0.635,7.488-2.544,10.385-1.484c2.897,1.061-2.896,3.815,5.087,5.087c7.984,1.271,4.027,3.814,4.027,6.782
	c0,2.969,5.439,6.429,6.994,5.722c1.555-0.707,6.57-7.629,5.723-4.662s4.027,9.749,4.027,10.384s5.299,8.902,5.299,8.902
	s1.06-1.405,9.326,7.631c8.266,9.035,7.842-7.844,7.842-7.844s-2.12-4.375,0-8.266c2.119-3.89-11.021-7.417-11.021-7.417
	s-13.635-8.616-8.267-6.783c5.37,1.834,24.445,2.97,19.288,1.272c-5.157-1.699-4.16-4.529-7.418-4.875
	c-3.259-0.346-34.054-3.321-37.516-7.842c-3.46-4.521-9.819-2.826-12.928-4.027c-3.108-1.201,0.212,1.414-7.206-1.555
	C143.02,484.783,148.671,490.648,150.226,491.001z"/>
<path fill="url(#New_Pattern_7)" d="M625.099,549.287c0,0,5.726,1.271,8.918-0.438c5.309-2.847,2.276-8.666,3.232-7.115
	c2.964,4.802,6.699,1.424,9.724,0c0.907-0.426-0.279-1.381-0.533-2.31c2.65-1.776-1.706-4.981,0.533-6.227
	c3.2-1.778,7.113-8.003,0.889-7.113c-1.639,0.234-1.017-2.016-2.313-1.973c-2.35,0.081-4.267,1.262-4.267,1.262l-3.913,3.379
	c0,0-4.698,0.678-6.046,2.075c-2.526,2.619,0,0-1.157,4.772c-4.201-7.004-5.327,1.793-8.091,7.557
	c-0.921,1.922-3.202,2.757-4.269,3.558C613.537,549.915,625.099,549.287,625.099,549.287z"/>
<polygon fill="none" points="820.453,601 862.215,575.504 870.177,563.372 854.773,566.535 838.768,575.688 833.22,575 815.069,575 
	803.07,590.459 793.842,601 "/>
<polyline fill="url(#New_Pattern_18)" points="140.731,524.726 171.271,556.96 190.705,540.841 "/>
<polyline fill="url(#New_Pattern_18)" points="141.192,574.563 171.732,606.798 191.167,590.678 "/>
<polyline fill="url(#New_Pattern_18)" points="95.287,450.797 140.344,498.354 169.016,474.574 "/>
<polyline fill="#FFFFFF" points="692.069,480.758 642.574,514.843 663.689,520.999 "/>
<polyline fill="url(#New_Pattern_18)" points="715.992,350.536 649.582,396.269 673.037,435.659 "/>
<polyline fill="url(#New_Pattern_18)" points="800.131,448.376 743.727,471.857 763.431,482.425 "/>
<polyline fill="url(#New_Pattern_18)" points="899.445,549.566 876.291,559.204 880.891,572.7 "/>
<polyline fill="url(#New_Pattern_18)" points="850.216,514.944 814.697,529.731 821.755,550.435 "/>
<polyline fill="url(#New_Pattern_18)" points="821.984,491.563 754.648,518.965 767.671,558.191 "/>
<polyline fill="url(#New_Pattern_18)" points="147.229,448.128 178.523,481.317 198.526,464.807 "/>
<path fill="url(#New_Pattern_12)" d="M463.125,673.25C438.519,675.354,269.422,649,310.362,649c40.94,0,76.473,0,76.473,0
	s-62.589-98.162-27.596-70.752c97.43,76.322,131.475,68.859,137.46,34.039c5.281-30.722,12.768,20.395,12.768,20.395
	s68.411-22.12,92.026-32.711c8.226,8.044-40.524,36.802-26.302,43.301c14.224,6.498,183.999-45.364,182.635-36.238
	c-1.363,9.126-89.019,63.756-85.734,65.08c3.286,1.323,61.449,11.344,31.841,12.828c-29.609,1.49-133.787-11.426-169.839-12.107
	C498.044,672.153,487.73,671.145,463.125,673.25z"/>
<g>
	<defs>
		<circle id="SVGID_1_" cx="512" cy="512" r="168.75"/>
	</defs>
	<clipPath id="SVGID_2_">
		<use xlink:href="#SVGID_1_"  overflow="visible"/>
	</clipPath>
	<path clip-path="url(#SVGID_2_)" fill="url(#New_Pattern_18)" d="M305.176,460.713c6.768-59.683,73.525-39.379,73.525-39.379
		s27.216-54.684,31.913-67.027c4.696-12.342,16.447-18.039,33-13.573c10.302,2.78,33.758,3.622,29.533-7.999
		c-1.231-3.384,5.523-4.168,9.844-6.769c4.32-2.599,0.559-12.871,9.229-4.921c1.035,0.949,8.456,0.937,9.735,2.461
		c4.073,4.852-3.117,11.458,0,18.458c4.109,9.228,17.952,18.457,17.952,18.457s65.22,53.531,86.755,36.303
		c21.535-17.229,43.849-12.494,46.761-12.305c13.877,0.895,1.401,32.409,12.921,30.764c47.378-6.769,29.003,21.219,30.765,21.219
		c25.227-6.452,30.764,27.443,30.764,30.212c0,2.77,60.11-0.55,3.846,31.322c-13.064,7.401,0.043,14.666,6.613,22.459
		c5.07,6.014,0.892,14.292,11.075,11.075c23.381-7.382,28.304,6.152,20.224,10.721c-11.499,6.503,13.252,28.656,13.252,28.656
		l-276.847,39.686l-117.196,4.614c0,0-23.379-4.924-59.059-42.454c-35.68-37.531-39.501-75.063-41.347-92.291
		C286.588,463.173,305.176,460.713,305.176,460.713z"/>
</g>
<path fill="url(#New_Pattern_16)" d="M322.404,550.119c0,0,32.017-11.305,52.145-33.264c10.152-11.074,34.871-15.042,32.763-21.688
	c-3.131-9.877-24.612-8.388-35.532-18.458c-9.998-9.221-9.87-30.457-9.87-30.457l-3.051-8.306c0,0-10.613-10.152-7.383-18.92
	c3.23-8.768,13.325-2.48,17.074-8.768c3.75-6.288,5.307-14.075,11.998-17.536c3.297-1.706,0.101-4.096,1.846-6.922
	c5.343-8.646,4.615-16.151,4.615-16.151l13.382-12.921c0,0,13.383,5.076,19.843,1.384c6.46-3.692,1.116-15.846,7.179-18.355
	c3.322-1.375,9.21,9.601,14.972,10.049c8.2,0.638,11.074-8.768,16.151-8.767c5.076,0-3.583,17.436,3.692,17.996
	c2.195,0.169,2.352-2.435,7.383-4.614c7.196-3.117,15.425,11.075,15.425,11.075l2.966-4.614c0,0-3-11.537,0-11.537
	c4,0,11.57,21.458,6.032,27.457c-5.537,5.999-3.945,22.92,18.245,22.842c22.191-0.079-18.081-56.978-7.49-60.22
	c3.928-1.203,7.693-0.006,11.598-1.154c7.846-2.308,13.733-1.174,15.511-1.174c0.778,0,3.507,5.231,8.302,3.02
	c7.154-3.298,5.114,7.139,12.007,7.615c6.69,0.461,17.077,15.92,17.077,15.92s4.848,5.076,5.77,12.69
	c1.017,8.383,10.184,13.27,9.44,14.536c-2.978,5.076,8.098,21.227,10.867,18.458c1.283-1.284,6.801,6.244,10.383,1.154
	c4.383-6.229,16.611-11.306,15.458-6.46c-1.389,5.836,5.767,5.307,5.767,5.307l0.463,6.922c0,0,21.685,31.379,18.918,35.533
	s16.705-11.306,18.807-0.692c2.101,10.613,19.958,41.569,16.729,54.471c-3.231,12.903,10.15,17.748,0,26.746
	c-10.152,8.999,3.806,33.917,3.806,33.917l-189.544,35.302L322.404,550.119z"/>
<g>
	<defs>
		<circle id="SVGID_3_" cx="512" cy="512" r="168.75"/>
	</defs>
	<clipPath id="SVGID_4_">
		<use xlink:href="#SVGID_3_"  overflow="visible"/>
	</clipPath>
	<path clip-path="url(#SVGID_4_)" fill="url(#New_Pattern_14)" d="M322.404,550.119c0,0,32.017-11.305,52.145-33.264
		c10.152-11.074,34.871-15.042,32.763-21.688c-3.131-9.877-24.612-8.388-35.532-18.458c-9.998-9.221-9.87-30.457-9.87-30.457
		l-3.051-8.306c0,0-10.613-10.152-7.383-18.92c3.23-8.768,13.325-2.48,17.074-8.768c3.75-6.288,5.307-14.075,11.998-17.536
		c3.297-1.706,0.101-4.096,1.846-6.922c5.343-8.646,4.615-16.151,4.615-16.151l13.382-12.921c0,0,13.383,5.076,19.843,1.384
		c6.46-3.692,1.116-15.846,7.179-18.355c3.322-1.375,9.21,9.601,14.972,10.049c8.2,0.638,11.074-8.768,16.151-8.767
		c5.076,0-3.583,17.436,3.692,17.996c2.195,0.169,2.352-2.435,7.383-4.614c7.196-3.117,15.425,11.075,15.425,11.075l2.966-4.614
		c0,0-3-11.537,0-11.537c4,0,11.57,21.458,6.032,27.457c-5.537,5.999-3.945,22.92,18.245,22.842
		c22.191-0.079-18.081-56.978-7.49-60.22c3.928-1.203,7.693-0.006,11.598-1.154c7.846-2.308,13.733-1.174,15.511-1.174
		c0.778,0,3.507,5.231,8.302,3.02c7.154-3.298,5.114,7.139,12.007,7.615c6.69,0.461,17.077,15.92,17.077,15.92
		s4.848,5.076,5.77,12.69c1.017,8.383,10.184,13.27,9.44,14.536c-2.978,5.076,8.098,21.227,10.867,18.458
		c1.283-1.284,6.801,6.244,10.383,1.154c4.383-6.229,16.611-11.306,15.458-6.46c-1.389,5.836,5.767,5.307,5.767,5.307l0.463,6.922
		c0,0,21.685,31.379,18.918,35.533s16.705-11.306,18.807-0.692c2.101,10.613,19.958,41.569,16.729,54.471
		c-3.231,12.903,10.15,17.748,0,26.746c-10.152,8.999,3.806,33.917,3.806,33.917l-189.544,35.302L322.404,550.119z"/>
</g>
<g>
	<defs>
		<circle id="SVGID_5_" cx="512" cy="512" r="168.75"/>
	</defs>
	<clipPath id="SVGID_6_">
		<use xlink:href="#SVGID_5_"  overflow="visible"/>
	</clipPath>
	<path clip-path="url(#SVGID_6_)" fill="url(#New_Pattern_5)" d="M308.562,664.06c-12.805-3.848-32.188-18.571-28.265-22.609
		c3.921-4.038-10.499-1.27-17.882-3.692c-7.384-2.423-5.538-10.96-2.653-14.189c2.884-3.23,10.034-4.069,8.765-8.106
		c-1.269-4.038-17.188-4.238-8.305-6.66c-0.973-1.05-3.345-0.635-2.884-2.423c0.391-1.519,2.784,0.847,3-1.27
		c-7.499-5.076,5.768-2.884,5.768-2.884s-3.443-4.858-8.768-7.845c-2.695-1.512-8.531-0.292-9.229-2.307
		c-3.438-9.93-14.305-20.767-14.305-20.767s-10.383,3.923-13.69,0c-6.009-7.128-3.614-11.075-3.614-11.075
		c-14.075-10.844-14.306-14.997-4.999-18.151c-11.138,0.328-24.458-31.223-24.458-31.223s-0.128,4.622-6.615,0.614
		c-3.512-2.171-5.076-8.001-8.921-9.692c-5.381-2.366-7.949-6.466-9.691-7.382c-2.922-1.539-3.828,2.26-7.229,0.152
		c-1.502-0.929-2.979-3.793-4.153-4.46c-1.473-0.839-3.85-0.241-7.076-1.23c-1.976-0.605-3.847-2.583-5.691-3.538
		c-2.985-1.545-5.484-2.223-5.16-3.604c4.083-1.779,7.314,2.527,15.684,5.419c8.37,2.891,6.396,0.953,17.164,2.03
		c3.097,0.311,10.083,6.609,18.612,9.074c18.612,5.386,20.689,3.693,22.458,0.771c1.769-2.925-31.226-19.074-31.687-22.305
		c10.301,2.303,19.843,7.613,19.843,3.691c0-3.923-11.075-7.614-10.844-11.998c0.087-1.65,31.581,21.525,40.579,18.064
		c3.975-1.528,17.013,3.738,20.179,6.396c3.846,3.226,8.777-0.696,16.537,1.842c2.307,13.614,17.376,5.91,23.996,11.307
		c6.62,5.393,8.768,16.15,23.304,20.535l7.613,1.154c0,0,0.132,1.78,6.337,1.668c6.204-0.114,2.045-1.786,11.199-3.285
		c12.69-2.076,3.022,4.292,10.279,2.607c7.257-1.684,9.333,6.622,12.563,8.699c3.231,2.076,9.102-4.068,12.69,1.153
		c5.538,22.381,25.539,7.129,38.149,9.217c12.61,2.089,2.689,21.932,8.688,26.316c5.999,4.383,16.843,5.536,16.843,5.536
		s-6.691-8.997,0-14.305c16.844-4.153,24.458,20.305,24.458,20.305s9.921-3.461,14.074-6.23c4.153-2.769,8.076,11.765,13.613,11.534
		c5.538-0.228,3.96-9.957,10.882-8.572s22.256,14.402,28.875,10.104c6.618-4.298,0.025-27.511,7.312-35.216
		c3.075-3.252,7.94-9.818,13.613-14.074c7.771-5.829,16.336-8.964,17.27-8.296c1.614,1.153-2.271,9.68-2.271,9.68
		s16.612-8.421,18.458-6.69c1.846,1.729-2.538,11.536-2.538,11.536s2.387-0.842,5.152,0.692c2.155,1.195,4.168,5.029,7.887,4.06
		c8.491-2.214,7.342-6.828,11.88-10.289s11.625,6.439,13.92-0.385c2.296-6.824,0.405-8.247,3.664-10.353
		c3.258-2.106,10.488,0.507,10.488,0.507s-0.453-2.928,2.152-5.845c3.626-1.768,7.049-4.017,10.769-5.844
		c1.24-0.61,1.833-2.385,3.384-2.462c1.236-0.062,3.566,2.055,5.229,3.074c2.476,1.521,4.105,2.308,3.537,3.539
		c-2.09,4.535-6.768,6.29-6.768,6.29s4,2.478,4.154,5.553c0.034,0.688-0.841,3.786-3.385,5.691
		c-2.573,1.931-7.955,0.476-11.229,3.384c-6.921,6.153-18.112,14.027-17.688,15.383c0.768,2.461,13.21-0.093,19.208-5.784
		c6-5.69,18.938,7.628,26.631,1.63c7.69-5.999,31.224-8.767,31.224-8.767s18.459-0.616,25.381-4s6.483,6.574,14.021,5.498
		c7.538-1.077,11.249,7.527,17.666,3.577c8-4.923,15.06-3.898,15.06-3.898s-2.748-7.7,0.016-8.254
		c3.075-0.614,5.999-2.307,5.999-2.307s19.228,1.077,22.765,3.385c3.538,2.308,14.46-1.845,14.768,1.692
		c0.308,3.538-7.23,4.769-6.614,7.384c0.615,2.615,19.997,5.537,23.842,3.23c3.845-2.309,23.534,3.384,23.842,5.537
		c0.308,2.154-13.152,3.512-7.69,4.308c6.059,0.884,15.997-7.69,24.303-4.922c1.85,0.616,2.355,7.608-1.23,10.61
		c-5.084,4.261-10.9,10.752-18.458,15.382c-11.732,7.187-20.613,7.847-25.533,14.922c-1.3,1.868-14.868-1.063-16.306,5.846
		c-1.538,7.383-17.226,17.445-22.15,16.612c-1.847,7.69-19.996,10.768-26.148,16.304c-6.154,5.538-39.686,9.845-40.609-1.536
		c0.794,5.286,6.363,10.55,8.307,15.38c2.578,6.412,1.538,11.693,1.538,11.693l9.932,10.64c0,0,67.901,7.664,65.132,13.047
		c-2.769,5.383-122.134-4.611-132.285-1.075c-10.151,3.537-68.298-13.843-100.598-10.383c-32.302,3.458-57.222,0.809-57.222,0.809
		s-11.411-6.32-25.841-7.81c-9.427-0.971-20.116,2.169-29.841,3.385c-24.61,3.076-25.227-5.846-51.068-3.385
		c-12.615,1.202-33.69-3.707-53.221-5.228C333.919,664.313,315.115,666.028,308.562,664.06z"/>
</g>
<g>
	<defs>
		<circle id="SVGID_7_" cx="512" cy="512" r="168.75"/>
	</defs>
	<clipPath id="SVGID_8_">
		<use xlink:href="#SVGID_7_"  overflow="visible"/>
	</clipPath>
	<path clip-path="url(#SVGID_8_)" fill="url(#New_Pattern_6)" d="M463.099,673.247C438.493,675.351,269.397,649,310.337,649
		c40.94,0,76.473,0,76.473,0s-62.589-98.165-27.596-70.755c97.43,76.322,131.475,68.858,137.46,34.038
		c5.281-30.723,12.768,20.394,12.768,20.394s68.411-22.121,92.026-32.712c8.226,8.044-40.524,36.802-26.302,43.301
		c14.224,6.498,183.999-45.364,182.635-36.238c-1.363,9.126-89.019,63.756-85.734,65.08c3.286,1.323,61.449,11.344,31.841,12.828
		c-29.609,1.49-133.787-11.424-169.839-12.105C498.019,672.148,487.705,671.142,463.099,673.247z"/>
</g>
<path fill="url(#New_Pattern_15)" d="M422.392,471.355c-15.998-5.231,7.382,16.875-13.946,13.113
	c-21.328-3.761,4.923,15.717,0,29.808c-4.921,14.09,20.099,7.711,13.946,22.298c-6.152,14.586,23.79,3.612,27.07,15.937
	c3.282,12.326,10.255,14.763,25.43,9.607c15.177-5.155,55.374,19.986,46.759,2.234c-8.612-17.751,0-31.842,0-31.842l9.844-22.378
	c0,0,18.869-19.165,22.149-18.701c3.282,0.464,44.299-9.614,44.299-9.614s13.124-6.849,43.477,2.651
	c30.354,9.5-18.867-34.429-30.353-27.384c-11.484,7.045-34.452,2.486-53.32,6.631s-15.997-24.037-22.149-34.812
	c-6.152-10.775,21.738,2.072,16.406-4.145c-5.332-6.216-25.021-5.388-27.071-21.551c-2.05-16.162-41.804-36.988-27.449-17.509
	c14.813,20.097-0.014,51.531-0.441,53.979c-3.692,21.136,38.555-4.145,27.89,13.262c-10.664,17.406,10.254,17.469,6.563,31.528
	c-3.69,14.058-20.098-5.958-23.788,13.79c-3.692,19.747-23.791,18.087-13.126,25.963c10.665,7.873,7.383,20.295,7.383,20.295
	s-20.099-18.833-36.915-3.401c-16.816,15.433-21.328-9.702-32.813-23.865c-11.485-14.165-4.102-28.164,9.024-21.786
	c13.125,6.378,20.098-31.687,18.047-10.997c-2.051,20.689,14.766-5.79,14.766-5.79s-2.871-21.748-18.047-12.554
	c-15.175,9.195,2.872-32.248-5.742-15.671C441.669,467.03,434.685,475.374,422.392,471.355z"/>
</svg>
