<?xml version="1.0" encoding="utf-8"?>
<!-- Generator: Adobe Illustrator 16.0.0, SVG Export Plug-In . SVG Version: 6.00 Build 0)  -->
<!DOCTYPE svg PUBLIC "-//W3C//DTD SVG 1.1//EN" "http://www.w3.org/Graphics/SVG/1.1/DTD/svg11.dtd">
<svg version="1.1" id="Layer_1" xmlns="http://www.w3.org/2000/svg" xmlns:xlink="http://www.w3.org/1999/xlink" x="0px" y="0px"
	 width="1024px" height="1024px" viewBox="0 0 1024 1024" enable-background="new 0 0 1024 1024" xml:space="preserve">
<pattern  width="110.551" height="65" patternUnits="userSpaceOnUse" id="New_Pattern_13" viewBox="38.611 -99.5 110.551 65" overflow="visible">
	<g>
		<polygon fill="none" points="38.611,-99.5 149.162,-99.5 149.162,-34.5 38.611,-34.5 		"/>
		<g>
			<polygon fill="#9E005D" stroke="#662D91" stroke-width="4" stroke-linejoin="round" stroke-miterlimit="10" points="
				130.879,-66.251 112.551,-34.5 112.551,-34.5 149.174,-34.5 149.174,-34.5 130.879,-66.251 			"/>
			<polygon fill="#9E005D" stroke="#662D91" stroke-width="4" stroke-linejoin="round" stroke-miterlimit="10" points="
				167.479,-66.251 149.15,-34.5 149.15,-34.5 185.773,-34.5 185.773,-34.5 167.479,-66.251 			"/>
			<polygon fill="#9E005D" stroke="#662D91" stroke-width="4" stroke-linejoin="round" stroke-miterlimit="10" points="
				149.18,-34.251 130.851,-2.5 130.851,-2.5 167.474,-2.5 167.474,-2.5 149.18,-34.251 			"/>
			<polygon fill="#9E005D" stroke="#662D91" stroke-width="4" stroke-linejoin="round" stroke-miterlimit="10" points="
				167.445,-2.748 185.773,-34.5 185.773,-34.5 149.15,-34.5 149.15,-34.5 167.445,-2.748 			"/>
			<polygon fill="#9E005D" stroke="#662D91" stroke-width="4" stroke-linejoin="round" stroke-miterlimit="10" points="
				130.845,-2.748 149.174,-34.5 149.174,-34.5 112.551,-34.5 112.551,-34.5 130.845,-2.748 			"/>
			<polygon fill="#9E005D" stroke="#662D91" stroke-width="4" stroke-linejoin="round" stroke-miterlimit="10" points="
				149.145,-34.749 167.474,-66.5 167.474,-66.5 130.851,-66.5 130.851,-66.5 149.145,-34.749 			"/>
		</g>
		<g>
			<polygon fill="#9E005D" stroke="#662D91" stroke-width="4" stroke-linejoin="round" stroke-miterlimit="10" points="
				75.604,-33.751 57.275,-2 57.275,-2 93.898,-2 93.898,-2 75.604,-33.751 			"/>
			<polygon fill="#9E005D" stroke="#662D91" stroke-width="4" stroke-linejoin="round" stroke-miterlimit="10" points="
				112.204,-33.751 93.875,-2 93.875,-2 130.498,-2 130.498,-2 112.204,-33.751 			"/>
			<polygon fill="#9E005D" stroke="#662D91" stroke-width="4" stroke-linejoin="round" stroke-miterlimit="10" points="
				93.869,-2.249 112.198,-34 112.198,-34 75.575,-34 75.575,-34 93.869,-2.249 			"/>
		</g>
		<g>
			<polygon fill="#9E005D" stroke="#662D91" stroke-width="4" stroke-linejoin="round" stroke-miterlimit="10" points="
				20.328,-66.251 2,-34.5 2,-34.5 38.623,-34.5 38.623,-34.5 20.328,-66.251 			"/>
			<polygon fill="#9E005D" stroke="#662D91" stroke-width="4" stroke-linejoin="round" stroke-miterlimit="10" points="
				56.929,-66.251 38.6,-34.5 38.6,-34.5 75.223,-34.5 75.223,-34.5 56.929,-66.251 			"/>
			<polygon fill="#9E005D" stroke="#662D91" stroke-width="4" stroke-linejoin="round" stroke-miterlimit="10" points="
				38.629,-34.251 20.3,-2.5 20.3,-2.5 56.923,-2.5 56.923,-2.5 38.629,-34.251 			"/>
			<polygon fill="#9E005D" stroke="#662D91" stroke-width="4" stroke-linejoin="round" stroke-miterlimit="10" points="
				56.895,-2.748 75.223,-34.5 75.223,-34.5 38.6,-34.5 38.6,-34.5 56.895,-2.748 			"/>
			<polygon fill="#9E005D" stroke="#662D91" stroke-width="4" stroke-linejoin="round" stroke-miterlimit="10" points="
				20.294,-2.748 38.623,-34.5 38.623,-34.5 2,-34.5 2,-34.5 20.294,-2.748 			"/>
			<polygon fill="#9E005D" stroke="#662D91" stroke-width="4" stroke-linejoin="round" stroke-miterlimit="10" points="
				38.594,-34.749 56.923,-66.5 56.923,-66.5 20.3,-66.5 20.3,-66.5 38.594,-34.749 			"/>
		</g>
		<g>
			<polygon fill="#9E005D" stroke="#662D91" stroke-width="4" stroke-linejoin="round" stroke-miterlimit="10" points="
				130.879,-131.251 112.551,-99.5 112.551,-99.5 149.174,-99.5 149.174,-99.5 130.879,-131.251 			"/>
			<polygon fill="#9E005D" stroke="#662D91" stroke-width="4" stroke-linejoin="round" stroke-miterlimit="10" points="
				167.479,-131.251 149.15,-99.5 149.15,-99.5 185.773,-99.5 185.773,-99.5 167.479,-131.251 			"/>
			<polygon fill="#9E005D" stroke="#662D91" stroke-width="4" stroke-linejoin="round" stroke-miterlimit="10" points="
				149.18,-99.251 130.851,-67.5 130.851,-67.5 167.474,-67.5 167.474,-67.5 149.18,-99.251 			"/>
			<polygon fill="#9E005D" stroke="#662D91" stroke-width="4" stroke-linejoin="round" stroke-miterlimit="10" points="
				167.445,-67.748 185.773,-99.5 185.773,-99.5 149.15,-99.5 149.15,-99.5 167.445,-67.748 			"/>
			<polygon fill="#9E005D" stroke="#662D91" stroke-width="4" stroke-linejoin="round" stroke-miterlimit="10" points="
				130.845,-67.748 149.174,-99.5 149.174,-99.5 112.551,-99.5 112.551,-99.5 130.845,-67.748 			"/>
			<polygon fill="#9E005D" stroke="#662D91" stroke-width="4" stroke-linejoin="round" stroke-miterlimit="10" points="
				149.145,-99.749 167.474,-131.5 167.474,-131.5 130.851,-131.5 130.851,-131.5 149.145,-99.749 			"/>
		</g>
		<g>
			<polygon fill="#9E005D" stroke="#662D91" stroke-width="4" stroke-linejoin="round" stroke-miterlimit="10" points="
				75.604,-98.751 57.275,-67 57.275,-67 93.898,-67 93.898,-67 75.604,-98.751 			"/>
			<polygon fill="#9E005D" stroke="#662D91" stroke-width="4" stroke-linejoin="round" stroke-miterlimit="10" points="
				112.204,-98.751 93.875,-67 93.875,-67 130.498,-67 130.498,-67 112.204,-98.751 			"/>
			<polygon fill="#9E005D" stroke="#662D91" stroke-width="4" stroke-linejoin="round" stroke-miterlimit="10" points="
				93.904,-66.751 75.575,-35 75.575,-35 112.198,-35 112.198,-35 93.904,-66.751 			"/>
			<polygon fill="#9E005D" stroke="#662D91" stroke-width="4" stroke-linejoin="round" stroke-miterlimit="10" points="
				112.17,-35.248 130.498,-67 130.498,-67 93.875,-67 93.875,-67 112.17,-35.248 			"/>
			<polygon fill="#9E005D" stroke="#662D91" stroke-width="4" stroke-linejoin="round" stroke-miterlimit="10" points="
				75.569,-35.248 93.898,-67 93.898,-67 57.275,-67 57.275,-67 75.569,-35.248 			"/>
			<polygon fill="#9E005D" stroke="#662D91" stroke-width="4" stroke-linejoin="round" stroke-miterlimit="10" points="
				93.869,-67.249 112.198,-99 112.198,-99 75.575,-99 75.575,-99 93.869,-67.249 			"/>
		</g>
		<g>
			<polygon fill="#9E005D" stroke="#662D91" stroke-width="4" stroke-linejoin="round" stroke-miterlimit="10" points="
				20.328,-131.251 2,-99.5 2,-99.5 38.623,-99.5 38.623,-99.5 20.328,-131.251 			"/>
			<polygon fill="#9E005D" stroke="#662D91" stroke-width="4" stroke-linejoin="round" stroke-miterlimit="10" points="
				56.929,-131.251 38.6,-99.5 38.6,-99.5 75.223,-99.5 75.223,-99.5 56.929,-131.251 			"/>
			<polygon fill="#9E005D" stroke="#662D91" stroke-width="4" stroke-linejoin="round" stroke-miterlimit="10" points="
				38.629,-99.251 20.3,-67.5 20.3,-67.5 56.923,-67.5 56.923,-67.5 38.629,-99.251 			"/>
			<polygon fill="#9E005D" stroke="#662D91" stroke-width="4" stroke-linejoin="round" stroke-miterlimit="10" points="
				56.895,-67.748 75.223,-99.5 75.223,-99.5 38.6,-99.5 38.6,-99.5 56.895,-67.748 			"/>
			<polygon fill="#9E005D" stroke="#662D91" stroke-width="4" stroke-linejoin="round" stroke-miterlimit="10" points="
				20.294,-67.748 38.623,-99.5 38.623,-99.5 2,-99.5 2,-99.5 20.294,-67.748 			"/>
			<polygon fill="#9E005D" stroke="#662D91" stroke-width="4" stroke-linejoin="round" stroke-miterlimit="10" points="
				38.594,-99.749 56.923,-131.5 56.923,-131.5 20.3,-131.5 20.3,-131.5 38.594,-99.749 			"/>
		</g>
		<g>
			<polygon fill="#9E005D" stroke="#662D91" stroke-width="4" stroke-linejoin="round" stroke-miterlimit="10" points="
				93.904,-131.751 75.575,-100 75.575,-100 112.198,-100 112.198,-100 93.904,-131.751 			"/>
			<polygon fill="#9E005D" stroke="#662D91" stroke-width="4" stroke-linejoin="round" stroke-miterlimit="10" points="
				112.17,-100.248 130.498,-132 130.498,-132 93.875,-132 93.875,-132 112.17,-100.248 			"/>
			<polygon fill="#9E005D" stroke="#662D91" stroke-width="4" stroke-linejoin="round" stroke-miterlimit="10" points="
				75.569,-100.248 93.898,-132 93.898,-132 57.275,-132 57.275,-132 75.569,-100.248 			"/>
		</g>
	</g>
</pattern>
<pattern  width="110.551" height="65" patternUnits="userSpaceOnUse" id="New_Pattern_15" viewBox="38.611 -99.5 110.551 65" overflow="visible">
	<g>
		<polygon fill="none" points="38.611,-99.5 149.162,-99.5 149.162,-34.5 38.611,-34.5 		"/>
		<g>
			<polygon fill="#FFFFBE" stroke="#FFFF00" stroke-width="4" stroke-linejoin="round" stroke-miterlimit="10" points="
				130.879,-66.251 112.551,-34.5 112.551,-34.5 149.174,-34.5 149.174,-34.5 130.879,-66.251 			"/>
			<polygon fill="#FFFFBE" stroke="#FFFF00" stroke-width="4" stroke-linejoin="round" stroke-miterlimit="10" points="
				167.479,-66.251 149.15,-34.5 149.15,-34.5 185.773,-34.5 185.773,-34.5 167.479,-66.251 			"/>
			<polygon fill="#FFFFBE" stroke="#FFFF00" stroke-width="4" stroke-linejoin="round" stroke-miterlimit="10" points="
				149.18,-34.251 130.851,-2.5 130.851,-2.5 167.474,-2.5 167.474,-2.5 149.18,-34.251 			"/>
			<polygon fill="#FFFFBE" stroke="#FFFF00" stroke-width="4" stroke-linejoin="round" stroke-miterlimit="10" points="
				167.445,-2.748 185.773,-34.5 185.773,-34.5 149.15,-34.5 149.15,-34.5 167.445,-2.748 			"/>
			<polygon fill="#FFFFBE" stroke="#FFFF00" stroke-width="4" stroke-linejoin="round" stroke-miterlimit="10" points="
				130.845,-2.748 149.174,-34.5 149.174,-34.5 112.551,-34.5 112.551,-34.5 130.845,-2.748 			"/>
			<polygon fill="#FFFFBE" stroke="#FFFF00" stroke-width="4" stroke-linejoin="round" stroke-miterlimit="10" points="
				149.145,-34.749 167.474,-66.5 167.474,-66.5 130.851,-66.5 130.851,-66.5 149.145,-34.749 			"/>
		</g>
		<g>
			<polygon fill="#FFFFBE" stroke="#FFFF00" stroke-width="4" stroke-linejoin="round" stroke-miterlimit="10" points="
				75.604,-33.751 57.275,-2 57.275,-2 93.898,-2 93.898,-2 75.604,-33.751 			"/>
			<polygon fill="#FFFFBE" stroke="#FFFF00" stroke-width="4" stroke-linejoin="round" stroke-miterlimit="10" points="
				112.204,-33.751 93.875,-2 93.875,-2 130.498,-2 130.498,-2 112.204,-33.751 			"/>
			<polygon fill="#FFFFBE" stroke="#FFFF00" stroke-width="4" stroke-linejoin="round" stroke-miterlimit="10" points="
				93.869,-2.249 112.198,-34 112.198,-34 75.575,-34 75.575,-34 93.869,-2.249 			"/>
		</g>
		<g>
			<polygon fill="#FFFFBE" stroke="#FFFF00" stroke-width="4" stroke-linejoin="round" stroke-miterlimit="10" points="
				20.328,-66.251 2,-34.5 2,-34.5 38.623,-34.5 38.623,-34.5 20.328,-66.251 			"/>
			<polygon fill="#FFFFBE" stroke="#FFFF00" stroke-width="4" stroke-linejoin="round" stroke-miterlimit="10" points="
				56.929,-66.251 38.6,-34.5 38.6,-34.5 75.223,-34.5 75.223,-34.5 56.929,-66.251 			"/>
			<polygon fill="#FFFFBE" stroke="#FFFF00" stroke-width="4" stroke-linejoin="round" stroke-miterlimit="10" points="
				38.629,-34.251 20.3,-2.5 20.3,-2.5 56.923,-2.5 56.923,-2.5 38.629,-34.251 			"/>
			<polygon fill="#FFFFBE" stroke="#FFFF00" stroke-width="4" stroke-linejoin="round" stroke-miterlimit="10" points="
				56.895,-2.748 75.223,-34.5 75.223,-34.5 38.6,-34.5 38.6,-34.5 56.895,-2.748 			"/>
			<polygon fill="#FFFFBE" stroke="#FFFF00" stroke-width="4" stroke-linejoin="round" stroke-miterlimit="10" points="
				20.294,-2.748 38.623,-34.5 38.623,-34.5 2,-34.5 2,-34.5 20.294,-2.748 			"/>
			<polygon fill="#FFFFBE" stroke="#FFFF00" stroke-width="4" stroke-linejoin="round" stroke-miterlimit="10" points="
				38.594,-34.749 56.923,-66.5 56.923,-66.5 20.3,-66.5 20.3,-66.5 38.594,-34.749 			"/>
		</g>
		<g>
			<polygon fill="#FFFFBE" stroke="#FFFF00" stroke-width="4" stroke-linejoin="round" stroke-miterlimit="10" points="
				130.879,-131.251 112.551,-99.5 112.551,-99.5 149.174,-99.5 149.174,-99.5 130.879,-131.251 			"/>
			<polygon fill="#FFFFBE" stroke="#FFFF00" stroke-width="4" stroke-linejoin="round" stroke-miterlimit="10" points="
				167.479,-131.251 149.15,-99.5 149.15,-99.5 185.773,-99.5 185.773,-99.5 167.479,-131.251 			"/>
			<polygon fill="#FFFFBE" stroke="#FFFF00" stroke-width="4" stroke-linejoin="round" stroke-miterlimit="10" points="
				149.18,-99.251 130.851,-67.5 130.851,-67.5 167.474,-67.5 167.474,-67.5 149.18,-99.251 			"/>
			<polygon fill="#FFFFBE" stroke="#FFFF00" stroke-width="4" stroke-linejoin="round" stroke-miterlimit="10" points="
				167.445,-67.748 185.773,-99.5 185.773,-99.5 149.15,-99.5 149.15,-99.5 167.445,-67.748 			"/>
			<polygon fill="#FFFFBE" stroke="#FFFF00" stroke-width="4" stroke-linejoin="round" stroke-miterlimit="10" points="
				130.845,-67.748 149.174,-99.5 149.174,-99.5 112.551,-99.5 112.551,-99.5 130.845,-67.748 			"/>
			<polygon fill="#FFFFBE" stroke="#FFFF00" stroke-width="4" stroke-linejoin="round" stroke-miterlimit="10" points="
				149.145,-99.749 167.474,-131.5 167.474,-131.5 130.851,-131.5 130.851,-131.5 149.145,-99.749 			"/>
		</g>
		<g>
			<polygon fill="#FFFFBE" stroke="#FFFF00" stroke-width="4" stroke-linejoin="round" stroke-miterlimit="10" points="
				75.604,-98.751 57.275,-67 57.275,-67 93.898,-67 93.898,-67 75.604,-98.751 			"/>
			<polygon fill="#FFFFBE" stroke="#FFFF00" stroke-width="4" stroke-linejoin="round" stroke-miterlimit="10" points="
				112.204,-98.751 93.875,-67 93.875,-67 130.498,-67 130.498,-67 112.204,-98.751 			"/>
			<polygon fill="#FFFFBE" stroke="#FFFF00" stroke-width="4" stroke-linejoin="round" stroke-miterlimit="10" points="
				93.904,-66.751 75.575,-35 75.575,-35 112.198,-35 112.198,-35 93.904,-66.751 			"/>
			<polygon fill="#FFFFBE" stroke="#FFFF00" stroke-width="4" stroke-linejoin="round" stroke-miterlimit="10" points="
				112.17,-35.248 130.498,-67 130.498,-67 93.875,-67 93.875,-67 112.17,-35.248 			"/>
			<polygon fill="#FFFFBE" stroke="#FFFF00" stroke-width="4" stroke-linejoin="round" stroke-miterlimit="10" points="
				75.569,-35.248 93.898,-67 93.898,-67 57.275,-67 57.275,-67 75.569,-35.248 			"/>
			<polygon fill="#FFFFBE" stroke="#FFFF00" stroke-width="4" stroke-linejoin="round" stroke-miterlimit="10" points="
				93.869,-67.249 112.198,-99 112.198,-99 75.575,-99 75.575,-99 93.869,-67.249 			"/>
		</g>
		<g>
			<polygon fill="#FFFFBE" stroke="#FFFF00" stroke-width="4" stroke-linejoin="round" stroke-miterlimit="10" points="
				20.328,-131.251 2,-99.5 2,-99.5 38.623,-99.5 38.623,-99.5 20.328,-131.251 			"/>
			<polygon fill="#FFFFBE" stroke="#FFFF00" stroke-width="4" stroke-linejoin="round" stroke-miterlimit="10" points="
				56.929,-131.251 38.6,-99.5 38.6,-99.5 75.223,-99.5 75.223,-99.5 56.929,-131.251 			"/>
			<polygon fill="#FFFFBE" stroke="#FFFF00" stroke-width="4" stroke-linejoin="round" stroke-miterlimit="10" points="
				38.629,-99.251 20.3,-67.5 20.3,-67.5 56.923,-67.5 56.923,-67.5 38.629,-99.251 			"/>
			<polygon fill="#FFFFBE" stroke="#FFFF00" stroke-width="4" stroke-linejoin="round" stroke-miterlimit="10" points="
				56.895,-67.748 75.223,-99.5 75.223,-99.5 38.6,-99.5 38.6,-99.5 56.895,-67.748 			"/>
			<polygon fill="#FFFFBE" stroke="#FFFF00" stroke-width="4" stroke-linejoin="round" stroke-miterlimit="10" points="
				20.294,-67.748 38.623,-99.5 38.623,-99.5 2,-99.5 2,-99.5 20.294,-67.748 			"/>
			<polygon fill="#FFFFBE" stroke="#FFFF00" stroke-width="4" stroke-linejoin="round" stroke-miterlimit="10" points="
				38.594,-99.749 56.923,-131.5 56.923,-131.5 20.3,-131.5 20.3,-131.5 38.594,-99.749 			"/>
		</g>
		<g>
			<polygon fill="#FFFFBE" stroke="#FFFF00" stroke-width="4" stroke-linejoin="round" stroke-miterlimit="10" points="
				93.904,-131.751 75.575,-100 75.575,-100 112.198,-100 112.198,-100 93.904,-131.751 			"/>
			<polygon fill="#FFFFBE" stroke="#FFFF00" stroke-width="4" stroke-linejoin="round" stroke-miterlimit="10" points="
				112.17,-100.248 130.498,-132 130.498,-132 93.875,-132 93.875,-132 112.17,-100.248 			"/>
			<polygon fill="#FFFFBE" stroke="#FFFF00" stroke-width="4" stroke-linejoin="round" stroke-miterlimit="10" points="
				75.569,-100.248 93.898,-132 93.898,-132 57.275,-132 57.275,-132 75.569,-100.248 			"/>
		</g>
	</g>
</pattern>
<pattern  width="110.551" height="65" patternUnits="userSpaceOnUse" id="New_Pattern_22" viewBox="38.611 -99.5 110.551 65" overflow="visible">
	<g>
		<polygon fill="none" points="38.611,-99.5 149.162,-99.5 149.162,-34.5 38.611,-34.5 		"/>
		<g>
			
				<polygon fill="#FF00FF" stroke="#AF2D91" stroke-width="4" stroke-linecap="round" stroke-linejoin="round" stroke-miterlimit="10" points="
				130.879,-66.251 112.551,-34.5 112.551,-34.5 149.174,-34.5 149.174,-34.5 130.879,-66.251 			"/>
			
				<polygon fill="#FF00FF" stroke="#AF2D91" stroke-width="4" stroke-linecap="round" stroke-linejoin="round" stroke-miterlimit="10" points="
				167.479,-66.251 149.15,-34.5 149.15,-34.5 185.773,-34.5 185.773,-34.5 167.479,-66.251 			"/>
			
				<polygon fill="#FF00FF" stroke="#AF2D91" stroke-width="4" stroke-linecap="round" stroke-linejoin="round" stroke-miterlimit="10" points="
				149.18,-34.251 130.851,-2.5 130.851,-2.5 167.474,-2.5 167.474,-2.5 149.18,-34.251 			"/>
			
				<polygon fill="#FF00FF" stroke="#AF2D91" stroke-width="4" stroke-linecap="round" stroke-linejoin="round" stroke-miterlimit="10" points="
				167.445,-2.748 185.773,-34.5 185.773,-34.5 149.15,-34.5 149.15,-34.5 167.445,-2.748 			"/>
			
				<polygon fill="#FF00FF" stroke="#AF2D91" stroke-width="4" stroke-linecap="round" stroke-linejoin="round" stroke-miterlimit="10" points="
				130.845,-2.748 149.174,-34.5 149.174,-34.5 112.551,-34.5 112.551,-34.5 130.845,-2.748 			"/>
			
				<polygon fill="#FF00FF" stroke="#AF2D91" stroke-width="4" stroke-linecap="round" stroke-linejoin="round" stroke-miterlimit="10" points="
				149.145,-34.749 167.474,-66.5 167.474,-66.5 130.851,-66.5 130.851,-66.5 149.145,-34.749 			"/>
		</g>
		<g>
			
				<polygon fill="#FF00FF" stroke="#AF2D91" stroke-width="4" stroke-linecap="round" stroke-linejoin="round" stroke-miterlimit="10" points="
				75.604,-33.751 57.275,-2 57.275,-2 93.898,-2 93.898,-2 75.604,-33.751 			"/>
			
				<polygon fill="#FF00FF" stroke="#AF2D91" stroke-width="4" stroke-linecap="round" stroke-linejoin="round" stroke-miterlimit="10" points="
				112.204,-33.751 93.875,-2 93.875,-2 130.498,-2 130.498,-2 112.204,-33.751 			"/>
			
				<polygon fill="#FF00FF" stroke="#AF2D91" stroke-width="4" stroke-linecap="round" stroke-linejoin="round" stroke-miterlimit="10" points="
				93.869,-2.249 112.198,-34 112.198,-34 75.575,-34 75.575,-34 93.869,-2.249 			"/>
		</g>
		<g>
			
				<polygon fill="#FF00FF" stroke="#AF2D91" stroke-width="4" stroke-linecap="round" stroke-linejoin="round" stroke-miterlimit="10" points="
				20.328,-66.251 2,-34.5 2,-34.5 38.623,-34.5 38.623,-34.5 20.328,-66.251 			"/>
			
				<polygon fill="#FF00FF" stroke="#AF2D91" stroke-width="4" stroke-linecap="round" stroke-linejoin="round" stroke-miterlimit="10" points="
				56.929,-66.251 38.6,-34.5 38.6,-34.5 75.223,-34.5 75.223,-34.5 56.929,-66.251 			"/>
			
				<polygon fill="#FF00FF" stroke="#AF2D91" stroke-width="4" stroke-linecap="round" stroke-linejoin="round" stroke-miterlimit="10" points="
				38.629,-34.251 20.3,-2.5 20.3,-2.5 56.923,-2.5 56.923,-2.5 38.629,-34.251 			"/>
			
				<polygon fill="#FF00FF" stroke="#AF2D91" stroke-width="4" stroke-linecap="round" stroke-linejoin="round" stroke-miterlimit="10" points="
				56.895,-2.748 75.223,-34.5 75.223,-34.5 38.6,-34.5 38.6,-34.5 56.895,-2.748 			"/>
			
				<polygon fill="#FF00FF" stroke="#AF2D91" stroke-width="4" stroke-linecap="round" stroke-linejoin="round" stroke-miterlimit="10" points="
				20.294,-2.748 38.623,-34.5 38.623,-34.5 2,-34.5 2,-34.5 20.294,-2.748 			"/>
			
				<polygon fill="#FF00FF" stroke="#AF2D91" stroke-width="4" stroke-linecap="round" stroke-linejoin="round" stroke-miterlimit="10" points="
				38.594,-34.749 56.923,-66.5 56.923,-66.5 20.3,-66.5 20.3,-66.5 38.594,-34.749 			"/>
		</g>
		<g>
			
				<polygon fill="#FF00FF" stroke="#AF2D91" stroke-width="4" stroke-linecap="round" stroke-linejoin="round" stroke-miterlimit="10" points="
				130.879,-131.251 112.551,-99.5 112.551,-99.5 149.174,-99.5 149.174,-99.5 130.879,-131.251 			"/>
			
				<polygon fill="#FF00FF" stroke="#AF2D91" stroke-width="4" stroke-linecap="round" stroke-linejoin="round" stroke-miterlimit="10" points="
				167.479,-131.251 149.15,-99.5 149.15,-99.5 185.773,-99.5 185.773,-99.5 167.479,-131.251 			"/>
			
				<polygon fill="#FF00FF" stroke="#AF2D91" stroke-width="4" stroke-linecap="round" stroke-linejoin="round" stroke-miterlimit="10" points="
				149.18,-99.251 130.851,-67.5 130.851,-67.5 167.474,-67.5 167.474,-67.5 149.18,-99.251 			"/>
			
				<polygon fill="#FF00FF" stroke="#AF2D91" stroke-width="4" stroke-linecap="round" stroke-linejoin="round" stroke-miterlimit="10" points="
				167.445,-67.748 185.773,-99.5 185.773,-99.5 149.15,-99.5 149.15,-99.5 167.445,-67.748 			"/>
			
				<polygon fill="#FF00FF" stroke="#AF2D91" stroke-width="4" stroke-linecap="round" stroke-linejoin="round" stroke-miterlimit="10" points="
				130.845,-67.748 149.174,-99.5 149.174,-99.5 112.551,-99.5 112.551,-99.5 130.845,-67.748 			"/>
			
				<polygon fill="#FF00FF" stroke="#AF2D91" stroke-width="4" stroke-linecap="round" stroke-linejoin="round" stroke-miterlimit="10" points="
				149.145,-99.749 167.474,-131.5 167.474,-131.5 130.851,-131.5 130.851,-131.5 149.145,-99.749 			"/>
		</g>
		<g>
			
				<polygon fill="#FF00FF" stroke="#AF2D91" stroke-width="4" stroke-linecap="round" stroke-linejoin="round" stroke-miterlimit="10" points="
				75.604,-98.751 57.275,-67 57.275,-67 93.898,-67 93.898,-67 75.604,-98.751 			"/>
			
				<polygon fill="#FF00FF" stroke="#AF2D91" stroke-width="4" stroke-linecap="round" stroke-linejoin="round" stroke-miterlimit="10" points="
				112.204,-98.751 93.875,-67 93.875,-67 130.498,-67 130.498,-67 112.204,-98.751 			"/>
			
				<polygon fill="#FF00FF" stroke="#AF2D91" stroke-width="4" stroke-linecap="round" stroke-linejoin="round" stroke-miterlimit="10" points="
				93.904,-66.751 75.575,-35 75.575,-35 112.198,-35 112.198,-35 93.904,-66.751 			"/>
			
				<polygon fill="#FF00FF" stroke="#AF2D91" stroke-width="4" stroke-linecap="round" stroke-linejoin="round" stroke-miterlimit="10" points="
				112.17,-35.248 130.498,-67 130.498,-67 93.875,-67 93.875,-67 112.17,-35.248 			"/>
			
				<polygon fill="#FF00FF" stroke="#AF2D91" stroke-width="4" stroke-linecap="round" stroke-linejoin="round" stroke-miterlimit="10" points="
				75.569,-35.248 93.898,-67 93.898,-67 57.275,-67 57.275,-67 75.569,-35.248 			"/>
			
				<polygon fill="#FF00FF" stroke="#AF2D91" stroke-width="4" stroke-linecap="round" stroke-linejoin="round" stroke-miterlimit="10" points="
				93.869,-67.249 112.198,-99 112.198,-99 75.575,-99 75.575,-99 93.869,-67.249 			"/>
		</g>
		<g>
			
				<polygon fill="#FF00FF" stroke="#AF2D91" stroke-width="4" stroke-linecap="round" stroke-linejoin="round" stroke-miterlimit="10" points="
				20.328,-131.251 2,-99.5 2,-99.5 38.623,-99.5 38.623,-99.5 20.328,-131.251 			"/>
			
				<polygon fill="#FF00FF" stroke="#AF2D91" stroke-width="4" stroke-linecap="round" stroke-linejoin="round" stroke-miterlimit="10" points="
				56.929,-131.251 38.6,-99.5 38.6,-99.5 75.223,-99.5 75.223,-99.5 56.929,-131.251 			"/>
			
				<polygon fill="#FF00FF" stroke="#AF2D91" stroke-width="4" stroke-linecap="round" stroke-linejoin="round" stroke-miterlimit="10" points="
				38.629,-99.251 20.3,-67.5 20.3,-67.5 56.923,-67.5 56.923,-67.5 38.629,-99.251 			"/>
			
				<polygon fill="#FF00FF" stroke="#AF2D91" stroke-width="4" stroke-linecap="round" stroke-linejoin="round" stroke-miterlimit="10" points="
				56.895,-67.748 75.223,-99.5 75.223,-99.5 38.6,-99.5 38.6,-99.5 56.895,-67.748 			"/>
			
				<polygon fill="#FF00FF" stroke="#AF2D91" stroke-width="4" stroke-linecap="round" stroke-linejoin="round" stroke-miterlimit="10" points="
				20.294,-67.748 38.623,-99.5 38.623,-99.5 2,-99.5 2,-99.5 20.294,-67.748 			"/>
			
				<polygon fill="#FF00FF" stroke="#AF2D91" stroke-width="4" stroke-linecap="round" stroke-linejoin="round" stroke-miterlimit="10" points="
				38.594,-99.749 56.923,-131.5 56.923,-131.5 20.3,-131.5 20.3,-131.5 38.594,-99.749 			"/>
		</g>
		<g>
			
				<polygon fill="#FF00FF" stroke="#AF2D91" stroke-width="4" stroke-linecap="round" stroke-linejoin="round" stroke-miterlimit="10" points="
				93.904,-131.751 75.575,-100 75.575,-100 112.198,-100 112.198,-100 93.904,-131.751 			"/>
			
				<polygon fill="#FF00FF" stroke="#AF2D91" stroke-width="4" stroke-linecap="round" stroke-linejoin="round" stroke-miterlimit="10" points="
				112.17,-100.248 130.498,-132 130.498,-132 93.875,-132 93.875,-132 112.17,-100.248 			"/>
			
				<polygon fill="#FF00FF" stroke="#AF2D91" stroke-width="4" stroke-linecap="round" stroke-linejoin="round" stroke-miterlimit="10" points="
				75.569,-100.248 93.898,-132 93.898,-132 57.275,-132 57.275,-132 75.569,-100.248 			"/>
		</g>
	</g>
</pattern>
<pattern  width="110.551" height="65" patternUnits="userSpaceOnUse" id="New_Pattern_23" viewBox="38.611 -99.5 110.551 65" overflow="visible">
	<g>
		<polygon fill="none" points="38.611,-99.5 149.162,-99.5 149.162,-34.5 38.611,-34.5 		"/>
		<g>
			
				<polygon fill="#FFC2FF" stroke="#B54DFF" stroke-width="4" stroke-linecap="round" stroke-linejoin="round" stroke-miterlimit="10" points="
				130.879,-66.251 112.551,-34.5 112.551,-34.5 149.174,-34.5 149.174,-34.5 130.879,-66.251 			"/>
			
				<polygon fill="#FFC2FF" stroke="#B54DFF" stroke-width="4" stroke-linecap="round" stroke-linejoin="round" stroke-miterlimit="10" points="
				167.479,-66.251 149.15,-34.5 149.15,-34.5 185.773,-34.5 185.773,-34.5 167.479,-66.251 			"/>
			
				<polygon fill="#FFC2FF" stroke="#B54DFF" stroke-width="4" stroke-linecap="round" stroke-linejoin="round" stroke-miterlimit="10" points="
				149.18,-34.251 130.851,-2.5 130.851,-2.5 167.474,-2.5 167.474,-2.5 149.18,-34.251 			"/>
			
				<polygon fill="#FFC2FF" stroke="#B54DFF" stroke-width="4" stroke-linecap="round" stroke-linejoin="round" stroke-miterlimit="10" points="
				167.445,-2.748 185.773,-34.5 185.773,-34.5 149.15,-34.5 149.15,-34.5 167.445,-2.748 			"/>
			
				<polygon fill="#FFC2FF" stroke="#B54DFF" stroke-width="4" stroke-linecap="round" stroke-linejoin="round" stroke-miterlimit="10" points="
				130.845,-2.748 149.174,-34.5 149.174,-34.5 112.551,-34.5 112.551,-34.5 130.845,-2.748 			"/>
			
				<polygon fill="#FFC2FF" stroke="#B54DFF" stroke-width="4" stroke-linecap="round" stroke-linejoin="round" stroke-miterlimit="10" points="
				149.145,-34.749 167.474,-66.5 167.474,-66.5 130.851,-66.5 130.851,-66.5 149.145,-34.749 			"/>
		</g>
		<g>
			
				<polygon fill="#FFC2FF" stroke="#B54DFF" stroke-width="4" stroke-linecap="round" stroke-linejoin="round" stroke-miterlimit="10" points="
				75.604,-33.751 57.275,-2 57.275,-2 93.898,-2 93.898,-2 75.604,-33.751 			"/>
			
				<polygon fill="#FFC2FF" stroke="#B54DFF" stroke-width="4" stroke-linecap="round" stroke-linejoin="round" stroke-miterlimit="10" points="
				112.204,-33.751 93.875,-2 93.875,-2 130.498,-2 130.498,-2 112.204,-33.751 			"/>
			
				<polygon fill="#FFC2FF" stroke="#B54DFF" stroke-width="4" stroke-linecap="round" stroke-linejoin="round" stroke-miterlimit="10" points="
				93.869,-2.249 112.198,-34 112.198,-34 75.575,-34 75.575,-34 93.869,-2.249 			"/>
		</g>
		<g>
			
				<polygon fill="#FFC2FF" stroke="#B54DFF" stroke-width="4" stroke-linecap="round" stroke-linejoin="round" stroke-miterlimit="10" points="
				20.328,-66.251 2,-34.5 2,-34.5 38.623,-34.5 38.623,-34.5 20.328,-66.251 			"/>
			
				<polygon fill="#FFC2FF" stroke="#B54DFF" stroke-width="4" stroke-linecap="round" stroke-linejoin="round" stroke-miterlimit="10" points="
				56.929,-66.251 38.6,-34.5 38.6,-34.5 75.223,-34.5 75.223,-34.5 56.929,-66.251 			"/>
			
				<polygon fill="#FFC2FF" stroke="#B54DFF" stroke-width="4" stroke-linecap="round" stroke-linejoin="round" stroke-miterlimit="10" points="
				38.629,-34.251 20.3,-2.5 20.3,-2.5 56.923,-2.5 56.923,-2.5 38.629,-34.251 			"/>
			
				<polygon fill="#FFC2FF" stroke="#B54DFF" stroke-width="4" stroke-linecap="round" stroke-linejoin="round" stroke-miterlimit="10" points="
				56.895,-2.748 75.223,-34.5 75.223,-34.5 38.6,-34.5 38.6,-34.5 56.895,-2.748 			"/>
			
				<polygon fill="#FFC2FF" stroke="#B54DFF" stroke-width="4" stroke-linecap="round" stroke-linejoin="round" stroke-miterlimit="10" points="
				20.294,-2.748 38.623,-34.5 38.623,-34.5 2,-34.5 2,-34.5 20.294,-2.748 			"/>
			
				<polygon fill="#FFC2FF" stroke="#B54DFF" stroke-width="4" stroke-linecap="round" stroke-linejoin="round" stroke-miterlimit="10" points="
				38.594,-34.749 56.923,-66.5 56.923,-66.5 20.3,-66.5 20.3,-66.5 38.594,-34.749 			"/>
		</g>
		<g>
			
				<polygon fill="#FFC2FF" stroke="#B54DFF" stroke-width="4" stroke-linecap="round" stroke-linejoin="round" stroke-miterlimit="10" points="
				130.879,-131.251 112.551,-99.5 112.551,-99.5 149.174,-99.5 149.174,-99.5 130.879,-131.251 			"/>
			
				<polygon fill="#FFC2FF" stroke="#B54DFF" stroke-width="4" stroke-linecap="round" stroke-linejoin="round" stroke-miterlimit="10" points="
				167.479,-131.251 149.15,-99.5 149.15,-99.5 185.773,-99.5 185.773,-99.5 167.479,-131.251 			"/>
			
				<polygon fill="#FFC2FF" stroke="#B54DFF" stroke-width="4" stroke-linecap="round" stroke-linejoin="round" stroke-miterlimit="10" points="
				149.18,-99.251 130.851,-67.5 130.851,-67.5 167.474,-67.5 167.474,-67.5 149.18,-99.251 			"/>
			
				<polygon fill="#FFC2FF" stroke="#B54DFF" stroke-width="4" stroke-linecap="round" stroke-linejoin="round" stroke-miterlimit="10" points="
				167.445,-67.748 185.773,-99.5 185.773,-99.5 149.15,-99.5 149.15,-99.5 167.445,-67.748 			"/>
			
				<polygon fill="#FFC2FF" stroke="#B54DFF" stroke-width="4" stroke-linecap="round" stroke-linejoin="round" stroke-miterlimit="10" points="
				130.845,-67.748 149.174,-99.5 149.174,-99.5 112.551,-99.5 112.551,-99.5 130.845,-67.748 			"/>
			
				<polygon fill="#FFC2FF" stroke="#B54DFF" stroke-width="4" stroke-linecap="round" stroke-linejoin="round" stroke-miterlimit="10" points="
				149.145,-99.749 167.474,-131.5 167.474,-131.5 130.851,-131.5 130.851,-131.5 149.145,-99.749 			"/>
		</g>
		<g>
			
				<polygon fill="#FFC2FF" stroke="#B54DFF" stroke-width="4" stroke-linecap="round" stroke-linejoin="round" stroke-miterlimit="10" points="
				75.604,-98.751 57.275,-67 57.275,-67 93.898,-67 93.898,-67 75.604,-98.751 			"/>
			
				<polygon fill="#FFC2FF" stroke="#B54DFF" stroke-width="4" stroke-linecap="round" stroke-linejoin="round" stroke-miterlimit="10" points="
				112.204,-98.751 93.875,-67 93.875,-67 130.498,-67 130.498,-67 112.204,-98.751 			"/>
			
				<polygon fill="#FFC2FF" stroke="#B54DFF" stroke-width="4" stroke-linecap="round" stroke-linejoin="round" stroke-miterlimit="10" points="
				93.904,-66.751 75.575,-35 75.575,-35 112.198,-35 112.198,-35 93.904,-66.751 			"/>
			
				<polygon fill="#FFC2FF" stroke="#B54DFF" stroke-width="4" stroke-linecap="round" stroke-linejoin="round" stroke-miterlimit="10" points="
				112.17,-35.248 130.498,-67 130.498,-67 93.875,-67 93.875,-67 112.17,-35.248 			"/>
			
				<polygon fill="#FFC2FF" stroke="#B54DFF" stroke-width="4" stroke-linecap="round" stroke-linejoin="round" stroke-miterlimit="10" points="
				75.569,-35.248 93.898,-67 93.898,-67 57.275,-67 57.275,-67 75.569,-35.248 			"/>
			
				<polygon fill="#FFC2FF" stroke="#B54DFF" stroke-width="4" stroke-linecap="round" stroke-linejoin="round" stroke-miterlimit="10" points="
				93.869,-67.249 112.198,-99 112.198,-99 75.575,-99 75.575,-99 93.869,-67.249 			"/>
		</g>
		<g>
			
				<polygon fill="#FFC2FF" stroke="#B54DFF" stroke-width="4" stroke-linecap="round" stroke-linejoin="round" stroke-miterlimit="10" points="
				20.328,-131.251 2,-99.5 2,-99.5 38.623,-99.5 38.623,-99.5 20.328,-131.251 			"/>
			
				<polygon fill="#FFC2FF" stroke="#B54DFF" stroke-width="4" stroke-linecap="round" stroke-linejoin="round" stroke-miterlimit="10" points="
				56.929,-131.251 38.6,-99.5 38.6,-99.5 75.223,-99.5 75.223,-99.5 56.929,-131.251 			"/>
			
				<polygon fill="#FFC2FF" stroke="#B54DFF" stroke-width="4" stroke-linecap="round" stroke-linejoin="round" stroke-miterlimit="10" points="
				38.629,-99.251 20.3,-67.5 20.3,-67.5 56.923,-67.5 56.923,-67.5 38.629,-99.251 			"/>
			
				<polygon fill="#FFC2FF" stroke="#B54DFF" stroke-width="4" stroke-linecap="round" stroke-linejoin="round" stroke-miterlimit="10" points="
				56.895,-67.748 75.223,-99.5 75.223,-99.5 38.6,-99.5 38.6,-99.5 56.895,-67.748 			"/>
			
				<polygon fill="#FFC2FF" stroke="#B54DFF" stroke-width="4" stroke-linecap="round" stroke-linejoin="round" stroke-miterlimit="10" points="
				20.294,-67.748 38.623,-99.5 38.623,-99.5 2,-99.5 2,-99.5 20.294,-67.748 			"/>
			
				<polygon fill="#FFC2FF" stroke="#B54DFF" stroke-width="4" stroke-linecap="round" stroke-linejoin="round" stroke-miterlimit="10" points="
				38.594,-99.749 56.923,-131.5 56.923,-131.5 20.3,-131.5 20.3,-131.5 38.594,-99.749 			"/>
		</g>
		<g>
			
				<polygon fill="#FFC2FF" stroke="#B54DFF" stroke-width="4" stroke-linecap="round" stroke-linejoin="round" stroke-miterlimit="10" points="
				93.904,-131.751 75.575,-100 75.575,-100 112.198,-100 112.198,-100 93.904,-131.751 			"/>
			
				<polygon fill="#FFC2FF" stroke="#B54DFF" stroke-width="4" stroke-linecap="round" stroke-linejoin="round" stroke-miterlimit="10" points="
				112.17,-100.248 130.498,-132 130.498,-132 93.875,-132 93.875,-132 112.17,-100.248 			"/>
			
				<polygon fill="#FFC2FF" stroke="#B54DFF" stroke-width="4" stroke-linecap="round" stroke-linejoin="round" stroke-miterlimit="10" points="
				75.569,-100.248 93.898,-132 93.898,-132 57.275,-132 57.275,-132 75.569,-100.248 			"/>
		</g>
	</g>
</pattern>
<path fill="#FFFF00" stroke="url(#New_Pattern_15)" stroke-miterlimit="10" d="M516.984,461.808"/>
<path fill="#FFFF00" stroke="url(#New_Pattern_15)" stroke-miterlimit="10" d="M516.984,461.808"/>
<path fill="#FFFF00" stroke="url(#New_Pattern_15)" stroke-miterlimit="10" d="M507.016,461.808"/>
<path fill="url(#New_Pattern_22)" d="M903.172,549.042c-0.386-0.518-0.849-0.975-1.356-1.389
	c-2.319-13.625-10.973-64.947-12.008-81.998l1.852-1.85c0.695-0.693,1.078-1.613,1.078-2.602c0.001-0.98-0.38-1.908-1.073-2.596
	c-1.393-1.402-3.826-1.398-5.21-0.004l-4.385,1.422C866.93,456.763,828,443.214,809,435.269v-0.044c0-1.488,2.932-2.155-1.58-2.253
	c-3.783,0.078-4.781,0.553-5.031,1.51c-7.693,2.068-17.962,4.225-23.571,4.621c-0.476-1.083-1.727-2.172-2.878-1.697l-0.316,0.131
	c-0.396,0.168-0.688,0.486-0.869,0.925c-0.326,0.781-0.212,1.77,0.057,2.401l23.355,56.521c1.198,3.057,2.014,6.541,2.201,7.004
	l0.072,44.49l-21.835-0.02l0.037-45l-14-0.012l-0.037,45l-24.494-0.02l-67.997-69.535c0.53-3.076-0.068-7.051-2.348-9.336
	l-26.765-26.97c10.253-10.492,2.238-23.441-7.307-22.061c-3.859,0.56-9.775-0.275-16.691-2.12l-14.88-14.98
	c-1.667-1.665-4.045-2.755-6.684-2.757c-3.07-0.003-6.142,1.152-8.208,3.221c-0.605,0.607-1.108,1.301-1.565,2.045
	c-9.662-5.023-18.892-10.963-25.826-17.298c-20.307-18.536-34.145-82.219-50.57-94.041c-13.558-9.755-42.099-21.856-44.416-27.242
	c-2.322-5.387,0.293-21.183,0.293-21.183s11.634-1.035,14.763-4.504c2.089-7.985-1.027-20.665-1.179-41.323
	c-0.157-20.664-14.208-39.433-32.789-40.312c-18.575-0.885-41.684,12.637-42.217,31.219c-1.031,35.648,14.734,31.177,14.02,55.399
	c-0.251,8.405,0.225,15.129-2.333,15.64c-26.81,5.338-62.555,29.188-89.527,57.016c-11.147-6.02-22.281-11.683-23.642-14.842
	c-2.147-4.969,0.273-19.545,0.273-19.545s10.733-0.954,13.619-4.16c1.927-7.365-0.941-19.064-1.087-38.133
	c-0.147-19.064-13.111-36.381-30.253-37.195c-17.143-0.814-38.461,11.664-38.957,28.807c-0.953,32.896,13.592,28.775,12.936,51.121
	c-0.232,7.756,0.208,13.967-2.151,14.434c-41.21,8.202-105.481,63.725-116.673,104.838c-8.682,31.877-1.174,96.689,0.749,100.539
	c1.917,3.85,6.882,12.721,15.022,8.588c9.135-4.641,10.508-8.398,8.934-33.377c-1.198-19.01,6.531-47.14,9.568-59.697
	c3.219-13.295,42.856-47.148,46.877-46.65c4.015,0.497-0.993,73.375-2.969,104.15c-0.849,13.252-16.375,61.748-37.905,110.42
	c-27.758,62.758-62.748,118.555-62.696,125.393c0.05,6.842,64.681,31.498,70.318,28.596c3.792-1.955,5.503-6.787,2.73-11.27
	c-2.773-4.492-19.54-13.912-22.044-17.754c-1.299-1.996,29.3-44.982,53.747-88.617c22.687-40.479,39.164-81.906,42.585-82.215
	c3.008-0.268,20.488,39.318,44.614,81.086c-23.423,46.213-44.848,81.781-44.802,87.354c0.05,7.412,70.095,34.139,76.202,30.99
	c4.11-2.121,5.966-7.348,2.962-12.217c-3.011-4.863-21.178-15.072-23.889-19.234c-0.762-1.162,8.537-15.264,21.381-35.361
	c23.386,36.311,43.809,64.807,50.474,65.955c4.616,0.791,16.346-11.877,29.29-24.332c11.643-11.207,24.796-19.203,25.013-25.621
	c0.225-6.572-3.039-7.682-8.75-7.055c-5.717,0.635-16.034,12.371-22.231,10.451c-5.771-1.793-21.493-32.734-41.645-71.789
	c1.585-2.758,3.163-5.521,4.71-8.283c24.584-43.873,42.447-88.764,46.149-89.098c3.666-0.33,27.18,54.039,58.485,104.924
	c8.426,13.699,16.896,27.189,25.028,39.799c-12.654,25.332-24.497,45.049-24.462,48.064c0.035,3.914,37.018,17.898,40.234,16.244
	c2.171-1.137,3.142-3.896,1.551-6.453c-1.6-2.559-11.189-7.924-12.627-10.117c-0.442-0.658,5.262-9.26,12.832-21.225
	c17.274,25.371,31.113,43.018,36.534,43.955c4.995,0.855,17.71-12.861,31.742-26.367c6.625-6.375,13.639-11.771,18.902-16.484
	c12.874,19.758,23.968,35,27.658,35.623c2.641,0.451,9.332-6.809,16.711-13.938c3.205-3.107,6.589-5.77,9.271-8.123
	c5.913,16.797,21.858,28.893,40.671,28.908c23.842,0.02,43.19-19.254,43.21-43.102c0-0.707-0.073-1.373-0.104-2.068l24.434-4.547
	c0.248-0.049-1.943-0.195-1.7-0.289c3.377-0.846,3.777-3.012,3.78-6.244l0.005-6.682l6.875,0.006
	c5.222,0.004,9.046-7.449,9.149-12.102l59.974,14.654l-0.005,6.805l-0.002,1.527l-0.013,15.205
	c-7.001,1.477-13.522,9.105-13.53,18.369c-0.009,10.332,9.4,18.715,19.731,18.723c10.32,0.008,19.238-8.359,19.247-18.689
	c0.003-3.664-0.838-7.063-2.663-9.955l6.152-6.016c0.995-0.996,1.502-2.32,1.456-3.633c0.056-1.32-2.22-2.66-3.227-3.668
	l-14.152-12.34l0.01-11.25c0.002-3.109-0.588-5.858-3.601-6.599L824.823,659h0.83c1.514,0,2.844-3.67,3.245-5.125l8.696-33.941
	l41.108,0.021c2.94,0.002,5.537-1.725,6.42-4.525l19.038-60.663C904.803,552.716,904.436,550.776,903.172,549.042z M375.699,456.019
	c-0.811,12.633-13.936,54.822-32.962,100.699c-12.087-26.115-20.813-46.662-21.792-50.072
	c-3.144-10.902,5.473-99.457,11.509-100.521c4.672-0.822,21.533,23.027,43.84,40.676
	C376.079,450.134,375.876,453.249,375.699,456.019z M379.205,398.251c-6.551-12.853-12.466-28.843-18.29-42.338
	c8.769-7.537,16.303-12.977,17.999-12.77C381.414,343.458,380.686,369.676,379.205,398.251z M593.873,479.333
	c0,0,7.495-0.688,9.51-2.926c1.335-5.158-0.689-13.334-0.829-26.656c-0.011-1.324-0.178-2.621-0.366-3.908
	c5.147,0.885,10.177,1.516,14.866,1.869l37.074,37.15c1.671,1.666,4.045,2.58,6.691,2.582c0.656,0.002,1.306,1.346,1.95,1.246
	l58.604,60.121l-61.5-0.051c-2.139-0.002-4.146-0.084-5.425,1.641c-1.269,1.725-1.634,3.561-0.991,5.607l0.343,1.053
	c-4.919-2.582-9.614-5.596-13.158-8.818c-10.736-9.754-18.145-43.32-26.814-49.525c-7.17-5.135-22.226-11.484-23.461-14.324
	C589.123,481.565,593.873,479.333,593.873,479.333z M542.547,583.821c-0.185,3.059-1.754,9.441-4.337,17.756
	c-7.713-14.979-15.286-30.439-22.209-45.023c0.514-2.119,0.997-4.047,1.348-5.527c1.827-7.596,24.433-27.018,26.729-26.74
	C546.387,524.558,543.624,566.233,542.547,583.821z M503.401,529.425c-10.364-22.787-17.535-39.809-18.453-42.994
	c-3.404-11.813,5.938-107.782,12.48-108.94c6.073-1.071,31.128,36.356,62.629,54.47c-3.456,3.318-5.779,7.444-5.902,12.066
	c-0.607,22.99,9.56,20.07,9.152,35.695c-0.032,1.137,0.061,1.807,0.205,2.27C543.971,486.368,515.989,508.653,503.401,529.425z
	 M589.195,690.712c-4.776-1.479-15.842-21.395-30.519-49.539c5.664-11.828,9.506-20.412,10.67-20.52
	c1.932-0.178,14.424,28.459,30.999,55.248c1.596,2.57,3.188,5.121,4.779,7.65C599.637,687.313,593.498,692.056,589.195,690.712z
	 M759.499,676.763l-13.801,3.041c-4.209-9.234-10.335-17.521-19.477-21.889c0.025,0.014,0.369-0.043,0.406-0.043
	c-5.463-2.518-11.399-3.654-17.804-3.66c-23.865-0.02-43.15,19.439-43.17,43.301c-0.001,1.576,0.128,3.133,0.293,4.666
	c-3.297,1.865-7.622,5.996-10.473,5.117c-3.538-1.09-13.668-21.305-26.459-45.857c-14.267-27.375-27.85-58.445-28.818-61.736
	c-1.807-6.223,3.006-56.848,6.444-57.471c3.455-0.621,18.571,22.299,36.996,30.645c4.725,2.143,10.829,3.869,16.82,4.98
	l11.932,37.768c0.881,2.805,3.475,4.15,6.408,4.152l37.244,0.031l8.865,33.986c0.288,1.076,1.086,3.98,2.066,4.957
	c0.363-0.068,0.977,0.066,1.17,0.066l31.371,0.025L759.499,676.763z"/>
<g>
	<defs>
		<circle id="SVGID_1_" cx="512" cy="512" r="168.75"/>
	</defs>
	<clipPath id="SVGID_2_">
		<use xlink:href="#SVGID_1_"  overflow="visible"/>
	</clipPath>
	<path clip-path="url(#SVGID_2_)" fill="url(#New_Pattern_23)" d="M902.959,549.113c-0.385-0.518-0.848-0.975-1.355-1.389
		c-2.32-13.625-10.973-64.947-12.008-81.998l1.852-1.85c0.695-0.693,1.078-1.613,1.078-2.602c0-0.98-0.381-1.908-1.074-2.596
		c-1.393-1.402-3.826-1.398-5.209-0.004l-4.278,1.422C866.823,456.834,828,443.286,809,435.34v-0.044
		c0-1.488,2.825-2.155-1.687-2.253c-3.783,0.078-4.835,0.553-5.085,1.51c-7.693,2.068-17.987,4.225-23.597,4.621
		c-0.477-1.083-1.741-2.172-2.892-1.697l-0.323,0.131c-0.396,0.168-0.691,0.486-0.873,0.925c-0.326,0.781-0.212,1.77,0.056,2.401
		l23.354,56.521c1.199,3.057,2.015,6.541,2.202,7.004l0.071,44.49l-21.834-0.02l0.037-45l-14-0.012l-0.037,45l-24.494-0.02
		L671.9,479.363c0.531-3.076-0.068-7.051-2.348-9.336l-26.764-26.97c10.252-10.493,2.238-23.442-7.307-22.061
		c-3.859,0.56-9.775-0.275-16.691-2.12l-14.881-14.98c-1.666-1.665-4.045-2.755-6.684-2.757c-3.07-0.003-6.141,1.152-8.207,3.221
		c-0.605,0.607-1.109,1.301-1.566,2.045c-9.662-5.023-18.891-10.963-25.826-17.298c-20.307-18.536-34.145-82.219-50.57-94.041
		c-13.558-9.755-42.099-21.856-44.416-27.242c-2.322-5.387,0.293-21.183,0.293-21.183s11.634-1.035,14.763-4.504
		c2.089-7.985-1.027-20.665-1.179-41.323c-0.157-20.664-14.208-39.433-32.789-40.312c-18.575-0.885-41.684,12.637-42.217,31.219
		c-1.031,35.648,14.734,31.177,14.02,55.399c-0.251,8.405,0.225,15.129-2.333,15.64c-26.81,5.338-62.555,29.188-89.527,57.016
		c-11.147-6.02-22.281-11.683-23.642-14.842c-2.147-4.969,0.273-19.545,0.273-19.545s10.733-0.954,13.619-4.16
		c1.927-7.365-0.941-19.064-1.087-38.133c-0.147-19.064-13.111-36.381-30.253-37.195c-17.143-0.814-38.461,11.664-38.957,28.807
		c-0.953,32.896,13.592,28.775,12.936,51.121c-0.232,7.756,0.208,13.967-2.151,14.434c-41.21,8.202-105.481,63.725-116.673,104.838
		c-8.682,31.877-1.174,96.689,0.749,100.539c1.917,3.85,6.882,12.721,15.022,8.588c9.135-4.641,10.508-8.398,8.934-33.377
		c-1.198-19.01,6.531-47.14,9.568-59.697c3.219-13.295,42.856-47.148,46.877-46.65c4.015,0.497-0.993,73.375-2.969,104.15
		c-0.849,13.252-16.375,61.748-37.905,110.42c-27.758,62.758-62.748,118.555-62.696,125.393c0.05,6.842,64.681,31.498,70.318,28.596
		c3.792-1.955,5.503-6.787,2.73-11.27c-2.773-4.492-19.54-13.912-22.044-17.754c-1.299-1.996,29.3-44.982,53.747-88.617
		c22.687-40.479,39.164-81.906,42.585-82.215c3.008-0.268,20.488,39.318,44.614,81.086c-23.423,46.213-44.848,81.781-44.802,87.354
		c0.05,7.412,70.095,34.139,76.202,30.99c4.11-2.121,5.966-7.348,2.962-12.217c-3.011-4.863-21.178-15.072-23.889-19.234
		c-0.762-1.162,8.537-15.264,21.381-35.361c23.386,36.311,43.809,64.807,50.474,65.955c4.616,0.791,16.346-11.877,29.29-24.332
		c11.643-11.207,24.796-19.203,25.013-25.621c0.225-6.572-3.039-7.682-8.75-7.055c-5.717,0.635-16.034,12.371-22.231,10.451
		c-5.771-1.793-21.493-32.734-41.645-71.789c1.585-2.758,3.163-5.521,4.71-8.283c24.584-43.873,42.447-88.764,46.149-89.098
		c3.666-0.33,27.18,54.039,58.485,104.924c8.426,13.699,16.896,27.189,25.028,39.799c-12.654,25.332-24.497,45.049-24.462,48.064
		c0.035,3.914,37.019,17.898,40.234,16.244c2.172-1.137,3.143-3.896,1.551-6.453c-1.6-2.559-11.189-7.924-12.627-10.117
		c-0.442-0.658,5.262-9.26,12.832-21.225c17.275,25.371,31.113,43.018,36.535,43.955c4.994,0.855,17.709-12.861,31.742-26.367
		c6.625-6.375,13.639-11.771,18.902-16.484c12.873,19.758,23.967,35,27.658,35.623c2.641,0.451,9.332-6.809,16.711-13.938
		c3.205-3.107,6.588-5.77,9.27-8.123c5.914,16.797,21.859,28.893,40.672,28.908c23.842,0.02,43.189-19.254,43.209-43.102
		c0-0.707-0.072-1.373-0.104-2.068l24.434-4.547c0.248-0.049-1.943-0.195-1.701-0.289c3.377-0.846,3.777-3.012,3.781-6.244
		l0.004-6.682l6.875,0.006c5.223,0.004,9.047-7.449,9.15-12.102l59.973,14.654l-0.004,6.805l-0.002,1.527l-0.014,15.205
		c-7,1.477-13.521,9.105-13.529,18.369c-0.01,10.332,9.4,18.715,19.73,18.723c10.32,0.008,19.238-8.359,19.248-18.689
		c0.002-3.664-0.838-7.063-2.664-9.955l6.152-6.016c0.996-0.996,1.502-2.32,1.457-3.633c0.055-1.32-2.221-2.66-3.227-3.668
		l-14.152-12.34l0.01-11.25c0.002-3.109-0.588-5.395-3.602-6.135L824.611,660h0.83c1.514,0,2.844-4.135,3.244-5.59l8.697-34.174
		l41.107-0.094c2.941,0.002,5.537-1.783,6.42-4.584l19.039-60.691C904.59,552.816,904.223,550.848,902.959,549.113z M375.486,456.09
		c-0.811,12.633-13.936,54.822-32.962,100.699c-12.087-26.115-20.813-46.662-21.792-50.072
		c-3.144-10.902,5.473-99.457,11.509-100.521c4.672-0.822,21.533,23.027,43.84,40.676
		C375.866,450.206,375.663,453.32,375.486,456.09z M378.992,398.323c-6.551-12.853-12.466-28.843-18.29-42.338
		c8.769-7.537,16.303-12.977,17.999-12.77C381.201,343.53,380.473,369.748,378.992,398.323z M593.66,479.404
		c0,0,7.496-0.688,9.51-2.926c1.336-5.158-0.689-13.334-0.828-26.655c-0.012-1.324-0.178-2.621-0.367-3.908
		c5.148,0.885,10.178,1.516,14.867,1.869l37.074,37.149c1.67,1.666,4.045,2.58,6.691,2.582c0.656,0.002,1.305,1.346,1.949,1.246
		l58.605,60.121l-61.5-0.051c-2.139-0.002-4.146-0.084-5.426,1.641c-1.268,1.725-1.633,3.561-0.99,5.607l0.342,1.053
		c-4.918-2.582-9.613-5.596-13.158-8.818c-10.736-9.754-18.145-43.32-26.814-49.525c-7.17-5.135-22.225-11.484-23.461-14.324
		C588.91,481.637,593.66,479.404,593.66,479.404z M542.334,583.893c-0.184,3.059-1.754,9.441-4.336,17.756
		c-7.713-14.979-15.287-30.439-22.209-45.023c0.514-2.119,0.996-4.047,1.348-5.527c1.826-7.596,24.432-27.018,26.729-26.74
		C546.174,524.629,543.412,566.305,542.334,583.893z M503.188,529.496c-10.364-22.787-17.535-39.809-18.453-42.994
		c-3.404-11.813,5.938-107.782,12.48-108.94c6.073-1.071,31.129,36.356,62.629,54.47c-3.455,3.318-5.779,7.444-5.902,12.067
		c-0.607,22.989,9.561,20.069,9.152,35.694c-0.031,1.137,0.061,1.807,0.205,2.27C543.758,486.439,515.777,508.725,503.188,529.496z
		 M588.982,690.783c-4.775-1.479-15.842-21.395-30.518-49.539c5.664-11.828,9.506-20.412,10.67-20.52
		c1.932-0.178,14.424,28.459,30.998,55.248c1.596,2.57,3.188,5.121,4.779,7.65C599.424,687.385,593.285,692.127,588.982,690.783z
		 M759.287,676.834l-13.801,3.041c-4.209-9.234-10.336-17.521-19.477-21.889c0.025,0.014,0.369-0.043,0.406-0.043
		c-5.463-2.518-11.4-3.654-17.805-3.66c-23.865-0.02-43.15,19.439-43.17,43.301c0,1.576,0.129,3.133,0.293,4.666
		c-3.297,1.865-7.621,5.996-10.473,5.117c-3.537-1.09-13.668-21.305-26.459-45.857c-14.266-27.375-27.85-58.445-28.818-61.736
		c-1.807-6.223,3.006-56.848,6.445-57.471c3.455-0.621,18.57,22.299,36.996,30.645c4.725,2.143,10.828,3.869,16.82,4.98
		l11.932,37.768c0.881,2.805,3.475,4.15,6.408,4.152l37.244,0.031l8.865,33.986c0.287,1.076,1.086,3.98,2.066,4.957
		c0.363-0.068,0.977,0.066,1.17,0.066l31.371,0.025L759.287,676.834z"/>
</g>
<g>
	<defs>
		<path id="SVGID_3_" d="M30,494.073C122,323.987,303.623,211,510.926,211h0.125c207.303,0,387.25,113.844,479.875,283.93
			l-0.358-1.123C979.794,238.251,768.682,34.188,510.475,34.188C252.367,34.188,40,238.443,30,493.86V494.073z"/>
	</defs>
	<clipPath id="SVGID_4_">
		<use xlink:href="#SVGID_3_"  overflow="visible"/>
	</clipPath>
	<path clip-path="url(#SVGID_4_)" fill="url(#New_Pattern_13)" d="M903.172,549.042c-0.386-0.518-0.849-0.975-1.356-1.389
		c-2.319-13.625-10.973-64.947-12.008-81.998l1.852-1.85c0.695-0.693,1.078-1.613,1.078-2.602c0.001-0.98-0.38-1.908-1.073-2.596
		c-1.393-1.402-3.826-1.398-5.21-0.004l-4.885,1.422C866.43,456.763,827,443.214,808,435.269v-0.044c0-1.488,3.432-2.155-1.08-2.253
		c-3.783,0.078-4.531,0.553-4.781,1.51c-7.693,2.068-17.837,4.225-23.446,4.621c-0.476-1.083-1.664-2.172-2.815-1.697l-0.285,0.131
		c-0.396,0.168-0.672,0.486-0.854,0.925c-0.326,0.781-0.204,1.77,0.064,2.401l23.359,56.521c1.198,3.057,2.016,6.541,2.203,7.004
		l0.074,44.49l-21.835-0.02l0.037-45l-14-0.012l-0.037,45l-24.494-0.02l-67.997-69.535c0.53-3.076-0.068-7.051-2.348-9.336
		l-26.765-26.97c10.253-10.492,2.238-23.441-7.307-22.061c-3.859,0.56-9.775-0.275-16.691-2.12l-14.88-14.98
		c-1.667-1.665-4.045-2.755-6.684-2.757c-3.07-0.003-6.142,1.152-8.208,3.221c-0.605,0.607-1.108,1.301-1.565,2.045
		c-9.662-5.023-18.892-10.963-25.826-17.298c-20.307-18.536-34.145-82.219-50.57-94.041c-13.559-9.755-42.1-21.856-44.416-27.242
		c-2.322-5.387,0.293-21.183,0.293-21.183s11.635-1.035,14.764-4.504c2.09-7.985-1.027-20.665-1.18-41.323
		c-0.156-20.664-14.207-39.433-32.788-40.312c-18.575-0.885-41.684,12.637-42.217,31.219c-1.03,35.648,14.733,31.177,14.021,55.399
		c-0.252,8.405,0.225,15.129-2.334,15.64c-26.811,5.338-62.555,29.188-89.527,57.016c-11.146-6.02-22.281-11.683-23.643-14.842
		c-2.146-4.969,0.273-19.545,0.273-19.545s10.733-0.954,13.619-4.16c1.926-7.365-0.941-19.064-1.088-38.133
		c-0.147-19.064-13.111-36.381-30.253-37.195c-17.143-0.814-38.462,11.664-38.957,28.807c-0.952,32.896,13.593,28.775,12.936,51.121
		c-0.231,7.756,0.208,13.967-2.151,14.434c-41.209,8.202-105.48,63.725-116.672,104.838c-8.683,31.877-1.175,96.689,0.748,100.539
		c1.918,3.85,6.883,12.721,15.022,8.588c9.136-4.641,10.509-8.398,8.934-33.377c-1.198-19.01,6.531-47.14,9.568-59.697
		c3.22-13.295,42.856-47.148,46.877-46.65c4.015,0.497-0.993,73.375-2.969,104.15c-0.849,13.252-16.374,61.748-37.905,110.42
		c-27.758,62.758-62.747,118.555-62.695,125.393c0.05,6.842,64.681,31.498,70.317,28.596c3.792-1.955,5.503-6.787,2.73-11.27
		c-2.772-4.492-19.54-13.912-22.044-17.754c-1.299-1.996,29.301-44.982,53.746-88.617c22.688-40.479,39.164-81.906,42.586-82.215
		c3.008-0.268,20.488,39.318,44.613,81.086c-23.423,46.213-44.848,81.781-44.803,87.354c0.051,7.412,70.096,34.139,76.202,30.99
		c4.11-2.121,5.966-7.348,2.962-12.217c-3.01-4.863-21.178-15.072-23.889-19.234c-0.762-1.162,8.537-15.264,21.382-35.361
		c23.386,36.311,43.809,64.807,50.474,65.955c4.616,0.791,16.347-11.877,29.291-24.332c11.643-11.207,24.795-19.203,25.013-25.621
		c0.226-6.572-3.039-7.682-8.749-7.055c-5.718,0.635-16.034,12.371-22.231,10.451c-5.771-1.793-21.493-32.734-41.645-71.789
		c1.585-2.758,3.163-5.521,4.71-8.283c24.585-43.873,42.447-88.764,46.149-89.098c3.666-0.33,27.181,54.039,58.485,104.924
		c8.426,13.699,16.895,27.189,25.027,39.799c-12.654,25.332-24.497,45.049-24.463,48.064c0.035,3.914,37.019,17.898,40.234,16.244
		c2.171-1.137,3.142-3.896,1.551-6.453c-1.6-2.559-11.189-7.924-12.627-10.117c-0.442-0.658,5.262-9.26,12.832-21.225
		c17.274,25.371,31.113,43.018,36.534,43.955c4.995,0.855,17.71-12.861,31.742-26.367c6.625-6.375,13.639-11.771,18.902-16.484
		c12.874,19.758,23.968,35,27.658,35.623c2.641,0.451,9.332-6.809,16.711-13.938c3.205-3.107,6.589-5.77,9.271-8.123
		c5.913,16.797,21.858,28.893,40.671,28.908c23.842,0.02,43.19-19.254,43.21-43.102c0-0.707-0.073-1.373-0.104-2.068l24.434-4.547
		c0.248-0.049-1.943-0.195-1.7-0.289c3.377-0.846,3.777-3.012,3.78-6.244l0.005-6.682l6.875,0.006
		c5.222,0.004,9.046-7.449,9.149-12.102l59.974,14.654l-0.005,6.805l-0.002,1.527l-0.013,15.205
		c-7.001,1.477-13.522,9.105-13.53,18.369c-0.009,10.332,9.4,18.715,19.731,18.723c10.32,0.008,19.238-8.359,19.247-18.689
		c0.003-3.664-0.838-7.063-2.663-9.955l6.152-6.016c0.995-0.996,1.502-2.32,1.456-3.633c0.056-1.32-2.22-2.66-3.227-3.668
		l-14.152-12.34l0.01-11.25c0.002-3.109-0.588-5.358-3.601-6.099L824.823,660h0.83c1.514,0,2.844-4.17,3.245-5.625l8.696-34.191
		l41.108-0.104c2.94,0.002,5.537-1.787,6.42-4.588l19.038-60.694C904.803,552.747,904.436,550.776,903.172,549.042z
		 M375.699,456.019c-0.811,12.633-13.936,54.822-32.963,100.699c-12.086-26.115-20.813-46.662-21.791-50.072
		c-3.145-10.902,5.473-99.457,11.509-100.521c4.673-0.822,21.533,23.027,43.84,40.676
		C376.079,450.134,375.876,453.249,375.699,456.019z M379.205,398.251c-6.551-12.853-12.466-28.843-18.29-42.338
		c8.769-7.537,16.304-12.977,17.999-12.77C381.414,343.458,380.686,369.676,379.205,398.251z M593.873,479.333
		c0,0,7.495-0.688,9.51-2.926c1.335-5.158-0.689-13.334-0.829-26.656c-0.011-1.324-0.178-2.621-0.366-3.908
		c5.147,0.885,10.177,1.516,14.866,1.869l37.074,37.15c1.671,1.666,4.045,2.58,6.691,2.582c0.656,0.002,1.306,1.346,1.95,1.246
		l58.604,60.121l-61.5-0.051c-2.139-0.002-4.146-0.084-5.425,1.641c-1.269,1.725-1.634,3.561-0.991,5.607l0.343,1.053
		c-4.919-2.582-9.614-5.596-13.158-8.818c-10.736-9.754-18.145-43.32-26.814-49.525c-7.17-5.135-22.226-11.484-23.461-14.324
		C589.123,481.565,593.873,479.333,593.873,479.333z M542.547,583.821c-0.185,3.059-1.754,9.441-4.337,17.756
		c-7.713-14.979-15.286-30.439-22.209-45.023c0.514-2.119,0.997-4.047,1.348-5.527c1.827-7.596,24.433-27.018,26.729-26.74
		C546.387,524.558,543.624,566.233,542.547,583.821z M503.401,529.425c-10.364-22.787-17.535-39.809-18.452-42.994
		c-3.404-11.813,5.938-107.782,12.48-108.94c6.072-1.071,31.128,36.356,62.629,54.47c-3.456,3.318-5.779,7.444-5.902,12.066
		c-0.607,22.99,9.56,20.07,9.152,35.695c-0.032,1.137,0.061,1.807,0.205,2.27C543.971,486.368,515.989,508.653,503.401,529.425z
		 M589.195,690.712c-4.776-1.479-15.842-21.395-30.519-49.539c5.664-11.828,9.506-20.412,10.67-20.52
		c1.932-0.178,14.424,28.459,30.999,55.248c1.596,2.57,3.188,5.121,4.779,7.65C599.637,687.313,593.498,692.056,589.195,690.712z
		 M759.499,676.763l-13.801,3.041c-4.209-9.234-10.335-17.521-19.477-21.889c0.025,0.014,0.369-0.043,0.406-0.043
		c-5.463-2.518-11.399-3.654-17.804-3.66c-23.865-0.02-43.15,19.439-43.17,43.301c-0.001,1.576,0.128,3.133,0.293,4.666
		c-3.297,1.865-7.622,5.996-10.473,5.117c-3.538-1.09-13.668-21.305-26.459-45.857c-14.267-27.375-27.85-58.445-28.818-61.736
		c-1.807-6.223,3.006-56.848,6.444-57.471c3.455-0.621,18.571,22.299,36.996,30.645c4.725,2.143,10.829,3.869,16.82,4.98
		l11.932,37.768c0.881,2.805,3.475,4.15,6.408,4.152l37.244,0.031l8.865,33.986c0.288,1.076,1.086,3.98,2.066,4.957
		c0.363-0.068,0.977,0.066,1.17,0.066l31.371,0.025L759.499,676.763z"/>
</g>
<path fill="none" d="M2177.172,537.042c-0.386-0.518-0.849-0.975-1.356-1.389c-2.319-13.625-10.973-64.947-12.008-81.998l1.852-1.85
	c0.695-0.693,1.078-1.613,1.078-2.602c0.001-0.98-0.38-1.908-1.073-2.596c-1.393-1.402-3.826-1.398-5.21-0.004l-4.885,1.422
	c-15.14-3.264-54.569-16.812-73.569-24.757v-0.045c0-1.488,3.432-2.154-1.08-2.252c-3.783,0.078-4.531,0.553-4.781,1.51
	c-7.693,2.068-17.837,4.225-23.446,4.621c-0.476-1.084-1.664-2.172-2.815-1.697l-0.285,0.131c-0.396,0.168-0.672,0.486-0.854,0.924
	c-0.326,0.781-0.204,1.77,0.064,2.402l23.359,56.521c1.198,3.057,2.016,6.541,2.203,7.004l0.074,44.49l-21.835-0.02l0.037-45
	l-14-0.012l-0.037,45l-24.494-0.02l-67.997-69.535c0.53-3.076-0.068-7.051-2.348-9.336l-26.765-26.97
	c10.253-10.492,2.238-23.441-7.307-22.061c-3.859,0.559-9.775-0.275-16.691-2.121l-14.88-14.98
	c-1.667-1.664-4.045-2.754-6.684-2.756c-3.07-0.004-6.142,1.152-8.208,3.221c-0.605,0.607-1.108,1.301-1.565,2.045
	c-9.662-5.023-18.892-10.963-25.826-17.299c-20.307-18.535-34.145-82.219-50.57-94.041c-13.559-9.754-42.1-21.855-44.416-27.242
	c-2.322-5.387,0.293-21.182,0.293-21.182s11.635-1.035,14.764-4.504c2.09-7.986-1.027-20.666-1.18-41.324
	c-0.156-20.664-14.207-39.432-32.788-40.311c-18.575-0.885-41.684,12.637-42.217,31.219c-1.03,35.648,14.733,31.176,14.021,55.398
	c-0.252,8.406,0.225,15.129-2.334,15.641c-26.811,5.338-62.555,29.188-89.527,57.016c-11.146-6.02-22.281-11.684-23.643-14.842
	c-2.146-4.969,0.273-19.545,0.273-19.545s10.733-0.955,13.619-4.16c1.926-7.365-0.941-19.064-1.088-38.133
	c-0.147-19.064-13.111-36.381-30.253-37.195c-17.143-0.814-38.462,11.664-38.957,28.807c-0.952,32.896,13.593,28.775,12.936,51.121
	c-0.231,7.756,0.208,13.967-2.151,14.434c-41.209,8.201-105.48,63.725-116.672,104.838c-8.683,31.877-1.175,96.688,0.748,100.538
	c1.918,3.85,6.883,12.721,15.022,8.588c9.136-4.641,10.509-8.398,8.934-33.377c-1.198-19.01,6.531-47.14,9.568-59.696
	c3.22-13.295,42.856-47.148,46.877-46.65c4.015,0.496-0.993,73.375-2.969,104.149c-0.849,13.252-16.374,61.748-37.905,110.42
	c-27.758,62.758-62.747,118.555-62.695,125.393c0.05,6.842,64.681,31.498,70.317,28.596c3.792-1.955,5.503-6.787,2.73-11.27
	c-2.772-4.492-19.54-13.912-22.044-17.754c-1.299-1.996,29.301-44.982,53.746-88.617c22.688-40.479,39.164-81.906,42.586-82.215
	c3.008-0.268,20.488,39.318,44.613,81.086c-23.423,46.213-44.848,81.781-44.803,87.354c0.051,7.412,70.096,34.139,76.202,30.99
	c4.11-2.121,5.966-7.348,2.962-12.217c-3.01-4.863-21.178-15.072-23.889-19.234c-0.762-1.162,8.537-15.264,21.382-35.361
	c23.386,36.311,43.809,64.807,50.474,65.955c4.616,0.791,16.347-11.877,29.291-24.332c11.643-11.207,24.795-19.203,25.013-25.621
	c0.226-6.572-3.039-7.682-8.749-7.055c-5.718,0.635-16.034,12.371-22.231,10.451c-5.771-1.793-21.493-32.734-41.645-71.789
	c1.585-2.758,3.163-5.521,4.71-8.283c24.585-43.873,42.447-88.764,46.149-89.098c3.666-0.33,27.181,54.039,58.485,104.924
	c8.426,13.699,16.895,27.189,25.027,39.799c-12.654,25.332-24.497,45.049-24.463,48.064c0.035,3.914,37.019,17.898,40.234,16.244
	c2.171-1.137,3.142-3.896,1.551-6.453c-1.6-2.559-11.189-7.924-12.627-10.117c-0.442-0.658,5.262-9.26,12.832-21.225
	c17.274,25.371,31.113,43.018,36.534,43.955c4.995,0.855,17.71-12.861,31.742-26.367c6.625-6.375,13.639-11.771,18.902-16.484
	c12.874,19.758,23.968,35,27.658,35.623c2.641,0.451,9.332-6.809,16.711-13.938c3.205-3.107,6.589-5.77,9.271-8.123
	c5.913,16.797,21.858,28.893,40.671,28.908c23.842,0.02,43.19-19.254,43.21-43.102c0-0.707-0.073-1.373-0.104-2.068l24.434-4.547
	c0.248-0.049-1.943-0.195-1.7-0.289c3.377-0.846,3.777-3.012,3.78-6.244l0.005-6.682l6.875,0.006
	c5.222,0.004,9.046-7.449,9.149-12.102l59.974,14.654l-0.005,6.805l-0.002,1.527l-0.013,15.205
	c-7.001,1.477-13.522,9.105-13.53,18.369c-0.009,10.332,9.4,18.715,19.731,18.723c10.32,0.008,19.238-8.359,19.247-18.689
	c0.003-3.664-0.838-7.063-2.663-9.955l6.152-6.016c0.995-0.996,1.502-2.32,1.456-3.633c0.056-1.32-2.22-2.66-3.227-3.668
	l-14.152-12.34l0.01-11.25c0.002-3.109-0.588-5.358-3.601-6.099L2098.823,648h0.83c1.514,0,2.844-4.17,3.245-5.625l8.696-34.191
	l41.108-0.104c2.94,0.002,5.537-1.787,6.42-4.588l19.038-60.694C2178.803,540.747,2178.436,538.776,2177.172,537.042z
	 M1649.699,444.019c-0.811,12.633-13.936,54.822-32.963,100.699c-12.086-26.115-20.813-46.662-21.791-50.072
	c-3.145-10.902,5.473-99.456,11.509-100.521c4.673-0.822,21.533,23.027,43.84,40.676
	C1650.079,438.135,1649.876,441.249,1649.699,444.019z M1653.205,386.252c-6.551-12.854-12.466-28.844-18.29-42.338
	c8.769-7.537,16.304-12.977,17.999-12.77C1655.414,331.459,1654.686,357.676,1653.205,386.252z M1867.873,467.333
	c0,0,7.495-0.688,9.51-2.926c1.335-5.158-0.689-13.334-0.829-26.655c-0.011-1.324-0.178-2.621-0.366-3.908
	c5.147,0.885,10.177,1.516,14.866,1.869l37.074,37.149c1.671,1.666,4.045,2.58,6.691,2.582c0.656,0.002,1.306,1.346,1.95,1.246
	l58.604,60.121l-61.5-0.051c-2.139-0.002-4.146-0.084-5.425,1.641c-1.269,1.725-1.634,3.561-0.991,5.607l0.343,1.053
	c-4.919-2.582-9.614-5.596-13.158-8.818c-10.736-9.754-18.145-43.32-26.814-49.525c-7.17-5.135-22.226-11.484-23.461-14.324
	C1863.123,469.565,1867.873,467.333,1867.873,467.333z M1816.547,571.821c-0.185,3.059-1.754,9.441-4.337,17.756
	c-7.713-14.979-15.286-30.439-22.209-45.023c0.514-2.119,0.997-4.047,1.348-5.527c1.827-7.596,24.433-27.018,26.729-26.74
	C1820.387,512.558,1817.624,554.233,1816.547,571.821z M1777.401,517.425c-10.364-22.787-17.535-39.809-18.452-42.994
	c-3.404-11.813,5.938-107.782,12.48-108.94c6.072-1.07,31.128,36.357,62.629,54.471c-3.456,3.318-5.779,7.443-5.902,12.066
	c-0.607,22.989,9.56,20.069,9.152,35.694c-0.032,1.137,0.061,1.807,0.205,2.27C1817.971,474.368,1789.989,496.653,1777.401,517.425z
	 M1863.195,678.712c-4.776-1.479-15.842-21.395-30.519-49.539c5.664-11.828,9.506-20.412,10.67-20.52
	c1.932-0.178,14.424,28.459,30.999,55.248c1.596,2.57,3.188,5.121,4.779,7.65C1873.637,675.313,1867.498,680.056,1863.195,678.712z
	 M2033.499,664.763l-13.801,3.041c-4.209-9.234-10.335-17.521-19.477-21.889c0.025,0.014,0.369-0.043,0.406-0.043
	c-5.463-2.518-11.399-3.654-17.804-3.66c-23.865-0.02-43.15,19.439-43.17,43.301c-0.001,1.576,0.128,3.133,0.293,4.666
	c-3.297,1.865-7.622,5.996-10.473,5.117c-3.538-1.09-13.668-21.305-26.459-45.857c-14.267-27.375-27.85-58.445-28.818-61.736
	c-1.807-6.223,3.006-56.848,6.444-57.471c3.455-0.621,18.571,22.299,36.996,30.645c4.725,2.143,10.829,3.869,16.82,4.98
	l11.932,37.768c0.881,2.805,3.475,4.15,6.408,4.152l37.244,0.031l8.865,33.986c0.288,1.076,1.086,3.98,2.066,4.957
	c0.363-0.068,0.977,0.066,1.17,0.066l31.371,0.025L2033.499,664.763z"/>
</svg>
