<?xml version="1.0" encoding="utf-8"?>
<!-- Generator: Adobe Illustrator 16.0.0, SVG Export Plug-In . SVG Version: 6.00 Build 0)  -->
<!DOCTYPE svg PUBLIC "-//W3C//DTD SVG 1.1//EN" "http://www.w3.org/Graphics/SVG/1.1/DTD/svg11.dtd">
<svg version="1.1" id="Layer_1" xmlns="http://www.w3.org/2000/svg" xmlns:xlink="http://www.w3.org/1999/xlink" x="0px" y="0px"
	 width="1024px" height="1024px" viewBox="0 0 1024 1024" enable-background="new 0 0 1024 1024" xml:space="preserve">
<pattern  width="110.551" height="65" patternUnits="userSpaceOnUse" id="New_Pattern_10" viewBox="38.611 -99.5 110.551 65" overflow="visible">
	<g>
		<polygon fill="none" points="38.611,-99.5 149.162,-99.5 149.162,-34.5 38.611,-34.5 		"/>
		<g>
			<polygon fill="#ED1C24" stroke="#C1272D" stroke-width="4" stroke-linejoin="round" stroke-miterlimit="10" points="
				130.879,-66.251 112.551,-34.5 112.551,-34.5 149.174,-34.5 149.174,-34.5 130.879,-66.251 			"/>
			<polygon fill="#ED1C24" stroke="#C1272D" stroke-width="4" stroke-linejoin="round" stroke-miterlimit="10" points="
				167.479,-66.251 149.15,-34.5 149.15,-34.5 185.773,-34.5 185.773,-34.5 167.479,-66.251 			"/>
			<polygon fill="#ED1C24" stroke="#C1272D" stroke-width="4" stroke-linejoin="round" stroke-miterlimit="10" points="
				149.18,-34.251 130.851,-2.5 130.851,-2.5 167.474,-2.5 167.474,-2.5 149.18,-34.251 			"/>
			<polygon fill="#ED1C24" stroke="#C1272D" stroke-width="4" stroke-linejoin="round" stroke-miterlimit="10" points="
				167.445,-2.748 185.773,-34.5 185.773,-34.5 149.15,-34.5 149.15,-34.5 167.445,-2.748 			"/>
			<polygon fill="#ED1C24" stroke="#C1272D" stroke-width="4" stroke-linejoin="round" stroke-miterlimit="10" points="
				130.845,-2.748 149.174,-34.5 149.174,-34.5 112.551,-34.5 112.551,-34.5 130.845,-2.748 			"/>
			<polygon fill="#ED1C24" stroke="#C1272D" stroke-width="4" stroke-linejoin="round" stroke-miterlimit="10" points="
				149.145,-34.749 167.474,-66.5 167.474,-66.5 130.851,-66.5 130.851,-66.5 149.145,-34.749 			"/>
		</g>
		<g>
			<polygon fill="#ED1C24" stroke="#C1272D" stroke-width="4" stroke-linejoin="round" stroke-miterlimit="10" points="
				75.604,-33.751 57.275,-2 57.275,-2 93.898,-2 93.898,-2 75.604,-33.751 			"/>
			<polygon fill="#ED1C24" stroke="#C1272D" stroke-width="4" stroke-linejoin="round" stroke-miterlimit="10" points="
				112.204,-33.751 93.875,-2 93.875,-2 130.498,-2 130.498,-2 112.204,-33.751 			"/>
			<polygon fill="#ED1C24" stroke="#C1272D" stroke-width="4" stroke-linejoin="round" stroke-miterlimit="10" points="
				93.869,-2.249 112.198,-34 112.198,-34 75.575,-34 75.575,-34 93.869,-2.249 			"/>
		</g>
		<g>
			<polygon fill="#ED1C24" stroke="#C1272D" stroke-width="4" stroke-linejoin="round" stroke-miterlimit="10" points="
				20.328,-66.251 2,-34.5 2,-34.5 38.623,-34.5 38.623,-34.5 20.328,-66.251 			"/>
			<polygon fill="#ED1C24" stroke="#C1272D" stroke-width="4" stroke-linejoin="round" stroke-miterlimit="10" points="
				56.929,-66.251 38.6,-34.5 38.6,-34.5 75.223,-34.5 75.223,-34.5 56.929,-66.251 			"/>
			<polygon fill="#ED1C24" stroke="#C1272D" stroke-width="4" stroke-linejoin="round" stroke-miterlimit="10" points="
				38.629,-34.251 20.3,-2.5 20.3,-2.5 56.923,-2.5 56.923,-2.5 38.629,-34.251 			"/>
			<polygon fill="#ED1C24" stroke="#C1272D" stroke-width="4" stroke-linejoin="round" stroke-miterlimit="10" points="
				56.895,-2.748 75.223,-34.5 75.223,-34.5 38.6,-34.5 38.6,-34.5 56.895,-2.748 			"/>
			<polygon fill="#ED1C24" stroke="#C1272D" stroke-width="4" stroke-linejoin="round" stroke-miterlimit="10" points="
				20.294,-2.748 38.623,-34.5 38.623,-34.5 2,-34.5 2,-34.5 20.294,-2.748 			"/>
			<polygon fill="#ED1C24" stroke="#C1272D" stroke-width="4" stroke-linejoin="round" stroke-miterlimit="10" points="
				38.594,-34.749 56.923,-66.5 56.923,-66.5 20.3,-66.5 20.3,-66.5 38.594,-34.749 			"/>
		</g>
		<g>
			<polygon fill="#ED1C24" stroke="#C1272D" stroke-width="4" stroke-linejoin="round" stroke-miterlimit="10" points="
				130.879,-131.251 112.551,-99.5 112.551,-99.5 149.174,-99.5 149.174,-99.5 130.879,-131.251 			"/>
			<polygon fill="#ED1C24" stroke="#C1272D" stroke-width="4" stroke-linejoin="round" stroke-miterlimit="10" points="
				167.479,-131.251 149.15,-99.5 149.15,-99.5 185.773,-99.5 185.773,-99.5 167.479,-131.251 			"/>
			<polygon fill="#ED1C24" stroke="#C1272D" stroke-width="4" stroke-linejoin="round" stroke-miterlimit="10" points="
				149.18,-99.251 130.851,-67.5 130.851,-67.5 167.474,-67.5 167.474,-67.5 149.18,-99.251 			"/>
			<polygon fill="#ED1C24" stroke="#C1272D" stroke-width="4" stroke-linejoin="round" stroke-miterlimit="10" points="
				167.445,-67.748 185.773,-99.5 185.773,-99.5 149.15,-99.5 149.15,-99.5 167.445,-67.748 			"/>
			<polygon fill="#ED1C24" stroke="#C1272D" stroke-width="4" stroke-linejoin="round" stroke-miterlimit="10" points="
				130.845,-67.748 149.174,-99.5 149.174,-99.5 112.551,-99.5 112.551,-99.5 130.845,-67.748 			"/>
			<polygon fill="#ED1C24" stroke="#C1272D" stroke-width="4" stroke-linejoin="round" stroke-miterlimit="10" points="
				149.145,-99.749 167.474,-131.5 167.474,-131.5 130.851,-131.5 130.851,-131.5 149.145,-99.749 			"/>
		</g>
		<g>
			<polygon fill="#ED1C24" stroke="#C1272D" stroke-width="4" stroke-linejoin="round" stroke-miterlimit="10" points="
				75.604,-98.751 57.275,-67 57.275,-67 93.898,-67 93.898,-67 75.604,-98.751 			"/>
			<polygon fill="#ED1C24" stroke="#C1272D" stroke-width="4" stroke-linejoin="round" stroke-miterlimit="10" points="
				112.204,-98.751 93.875,-67 93.875,-67 130.498,-67 130.498,-67 112.204,-98.751 			"/>
			<polygon fill="#ED1C24" stroke="#C1272D" stroke-width="4" stroke-linejoin="round" stroke-miterlimit="10" points="
				93.904,-66.751 75.575,-35 75.575,-35 112.198,-35 112.198,-35 93.904,-66.751 			"/>
			<polygon fill="#ED1C24" stroke="#C1272D" stroke-width="4" stroke-linejoin="round" stroke-miterlimit="10" points="
				112.17,-35.248 130.498,-67 130.498,-67 93.875,-67 93.875,-67 112.17,-35.248 			"/>
			<polygon fill="#ED1C24" stroke="#C1272D" stroke-width="4" stroke-linejoin="round" stroke-miterlimit="10" points="
				75.569,-35.248 93.898,-67 93.898,-67 57.275,-67 57.275,-67 75.569,-35.248 			"/>
			<polygon fill="#ED1C24" stroke="#C1272D" stroke-width="4" stroke-linejoin="round" stroke-miterlimit="10" points="
				93.869,-67.249 112.198,-99 112.198,-99 75.575,-99 75.575,-99 93.869,-67.249 			"/>
		</g>
		<g>
			<polygon fill="#ED1C24" stroke="#C1272D" stroke-width="4" stroke-linejoin="round" stroke-miterlimit="10" points="
				20.328,-131.251 2,-99.5 2,-99.5 38.623,-99.5 38.623,-99.5 20.328,-131.251 			"/>
			<polygon fill="#ED1C24" stroke="#C1272D" stroke-width="4" stroke-linejoin="round" stroke-miterlimit="10" points="
				56.929,-131.251 38.6,-99.5 38.6,-99.5 75.223,-99.5 75.223,-99.5 56.929,-131.251 			"/>
			<polygon fill="#ED1C24" stroke="#C1272D" stroke-width="4" stroke-linejoin="round" stroke-miterlimit="10" points="
				38.629,-99.251 20.3,-67.5 20.3,-67.5 56.923,-67.5 56.923,-67.5 38.629,-99.251 			"/>
			<polygon fill="#ED1C24" stroke="#C1272D" stroke-width="4" stroke-linejoin="round" stroke-miterlimit="10" points="
				56.895,-67.748 75.223,-99.5 75.223,-99.5 38.6,-99.5 38.6,-99.5 56.895,-67.748 			"/>
			<polygon fill="#ED1C24" stroke="#C1272D" stroke-width="4" stroke-linejoin="round" stroke-miterlimit="10" points="
				20.294,-67.748 38.623,-99.5 38.623,-99.5 2,-99.5 2,-99.5 20.294,-67.748 			"/>
			<polygon fill="#ED1C24" stroke="#C1272D" stroke-width="4" stroke-linejoin="round" stroke-miterlimit="10" points="
				38.594,-99.749 56.923,-131.5 56.923,-131.5 20.3,-131.5 20.3,-131.5 38.594,-99.749 			"/>
		</g>
		<g>
			<polygon fill="#ED1C24" stroke="#C1272D" stroke-width="4" stroke-linejoin="round" stroke-miterlimit="10" points="
				93.904,-131.751 75.575,-100 75.575,-100 112.198,-100 112.198,-100 93.904,-131.751 			"/>
			<polygon fill="#ED1C24" stroke="#C1272D" stroke-width="4" stroke-linejoin="round" stroke-miterlimit="10" points="
				112.17,-100.248 130.498,-132 130.498,-132 93.875,-132 93.875,-132 112.17,-100.248 			"/>
			<polygon fill="#ED1C24" stroke="#C1272D" stroke-width="4" stroke-linejoin="round" stroke-miterlimit="10" points="
				75.569,-100.248 93.898,-132 93.898,-132 57.275,-132 57.275,-132 75.569,-100.248 			"/>
		</g>
	</g>
</pattern>
<pattern  width="110.551" height="65" patternUnits="userSpaceOnUse" id="New_Pattern_11" viewBox="38.611 -99.5 110.551 65" overflow="visible">
	<g>
		<polygon fill="none" points="38.611,-99.5 149.162,-99.5 149.162,-34.5 38.611,-34.5 		"/>
		<g>
			<polygon fill="#F15A24" stroke="#FF0000" stroke-width="4" stroke-linejoin="round" stroke-miterlimit="10" points="
				130.879,-66.251 112.551,-34.5 112.551,-34.5 149.173,-34.5 149.173,-34.5 130.879,-66.251 			"/>
			<polygon fill="#F15A24" stroke="#FF0000" stroke-width="4" stroke-linejoin="round" stroke-miterlimit="10" points="
				167.479,-66.251 149.151,-34.5 149.151,-34.5 185.773,-34.5 185.773,-34.5 167.479,-66.251 			"/>
			<polygon fill="#F15A24" stroke="#FF0000" stroke-width="4" stroke-linejoin="round" stroke-miterlimit="10" points="
				149.179,-34.251 130.851,-2.5 130.851,-2.5 167.474,-2.5 167.474,-2.5 149.179,-34.251 			"/>
			<polygon fill="#F15A24" stroke="#FF0000" stroke-width="4" stroke-linejoin="round" stroke-miterlimit="10" points="
				167.445,-2.748 185.773,-34.5 185.773,-34.5 149.151,-34.5 149.151,-34.5 167.445,-2.748 			"/>
			<polygon fill="#F15A24" stroke="#FF0000" stroke-width="4" stroke-linejoin="round" stroke-miterlimit="10" points="
				130.845,-2.748 149.173,-34.5 149.173,-34.5 112.551,-34.5 112.551,-34.5 130.845,-2.748 			"/>
			<polygon fill="#F15A24" stroke="#FF0000" stroke-width="4" stroke-linejoin="round" stroke-miterlimit="10" points="
				149.145,-34.749 167.474,-66.5 167.474,-66.5 130.851,-66.5 130.851,-66.5 149.145,-34.749 			"/>
		</g>
		<g>
			<polygon fill="#F15A24" stroke="#FF0000" stroke-width="4" stroke-linejoin="round" stroke-miterlimit="10" points="
				75.604,-33.751 57.275,-2 57.275,-2 93.898,-2 93.898,-2 75.604,-33.751 			"/>
			<polygon fill="#F15A24" stroke="#FF0000" stroke-width="4" stroke-linejoin="round" stroke-miterlimit="10" points="
				112.204,-33.751 93.875,-2 93.875,-2 130.498,-2 130.498,-2 112.204,-33.751 			"/>
			<polygon fill="#F15A24" stroke="#FF0000" stroke-width="4" stroke-linejoin="round" stroke-miterlimit="10" points="
				93.87,-2.249 112.198,-34 112.198,-34 75.575,-34 75.575,-34 93.87,-2.249 			"/>
		</g>
		<g>
			<polygon fill="#F15A24" stroke="#FF0000" stroke-width="4" stroke-linejoin="round" stroke-miterlimit="10" points="
				20.329,-66.251 2,-34.5 2,-34.5 38.623,-34.5 38.623,-34.5 20.329,-66.251 			"/>
			<polygon fill="#F15A24" stroke="#FF0000" stroke-width="4" stroke-linejoin="round" stroke-miterlimit="10" points="
				56.929,-66.251 38.6,-34.5 38.6,-34.5 75.223,-34.5 75.223,-34.5 56.929,-66.251 			"/>
			<polygon fill="#F15A24" stroke="#FF0000" stroke-width="4" stroke-linejoin="round" stroke-miterlimit="10" points="
				38.628,-34.251 20.3,-2.5 20.3,-2.5 56.923,-2.5 56.923,-2.5 38.628,-34.251 			"/>
			<polygon fill="#F15A24" stroke="#FF0000" stroke-width="4" stroke-linejoin="round" stroke-miterlimit="10" points="
				56.894,-2.748 75.223,-34.5 75.223,-34.5 38.6,-34.5 38.6,-34.5 56.894,-2.748 			"/>
			<polygon fill="#F15A24" stroke="#FF0000" stroke-width="4" stroke-linejoin="round" stroke-miterlimit="10" points="
				20.294,-2.748 38.623,-34.5 38.623,-34.5 2,-34.5 2,-34.5 20.294,-2.748 			"/>
			<polygon fill="#F15A24" stroke="#FF0000" stroke-width="4" stroke-linejoin="round" stroke-miterlimit="10" points="
				38.594,-34.749 56.923,-66.5 56.923,-66.5 20.3,-66.5 20.3,-66.5 38.594,-34.749 			"/>
		</g>
		<g>
			<polygon fill="#F15A24" stroke="#FF0000" stroke-width="4" stroke-linejoin="round" stroke-miterlimit="10" points="
				130.879,-131.251 112.551,-99.5 112.551,-99.5 149.173,-99.5 149.173,-99.5 130.879,-131.251 			"/>
			<polygon fill="#F15A24" stroke="#FF0000" stroke-width="4" stroke-linejoin="round" stroke-miterlimit="10" points="
				167.479,-131.251 149.151,-99.5 149.151,-99.5 185.773,-99.5 185.773,-99.5 167.479,-131.251 			"/>
			<polygon fill="#F15A24" stroke="#FF0000" stroke-width="4" stroke-linejoin="round" stroke-miterlimit="10" points="
				149.179,-99.251 130.851,-67.5 130.851,-67.5 167.474,-67.5 167.474,-67.5 149.179,-99.251 			"/>
			<polygon fill="#F15A24" stroke="#FF0000" stroke-width="4" stroke-linejoin="round" stroke-miterlimit="10" points="
				167.445,-67.748 185.773,-99.5 185.773,-99.5 149.151,-99.5 149.151,-99.5 167.445,-67.748 			"/>
			<polygon fill="#F15A24" stroke="#FF0000" stroke-width="4" stroke-linejoin="round" stroke-miterlimit="10" points="
				130.845,-67.748 149.173,-99.5 149.173,-99.5 112.551,-99.5 112.551,-99.5 130.845,-67.748 			"/>
			<polygon fill="#F15A24" stroke="#FF0000" stroke-width="4" stroke-linejoin="round" stroke-miterlimit="10" points="
				149.145,-99.749 167.474,-131.5 167.474,-131.5 130.851,-131.5 130.851,-131.5 149.145,-99.749 			"/>
		</g>
		<g>
			<polygon fill="#F15A24" stroke="#FF0000" stroke-width="4" stroke-linejoin="round" stroke-miterlimit="10" points="
				75.604,-98.751 57.275,-67 57.275,-67 93.898,-67 93.898,-67 75.604,-98.751 			"/>
			<polygon fill="#F15A24" stroke="#FF0000" stroke-width="4" stroke-linejoin="round" stroke-miterlimit="10" points="
				112.204,-98.751 93.875,-67 93.875,-67 130.498,-67 130.498,-67 112.204,-98.751 			"/>
			<polygon fill="#F15A24" stroke="#FF0000" stroke-width="4" stroke-linejoin="round" stroke-miterlimit="10" points="
				93.904,-66.751 75.575,-35 75.575,-35 112.198,-35 112.198,-35 93.904,-66.751 			"/>
			<polygon fill="#F15A24" stroke="#FF0000" stroke-width="4" stroke-linejoin="round" stroke-miterlimit="10" points="
				112.169,-35.248 130.498,-67 130.498,-67 93.875,-67 93.875,-67 112.169,-35.248 			"/>
			<polygon fill="#F15A24" stroke="#FF0000" stroke-width="4" stroke-linejoin="round" stroke-miterlimit="10" points="
				75.569,-35.248 93.898,-67 93.898,-67 57.275,-67 57.275,-67 75.569,-35.248 			"/>
			<polygon fill="#F15A24" stroke="#FF0000" stroke-width="4" stroke-linejoin="round" stroke-miterlimit="10" points="
				93.87,-67.249 112.198,-99 112.198,-99 75.575,-99 75.575,-99 93.87,-67.249 			"/>
		</g>
		<g>
			<polygon fill="#F15A24" stroke="#FF0000" stroke-width="4" stroke-linejoin="round" stroke-miterlimit="10" points="
				20.329,-131.251 2,-99.5 2,-99.5 38.623,-99.5 38.623,-99.5 20.329,-131.251 			"/>
			<polygon fill="#F15A24" stroke="#FF0000" stroke-width="4" stroke-linejoin="round" stroke-miterlimit="10" points="
				56.929,-131.251 38.6,-99.5 38.6,-99.5 75.223,-99.5 75.223,-99.5 56.929,-131.251 			"/>
			<polygon fill="#F15A24" stroke="#FF0000" stroke-width="4" stroke-linejoin="round" stroke-miterlimit="10" points="
				38.628,-99.251 20.3,-67.5 20.3,-67.5 56.923,-67.5 56.923,-67.5 38.628,-99.251 			"/>
			<polygon fill="#F15A24" stroke="#FF0000" stroke-width="4" stroke-linejoin="round" stroke-miterlimit="10" points="
				56.894,-67.748 75.223,-99.5 75.223,-99.5 38.6,-99.5 38.6,-99.5 56.894,-67.748 			"/>
			<polygon fill="#F15A24" stroke="#FF0000" stroke-width="4" stroke-linejoin="round" stroke-miterlimit="10" points="
				20.294,-67.748 38.623,-99.5 38.623,-99.5 2,-99.5 2,-99.5 20.294,-67.748 			"/>
			<polygon fill="#F15A24" stroke="#FF0000" stroke-width="4" stroke-linejoin="round" stroke-miterlimit="10" points="
				38.594,-99.749 56.923,-131.5 56.923,-131.5 20.3,-131.5 20.3,-131.5 38.594,-99.749 			"/>
		</g>
		<g>
			<polygon fill="#F15A24" stroke="#FF0000" stroke-width="4" stroke-linejoin="round" stroke-miterlimit="10" points="
				93.904,-131.751 75.575,-100 75.575,-100 112.198,-100 112.198,-100 93.904,-131.751 			"/>
			<polygon fill="#F15A24" stroke="#FF0000" stroke-width="4" stroke-linejoin="round" stroke-miterlimit="10" points="
				112.169,-100.248 130.498,-132 130.498,-132 93.875,-132 93.875,-132 112.169,-100.248 			"/>
			<polygon fill="#F15A24" stroke="#FF0000" stroke-width="4" stroke-linejoin="round" stroke-miterlimit="10" points="
				75.569,-100.248 93.898,-132 93.898,-132 57.275,-132 57.275,-132 75.569,-100.248 			"/>
		</g>
	</g>
</pattern>
<pattern  width="110.551" height="65" patternUnits="userSpaceOnUse" id="New_Pattern_12" viewBox="38.611 -99.5 110.551 65" overflow="visible">
	<g>
		<polygon fill="none" points="38.611,-99.5 149.162,-99.5 149.162,-34.5 38.611,-34.5 		"/>
		<g>
			
				<polygon fill="#1A1A1A" stroke="#000000" stroke-width="4" stroke-linecap="round" stroke-linejoin="round" stroke-miterlimit="10" points="
				130.879,-66.251 112.551,-34.5 112.551,-34.5 149.173,-34.5 149.173,-34.5 130.879,-66.251 			"/>
			
				<polygon fill="#1A1A1A" stroke="#000000" stroke-width="4" stroke-linecap="round" stroke-linejoin="round" stroke-miterlimit="10" points="
				167.479,-66.251 149.151,-34.5 149.151,-34.5 185.773,-34.5 185.773,-34.5 167.479,-66.251 			"/>
			
				<polygon fill="#1A1A1A" stroke="#000000" stroke-width="4" stroke-linecap="round" stroke-linejoin="round" stroke-miterlimit="10" points="
				149.179,-34.251 130.851,-2.5 130.851,-2.5 167.474,-2.5 167.474,-2.5 149.179,-34.251 			"/>
			
				<polygon fill="#1A1A1A" stroke="#000000" stroke-width="4" stroke-linecap="round" stroke-linejoin="round" stroke-miterlimit="10" points="
				167.445,-2.748 185.773,-34.5 185.773,-34.5 149.151,-34.5 149.151,-34.5 167.445,-2.748 			"/>
			
				<polygon fill="#1A1A1A" stroke="#000000" stroke-width="4" stroke-linecap="round" stroke-linejoin="round" stroke-miterlimit="10" points="
				130.845,-2.748 149.173,-34.5 149.173,-34.5 112.551,-34.5 112.551,-34.5 130.845,-2.748 			"/>
			
				<polygon fill="#1A1A1A" stroke="#000000" stroke-width="4" stroke-linecap="round" stroke-linejoin="round" stroke-miterlimit="10" points="
				149.145,-34.749 167.474,-66.5 167.474,-66.5 130.851,-66.5 130.851,-66.5 149.145,-34.749 			"/>
		</g>
		<g>
			
				<polygon fill="#1A1A1A" stroke="#000000" stroke-width="4" stroke-linecap="round" stroke-linejoin="round" stroke-miterlimit="10" points="
				75.604,-33.751 57.275,-2 57.275,-2 93.898,-2 93.898,-2 75.604,-33.751 			"/>
			
				<polygon fill="#1A1A1A" stroke="#000000" stroke-width="4" stroke-linecap="round" stroke-linejoin="round" stroke-miterlimit="10" points="
				112.204,-33.751 93.875,-2 93.875,-2 130.498,-2 130.498,-2 112.204,-33.751 			"/>
			
				<polygon fill="#1A1A1A" stroke="#000000" stroke-width="4" stroke-linecap="round" stroke-linejoin="round" stroke-miterlimit="10" points="
				93.87,-2.249 112.198,-34 112.198,-34 75.575,-34 75.575,-34 93.87,-2.249 			"/>
		</g>
		<g>
			
				<polygon fill="#1A1A1A" stroke="#000000" stroke-width="4" stroke-linecap="round" stroke-linejoin="round" stroke-miterlimit="10" points="
				20.329,-66.251 2,-34.5 2,-34.5 38.623,-34.5 38.623,-34.5 20.329,-66.251 			"/>
			
				<polygon fill="#1A1A1A" stroke="#000000" stroke-width="4" stroke-linecap="round" stroke-linejoin="round" stroke-miterlimit="10" points="
				56.929,-66.251 38.6,-34.5 38.6,-34.5 75.223,-34.5 75.223,-34.5 56.929,-66.251 			"/>
			
				<polygon fill="#1A1A1A" stroke="#000000" stroke-width="4" stroke-linecap="round" stroke-linejoin="round" stroke-miterlimit="10" points="
				38.628,-34.251 20.3,-2.5 20.3,-2.5 56.923,-2.5 56.923,-2.5 38.628,-34.251 			"/>
			
				<polygon fill="#1A1A1A" stroke="#000000" stroke-width="4" stroke-linecap="round" stroke-linejoin="round" stroke-miterlimit="10" points="
				56.894,-2.748 75.223,-34.5 75.223,-34.5 38.6,-34.5 38.6,-34.5 56.894,-2.748 			"/>
			
				<polygon fill="#1A1A1A" stroke="#000000" stroke-width="4" stroke-linecap="round" stroke-linejoin="round" stroke-miterlimit="10" points="
				20.294,-2.748 38.623,-34.5 38.623,-34.5 2,-34.5 2,-34.5 20.294,-2.748 			"/>
			
				<polygon fill="#1A1A1A" stroke="#000000" stroke-width="4" stroke-linecap="round" stroke-linejoin="round" stroke-miterlimit="10" points="
				38.594,-34.749 56.923,-66.5 56.923,-66.5 20.3,-66.5 20.3,-66.5 38.594,-34.749 			"/>
		</g>
		<g>
			
				<polygon fill="#1A1A1A" stroke="#000000" stroke-width="4" stroke-linecap="round" stroke-linejoin="round" stroke-miterlimit="10" points="
				130.879,-131.251 112.551,-99.5 112.551,-99.5 149.173,-99.5 149.173,-99.5 130.879,-131.251 			"/>
			
				<polygon fill="#1A1A1A" stroke="#000000" stroke-width="4" stroke-linecap="round" stroke-linejoin="round" stroke-miterlimit="10" points="
				167.479,-131.251 149.151,-99.5 149.151,-99.5 185.773,-99.5 185.773,-99.5 167.479,-131.251 			"/>
			
				<polygon fill="#1A1A1A" stroke="#000000" stroke-width="4" stroke-linecap="round" stroke-linejoin="round" stroke-miterlimit="10" points="
				149.179,-99.251 130.851,-67.5 130.851,-67.5 167.474,-67.5 167.474,-67.5 149.179,-99.251 			"/>
			
				<polygon fill="#1A1A1A" stroke="#000000" stroke-width="4" stroke-linecap="round" stroke-linejoin="round" stroke-miterlimit="10" points="
				167.445,-67.748 185.773,-99.5 185.773,-99.5 149.151,-99.5 149.151,-99.5 167.445,-67.748 			"/>
			
				<polygon fill="#1A1A1A" stroke="#000000" stroke-width="4" stroke-linecap="round" stroke-linejoin="round" stroke-miterlimit="10" points="
				130.845,-67.748 149.173,-99.5 149.173,-99.5 112.551,-99.5 112.551,-99.5 130.845,-67.748 			"/>
			
				<polygon fill="#1A1A1A" stroke="#000000" stroke-width="4" stroke-linecap="round" stroke-linejoin="round" stroke-miterlimit="10" points="
				149.145,-99.749 167.474,-131.5 167.474,-131.5 130.851,-131.5 130.851,-131.5 149.145,-99.749 			"/>
		</g>
		<g>
			
				<polygon fill="#1A1A1A" stroke="#000000" stroke-width="4" stroke-linecap="round" stroke-linejoin="round" stroke-miterlimit="10" points="
				75.604,-98.751 57.275,-67 57.275,-67 93.898,-67 93.898,-67 75.604,-98.751 			"/>
			
				<polygon fill="#1A1A1A" stroke="#000000" stroke-width="4" stroke-linecap="round" stroke-linejoin="round" stroke-miterlimit="10" points="
				112.204,-98.751 93.875,-67 93.875,-67 130.498,-67 130.498,-67 112.204,-98.751 			"/>
			
				<polygon fill="#1A1A1A" stroke="#000000" stroke-width="4" stroke-linecap="round" stroke-linejoin="round" stroke-miterlimit="10" points="
				93.904,-66.751 75.575,-35 75.575,-35 112.198,-35 112.198,-35 93.904,-66.751 			"/>
			
				<polygon fill="#1A1A1A" stroke="#000000" stroke-width="4" stroke-linecap="round" stroke-linejoin="round" stroke-miterlimit="10" points="
				112.169,-35.248 130.498,-67 130.498,-67 93.875,-67 93.875,-67 112.169,-35.248 			"/>
			
				<polygon fill="#1A1A1A" stroke="#000000" stroke-width="4" stroke-linecap="round" stroke-linejoin="round" stroke-miterlimit="10" points="
				75.569,-35.248 93.898,-67 93.898,-67 57.275,-67 57.275,-67 75.569,-35.248 			"/>
			
				<polygon fill="#1A1A1A" stroke="#000000" stroke-width="4" stroke-linecap="round" stroke-linejoin="round" stroke-miterlimit="10" points="
				93.87,-67.249 112.198,-99 112.198,-99 75.575,-99 75.575,-99 93.87,-67.249 			"/>
		</g>
		<g>
			
				<polygon fill="#1A1A1A" stroke="#000000" stroke-width="4" stroke-linecap="round" stroke-linejoin="round" stroke-miterlimit="10" points="
				20.329,-131.251 2,-99.5 2,-99.5 38.623,-99.5 38.623,-99.5 20.329,-131.251 			"/>
			
				<polygon fill="#1A1A1A" stroke="#000000" stroke-width="4" stroke-linecap="round" stroke-linejoin="round" stroke-miterlimit="10" points="
				56.929,-131.251 38.6,-99.5 38.6,-99.5 75.223,-99.5 75.223,-99.5 56.929,-131.251 			"/>
			
				<polygon fill="#1A1A1A" stroke="#000000" stroke-width="4" stroke-linecap="round" stroke-linejoin="round" stroke-miterlimit="10" points="
				38.628,-99.251 20.3,-67.5 20.3,-67.5 56.923,-67.5 56.923,-67.5 38.628,-99.251 			"/>
			
				<polygon fill="#1A1A1A" stroke="#000000" stroke-width="4" stroke-linecap="round" stroke-linejoin="round" stroke-miterlimit="10" points="
				56.894,-67.748 75.223,-99.5 75.223,-99.5 38.6,-99.5 38.6,-99.5 56.894,-67.748 			"/>
			
				<polygon fill="#1A1A1A" stroke="#000000" stroke-width="4" stroke-linecap="round" stroke-linejoin="round" stroke-miterlimit="10" points="
				20.294,-67.748 38.623,-99.5 38.623,-99.5 2,-99.5 2,-99.5 20.294,-67.748 			"/>
			
				<polygon fill="#1A1A1A" stroke="#000000" stroke-width="4" stroke-linecap="round" stroke-linejoin="round" stroke-miterlimit="10" points="
				38.594,-99.749 56.923,-131.5 56.923,-131.5 20.3,-131.5 20.3,-131.5 38.594,-99.749 			"/>
		</g>
		<g>
			
				<polygon fill="#1A1A1A" stroke="#000000" stroke-width="4" stroke-linecap="round" stroke-linejoin="round" stroke-miterlimit="10" points="
				93.904,-131.751 75.575,-100 75.575,-100 112.198,-100 112.198,-100 93.904,-131.751 			"/>
			
				<polygon fill="#1A1A1A" stroke="#000000" stroke-width="4" stroke-linecap="round" stroke-linejoin="round" stroke-miterlimit="10" points="
				112.169,-100.248 130.498,-132 130.498,-132 93.875,-132 93.875,-132 112.169,-100.248 			"/>
			
				<polygon fill="#1A1A1A" stroke="#000000" stroke-width="4" stroke-linecap="round" stroke-linejoin="round" stroke-miterlimit="10" points="
				75.569,-100.248 93.898,-132 93.898,-132 57.275,-132 57.275,-132 75.569,-100.248 			"/>
		</g>
	</g>
</pattern>
<pattern  width="110.551" height="65" patternUnits="userSpaceOnUse" id="New_Pattern_13" viewBox="38.611 -99.5 110.551 65" overflow="visible">
	<g>
		<polygon fill="none" points="38.611,-99.5 149.162,-99.5 149.162,-34.5 38.611,-34.5 		"/>
		<g>
			<polygon fill="#9E005D" stroke="#662D91" stroke-width="4" stroke-linejoin="round" stroke-miterlimit="10" points="
				130.879,-66.251 112.551,-34.5 112.551,-34.5 149.174,-34.5 149.174,-34.5 130.879,-66.251 			"/>
			<polygon fill="#9E005D" stroke="#662D91" stroke-width="4" stroke-linejoin="round" stroke-miterlimit="10" points="
				167.479,-66.251 149.15,-34.5 149.15,-34.5 185.773,-34.5 185.773,-34.5 167.479,-66.251 			"/>
			<polygon fill="#9E005D" stroke="#662D91" stroke-width="4" stroke-linejoin="round" stroke-miterlimit="10" points="
				149.18,-34.251 130.851,-2.5 130.851,-2.5 167.474,-2.5 167.474,-2.5 149.18,-34.251 			"/>
			<polygon fill="#9E005D" stroke="#662D91" stroke-width="4" stroke-linejoin="round" stroke-miterlimit="10" points="
				167.445,-2.748 185.773,-34.5 185.773,-34.5 149.15,-34.5 149.15,-34.5 167.445,-2.748 			"/>
			<polygon fill="#9E005D" stroke="#662D91" stroke-width="4" stroke-linejoin="round" stroke-miterlimit="10" points="
				130.845,-2.748 149.174,-34.5 149.174,-34.5 112.551,-34.5 112.551,-34.5 130.845,-2.748 			"/>
			<polygon fill="#9E005D" stroke="#662D91" stroke-width="4" stroke-linejoin="round" stroke-miterlimit="10" points="
				149.145,-34.749 167.474,-66.5 167.474,-66.5 130.851,-66.5 130.851,-66.5 149.145,-34.749 			"/>
		</g>
		<g>
			<polygon fill="#9E005D" stroke="#662D91" stroke-width="4" stroke-linejoin="round" stroke-miterlimit="10" points="
				75.604,-33.751 57.275,-2 57.275,-2 93.898,-2 93.898,-2 75.604,-33.751 			"/>
			<polygon fill="#9E005D" stroke="#662D91" stroke-width="4" stroke-linejoin="round" stroke-miterlimit="10" points="
				112.204,-33.751 93.875,-2 93.875,-2 130.498,-2 130.498,-2 112.204,-33.751 			"/>
			<polygon fill="#9E005D" stroke="#662D91" stroke-width="4" stroke-linejoin="round" stroke-miterlimit="10" points="
				93.869,-2.249 112.198,-34 112.198,-34 75.575,-34 75.575,-34 93.869,-2.249 			"/>
		</g>
		<g>
			<polygon fill="#9E005D" stroke="#662D91" stroke-width="4" stroke-linejoin="round" stroke-miterlimit="10" points="
				20.328,-66.251 2,-34.5 2,-34.5 38.623,-34.5 38.623,-34.5 20.328,-66.251 			"/>
			<polygon fill="#9E005D" stroke="#662D91" stroke-width="4" stroke-linejoin="round" stroke-miterlimit="10" points="
				56.929,-66.251 38.6,-34.5 38.6,-34.5 75.223,-34.5 75.223,-34.5 56.929,-66.251 			"/>
			<polygon fill="#9E005D" stroke="#662D91" stroke-width="4" stroke-linejoin="round" stroke-miterlimit="10" points="
				38.629,-34.251 20.3,-2.5 20.3,-2.5 56.923,-2.5 56.923,-2.5 38.629,-34.251 			"/>
			<polygon fill="#9E005D" stroke="#662D91" stroke-width="4" stroke-linejoin="round" stroke-miterlimit="10" points="
				56.895,-2.748 75.223,-34.5 75.223,-34.5 38.6,-34.5 38.6,-34.5 56.895,-2.748 			"/>
			<polygon fill="#9E005D" stroke="#662D91" stroke-width="4" stroke-linejoin="round" stroke-miterlimit="10" points="
				20.294,-2.748 38.623,-34.5 38.623,-34.5 2,-34.5 2,-34.5 20.294,-2.748 			"/>
			<polygon fill="#9E005D" stroke="#662D91" stroke-width="4" stroke-linejoin="round" stroke-miterlimit="10" points="
				38.594,-34.749 56.923,-66.5 56.923,-66.5 20.3,-66.5 20.3,-66.5 38.594,-34.749 			"/>
		</g>
		<g>
			<polygon fill="#9E005D" stroke="#662D91" stroke-width="4" stroke-linejoin="round" stroke-miterlimit="10" points="
				130.879,-131.251 112.551,-99.5 112.551,-99.5 149.174,-99.5 149.174,-99.5 130.879,-131.251 			"/>
			<polygon fill="#9E005D" stroke="#662D91" stroke-width="4" stroke-linejoin="round" stroke-miterlimit="10" points="
				167.479,-131.251 149.15,-99.5 149.15,-99.5 185.773,-99.5 185.773,-99.5 167.479,-131.251 			"/>
			<polygon fill="#9E005D" stroke="#662D91" stroke-width="4" stroke-linejoin="round" stroke-miterlimit="10" points="
				149.18,-99.251 130.851,-67.5 130.851,-67.5 167.474,-67.5 167.474,-67.5 149.18,-99.251 			"/>
			<polygon fill="#9E005D" stroke="#662D91" stroke-width="4" stroke-linejoin="round" stroke-miterlimit="10" points="
				167.445,-67.748 185.773,-99.5 185.773,-99.5 149.15,-99.5 149.15,-99.5 167.445,-67.748 			"/>
			<polygon fill="#9E005D" stroke="#662D91" stroke-width="4" stroke-linejoin="round" stroke-miterlimit="10" points="
				130.845,-67.748 149.174,-99.5 149.174,-99.5 112.551,-99.5 112.551,-99.5 130.845,-67.748 			"/>
			<polygon fill="#9E005D" stroke="#662D91" stroke-width="4" stroke-linejoin="round" stroke-miterlimit="10" points="
				149.145,-99.749 167.474,-131.5 167.474,-131.5 130.851,-131.5 130.851,-131.5 149.145,-99.749 			"/>
		</g>
		<g>
			<polygon fill="#9E005D" stroke="#662D91" stroke-width="4" stroke-linejoin="round" stroke-miterlimit="10" points="
				75.604,-98.751 57.275,-67 57.275,-67 93.898,-67 93.898,-67 75.604,-98.751 			"/>
			<polygon fill="#9E005D" stroke="#662D91" stroke-width="4" stroke-linejoin="round" stroke-miterlimit="10" points="
				112.204,-98.751 93.875,-67 93.875,-67 130.498,-67 130.498,-67 112.204,-98.751 			"/>
			<polygon fill="#9E005D" stroke="#662D91" stroke-width="4" stroke-linejoin="round" stroke-miterlimit="10" points="
				93.904,-66.751 75.575,-35 75.575,-35 112.198,-35 112.198,-35 93.904,-66.751 			"/>
			<polygon fill="#9E005D" stroke="#662D91" stroke-width="4" stroke-linejoin="round" stroke-miterlimit="10" points="
				112.17,-35.248 130.498,-67 130.498,-67 93.875,-67 93.875,-67 112.17,-35.248 			"/>
			<polygon fill="#9E005D" stroke="#662D91" stroke-width="4" stroke-linejoin="round" stroke-miterlimit="10" points="
				75.569,-35.248 93.898,-67 93.898,-67 57.275,-67 57.275,-67 75.569,-35.248 			"/>
			<polygon fill="#9E005D" stroke="#662D91" stroke-width="4" stroke-linejoin="round" stroke-miterlimit="10" points="
				93.869,-67.249 112.198,-99 112.198,-99 75.575,-99 75.575,-99 93.869,-67.249 			"/>
		</g>
		<g>
			<polygon fill="#9E005D" stroke="#662D91" stroke-width="4" stroke-linejoin="round" stroke-miterlimit="10" points="
				20.328,-131.251 2,-99.5 2,-99.5 38.623,-99.5 38.623,-99.5 20.328,-131.251 			"/>
			<polygon fill="#9E005D" stroke="#662D91" stroke-width="4" stroke-linejoin="round" stroke-miterlimit="10" points="
				56.929,-131.251 38.6,-99.5 38.6,-99.5 75.223,-99.5 75.223,-99.5 56.929,-131.251 			"/>
			<polygon fill="#9E005D" stroke="#662D91" stroke-width="4" stroke-linejoin="round" stroke-miterlimit="10" points="
				38.629,-99.251 20.3,-67.5 20.3,-67.5 56.923,-67.5 56.923,-67.5 38.629,-99.251 			"/>
			<polygon fill="#9E005D" stroke="#662D91" stroke-width="4" stroke-linejoin="round" stroke-miterlimit="10" points="
				56.895,-67.748 75.223,-99.5 75.223,-99.5 38.6,-99.5 38.6,-99.5 56.895,-67.748 			"/>
			<polygon fill="#9E005D" stroke="#662D91" stroke-width="4" stroke-linejoin="round" stroke-miterlimit="10" points="
				20.294,-67.748 38.623,-99.5 38.623,-99.5 2,-99.5 2,-99.5 20.294,-67.748 			"/>
			<polygon fill="#9E005D" stroke="#662D91" stroke-width="4" stroke-linejoin="round" stroke-miterlimit="10" points="
				38.594,-99.749 56.923,-131.5 56.923,-131.5 20.3,-131.5 20.3,-131.5 38.594,-99.749 			"/>
		</g>
		<g>
			<polygon fill="#9E005D" stroke="#662D91" stroke-width="4" stroke-linejoin="round" stroke-miterlimit="10" points="
				93.904,-131.751 75.575,-100 75.575,-100 112.198,-100 112.198,-100 93.904,-131.751 			"/>
			<polygon fill="#9E005D" stroke="#662D91" stroke-width="4" stroke-linejoin="round" stroke-miterlimit="10" points="
				112.17,-100.248 130.498,-132 130.498,-132 93.875,-132 93.875,-132 112.17,-100.248 			"/>
			<polygon fill="#9E005D" stroke="#662D91" stroke-width="4" stroke-linejoin="round" stroke-miterlimit="10" points="
				75.569,-100.248 93.898,-132 93.898,-132 57.275,-132 57.275,-132 75.569,-100.248 			"/>
		</g>
	</g>
</pattern>
<pattern  width="110.551" height="65" patternUnits="userSpaceOnUse" id="New_Pattern_6" viewBox="38.611 -99.5 110.551 65" overflow="visible">
	<g>
		<polygon fill="none" points="38.611,-99.5 149.162,-99.5 149.162,-34.5 38.611,-34.5 		"/>
		<g>
			
				<polygon fill="#333333" stroke="#000000" stroke-width="4" stroke-linecap="round" stroke-linejoin="round" stroke-miterlimit="10" points="
				130.879,-66.251 112.551,-34.5 112.551,-34.5 149.173,-34.5 149.173,-34.5 130.879,-66.251 			"/>
			
				<polygon fill="#333333" stroke="#000000" stroke-width="4" stroke-linecap="round" stroke-linejoin="round" stroke-miterlimit="10" points="
				167.479,-66.251 149.151,-34.5 149.151,-34.5 185.773,-34.5 185.773,-34.5 167.479,-66.251 			"/>
			
				<polygon fill="#333333" stroke="#000000" stroke-width="4" stroke-linecap="round" stroke-linejoin="round" stroke-miterlimit="10" points="
				149.179,-34.251 130.851,-2.5 130.851,-2.5 167.474,-2.5 167.474,-2.5 149.179,-34.251 			"/>
			
				<polygon fill="#333333" stroke="#000000" stroke-width="4" stroke-linecap="round" stroke-linejoin="round" stroke-miterlimit="10" points="
				167.445,-2.748 185.773,-34.5 185.773,-34.5 149.151,-34.5 149.151,-34.5 167.445,-2.748 			"/>
			
				<polygon fill="#333333" stroke="#000000" stroke-width="4" stroke-linecap="round" stroke-linejoin="round" stroke-miterlimit="10" points="
				130.845,-2.748 149.173,-34.5 149.173,-34.5 112.551,-34.5 112.551,-34.5 130.845,-2.748 			"/>
			
				<polygon fill="#333333" stroke="#000000" stroke-width="4" stroke-linecap="round" stroke-linejoin="round" stroke-miterlimit="10" points="
				149.145,-34.749 167.474,-66.5 167.474,-66.5 130.851,-66.5 130.851,-66.5 149.145,-34.749 			"/>
		</g>
		<g>
			
				<polygon fill="#333333" stroke="#000000" stroke-width="4" stroke-linecap="round" stroke-linejoin="round" stroke-miterlimit="10" points="
				75.604,-33.751 57.275,-2 57.275,-2 93.898,-2 93.898,-2 75.604,-33.751 			"/>
			
				<polygon fill="#333333" stroke="#000000" stroke-width="4" stroke-linecap="round" stroke-linejoin="round" stroke-miterlimit="10" points="
				112.204,-33.751 93.875,-2 93.875,-2 130.498,-2 130.498,-2 112.204,-33.751 			"/>
			
				<polygon fill="#333333" stroke="#000000" stroke-width="4" stroke-linecap="round" stroke-linejoin="round" stroke-miterlimit="10" points="
				93.87,-2.249 112.198,-34 112.198,-34 75.575,-34 75.575,-34 93.87,-2.249 			"/>
		</g>
		<g>
			
				<polygon fill="#333333" stroke="#000000" stroke-width="4" stroke-linecap="round" stroke-linejoin="round" stroke-miterlimit="10" points="
				20.329,-66.251 2,-34.5 2,-34.5 38.623,-34.5 38.623,-34.5 20.329,-66.251 			"/>
			
				<polygon fill="#333333" stroke="#000000" stroke-width="4" stroke-linecap="round" stroke-linejoin="round" stroke-miterlimit="10" points="
				56.929,-66.251 38.6,-34.5 38.6,-34.5 75.223,-34.5 75.223,-34.5 56.929,-66.251 			"/>
			
				<polygon fill="#333333" stroke="#000000" stroke-width="4" stroke-linecap="round" stroke-linejoin="round" stroke-miterlimit="10" points="
				38.628,-34.251 20.3,-2.5 20.3,-2.5 56.923,-2.5 56.923,-2.5 38.628,-34.251 			"/>
			
				<polygon fill="#333333" stroke="#000000" stroke-width="4" stroke-linecap="round" stroke-linejoin="round" stroke-miterlimit="10" points="
				56.894,-2.748 75.223,-34.5 75.223,-34.5 38.6,-34.5 38.6,-34.5 56.894,-2.748 			"/>
			
				<polygon fill="#333333" stroke="#000000" stroke-width="4" stroke-linecap="round" stroke-linejoin="round" stroke-miterlimit="10" points="
				20.294,-2.748 38.623,-34.5 38.623,-34.5 2,-34.5 2,-34.5 20.294,-2.748 			"/>
			
				<polygon fill="#333333" stroke="#000000" stroke-width="4" stroke-linecap="round" stroke-linejoin="round" stroke-miterlimit="10" points="
				38.594,-34.749 56.923,-66.5 56.923,-66.5 20.3,-66.5 20.3,-66.5 38.594,-34.749 			"/>
		</g>
		<g>
			
				<polygon fill="#333333" stroke="#000000" stroke-width="4" stroke-linecap="round" stroke-linejoin="round" stroke-miterlimit="10" points="
				130.879,-131.251 112.551,-99.5 112.551,-99.5 149.173,-99.5 149.173,-99.5 130.879,-131.251 			"/>
			
				<polygon fill="#333333" stroke="#000000" stroke-width="4" stroke-linecap="round" stroke-linejoin="round" stroke-miterlimit="10" points="
				167.479,-131.251 149.151,-99.5 149.151,-99.5 185.773,-99.5 185.773,-99.5 167.479,-131.251 			"/>
			
				<polygon fill="#333333" stroke="#000000" stroke-width="4" stroke-linecap="round" stroke-linejoin="round" stroke-miterlimit="10" points="
				149.179,-99.251 130.851,-67.5 130.851,-67.5 167.474,-67.5 167.474,-67.5 149.179,-99.251 			"/>
			
				<polygon fill="#333333" stroke="#000000" stroke-width="4" stroke-linecap="round" stroke-linejoin="round" stroke-miterlimit="10" points="
				167.445,-67.748 185.773,-99.5 185.773,-99.5 149.151,-99.5 149.151,-99.5 167.445,-67.748 			"/>
			
				<polygon fill="#333333" stroke="#000000" stroke-width="4" stroke-linecap="round" stroke-linejoin="round" stroke-miterlimit="10" points="
				130.845,-67.748 149.173,-99.5 149.173,-99.5 112.551,-99.5 112.551,-99.5 130.845,-67.748 			"/>
			
				<polygon fill="#333333" stroke="#000000" stroke-width="4" stroke-linecap="round" stroke-linejoin="round" stroke-miterlimit="10" points="
				149.145,-99.749 167.474,-131.5 167.474,-131.5 130.851,-131.5 130.851,-131.5 149.145,-99.749 			"/>
		</g>
		<g>
			
				<polygon fill="#333333" stroke="#000000" stroke-width="4" stroke-linecap="round" stroke-linejoin="round" stroke-miterlimit="10" points="
				75.604,-98.751 57.275,-67 57.275,-67 93.898,-67 93.898,-67 75.604,-98.751 			"/>
			
				<polygon fill="#333333" stroke="#000000" stroke-width="4" stroke-linecap="round" stroke-linejoin="round" stroke-miterlimit="10" points="
				112.204,-98.751 93.875,-67 93.875,-67 130.498,-67 130.498,-67 112.204,-98.751 			"/>
			
				<polygon fill="#333333" stroke="#000000" stroke-width="4" stroke-linecap="round" stroke-linejoin="round" stroke-miterlimit="10" points="
				93.904,-66.751 75.575,-35 75.575,-35 112.198,-35 112.198,-35 93.904,-66.751 			"/>
			
				<polygon fill="#333333" stroke="#000000" stroke-width="4" stroke-linecap="round" stroke-linejoin="round" stroke-miterlimit="10" points="
				112.169,-35.248 130.498,-67 130.498,-67 93.875,-67 93.875,-67 112.169,-35.248 			"/>
			
				<polygon fill="#333333" stroke="#000000" stroke-width="4" stroke-linecap="round" stroke-linejoin="round" stroke-miterlimit="10" points="
				75.569,-35.248 93.898,-67 93.898,-67 57.275,-67 57.275,-67 75.569,-35.248 			"/>
			
				<polygon fill="#333333" stroke="#000000" stroke-width="4" stroke-linecap="round" stroke-linejoin="round" stroke-miterlimit="10" points="
				93.87,-67.249 112.198,-99 112.198,-99 75.575,-99 75.575,-99 93.87,-67.249 			"/>
		</g>
		<g>
			
				<polygon fill="#333333" stroke="#000000" stroke-width="4" stroke-linecap="round" stroke-linejoin="round" stroke-miterlimit="10" points="
				20.329,-131.251 2,-99.5 2,-99.5 38.623,-99.5 38.623,-99.5 20.329,-131.251 			"/>
			
				<polygon fill="#333333" stroke="#000000" stroke-width="4" stroke-linecap="round" stroke-linejoin="round" stroke-miterlimit="10" points="
				56.929,-131.251 38.6,-99.5 38.6,-99.5 75.223,-99.5 75.223,-99.5 56.929,-131.251 			"/>
			
				<polygon fill="#333333" stroke="#000000" stroke-width="4" stroke-linecap="round" stroke-linejoin="round" stroke-miterlimit="10" points="
				38.628,-99.251 20.3,-67.5 20.3,-67.5 56.923,-67.5 56.923,-67.5 38.628,-99.251 			"/>
			
				<polygon fill="#333333" stroke="#000000" stroke-width="4" stroke-linecap="round" stroke-linejoin="round" stroke-miterlimit="10" points="
				56.894,-67.748 75.223,-99.5 75.223,-99.5 38.6,-99.5 38.6,-99.5 56.894,-67.748 			"/>
			
				<polygon fill="#333333" stroke="#000000" stroke-width="4" stroke-linecap="round" stroke-linejoin="round" stroke-miterlimit="10" points="
				20.294,-67.748 38.623,-99.5 38.623,-99.5 2,-99.5 2,-99.5 20.294,-67.748 			"/>
			
				<polygon fill="#333333" stroke="#000000" stroke-width="4" stroke-linecap="round" stroke-linejoin="round" stroke-miterlimit="10" points="
				38.594,-99.749 56.923,-131.5 56.923,-131.5 20.3,-131.5 20.3,-131.5 38.594,-99.749 			"/>
		</g>
		<g>
			
				<polygon fill="#333333" stroke="#000000" stroke-width="4" stroke-linecap="round" stroke-linejoin="round" stroke-miterlimit="10" points="
				93.904,-131.751 75.575,-100 75.575,-100 112.198,-100 112.198,-100 93.904,-131.751 			"/>
			
				<polygon fill="#333333" stroke="#000000" stroke-width="4" stroke-linecap="round" stroke-linejoin="round" stroke-miterlimit="10" points="
				112.169,-100.248 130.498,-132 130.498,-132 93.875,-132 93.875,-132 112.169,-100.248 			"/>
			
				<polygon fill="#333333" stroke="#000000" stroke-width="4" stroke-linecap="round" stroke-linejoin="round" stroke-miterlimit="10" points="
				75.569,-100.248 93.898,-132 93.898,-132 57.275,-132 57.275,-132 75.569,-100.248 			"/>
		</g>
	</g>
</pattern>
<path display="none" fill="url(#New_Pattern_12)" d="M809,791.99c0,10.564-2.98,23.01-10.476,23.01H227.142
	C219.643,815,209,802.555,209,791.99V226.23c0-10.562,10.643-11.23,18.142-11.23h571.383c7.495,0,10.476,0.668,10.476,11.23V791.99z
	"/>
<path display="none" fill="none" stroke="#000000" stroke-width="58.7012" stroke-miterlimit="10" d="M359.568,230.917
	c0-63.284,71.676-114.581,160.093-114.581c88.42,0,160.093,51.297,160.093,114.581"/>
<path fill="url(#New_Pattern_10)" d="M876.418,375.355c0,129.978-105.372,235.333-235.352,235.333
	c-129.969,0-166.449-42.748-166.449-172.72c0-129.986,36.48-297.956,166.449-297.956
	C771.046,140.011,876.418,245.382,876.418,375.355z"/>
<path fill="url(#New_Pattern_10)" d="M145.641,375.355c0,129.978,105.361,235.333,235.339,235.333
	c129.979,0,166.458-42.748,166.458-172.72c0-129.986-36.479-297.956-166.458-297.956
	C251.002,140.012,145.641,245.382,145.641,375.355z"/>
<g>
	<defs>
		<path id="SVGID_1_" d="M145.641,374.355c0,129.978,105.361,235.333,235.34,235.333s166.458-42.748,166.458-172.72
			c0-129.986-36.479-297.956-166.458-297.956C251.002,139.012,145.641,244.382,145.641,374.355z"/>
	</defs>
	<clipPath id="SVGID_2_">
		<use xlink:href="#SVGID_1_"  overflow="visible"/>
	</clipPath>
	<path clip-path="url(#SVGID_2_)" fill="url(#New_Pattern_13)" d="M30,493.073C122,322.987,303.623,210,510.926,210h0.125
		c207.303,0,387.25,113.844,479.875,283.93l-0.358-1.123C979.794,237.251,768.682,33.188,510.475,33.188
		C252.367,33.188,40,237.443,30,492.86V493.073z"/>
</g>
<g>
	<defs>
		<path id="SVGID_3_" d="M876.418,375.355c0,129.978-105.372,235.333-235.352,235.333c-129.969,0-166.449-42.748-166.449-172.72
			c0-129.986,36.48-297.956,166.449-297.956C771.046,140.011,876.418,245.382,876.418,375.355z"/>
	</defs>
	<clipPath id="SVGID_4_">
		<use xlink:href="#SVGID_3_"  overflow="visible"/>
	</clipPath>
	<path clip-path="url(#SVGID_4_)" fill="url(#New_Pattern_13)" d="M31,494.073C123,323.987,303.623,210,510.926,210h0.125
		c207.303,0,387.25,114.344,479.875,284.43l-0.358-0.873C979.794,238.001,769.182,34.063,510.975,34.063
		C252.867,34.063,41,238.443,31,493.86V494.073z"/>
</g>
<path fill="url(#New_Pattern_10)" d="M867.807,374.834c0.303,271.856-357.334,299.532-358.814,524.98
	c-1.473,225.448-0.724-324.723-0.724-324.723l0,0c0,0,0.767,550.171-0.715,324.723c-1.497-225.448-359.101-253.124-358.805-524.98"
	/>
<circle fill="url(#New_Pattern_11)" cx="512" cy="512" r="168.75"/>
<path fill="url(#New_Pattern_6)" d="M662,548.313c0,7.282-6.772,13.687-15.126,13.687H377.126c-8.354,0-15.126-6.404-15.126-13.687
	v-73.626c0-7.283,6.772-12.687,15.126-12.687h269.748c8.354,0,15.126,5.404,15.126,12.687V548.313z"/>
<path fill="url(#New_Pattern_6)" d="M548.313,362c7.282,0,13.687,6.772,13.687,15.126v269.748c0,8.354-6.404,15.126-13.687,15.126
	h-73.626c-7.283,0-12.687-6.771-12.687-15.126V377.126c0-8.354,5.404-15.126,12.687-15.126H548.313z"/>
</svg>
