<?xml version="1.0" encoding="utf-8"?>
<!-- Generator: Adobe Illustrator 16.0.0, SVG Export Plug-In . SVG Version: 6.00 Build 0)  -->
<!DOCTYPE svg PUBLIC "-//W3C//DTD SVG 1.1//EN" "http://www.w3.org/Graphics/SVG/1.1/DTD/svg11.dtd">
<svg version="1.1" id="Layer_1" xmlns="http://www.w3.org/2000/svg" xmlns:xlink="http://www.w3.org/1999/xlink" x="0px" y="0px"
	 width="1024px" height="1024px" viewBox="0 0 1024 1024" enable-background="new 0 0 1024 1024" xml:space="preserve">
<pattern  width="110.551" height="65" patternUnits="userSpaceOnUse" id="New_Pattern_12" viewBox="38.611 -99.5 110.551 65" overflow="visible">
	<g>
		<polygon fill="none" points="38.611,-99.5 149.162,-99.5 149.162,-34.5 38.611,-34.5 		"/>
		<g>
			
				<polygon fill="#1A1A1A" stroke="#000000" stroke-width="4" stroke-linecap="round" stroke-linejoin="round" stroke-miterlimit="10" points="
				130.879,-66.251 112.551,-34.5 112.551,-34.5 149.173,-34.5 149.173,-34.5 130.879,-66.251 			"/>
			
				<polygon fill="#1A1A1A" stroke="#000000" stroke-width="4" stroke-linecap="round" stroke-linejoin="round" stroke-miterlimit="10" points="
				167.479,-66.251 149.151,-34.5 149.151,-34.5 185.773,-34.5 185.773,-34.5 167.479,-66.251 			"/>
			
				<polygon fill="#1A1A1A" stroke="#000000" stroke-width="4" stroke-linecap="round" stroke-linejoin="round" stroke-miterlimit="10" points="
				149.179,-34.251 130.851,-2.5 130.851,-2.5 167.474,-2.5 167.474,-2.5 149.179,-34.251 			"/>
			
				<polygon fill="#1A1A1A" stroke="#000000" stroke-width="4" stroke-linecap="round" stroke-linejoin="round" stroke-miterlimit="10" points="
				167.445,-2.748 185.773,-34.5 185.773,-34.5 149.151,-34.5 149.151,-34.5 167.445,-2.748 			"/>
			
				<polygon fill="#1A1A1A" stroke="#000000" stroke-width="4" stroke-linecap="round" stroke-linejoin="round" stroke-miterlimit="10" points="
				130.845,-2.748 149.173,-34.5 149.173,-34.5 112.551,-34.5 112.551,-34.5 130.845,-2.748 			"/>
			
				<polygon fill="#1A1A1A" stroke="#000000" stroke-width="4" stroke-linecap="round" stroke-linejoin="round" stroke-miterlimit="10" points="
				149.145,-34.749 167.474,-66.5 167.474,-66.5 130.851,-66.5 130.851,-66.5 149.145,-34.749 			"/>
		</g>
		<g>
			
				<polygon fill="#1A1A1A" stroke="#000000" stroke-width="4" stroke-linecap="round" stroke-linejoin="round" stroke-miterlimit="10" points="
				75.604,-33.751 57.275,-2 57.275,-2 93.898,-2 93.898,-2 75.604,-33.751 			"/>
			
				<polygon fill="#1A1A1A" stroke="#000000" stroke-width="4" stroke-linecap="round" stroke-linejoin="round" stroke-miterlimit="10" points="
				112.204,-33.751 93.875,-2 93.875,-2 130.498,-2 130.498,-2 112.204,-33.751 			"/>
			
				<polygon fill="#1A1A1A" stroke="#000000" stroke-width="4" stroke-linecap="round" stroke-linejoin="round" stroke-miterlimit="10" points="
				93.87,-2.249 112.198,-34 112.198,-34 75.575,-34 75.575,-34 93.87,-2.249 			"/>
		</g>
		<g>
			
				<polygon fill="#1A1A1A" stroke="#000000" stroke-width="4" stroke-linecap="round" stroke-linejoin="round" stroke-miterlimit="10" points="
				20.329,-66.251 2,-34.5 2,-34.5 38.623,-34.5 38.623,-34.5 20.329,-66.251 			"/>
			
				<polygon fill="#1A1A1A" stroke="#000000" stroke-width="4" stroke-linecap="round" stroke-linejoin="round" stroke-miterlimit="10" points="
				56.929,-66.251 38.6,-34.5 38.6,-34.5 75.223,-34.5 75.223,-34.5 56.929,-66.251 			"/>
			
				<polygon fill="#1A1A1A" stroke="#000000" stroke-width="4" stroke-linecap="round" stroke-linejoin="round" stroke-miterlimit="10" points="
				38.628,-34.251 20.3,-2.5 20.3,-2.5 56.923,-2.5 56.923,-2.5 38.628,-34.251 			"/>
			
				<polygon fill="#1A1A1A" stroke="#000000" stroke-width="4" stroke-linecap="round" stroke-linejoin="round" stroke-miterlimit="10" points="
				56.894,-2.748 75.223,-34.5 75.223,-34.5 38.6,-34.5 38.6,-34.5 56.894,-2.748 			"/>
			
				<polygon fill="#1A1A1A" stroke="#000000" stroke-width="4" stroke-linecap="round" stroke-linejoin="round" stroke-miterlimit="10" points="
				20.294,-2.748 38.623,-34.5 38.623,-34.5 2,-34.5 2,-34.5 20.294,-2.748 			"/>
			
				<polygon fill="#1A1A1A" stroke="#000000" stroke-width="4" stroke-linecap="round" stroke-linejoin="round" stroke-miterlimit="10" points="
				38.594,-34.749 56.923,-66.5 56.923,-66.5 20.3,-66.5 20.3,-66.5 38.594,-34.749 			"/>
		</g>
		<g>
			
				<polygon fill="#1A1A1A" stroke="#000000" stroke-width="4" stroke-linecap="round" stroke-linejoin="round" stroke-miterlimit="10" points="
				130.879,-131.251 112.551,-99.5 112.551,-99.5 149.173,-99.5 149.173,-99.5 130.879,-131.251 			"/>
			
				<polygon fill="#1A1A1A" stroke="#000000" stroke-width="4" stroke-linecap="round" stroke-linejoin="round" stroke-miterlimit="10" points="
				167.479,-131.251 149.151,-99.5 149.151,-99.5 185.773,-99.5 185.773,-99.5 167.479,-131.251 			"/>
			
				<polygon fill="#1A1A1A" stroke="#000000" stroke-width="4" stroke-linecap="round" stroke-linejoin="round" stroke-miterlimit="10" points="
				149.179,-99.251 130.851,-67.5 130.851,-67.5 167.474,-67.5 167.474,-67.5 149.179,-99.251 			"/>
			
				<polygon fill="#1A1A1A" stroke="#000000" stroke-width="4" stroke-linecap="round" stroke-linejoin="round" stroke-miterlimit="10" points="
				167.445,-67.748 185.773,-99.5 185.773,-99.5 149.151,-99.5 149.151,-99.5 167.445,-67.748 			"/>
			
				<polygon fill="#1A1A1A" stroke="#000000" stroke-width="4" stroke-linecap="round" stroke-linejoin="round" stroke-miterlimit="10" points="
				130.845,-67.748 149.173,-99.5 149.173,-99.5 112.551,-99.5 112.551,-99.5 130.845,-67.748 			"/>
			
				<polygon fill="#1A1A1A" stroke="#000000" stroke-width="4" stroke-linecap="round" stroke-linejoin="round" stroke-miterlimit="10" points="
				149.145,-99.749 167.474,-131.5 167.474,-131.5 130.851,-131.5 130.851,-131.5 149.145,-99.749 			"/>
		</g>
		<g>
			
				<polygon fill="#1A1A1A" stroke="#000000" stroke-width="4" stroke-linecap="round" stroke-linejoin="round" stroke-miterlimit="10" points="
				75.604,-98.751 57.275,-67 57.275,-67 93.898,-67 93.898,-67 75.604,-98.751 			"/>
			
				<polygon fill="#1A1A1A" stroke="#000000" stroke-width="4" stroke-linecap="round" stroke-linejoin="round" stroke-miterlimit="10" points="
				112.204,-98.751 93.875,-67 93.875,-67 130.498,-67 130.498,-67 112.204,-98.751 			"/>
			
				<polygon fill="#1A1A1A" stroke="#000000" stroke-width="4" stroke-linecap="round" stroke-linejoin="round" stroke-miterlimit="10" points="
				93.904,-66.751 75.575,-35 75.575,-35 112.198,-35 112.198,-35 93.904,-66.751 			"/>
			
				<polygon fill="#1A1A1A" stroke="#000000" stroke-width="4" stroke-linecap="round" stroke-linejoin="round" stroke-miterlimit="10" points="
				112.169,-35.248 130.498,-67 130.498,-67 93.875,-67 93.875,-67 112.169,-35.248 			"/>
			
				<polygon fill="#1A1A1A" stroke="#000000" stroke-width="4" stroke-linecap="round" stroke-linejoin="round" stroke-miterlimit="10" points="
				75.569,-35.248 93.898,-67 93.898,-67 57.275,-67 57.275,-67 75.569,-35.248 			"/>
			
				<polygon fill="#1A1A1A" stroke="#000000" stroke-width="4" stroke-linecap="round" stroke-linejoin="round" stroke-miterlimit="10" points="
				93.87,-67.249 112.198,-99 112.198,-99 75.575,-99 75.575,-99 93.87,-67.249 			"/>
		</g>
		<g>
			
				<polygon fill="#1A1A1A" stroke="#000000" stroke-width="4" stroke-linecap="round" stroke-linejoin="round" stroke-miterlimit="10" points="
				20.329,-131.251 2,-99.5 2,-99.5 38.623,-99.5 38.623,-99.5 20.329,-131.251 			"/>
			
				<polygon fill="#1A1A1A" stroke="#000000" stroke-width="4" stroke-linecap="round" stroke-linejoin="round" stroke-miterlimit="10" points="
				56.929,-131.251 38.6,-99.5 38.6,-99.5 75.223,-99.5 75.223,-99.5 56.929,-131.251 			"/>
			
				<polygon fill="#1A1A1A" stroke="#000000" stroke-width="4" stroke-linecap="round" stroke-linejoin="round" stroke-miterlimit="10" points="
				38.628,-99.251 20.3,-67.5 20.3,-67.5 56.923,-67.5 56.923,-67.5 38.628,-99.251 			"/>
			
				<polygon fill="#1A1A1A" stroke="#000000" stroke-width="4" stroke-linecap="round" stroke-linejoin="round" stroke-miterlimit="10" points="
				56.894,-67.748 75.223,-99.5 75.223,-99.5 38.6,-99.5 38.6,-99.5 56.894,-67.748 			"/>
			
				<polygon fill="#1A1A1A" stroke="#000000" stroke-width="4" stroke-linecap="round" stroke-linejoin="round" stroke-miterlimit="10" points="
				20.294,-67.748 38.623,-99.5 38.623,-99.5 2,-99.5 2,-99.5 20.294,-67.748 			"/>
			
				<polygon fill="#1A1A1A" stroke="#000000" stroke-width="4" stroke-linecap="round" stroke-linejoin="round" stroke-miterlimit="10" points="
				38.594,-99.749 56.923,-131.5 56.923,-131.5 20.3,-131.5 20.3,-131.5 38.594,-99.749 			"/>
		</g>
		<g>
			
				<polygon fill="#1A1A1A" stroke="#000000" stroke-width="4" stroke-linecap="round" stroke-linejoin="round" stroke-miterlimit="10" points="
				93.904,-131.751 75.575,-100 75.575,-100 112.198,-100 112.198,-100 93.904,-131.751 			"/>
			
				<polygon fill="#1A1A1A" stroke="#000000" stroke-width="4" stroke-linecap="round" stroke-linejoin="round" stroke-miterlimit="10" points="
				112.169,-100.248 130.498,-132 130.498,-132 93.875,-132 93.875,-132 112.169,-100.248 			"/>
			
				<polygon fill="#1A1A1A" stroke="#000000" stroke-width="4" stroke-linecap="round" stroke-linejoin="round" stroke-miterlimit="10" points="
				75.569,-100.248 93.898,-132 93.898,-132 57.275,-132 57.275,-132 75.569,-100.248 			"/>
		</g>
	</g>
</pattern>
<pattern  width="110.551" height="65" patternUnits="userSpaceOnUse" id="New_Pattern_14" viewBox="38.611 -99.5 110.551 65" overflow="visible">
	<g>
		<polygon fill="none" points="38.611,-99.5 149.162,-99.5 149.162,-34.5 38.611,-34.5 		"/>
		<g>
			<polygon fill="#FFFF00" stroke="#F7931E" stroke-width="4" stroke-linejoin="round" stroke-miterlimit="10" points="
				130.879,-66.251 112.551,-34.5 112.551,-34.5 149.174,-34.5 149.174,-34.5 130.879,-66.251 			"/>
			<polygon fill="#FFFF00" stroke="#F7931E" stroke-width="4" stroke-linejoin="round" stroke-miterlimit="10" points="
				167.479,-66.251 149.15,-34.5 149.15,-34.5 185.773,-34.5 185.773,-34.5 167.479,-66.251 			"/>
			<polygon fill="#FFFF00" stroke="#F7931E" stroke-width="4" stroke-linejoin="round" stroke-miterlimit="10" points="
				149.18,-34.251 130.851,-2.5 130.851,-2.5 167.474,-2.5 167.474,-2.5 149.18,-34.251 			"/>
			<polygon fill="#FFFF00" stroke="#F7931E" stroke-width="4" stroke-linejoin="round" stroke-miterlimit="10" points="
				167.445,-2.748 185.773,-34.5 185.773,-34.5 149.15,-34.5 149.15,-34.5 167.445,-2.748 			"/>
			<polygon fill="#FFFF00" stroke="#F7931E" stroke-width="4" stroke-linejoin="round" stroke-miterlimit="10" points="
				130.845,-2.748 149.174,-34.5 149.174,-34.5 112.551,-34.5 112.551,-34.5 130.845,-2.748 			"/>
			<polygon fill="#FFFF00" stroke="#F7931E" stroke-width="4" stroke-linejoin="round" stroke-miterlimit="10" points="
				149.145,-34.749 167.474,-66.5 167.474,-66.5 130.851,-66.5 130.851,-66.5 149.145,-34.749 			"/>
		</g>
		<g>
			<polygon fill="#FFFF00" stroke="#F7931E" stroke-width="4" stroke-linejoin="round" stroke-miterlimit="10" points="
				75.604,-33.751 57.275,-2 57.275,-2 93.898,-2 93.898,-2 75.604,-33.751 			"/>
			<polygon fill="#FFFF00" stroke="#F7931E" stroke-width="4" stroke-linejoin="round" stroke-miterlimit="10" points="
				112.204,-33.751 93.875,-2 93.875,-2 130.498,-2 130.498,-2 112.204,-33.751 			"/>
			<polygon fill="#FFFF00" stroke="#F7931E" stroke-width="4" stroke-linejoin="round" stroke-miterlimit="10" points="
				93.869,-2.249 112.198,-34 112.198,-34 75.575,-34 75.575,-34 93.869,-2.249 			"/>
		</g>
		<g>
			<polygon fill="#FFFF00" stroke="#F7931E" stroke-width="4" stroke-linejoin="round" stroke-miterlimit="10" points="
				20.328,-66.251 2,-34.5 2,-34.5 38.623,-34.5 38.623,-34.5 20.328,-66.251 			"/>
			<polygon fill="#FFFF00" stroke="#F7931E" stroke-width="4" stroke-linejoin="round" stroke-miterlimit="10" points="
				56.929,-66.251 38.6,-34.5 38.6,-34.5 75.223,-34.5 75.223,-34.5 56.929,-66.251 			"/>
			<polygon fill="#FFFF00" stroke="#F7931E" stroke-width="4" stroke-linejoin="round" stroke-miterlimit="10" points="
				38.629,-34.251 20.3,-2.5 20.3,-2.5 56.923,-2.5 56.923,-2.5 38.629,-34.251 			"/>
			<polygon fill="#FFFF00" stroke="#F7931E" stroke-width="4" stroke-linejoin="round" stroke-miterlimit="10" points="
				56.895,-2.748 75.223,-34.5 75.223,-34.5 38.6,-34.5 38.6,-34.5 56.895,-2.748 			"/>
			<polygon fill="#FFFF00" stroke="#F7931E" stroke-width="4" stroke-linejoin="round" stroke-miterlimit="10" points="
				20.294,-2.748 38.623,-34.5 38.623,-34.5 2,-34.5 2,-34.5 20.294,-2.748 			"/>
			<polygon fill="#FFFF00" stroke="#F7931E" stroke-width="4" stroke-linejoin="round" stroke-miterlimit="10" points="
				38.594,-34.749 56.923,-66.5 56.923,-66.5 20.3,-66.5 20.3,-66.5 38.594,-34.749 			"/>
		</g>
		<g>
			<polygon fill="#FFFF00" stroke="#F7931E" stroke-width="4" stroke-linejoin="round" stroke-miterlimit="10" points="
				130.879,-131.251 112.551,-99.5 112.551,-99.5 149.174,-99.5 149.174,-99.5 130.879,-131.251 			"/>
			<polygon fill="#FFFF00" stroke="#F7931E" stroke-width="4" stroke-linejoin="round" stroke-miterlimit="10" points="
				167.479,-131.251 149.15,-99.5 149.15,-99.5 185.773,-99.5 185.773,-99.5 167.479,-131.251 			"/>
			<polygon fill="#FFFF00" stroke="#F7931E" stroke-width="4" stroke-linejoin="round" stroke-miterlimit="10" points="
				149.18,-99.251 130.851,-67.5 130.851,-67.5 167.474,-67.5 167.474,-67.5 149.18,-99.251 			"/>
			<polygon fill="#FFFF00" stroke="#F7931E" stroke-width="4" stroke-linejoin="round" stroke-miterlimit="10" points="
				167.445,-67.748 185.773,-99.5 185.773,-99.5 149.15,-99.5 149.15,-99.5 167.445,-67.748 			"/>
			<polygon fill="#FFFF00" stroke="#F7931E" stroke-width="4" stroke-linejoin="round" stroke-miterlimit="10" points="
				130.845,-67.748 149.174,-99.5 149.174,-99.5 112.551,-99.5 112.551,-99.5 130.845,-67.748 			"/>
			<polygon fill="#FFFF00" stroke="#F7931E" stroke-width="4" stroke-linejoin="round" stroke-miterlimit="10" points="
				149.145,-99.749 167.474,-131.5 167.474,-131.5 130.851,-131.5 130.851,-131.5 149.145,-99.749 			"/>
		</g>
		<g>
			<polygon fill="#FFFF00" stroke="#F7931E" stroke-width="4" stroke-linejoin="round" stroke-miterlimit="10" points="
				75.604,-98.751 57.275,-67 57.275,-67 93.898,-67 93.898,-67 75.604,-98.751 			"/>
			<polygon fill="#FFFF00" stroke="#F7931E" stroke-width="4" stroke-linejoin="round" stroke-miterlimit="10" points="
				112.204,-98.751 93.875,-67 93.875,-67 130.498,-67 130.498,-67 112.204,-98.751 			"/>
			<polygon fill="#FFFF00" stroke="#F7931E" stroke-width="4" stroke-linejoin="round" stroke-miterlimit="10" points="
				93.904,-66.751 75.575,-35 75.575,-35 112.198,-35 112.198,-35 93.904,-66.751 			"/>
			<polygon fill="#FFFF00" stroke="#F7931E" stroke-width="4" stroke-linejoin="round" stroke-miterlimit="10" points="
				112.17,-35.248 130.498,-67 130.498,-67 93.875,-67 93.875,-67 112.17,-35.248 			"/>
			<polygon fill="#FFFF00" stroke="#F7931E" stroke-width="4" stroke-linejoin="round" stroke-miterlimit="10" points="
				75.569,-35.248 93.898,-67 93.898,-67 57.275,-67 57.275,-67 75.569,-35.248 			"/>
			<polygon fill="#FFFF00" stroke="#F7931E" stroke-width="4" stroke-linejoin="round" stroke-miterlimit="10" points="
				93.869,-67.249 112.198,-99 112.198,-99 75.575,-99 75.575,-99 93.869,-67.249 			"/>
		</g>
		<g>
			<polygon fill="#FFFF00" stroke="#F7931E" stroke-width="4" stroke-linejoin="round" stroke-miterlimit="10" points="
				20.328,-131.251 2,-99.5 2,-99.5 38.623,-99.5 38.623,-99.5 20.328,-131.251 			"/>
			<polygon fill="#FFFF00" stroke="#F7931E" stroke-width="4" stroke-linejoin="round" stroke-miterlimit="10" points="
				56.929,-131.251 38.6,-99.5 38.6,-99.5 75.223,-99.5 75.223,-99.5 56.929,-131.251 			"/>
			<polygon fill="#FFFF00" stroke="#F7931E" stroke-width="4" stroke-linejoin="round" stroke-miterlimit="10" points="
				38.629,-99.251 20.3,-67.5 20.3,-67.5 56.923,-67.5 56.923,-67.5 38.629,-99.251 			"/>
			<polygon fill="#FFFF00" stroke="#F7931E" stroke-width="4" stroke-linejoin="round" stroke-miterlimit="10" points="
				56.895,-67.748 75.223,-99.5 75.223,-99.5 38.6,-99.5 38.6,-99.5 56.895,-67.748 			"/>
			<polygon fill="#FFFF00" stroke="#F7931E" stroke-width="4" stroke-linejoin="round" stroke-miterlimit="10" points="
				20.294,-67.748 38.623,-99.5 38.623,-99.5 2,-99.5 2,-99.5 20.294,-67.748 			"/>
			<polygon fill="#FFFF00" stroke="#F7931E" stroke-width="4" stroke-linejoin="round" stroke-miterlimit="10" points="
				38.594,-99.749 56.923,-131.5 56.923,-131.5 20.3,-131.5 20.3,-131.5 38.594,-99.749 			"/>
		</g>
		<g>
			<polygon fill="#FFFF00" stroke="#F7931E" stroke-width="4" stroke-linejoin="round" stroke-miterlimit="10" points="
				93.904,-131.751 75.575,-100 75.575,-100 112.198,-100 112.198,-100 93.904,-131.751 			"/>
			<polygon fill="#FFFF00" stroke="#F7931E" stroke-width="4" stroke-linejoin="round" stroke-miterlimit="10" points="
				112.17,-100.248 130.498,-132 130.498,-132 93.875,-132 93.875,-132 112.17,-100.248 			"/>
			<polygon fill="#FFFF00" stroke="#F7931E" stroke-width="4" stroke-linejoin="round" stroke-miterlimit="10" points="
				75.569,-100.248 93.898,-132 93.898,-132 57.275,-132 57.275,-132 75.569,-100.248 			"/>
		</g>
	</g>
</pattern>
<pattern  width="110.551" height="65" patternUnits="userSpaceOnUse" id="New_Pattern_15" viewBox="38.611 -99.5 110.551 65" overflow="visible">
	<g>
		<polygon fill="none" points="38.611,-99.5 149.162,-99.5 149.162,-34.5 38.611,-34.5 		"/>
		<g>
			<polygon fill="#FFFFBE" stroke="#FFFF00" stroke-width="4" stroke-linejoin="round" stroke-miterlimit="10" points="
				130.879,-66.251 112.551,-34.5 112.551,-34.5 149.174,-34.5 149.174,-34.5 130.879,-66.251 			"/>
			<polygon fill="#FFFFBE" stroke="#FFFF00" stroke-width="4" stroke-linejoin="round" stroke-miterlimit="10" points="
				167.479,-66.251 149.15,-34.5 149.15,-34.5 185.773,-34.5 185.773,-34.5 167.479,-66.251 			"/>
			<polygon fill="#FFFFBE" stroke="#FFFF00" stroke-width="4" stroke-linejoin="round" stroke-miterlimit="10" points="
				149.18,-34.251 130.851,-2.5 130.851,-2.5 167.474,-2.5 167.474,-2.5 149.18,-34.251 			"/>
			<polygon fill="#FFFFBE" stroke="#FFFF00" stroke-width="4" stroke-linejoin="round" stroke-miterlimit="10" points="
				167.445,-2.748 185.773,-34.5 185.773,-34.5 149.15,-34.5 149.15,-34.5 167.445,-2.748 			"/>
			<polygon fill="#FFFFBE" stroke="#FFFF00" stroke-width="4" stroke-linejoin="round" stroke-miterlimit="10" points="
				130.845,-2.748 149.174,-34.5 149.174,-34.5 112.551,-34.5 112.551,-34.5 130.845,-2.748 			"/>
			<polygon fill="#FFFFBE" stroke="#FFFF00" stroke-width="4" stroke-linejoin="round" stroke-miterlimit="10" points="
				149.145,-34.749 167.474,-66.5 167.474,-66.5 130.851,-66.5 130.851,-66.5 149.145,-34.749 			"/>
		</g>
		<g>
			<polygon fill="#FFFFBE" stroke="#FFFF00" stroke-width="4" stroke-linejoin="round" stroke-miterlimit="10" points="
				75.604,-33.751 57.275,-2 57.275,-2 93.898,-2 93.898,-2 75.604,-33.751 			"/>
			<polygon fill="#FFFFBE" stroke="#FFFF00" stroke-width="4" stroke-linejoin="round" stroke-miterlimit="10" points="
				112.204,-33.751 93.875,-2 93.875,-2 130.498,-2 130.498,-2 112.204,-33.751 			"/>
			<polygon fill="#FFFFBE" stroke="#FFFF00" stroke-width="4" stroke-linejoin="round" stroke-miterlimit="10" points="
				93.869,-2.249 112.198,-34 112.198,-34 75.575,-34 75.575,-34 93.869,-2.249 			"/>
		</g>
		<g>
			<polygon fill="#FFFFBE" stroke="#FFFF00" stroke-width="4" stroke-linejoin="round" stroke-miterlimit="10" points="
				20.328,-66.251 2,-34.5 2,-34.5 38.623,-34.5 38.623,-34.5 20.328,-66.251 			"/>
			<polygon fill="#FFFFBE" stroke="#FFFF00" stroke-width="4" stroke-linejoin="round" stroke-miterlimit="10" points="
				56.929,-66.251 38.6,-34.5 38.6,-34.5 75.223,-34.5 75.223,-34.5 56.929,-66.251 			"/>
			<polygon fill="#FFFFBE" stroke="#FFFF00" stroke-width="4" stroke-linejoin="round" stroke-miterlimit="10" points="
				38.629,-34.251 20.3,-2.5 20.3,-2.5 56.923,-2.5 56.923,-2.5 38.629,-34.251 			"/>
			<polygon fill="#FFFFBE" stroke="#FFFF00" stroke-width="4" stroke-linejoin="round" stroke-miterlimit="10" points="
				56.895,-2.748 75.223,-34.5 75.223,-34.5 38.6,-34.5 38.6,-34.5 56.895,-2.748 			"/>
			<polygon fill="#FFFFBE" stroke="#FFFF00" stroke-width="4" stroke-linejoin="round" stroke-miterlimit="10" points="
				20.294,-2.748 38.623,-34.5 38.623,-34.5 2,-34.5 2,-34.5 20.294,-2.748 			"/>
			<polygon fill="#FFFFBE" stroke="#FFFF00" stroke-width="4" stroke-linejoin="round" stroke-miterlimit="10" points="
				38.594,-34.749 56.923,-66.5 56.923,-66.5 20.3,-66.5 20.3,-66.5 38.594,-34.749 			"/>
		</g>
		<g>
			<polygon fill="#FFFFBE" stroke="#FFFF00" stroke-width="4" stroke-linejoin="round" stroke-miterlimit="10" points="
				130.879,-131.251 112.551,-99.5 112.551,-99.5 149.174,-99.5 149.174,-99.5 130.879,-131.251 			"/>
			<polygon fill="#FFFFBE" stroke="#FFFF00" stroke-width="4" stroke-linejoin="round" stroke-miterlimit="10" points="
				167.479,-131.251 149.15,-99.5 149.15,-99.5 185.773,-99.5 185.773,-99.5 167.479,-131.251 			"/>
			<polygon fill="#FFFFBE" stroke="#FFFF00" stroke-width="4" stroke-linejoin="round" stroke-miterlimit="10" points="
				149.18,-99.251 130.851,-67.5 130.851,-67.5 167.474,-67.5 167.474,-67.5 149.18,-99.251 			"/>
			<polygon fill="#FFFFBE" stroke="#FFFF00" stroke-width="4" stroke-linejoin="round" stroke-miterlimit="10" points="
				167.445,-67.748 185.773,-99.5 185.773,-99.5 149.15,-99.5 149.15,-99.5 167.445,-67.748 			"/>
			<polygon fill="#FFFFBE" stroke="#FFFF00" stroke-width="4" stroke-linejoin="round" stroke-miterlimit="10" points="
				130.845,-67.748 149.174,-99.5 149.174,-99.5 112.551,-99.5 112.551,-99.5 130.845,-67.748 			"/>
			<polygon fill="#FFFFBE" stroke="#FFFF00" stroke-width="4" stroke-linejoin="round" stroke-miterlimit="10" points="
				149.145,-99.749 167.474,-131.5 167.474,-131.5 130.851,-131.5 130.851,-131.5 149.145,-99.749 			"/>
		</g>
		<g>
			<polygon fill="#FFFFBE" stroke="#FFFF00" stroke-width="4" stroke-linejoin="round" stroke-miterlimit="10" points="
				75.604,-98.751 57.275,-67 57.275,-67 93.898,-67 93.898,-67 75.604,-98.751 			"/>
			<polygon fill="#FFFFBE" stroke="#FFFF00" stroke-width="4" stroke-linejoin="round" stroke-miterlimit="10" points="
				112.204,-98.751 93.875,-67 93.875,-67 130.498,-67 130.498,-67 112.204,-98.751 			"/>
			<polygon fill="#FFFFBE" stroke="#FFFF00" stroke-width="4" stroke-linejoin="round" stroke-miterlimit="10" points="
				93.904,-66.751 75.575,-35 75.575,-35 112.198,-35 112.198,-35 93.904,-66.751 			"/>
			<polygon fill="#FFFFBE" stroke="#FFFF00" stroke-width="4" stroke-linejoin="round" stroke-miterlimit="10" points="
				112.17,-35.248 130.498,-67 130.498,-67 93.875,-67 93.875,-67 112.17,-35.248 			"/>
			<polygon fill="#FFFFBE" stroke="#FFFF00" stroke-width="4" stroke-linejoin="round" stroke-miterlimit="10" points="
				75.569,-35.248 93.898,-67 93.898,-67 57.275,-67 57.275,-67 75.569,-35.248 			"/>
			<polygon fill="#FFFFBE" stroke="#FFFF00" stroke-width="4" stroke-linejoin="round" stroke-miterlimit="10" points="
				93.869,-67.249 112.198,-99 112.198,-99 75.575,-99 75.575,-99 93.869,-67.249 			"/>
		</g>
		<g>
			<polygon fill="#FFFFBE" stroke="#FFFF00" stroke-width="4" stroke-linejoin="round" stroke-miterlimit="10" points="
				20.328,-131.251 2,-99.5 2,-99.5 38.623,-99.5 38.623,-99.5 20.328,-131.251 			"/>
			<polygon fill="#FFFFBE" stroke="#FFFF00" stroke-width="4" stroke-linejoin="round" stroke-miterlimit="10" points="
				56.929,-131.251 38.6,-99.5 38.6,-99.5 75.223,-99.5 75.223,-99.5 56.929,-131.251 			"/>
			<polygon fill="#FFFFBE" stroke="#FFFF00" stroke-width="4" stroke-linejoin="round" stroke-miterlimit="10" points="
				38.629,-99.251 20.3,-67.5 20.3,-67.5 56.923,-67.5 56.923,-67.5 38.629,-99.251 			"/>
			<polygon fill="#FFFFBE" stroke="#FFFF00" stroke-width="4" stroke-linejoin="round" stroke-miterlimit="10" points="
				56.895,-67.748 75.223,-99.5 75.223,-99.5 38.6,-99.5 38.6,-99.5 56.895,-67.748 			"/>
			<polygon fill="#FFFFBE" stroke="#FFFF00" stroke-width="4" stroke-linejoin="round" stroke-miterlimit="10" points="
				20.294,-67.748 38.623,-99.5 38.623,-99.5 2,-99.5 2,-99.5 20.294,-67.748 			"/>
			<polygon fill="#FFFFBE" stroke="#FFFF00" stroke-width="4" stroke-linejoin="round" stroke-miterlimit="10" points="
				38.594,-99.749 56.923,-131.5 56.923,-131.5 20.3,-131.5 20.3,-131.5 38.594,-99.749 			"/>
		</g>
		<g>
			<polygon fill="#FFFFBE" stroke="#FFFF00" stroke-width="4" stroke-linejoin="round" stroke-miterlimit="10" points="
				93.904,-131.751 75.575,-100 75.575,-100 112.198,-100 112.198,-100 93.904,-131.751 			"/>
			<polygon fill="#FFFFBE" stroke="#FFFF00" stroke-width="4" stroke-linejoin="round" stroke-miterlimit="10" points="
				112.17,-100.248 130.498,-132 130.498,-132 93.875,-132 93.875,-132 112.17,-100.248 			"/>
			<polygon fill="#FFFFBE" stroke="#FFFF00" stroke-width="4" stroke-linejoin="round" stroke-miterlimit="10" points="
				75.569,-100.248 93.898,-132 93.898,-132 57.275,-132 57.275,-132 75.569,-100.248 			"/>
		</g>
	</g>
</pattern>
<pattern  width="110.551" height="65" patternUnits="userSpaceOnUse" id="New_Pattern_16" viewBox="38.611 -99.5 110.551 65" overflow="visible">
	<g>
		<polygon fill="none" points="38.611,-99.5 149.162,-99.5 149.162,-34.5 38.611,-34.5 		"/>
		<g>
			<polygon fill="#F7931E" stroke="#754C24" stroke-width="4" stroke-linejoin="round" stroke-miterlimit="10" points="
				130.879,-66.251 112.551,-34.5 112.551,-34.5 149.174,-34.5 149.174,-34.5 130.879,-66.251 			"/>
			<polygon fill="#F7931E" stroke="#754C24" stroke-width="4" stroke-linejoin="round" stroke-miterlimit="10" points="
				167.479,-66.251 149.15,-34.5 149.15,-34.5 185.773,-34.5 185.773,-34.5 167.479,-66.251 			"/>
			<polygon fill="#F7931E" stroke="#754C24" stroke-width="4" stroke-linejoin="round" stroke-miterlimit="10" points="
				149.18,-34.251 130.851,-2.5 130.851,-2.5 167.474,-2.5 167.474,-2.5 149.18,-34.251 			"/>
			<polygon fill="#F7931E" stroke="#754C24" stroke-width="4" stroke-linejoin="round" stroke-miterlimit="10" points="
				167.445,-2.748 185.773,-34.5 185.773,-34.5 149.15,-34.5 149.15,-34.5 167.445,-2.748 			"/>
			<polygon fill="#F7931E" stroke="#754C24" stroke-width="4" stroke-linejoin="round" stroke-miterlimit="10" points="
				130.845,-2.748 149.174,-34.5 149.174,-34.5 112.551,-34.5 112.551,-34.5 130.845,-2.748 			"/>
			<polygon fill="#F7931E" stroke="#754C24" stroke-width="4" stroke-linejoin="round" stroke-miterlimit="10" points="
				149.145,-34.749 167.474,-66.5 167.474,-66.5 130.851,-66.5 130.851,-66.5 149.145,-34.749 			"/>
		</g>
		<g>
			<polygon fill="#F7931E" stroke="#754C24" stroke-width="4" stroke-linejoin="round" stroke-miterlimit="10" points="
				75.604,-33.751 57.275,-2 57.275,-2 93.898,-2 93.898,-2 75.604,-33.751 			"/>
			<polygon fill="#F7931E" stroke="#754C24" stroke-width="4" stroke-linejoin="round" stroke-miterlimit="10" points="
				112.204,-33.751 93.875,-2 93.875,-2 130.498,-2 130.498,-2 112.204,-33.751 			"/>
			<polygon fill="#F7931E" stroke="#754C24" stroke-width="4" stroke-linejoin="round" stroke-miterlimit="10" points="
				93.869,-2.249 112.198,-34 112.198,-34 75.575,-34 75.575,-34 93.869,-2.249 			"/>
		</g>
		<g>
			<polygon fill="#F7931E" stroke="#754C24" stroke-width="4" stroke-linejoin="round" stroke-miterlimit="10" points="
				20.328,-66.251 2,-34.5 2,-34.5 38.623,-34.5 38.623,-34.5 20.328,-66.251 			"/>
			<polygon fill="#F7931E" stroke="#754C24" stroke-width="4" stroke-linejoin="round" stroke-miterlimit="10" points="
				56.929,-66.251 38.6,-34.5 38.6,-34.5 75.223,-34.5 75.223,-34.5 56.929,-66.251 			"/>
			<polygon fill="#F7931E" stroke="#754C24" stroke-width="4" stroke-linejoin="round" stroke-miterlimit="10" points="
				38.629,-34.251 20.3,-2.5 20.3,-2.5 56.923,-2.5 56.923,-2.5 38.629,-34.251 			"/>
			<polygon fill="#F7931E" stroke="#754C24" stroke-width="4" stroke-linejoin="round" stroke-miterlimit="10" points="
				56.895,-2.748 75.223,-34.5 75.223,-34.5 38.6,-34.5 38.6,-34.5 56.895,-2.748 			"/>
			<polygon fill="#F7931E" stroke="#754C24" stroke-width="4" stroke-linejoin="round" stroke-miterlimit="10" points="
				20.294,-2.748 38.623,-34.5 38.623,-34.5 2,-34.5 2,-34.5 20.294,-2.748 			"/>
			<polygon fill="#F7931E" stroke="#754C24" stroke-width="4" stroke-linejoin="round" stroke-miterlimit="10" points="
				38.594,-34.749 56.923,-66.5 56.923,-66.5 20.3,-66.5 20.3,-66.5 38.594,-34.749 			"/>
		</g>
		<g>
			<polygon fill="#F7931E" stroke="#754C24" stroke-width="4" stroke-linejoin="round" stroke-miterlimit="10" points="
				130.879,-131.251 112.551,-99.5 112.551,-99.5 149.174,-99.5 149.174,-99.5 130.879,-131.251 			"/>
			<polygon fill="#F7931E" stroke="#754C24" stroke-width="4" stroke-linejoin="round" stroke-miterlimit="10" points="
				167.479,-131.251 149.15,-99.5 149.15,-99.5 185.773,-99.5 185.773,-99.5 167.479,-131.251 			"/>
			<polygon fill="#F7931E" stroke="#754C24" stroke-width="4" stroke-linejoin="round" stroke-miterlimit="10" points="
				149.18,-99.251 130.851,-67.5 130.851,-67.5 167.474,-67.5 167.474,-67.5 149.18,-99.251 			"/>
			<polygon fill="#F7931E" stroke="#754C24" stroke-width="4" stroke-linejoin="round" stroke-miterlimit="10" points="
				167.445,-67.748 185.773,-99.5 185.773,-99.5 149.15,-99.5 149.15,-99.5 167.445,-67.748 			"/>
			<polygon fill="#F7931E" stroke="#754C24" stroke-width="4" stroke-linejoin="round" stroke-miterlimit="10" points="
				130.845,-67.748 149.174,-99.5 149.174,-99.5 112.551,-99.5 112.551,-99.5 130.845,-67.748 			"/>
			<polygon fill="#F7931E" stroke="#754C24" stroke-width="4" stroke-linejoin="round" stroke-miterlimit="10" points="
				149.145,-99.749 167.474,-131.5 167.474,-131.5 130.851,-131.5 130.851,-131.5 149.145,-99.749 			"/>
		</g>
		<g>
			<polygon fill="#F7931E" stroke="#754C24" stroke-width="4" stroke-linejoin="round" stroke-miterlimit="10" points="
				75.604,-98.751 57.275,-67 57.275,-67 93.898,-67 93.898,-67 75.604,-98.751 			"/>
			<polygon fill="#F7931E" stroke="#754C24" stroke-width="4" stroke-linejoin="round" stroke-miterlimit="10" points="
				112.204,-98.751 93.875,-67 93.875,-67 130.498,-67 130.498,-67 112.204,-98.751 			"/>
			<polygon fill="#F7931E" stroke="#754C24" stroke-width="4" stroke-linejoin="round" stroke-miterlimit="10" points="
				93.904,-66.751 75.575,-35 75.575,-35 112.198,-35 112.198,-35 93.904,-66.751 			"/>
			<polygon fill="#F7931E" stroke="#754C24" stroke-width="4" stroke-linejoin="round" stroke-miterlimit="10" points="
				112.17,-35.248 130.498,-67 130.498,-67 93.875,-67 93.875,-67 112.17,-35.248 			"/>
			<polygon fill="#F7931E" stroke="#754C24" stroke-width="4" stroke-linejoin="round" stroke-miterlimit="10" points="
				75.569,-35.248 93.898,-67 93.898,-67 57.275,-67 57.275,-67 75.569,-35.248 			"/>
			<polygon fill="#F7931E" stroke="#754C24" stroke-width="4" stroke-linejoin="round" stroke-miterlimit="10" points="
				93.869,-67.249 112.198,-99 112.198,-99 75.575,-99 75.575,-99 93.869,-67.249 			"/>
		</g>
		<g>
			<polygon fill="#F7931E" stroke="#754C24" stroke-width="4" stroke-linejoin="round" stroke-miterlimit="10" points="
				20.328,-131.251 2,-99.5 2,-99.5 38.623,-99.5 38.623,-99.5 20.328,-131.251 			"/>
			<polygon fill="#F7931E" stroke="#754C24" stroke-width="4" stroke-linejoin="round" stroke-miterlimit="10" points="
				56.929,-131.251 38.6,-99.5 38.6,-99.5 75.223,-99.5 75.223,-99.5 56.929,-131.251 			"/>
			<polygon fill="#F7931E" stroke="#754C24" stroke-width="4" stroke-linejoin="round" stroke-miterlimit="10" points="
				38.629,-99.251 20.3,-67.5 20.3,-67.5 56.923,-67.5 56.923,-67.5 38.629,-99.251 			"/>
			<polygon fill="#F7931E" stroke="#754C24" stroke-width="4" stroke-linejoin="round" stroke-miterlimit="10" points="
				56.895,-67.748 75.223,-99.5 75.223,-99.5 38.6,-99.5 38.6,-99.5 56.895,-67.748 			"/>
			<polygon fill="#F7931E" stroke="#754C24" stroke-width="4" stroke-linejoin="round" stroke-miterlimit="10" points="
				20.294,-67.748 38.623,-99.5 38.623,-99.5 2,-99.5 2,-99.5 20.294,-67.748 			"/>
			<polygon fill="#F7931E" stroke="#754C24" stroke-width="4" stroke-linejoin="round" stroke-miterlimit="10" points="
				38.594,-99.749 56.923,-131.5 56.923,-131.5 20.3,-131.5 20.3,-131.5 38.594,-99.749 			"/>
		</g>
		<g>
			<polygon fill="#F7931E" stroke="#754C24" stroke-width="4" stroke-linejoin="round" stroke-miterlimit="10" points="
				93.904,-131.751 75.575,-100 75.575,-100 112.198,-100 112.198,-100 93.904,-131.751 			"/>
			<polygon fill="#F7931E" stroke="#754C24" stroke-width="4" stroke-linejoin="round" stroke-miterlimit="10" points="
				112.17,-100.248 130.498,-132 130.498,-132 93.875,-132 93.875,-132 112.17,-100.248 			"/>
			<polygon fill="#F7931E" stroke="#754C24" stroke-width="4" stroke-linejoin="round" stroke-miterlimit="10" points="
				75.569,-100.248 93.898,-132 93.898,-132 57.275,-132 57.275,-132 75.569,-100.248 			"/>
		</g>
	</g>
</pattern>
<pattern  width="110.551" height="65" patternUnits="userSpaceOnUse" id="New_Pattern_17" viewBox="38.611 -99.5 110.551 65" overflow="visible">
	<g>
		<polygon fill="none" points="38.611,-99.5 149.162,-99.5 149.162,-34.5 38.611,-34.5 		"/>
		<g>
			<polygon fill="#FFFFBE" stroke="#C69C6D" stroke-width="4" stroke-linejoin="round" stroke-miterlimit="10" points="
				130.879,-66.251 112.551,-34.5 112.551,-34.5 149.174,-34.5 149.174,-34.5 130.879,-66.251 			"/>
			<polygon fill="#FFFFBE" stroke="#C69C6D" stroke-width="4" stroke-linejoin="round" stroke-miterlimit="10" points="
				167.479,-66.251 149.15,-34.5 149.15,-34.5 185.773,-34.5 185.773,-34.5 167.479,-66.251 			"/>
			<polygon fill="#FFFFBE" stroke="#C69C6D" stroke-width="4" stroke-linejoin="round" stroke-miterlimit="10" points="
				149.18,-34.251 130.851,-2.5 130.851,-2.5 167.474,-2.5 167.474,-2.5 149.18,-34.251 			"/>
			<polygon fill="#FFFFBE" stroke="#C69C6D" stroke-width="4" stroke-linejoin="round" stroke-miterlimit="10" points="
				167.445,-2.748 185.773,-34.5 185.773,-34.5 149.15,-34.5 149.15,-34.5 167.445,-2.748 			"/>
			<polygon fill="#FFFFBE" stroke="#C69C6D" stroke-width="4" stroke-linejoin="round" stroke-miterlimit="10" points="
				130.845,-2.748 149.174,-34.5 149.174,-34.5 112.551,-34.5 112.551,-34.5 130.845,-2.748 			"/>
			<polygon fill="#FFFFBE" stroke="#C69C6D" stroke-width="4" stroke-linejoin="round" stroke-miterlimit="10" points="
				149.145,-34.749 167.474,-66.5 167.474,-66.5 130.851,-66.5 130.851,-66.5 149.145,-34.749 			"/>
		</g>
		<g>
			<polygon fill="#FFFFBE" stroke="#C69C6D" stroke-width="4" stroke-linejoin="round" stroke-miterlimit="10" points="
				75.604,-33.751 57.275,-2 57.275,-2 93.898,-2 93.898,-2 75.604,-33.751 			"/>
			<polygon fill="#FFFFBE" stroke="#C69C6D" stroke-width="4" stroke-linejoin="round" stroke-miterlimit="10" points="
				112.204,-33.751 93.875,-2 93.875,-2 130.498,-2 130.498,-2 112.204,-33.751 			"/>
			<polygon fill="#FFFFBE" stroke="#C69C6D" stroke-width="4" stroke-linejoin="round" stroke-miterlimit="10" points="
				93.869,-2.249 112.198,-34 112.198,-34 75.575,-34 75.575,-34 93.869,-2.249 			"/>
		</g>
		<g>
			<polygon fill="#FFFFBE" stroke="#C69C6D" stroke-width="4" stroke-linejoin="round" stroke-miterlimit="10" points="
				20.328,-66.251 2,-34.5 2,-34.5 38.623,-34.5 38.623,-34.5 20.328,-66.251 			"/>
			<polygon fill="#FFFFBE" stroke="#C69C6D" stroke-width="4" stroke-linejoin="round" stroke-miterlimit="10" points="
				56.929,-66.251 38.6,-34.5 38.6,-34.5 75.223,-34.5 75.223,-34.5 56.929,-66.251 			"/>
			<polygon fill="#FFFFBE" stroke="#C69C6D" stroke-width="4" stroke-linejoin="round" stroke-miterlimit="10" points="
				38.629,-34.251 20.3,-2.5 20.3,-2.5 56.923,-2.5 56.923,-2.5 38.629,-34.251 			"/>
			<polygon fill="#FFFFBE" stroke="#C69C6D" stroke-width="4" stroke-linejoin="round" stroke-miterlimit="10" points="
				56.895,-2.748 75.223,-34.5 75.223,-34.5 38.6,-34.5 38.6,-34.5 56.895,-2.748 			"/>
			<polygon fill="#FFFFBE" stroke="#C69C6D" stroke-width="4" stroke-linejoin="round" stroke-miterlimit="10" points="
				20.294,-2.748 38.623,-34.5 38.623,-34.5 2,-34.5 2,-34.5 20.294,-2.748 			"/>
			<polygon fill="#FFFFBE" stroke="#C69C6D" stroke-width="4" stroke-linejoin="round" stroke-miterlimit="10" points="
				38.594,-34.749 56.923,-66.5 56.923,-66.5 20.3,-66.5 20.3,-66.5 38.594,-34.749 			"/>
		</g>
		<g>
			<polygon fill="#FFFFBE" stroke="#C69C6D" stroke-width="4" stroke-linejoin="round" stroke-miterlimit="10" points="
				130.879,-131.251 112.551,-99.5 112.551,-99.5 149.174,-99.5 149.174,-99.5 130.879,-131.251 			"/>
			<polygon fill="#FFFFBE" stroke="#C69C6D" stroke-width="4" stroke-linejoin="round" stroke-miterlimit="10" points="
				167.479,-131.251 149.15,-99.5 149.15,-99.5 185.773,-99.5 185.773,-99.5 167.479,-131.251 			"/>
			<polygon fill="#FFFFBE" stroke="#C69C6D" stroke-width="4" stroke-linejoin="round" stroke-miterlimit="10" points="
				149.18,-99.251 130.851,-67.5 130.851,-67.5 167.474,-67.5 167.474,-67.5 149.18,-99.251 			"/>
			<polygon fill="#FFFFBE" stroke="#C69C6D" stroke-width="4" stroke-linejoin="round" stroke-miterlimit="10" points="
				167.445,-67.748 185.773,-99.5 185.773,-99.5 149.15,-99.5 149.15,-99.5 167.445,-67.748 			"/>
			<polygon fill="#FFFFBE" stroke="#C69C6D" stroke-width="4" stroke-linejoin="round" stroke-miterlimit="10" points="
				130.845,-67.748 149.174,-99.5 149.174,-99.5 112.551,-99.5 112.551,-99.5 130.845,-67.748 			"/>
			<polygon fill="#FFFFBE" stroke="#C69C6D" stroke-width="4" stroke-linejoin="round" stroke-miterlimit="10" points="
				149.145,-99.749 167.474,-131.5 167.474,-131.5 130.851,-131.5 130.851,-131.5 149.145,-99.749 			"/>
		</g>
		<g>
			<polygon fill="#FFFFBE" stroke="#C69C6D" stroke-width="4" stroke-linejoin="round" stroke-miterlimit="10" points="
				75.604,-98.751 57.275,-67 57.275,-67 93.898,-67 93.898,-67 75.604,-98.751 			"/>
			<polygon fill="#FFFFBE" stroke="#C69C6D" stroke-width="4" stroke-linejoin="round" stroke-miterlimit="10" points="
				112.204,-98.751 93.875,-67 93.875,-67 130.498,-67 130.498,-67 112.204,-98.751 			"/>
			<polygon fill="#FFFFBE" stroke="#C69C6D" stroke-width="4" stroke-linejoin="round" stroke-miterlimit="10" points="
				93.904,-66.751 75.575,-35 75.575,-35 112.198,-35 112.198,-35 93.904,-66.751 			"/>
			<polygon fill="#FFFFBE" stroke="#C69C6D" stroke-width="4" stroke-linejoin="round" stroke-miterlimit="10" points="
				112.17,-35.248 130.498,-67 130.498,-67 93.875,-67 93.875,-67 112.17,-35.248 			"/>
			<polygon fill="#FFFFBE" stroke="#C69C6D" stroke-width="4" stroke-linejoin="round" stroke-miterlimit="10" points="
				75.569,-35.248 93.898,-67 93.898,-67 57.275,-67 57.275,-67 75.569,-35.248 			"/>
			<polygon fill="#FFFFBE" stroke="#C69C6D" stroke-width="4" stroke-linejoin="round" stroke-miterlimit="10" points="
				93.869,-67.249 112.198,-99 112.198,-99 75.575,-99 75.575,-99 93.869,-67.249 			"/>
		</g>
		<g>
			<polygon fill="#FFFFBE" stroke="#C69C6D" stroke-width="4" stroke-linejoin="round" stroke-miterlimit="10" points="
				20.328,-131.251 2,-99.5 2,-99.5 38.623,-99.5 38.623,-99.5 20.328,-131.251 			"/>
			<polygon fill="#FFFFBE" stroke="#C69C6D" stroke-width="4" stroke-linejoin="round" stroke-miterlimit="10" points="
				56.929,-131.251 38.6,-99.5 38.6,-99.5 75.223,-99.5 75.223,-99.5 56.929,-131.251 			"/>
			<polygon fill="#FFFFBE" stroke="#C69C6D" stroke-width="4" stroke-linejoin="round" stroke-miterlimit="10" points="
				38.629,-99.251 20.3,-67.5 20.3,-67.5 56.923,-67.5 56.923,-67.5 38.629,-99.251 			"/>
			<polygon fill="#FFFFBE" stroke="#C69C6D" stroke-width="4" stroke-linejoin="round" stroke-miterlimit="10" points="
				56.895,-67.748 75.223,-99.5 75.223,-99.5 38.6,-99.5 38.6,-99.5 56.895,-67.748 			"/>
			<polygon fill="#FFFFBE" stroke="#C69C6D" stroke-width="4" stroke-linejoin="round" stroke-miterlimit="10" points="
				20.294,-67.748 38.623,-99.5 38.623,-99.5 2,-99.5 2,-99.5 20.294,-67.748 			"/>
			<polygon fill="#FFFFBE" stroke="#C69C6D" stroke-width="4" stroke-linejoin="round" stroke-miterlimit="10" points="
				38.594,-99.749 56.923,-131.5 56.923,-131.5 20.3,-131.5 20.3,-131.5 38.594,-99.749 			"/>
		</g>
		<g>
			<polygon fill="#FFFFBE" stroke="#C69C6D" stroke-width="4" stroke-linejoin="round" stroke-miterlimit="10" points="
				93.904,-131.751 75.575,-100 75.575,-100 112.198,-100 112.198,-100 93.904,-131.751 			"/>
			<polygon fill="#FFFFBE" stroke="#C69C6D" stroke-width="4" stroke-linejoin="round" stroke-miterlimit="10" points="
				112.17,-100.248 130.498,-132 130.498,-132 93.875,-132 93.875,-132 112.17,-100.248 			"/>
			<polygon fill="#FFFFBE" stroke="#C69C6D" stroke-width="4" stroke-linejoin="round" stroke-miterlimit="10" points="
				75.569,-100.248 93.898,-132 93.898,-132 57.275,-132 57.275,-132 75.569,-100.248 			"/>
		</g>
	</g>
</pattern>
<pattern  width="110.551" height="65" patternUnits="userSpaceOnUse" id="New_Pattern_5" viewBox="38.611 -99.5 110.551 65" overflow="visible">
	<g>
		<polygon fill="none" points="38.611,-99.5 149.162,-99.5 149.162,-34.5 38.611,-34.5 		"/>
		<g>
			
				<polygon fill="#6F706F" stroke="#000000" stroke-width="4" stroke-linecap="round" stroke-linejoin="round" stroke-miterlimit="10" points="
				130.879,-66.251 112.551,-34.5 112.551,-34.5 149.173,-34.5 149.173,-34.5 130.879,-66.251 			"/>
			
				<polygon fill="#6F706F" stroke="#000000" stroke-width="4" stroke-linecap="round" stroke-linejoin="round" stroke-miterlimit="10" points="
				167.479,-66.251 149.151,-34.5 149.151,-34.5 185.773,-34.5 185.773,-34.5 167.479,-66.251 			"/>
			
				<polygon fill="#6F706F" stroke="#000000" stroke-width="4" stroke-linecap="round" stroke-linejoin="round" stroke-miterlimit="10" points="
				149.179,-34.251 130.851,-2.5 130.851,-2.5 167.474,-2.5 167.474,-2.5 149.179,-34.251 			"/>
			
				<polygon fill="#6F706F" stroke="#000000" stroke-width="4" stroke-linecap="round" stroke-linejoin="round" stroke-miterlimit="10" points="
				167.445,-2.748 185.773,-34.5 185.773,-34.5 149.151,-34.5 149.151,-34.5 167.445,-2.748 			"/>
			
				<polygon fill="#6F706F" stroke="#000000" stroke-width="4" stroke-linecap="round" stroke-linejoin="round" stroke-miterlimit="10" points="
				130.845,-2.748 149.173,-34.5 149.173,-34.5 112.551,-34.5 112.551,-34.5 130.845,-2.748 			"/>
			
				<polygon fill="#6F706F" stroke="#000000" stroke-width="4" stroke-linecap="round" stroke-linejoin="round" stroke-miterlimit="10" points="
				149.145,-34.749 167.474,-66.5 167.474,-66.5 130.851,-66.5 130.851,-66.5 149.145,-34.749 			"/>
		</g>
		<g>
			
				<polygon fill="#6F706F" stroke="#000000" stroke-width="4" stroke-linecap="round" stroke-linejoin="round" stroke-miterlimit="10" points="
				75.604,-33.751 57.275,-2 57.275,-2 93.898,-2 93.898,-2 75.604,-33.751 			"/>
			
				<polygon fill="#6F706F" stroke="#000000" stroke-width="4" stroke-linecap="round" stroke-linejoin="round" stroke-miterlimit="10" points="
				112.204,-33.751 93.875,-2 93.875,-2 130.498,-2 130.498,-2 112.204,-33.751 			"/>
			
				<polygon fill="#6F706F" stroke="#000000" stroke-width="4" stroke-linecap="round" stroke-linejoin="round" stroke-miterlimit="10" points="
				93.87,-2.249 112.198,-34 112.198,-34 75.575,-34 75.575,-34 93.87,-2.249 			"/>
		</g>
		<g>
			
				<polygon fill="#6F706F" stroke="#000000" stroke-width="4" stroke-linecap="round" stroke-linejoin="round" stroke-miterlimit="10" points="
				20.329,-66.251 2,-34.5 2,-34.5 38.623,-34.5 38.623,-34.5 20.329,-66.251 			"/>
			
				<polygon fill="#6F706F" stroke="#000000" stroke-width="4" stroke-linecap="round" stroke-linejoin="round" stroke-miterlimit="10" points="
				56.929,-66.251 38.6,-34.5 38.6,-34.5 75.223,-34.5 75.223,-34.5 56.929,-66.251 			"/>
			
				<polygon fill="#6F706F" stroke="#000000" stroke-width="4" stroke-linecap="round" stroke-linejoin="round" stroke-miterlimit="10" points="
				38.628,-34.251 20.3,-2.5 20.3,-2.5 56.923,-2.5 56.923,-2.5 38.628,-34.251 			"/>
			
				<polygon fill="#6F706F" stroke="#000000" stroke-width="4" stroke-linecap="round" stroke-linejoin="round" stroke-miterlimit="10" points="
				56.894,-2.748 75.223,-34.5 75.223,-34.5 38.6,-34.5 38.6,-34.5 56.894,-2.748 			"/>
			
				<polygon fill="#6F706F" stroke="#000000" stroke-width="4" stroke-linecap="round" stroke-linejoin="round" stroke-miterlimit="10" points="
				20.294,-2.748 38.623,-34.5 38.623,-34.5 2,-34.5 2,-34.5 20.294,-2.748 			"/>
			
				<polygon fill="#6F706F" stroke="#000000" stroke-width="4" stroke-linecap="round" stroke-linejoin="round" stroke-miterlimit="10" points="
				38.594,-34.749 56.923,-66.5 56.923,-66.5 20.3,-66.5 20.3,-66.5 38.594,-34.749 			"/>
		</g>
		<g>
			
				<polygon fill="#6F706F" stroke="#000000" stroke-width="4" stroke-linecap="round" stroke-linejoin="round" stroke-miterlimit="10" points="
				130.879,-131.251 112.551,-99.5 112.551,-99.5 149.173,-99.5 149.173,-99.5 130.879,-131.251 			"/>
			
				<polygon fill="#6F706F" stroke="#000000" stroke-width="4" stroke-linecap="round" stroke-linejoin="round" stroke-miterlimit="10" points="
				167.479,-131.251 149.151,-99.5 149.151,-99.5 185.773,-99.5 185.773,-99.5 167.479,-131.251 			"/>
			
				<polygon fill="#6F706F" stroke="#000000" stroke-width="4" stroke-linecap="round" stroke-linejoin="round" stroke-miterlimit="10" points="
				149.179,-99.251 130.851,-67.5 130.851,-67.5 167.474,-67.5 167.474,-67.5 149.179,-99.251 			"/>
			
				<polygon fill="#6F706F" stroke="#000000" stroke-width="4" stroke-linecap="round" stroke-linejoin="round" stroke-miterlimit="10" points="
				167.445,-67.748 185.773,-99.5 185.773,-99.5 149.151,-99.5 149.151,-99.5 167.445,-67.748 			"/>
			
				<polygon fill="#6F706F" stroke="#000000" stroke-width="4" stroke-linecap="round" stroke-linejoin="round" stroke-miterlimit="10" points="
				130.845,-67.748 149.173,-99.5 149.173,-99.5 112.551,-99.5 112.551,-99.5 130.845,-67.748 			"/>
			
				<polygon fill="#6F706F" stroke="#000000" stroke-width="4" stroke-linecap="round" stroke-linejoin="round" stroke-miterlimit="10" points="
				149.145,-99.749 167.474,-131.5 167.474,-131.5 130.851,-131.5 130.851,-131.5 149.145,-99.749 			"/>
		</g>
		<g>
			
				<polygon fill="#6F706F" stroke="#000000" stroke-width="4" stroke-linecap="round" stroke-linejoin="round" stroke-miterlimit="10" points="
				75.604,-98.751 57.275,-67 57.275,-67 93.898,-67 93.898,-67 75.604,-98.751 			"/>
			
				<polygon fill="#6F706F" stroke="#000000" stroke-width="4" stroke-linecap="round" stroke-linejoin="round" stroke-miterlimit="10" points="
				112.204,-98.751 93.875,-67 93.875,-67 130.498,-67 130.498,-67 112.204,-98.751 			"/>
			
				<polygon fill="#6F706F" stroke="#000000" stroke-width="4" stroke-linecap="round" stroke-linejoin="round" stroke-miterlimit="10" points="
				93.904,-66.751 75.575,-35 75.575,-35 112.198,-35 112.198,-35 93.904,-66.751 			"/>
			
				<polygon fill="#6F706F" stroke="#000000" stroke-width="4" stroke-linecap="round" stroke-linejoin="round" stroke-miterlimit="10" points="
				112.169,-35.248 130.498,-67 130.498,-67 93.875,-67 93.875,-67 112.169,-35.248 			"/>
			
				<polygon fill="#6F706F" stroke="#000000" stroke-width="4" stroke-linecap="round" stroke-linejoin="round" stroke-miterlimit="10" points="
				75.569,-35.248 93.898,-67 93.898,-67 57.275,-67 57.275,-67 75.569,-35.248 			"/>
			
				<polygon fill="#6F706F" stroke="#000000" stroke-width="4" stroke-linecap="round" stroke-linejoin="round" stroke-miterlimit="10" points="
				93.87,-67.249 112.198,-99 112.198,-99 75.575,-99 75.575,-99 93.87,-67.249 			"/>
		</g>
		<g>
			
				<polygon fill="#6F706F" stroke="#000000" stroke-width="4" stroke-linecap="round" stroke-linejoin="round" stroke-miterlimit="10" points="
				20.329,-131.251 2,-99.5 2,-99.5 38.623,-99.5 38.623,-99.5 20.329,-131.251 			"/>
			
				<polygon fill="#6F706F" stroke="#000000" stroke-width="4" stroke-linecap="round" stroke-linejoin="round" stroke-miterlimit="10" points="
				56.929,-131.251 38.6,-99.5 38.6,-99.5 75.223,-99.5 75.223,-99.5 56.929,-131.251 			"/>
			
				<polygon fill="#6F706F" stroke="#000000" stroke-width="4" stroke-linecap="round" stroke-linejoin="round" stroke-miterlimit="10" points="
				38.628,-99.251 20.3,-67.5 20.3,-67.5 56.923,-67.5 56.923,-67.5 38.628,-99.251 			"/>
			
				<polygon fill="#6F706F" stroke="#000000" stroke-width="4" stroke-linecap="round" stroke-linejoin="round" stroke-miterlimit="10" points="
				56.894,-67.748 75.223,-99.5 75.223,-99.5 38.6,-99.5 38.6,-99.5 56.894,-67.748 			"/>
			
				<polygon fill="#6F706F" stroke="#000000" stroke-width="4" stroke-linecap="round" stroke-linejoin="round" stroke-miterlimit="10" points="
				20.294,-67.748 38.623,-99.5 38.623,-99.5 2,-99.5 2,-99.5 20.294,-67.748 			"/>
			
				<polygon fill="#6F706F" stroke="#000000" stroke-width="4" stroke-linecap="round" stroke-linejoin="round" stroke-miterlimit="10" points="
				38.594,-99.749 56.923,-131.5 56.923,-131.5 20.3,-131.5 20.3,-131.5 38.594,-99.749 			"/>
		</g>
		<g>
			
				<polygon fill="#6F706F" stroke="#000000" stroke-width="4" stroke-linecap="round" stroke-linejoin="round" stroke-miterlimit="10" points="
				93.904,-131.751 75.575,-100 75.575,-100 112.198,-100 112.198,-100 93.904,-131.751 			"/>
			
				<polygon fill="#6F706F" stroke="#000000" stroke-width="4" stroke-linecap="round" stroke-linejoin="round" stroke-miterlimit="10" points="
				112.169,-100.248 130.498,-132 130.498,-132 93.875,-132 93.875,-132 112.169,-100.248 			"/>
			
				<polygon fill="#6F706F" stroke="#000000" stroke-width="4" stroke-linecap="round" stroke-linejoin="round" stroke-miterlimit="10" points="
				75.569,-100.248 93.898,-132 93.898,-132 57.275,-132 57.275,-132 75.569,-100.248 			"/>
		</g>
	</g>
</pattern>
<path display="none" fill="url(#New_Pattern_12)" d="M809,791.99c0,10.564-2.98,23.01-10.476,23.01H227.142
	C219.643,815,209,802.555,209,791.99V226.23c0-10.562,10.643-11.23,18.142-11.23h571.383c7.495,0,10.476,0.668,10.476,11.23V791.99z
	"/>
<path display="none" fill="none" stroke="#000000" stroke-width="58.7012" stroke-miterlimit="10" d="M359.568,230.917
	c0-63.284,71.676-114.581,160.093-114.581c88.42,0,160.093,51.297,160.093,114.581"/>
<polygon fill="url(#New_Pattern_5)" points="263.113,759.962 258.073,745 272.233,745 274.813,756.322 "/>
<polygon fill="url(#New_Pattern_5)" points="760.836,759.962 765.876,745 751.717,745 749.136,756.322 "/>
<path fill="url(#New_Pattern_14)" stroke="url(#New_Pattern_17)" stroke-miterlimit="10" d="M503.553,428.587
	c2.235-0.058,1.695-1.925,4.104-1.925c2.178,0,2.926,2.048,4.984,2.22c2.06-0.172,2.824-2.22,5.002-2.22
	c2.407,0,1.926,1.869,4.159,1.925c2.236,0.06,2.451-0.611,6.579-2.044c7.795-6.819,6.993-20.391,6.993-20.391l32.628-175.137
	c0,0-7.48,190.313-8.702,194.702c-2.999,10.755-24.985,13.05-30.259,14.31c-4.93,5.846-10.841,21.782-10.841,21.782l54.371,23.9
	c0,0,11.163-10.029,13.141-14.925c1.977-4.896-0.156-29.128-0.156-29.128l2.762-20.088l-1.998-15.145l7.977-2.658l28.101-87.551
	l2.792,0.559l28.493-73.441c0.476-4.054,4.572-8.769,9.854-12.759c7.616-5.755,43.43-32.74,43.43-32.74l60.517-49.217
	l-50.976,46.957c0,0,105.745-4.532,104.295,53.483c-11.604-56.565-113.083-38.919-113.083-38.919l-43.692,32.141l-0.252,5.524
	c0,0,9.642-3.71,14.162-6.724c-4.771,5.776-12.152,20.786-12.152,20.786s6.95-7.181,23.271-15.467
	c-26.113,20.088-7.451,100.341-23.773,132.733c6.779,12.304-1.759,36.412-1.759,36.412l89.35-41.027
	c0,0-89.219,43.613-88.907,49.477c0.312,5.862-13.5,18.418-13.5,30.722s-14.426,49.919-24.606,53.736
	c-10.184,3.818-34.652,12.555-49.721,1.507c-4.167-3.057-10.128-0.968-14.476,3.046c4.351,10.178,5.802,19.605,1.935,25.892
	c-0.654,1.063,0.323-1.009-0.515,0.893c-0.79,1.797,11.623-3.866,16.046-5.547c11.694-4.441,15.876-5.974,26.741-8.521
	c11.604-2.72,25.401-1.088,25.401-1.088s25.844,2.275,41.991,20.1c3.587-0.52,7.48,1.807,10.114,1.173
	c0.809-0.193-0.213,4.183,1.328,4.593c1.478,0.393,42.273,26.319,42.273,26.319s0.597-1.017,0.726-1.269l7.886,4.805l-0.514,1.269
	l2.509,1.449l-0.605,1.21c0,0,11.937,7.161,14.565,8.792c3-3.196,10.331,1.37,11.694,2.266c1.359,2.992,3.271,6.611,4.078,11.876
	c0.923,6.015-1.903,22.345-1.903,22.345s-0.726,11.241-0.227,13.961s3.897,14.277,3.897,14.277l-1.676,2.085l3.717,45.643
	l0.725-0.046l0.952,6.255l-1.315,0.59l0.363,2.311l-1.134,0.499l2.357,22.979c0,0,1.677,0.362,3.006,0.695
	c-1.206,8.839-4.835,17.404-7.01,23.69c3.331,4.891,14.746,12.328,8.22,24.657c8.218,4.593,20.156,12.843,20.063,17.645
	c-0.484,24.899-80.481,51.988-80.74,52.698c-0.068,0.189,81.223-53.182,47.623-65.992c-3.869-1.476-4.58-4.126-11.24-5.077
	c-10.153-1.45-6.89-20.306-6.89-20.306s-4.651,1.086-4.533-9.064l-0.604-30.821l-29.673-27.073l29.469,16.679l-0.369-18.855
	l-38.77-31.183l38.552,20.063l-0.318-16.198l-43.31-29.248l43.271,15.713l-0.785-28.524c0,0-51.489-39.343-84.305-63.455
	c-32.815-24.113-83.498-10.004-99.854-3.823c-16.358,6.181-17.02,22.692-17.02,22.692l61.759-5.453l92.826,169.696l-7.117,128.119
	l-0.135-116.516l-90.65-147.94l-67.872,11.663l-1.889,14.141l29.723,17.225v18.855l17.662,10.153l-18.185,10.813l18.104,11.426
	l-18.142,10.879l18.123,10.878l-18.133,11.24l18.127,10.516l-18.132,10.999l18.418,10.757l-17.844,11.12v17.888
	c0,0-5.111,4.443-14.957,8.115c-2.021,0.754,5.341,38.78-14.965,64.889c7.325-27.701,4.432-61.805,2.462-61.439
	c-4.274,0.789-10.112,1.489-15.425,1.489l0,0c-5.313,0-10.413-0.7-14.687-1.489c-1.971-0.365-4.878,33.738,2.448,61.439
	c-20.305-26.108-13.4-64.135-15.424-64.889c-9.844-3.672-15.452-8.115-15.452-8.115v-17.888l-17.344-11.12l18.704-10.757
	l-18.025-10.999l18.18-10.516l-18.109-11.24l18.132-10.878l-18.146-10.879l18.088-11.426l-18.643-10.813l17.163-10.153v-18.855
	l30.224-17.225l-1.601-14.141l-67.767-11.663l-90.597,147.94l-0.108,116.516l-7.104-128.119l92.833-169.696l61.762,5.453
	c0,0-0.659-16.512-17.017-22.692c-16.358-6.181-67.04-20.29-99.855,3.823c-32.815,24.112-84.304,63.455-84.304,63.455l-0.786,28.524
	l43.271-15.713l-43.309,29.248l-0.318,16.198l38.551-20.063l-38.769,31.183l-0.37,18.855l29.469-16.679l-29.673,27.073
	l-0.604,30.821c0.118,10.15-4.532,9.064-4.532,9.064s3.263,18.855-6.889,20.306c-6.66,0.951-7.371,3.602-11.241,5.077
	c-33.601,12.811,47.69,66.182,47.622,65.992c-0.257-0.71-80.255-27.799-80.739-52.698c-0.093-4.802,11.844-13.052,20.064-17.645
	c-6.527-12.329,4.888-19.767,8.218-24.657c-2.176-6.286-5.802-14.852-7.01-23.69c1.33-0.333,3.007-0.695,3.007-0.695l2.356-22.979
	l-1.133-0.499l0.362-2.311l-1.314-0.59l0.952-6.255l0.725,0.046l3.717-45.643l-1.677-2.085c0,0,3.399-11.558,3.898-14.277
	s-0.227-13.961-0.227-13.961s-2.826-16.33-1.904-22.345c0.807-5.265,2.72-8.884,4.08-11.876c1.362-0.896,8.693-5.462,11.694-2.266
	c2.628-1.631,14.564-8.792,14.564-8.792l-0.604-1.21l2.509-1.449l-0.514-1.269l7.886-4.805c0.128,0.252,0.726,1.269,0.726,1.269
	s40.796-25.927,42.273-26.319c1.542-0.41,0.521-4.786,1.33-4.593c2.632,0.634,6.527-1.692,10.112-1.173
	c16.148-17.824,41.992-20.1,41.992-20.1s13.798-1.632,25.402,1.088c10.864,2.547,15.048,4.079,26.742,8.521
	c4.424,1.681,16.835,7.344,16.045,5.547c-0.837-1.901,0.14,0.17-0.514-0.893c-3.868-6.286-2.417-15.714,1.934-25.892
	c-4.348-4.014-10.308-6.103-14.476-3.046c-15.067,11.048-39.538,2.311-49.719-1.507c-10.182-3.817-24.609-41.433-24.609-53.736
	s-13.811-24.859-13.499-30.722c0.312-5.863-88.908-49.477-88.908-49.477l89.35,41.027c0,0-8.537-24.108-1.757-36.412
	c-16.322-32.393,2.34-112.645-23.775-132.733c16.322,8.287,23.272,15.467,23.272,15.467s-7.381-15.01-12.153-20.786
	c4.521,3.014,14.162,6.724,14.162,6.724l-0.251-5.524l-43.692-32.141c0,0-101.479-17.646-113.083,38.919
	c-1.451-58.016,104.294-53.483,104.294-53.483l-50.975-46.957l60.517,49.217c0,0,35.812,26.985,43.428,32.74
	c5.282,3.99,9.378,8.705,9.854,12.759l28.495,73.441l2.791-0.559l28.101,87.551l7.977,2.658l-1.998,15.145l2.761,20.088
	c0,0-2.134,24.232-0.156,29.128c1.977,4.896,13.141,14.925,13.141,14.925l54.369-23.9c0,0-5.91-15.936-10.839-21.782
	c-5.273-1.26-27.26-3.555-30.258-14.31c-1.223-4.388-8.704-194.702-8.704-194.702l32.63,175.137c0,0-0.799,13.572,6.995,20.391
	C499.75,427.976,501.317,428.646,503.553,428.587z"/>
<g>
	<defs>
		<path id="SVGID_1_" d="M503.553,428.586c2.235-0.058,1.695-1.925,4.104-1.925c2.178,0,2.926,2.047,4.984,2.22
			c2.06-0.173,2.824-2.22,5.002-2.22c2.407,0,1.926,1.869,4.159,1.925c2.236,0.06,2.451-0.61,6.579-2.044
			c7.795-6.82,6.993-20.392,6.993-20.392l32.628-175.138c0,0-7.48,190.314-8.702,194.702c-2.999,10.755-24.985,13.05-30.259,14.31
			c-4.93,5.847-10.841,21.783-10.841,21.783l54.371,23.9c0,0,11.163-10.029,13.141-14.926c1.977-4.896-0.156-29.129-0.156-29.129
			l2.762-20.088l-1.998-15.145l7.977-2.658l28.101-87.551l2.792,0.559l28.493-73.441c0.476-4.054,4.572-8.768,9.854-12.758
			c7.616-5.756,43.43-32.74,43.43-32.74l60.517-49.217l-50.976,46.956c0,0,105.745-4.532,104.295,53.483
			c-11.604-56.565-113.083-38.919-113.083-38.919l-43.692,32.142l-0.252,5.523c0,0,9.642-3.71,14.162-6.724
			c-4.771,5.776-12.152,20.786-12.152,20.786s6.95-7.181,23.271-15.467c-26.113,20.088-7.451,100.34-23.773,132.732
			c6.779,12.305-1.759,36.412-1.759,36.412l89.35-41.027c0,0-89.219,43.613-88.907,49.477s-13.5,18.418-13.5,30.723
			c0,12.303-14.426,49.918-24.606,53.736c-10.184,3.818-34.652,12.555-49.721,1.507c-4.167-3.057-10.128-0.968-14.476,3.046
			c4.351,10.178,5.802,19.605,1.935,25.891c-0.654,1.063,0.323-1.008-0.515,0.893c-0.79,1.797,11.623-3.865,16.046-5.547
			c11.694-4.441,15.876-5.973,26.741-8.52c11.604-2.721,25.401-1.088,25.401-1.088s25.844,2.275,41.991,20.1
			c3.587-0.52,7.48,1.807,10.114,1.172c0.809-0.193-0.213,4.184,1.328,4.594c1.478,0.393,42.273,26.318,42.273,26.318
			s0.597-1.016,0.726-1.268l7.886,4.805l-0.514,1.268l2.509,1.449l-0.605,1.211c0,0,11.937,7.16,14.565,8.791
			c3-3.195,10.331,1.371,11.694,2.266c1.359,2.992,3.271,6.611,4.078,11.877c0.923,6.014-1.903,22.344-1.903,22.344
			s-0.726,11.242-0.227,13.961c0.499,2.721,3.897,14.277,3.897,14.277l-1.676,2.086l3.717,45.643l0.725-0.047l0.952,6.256
			l-1.315,0.59l0.363,2.311l-1.134,0.498l2.357,22.98c0,0,1.677,0.361,3.006,0.695c-1.206,8.838-4.835,17.404-7.01,23.689
			c3.331,4.891,14.746,12.328,8.22,24.658c8.218,4.592,20.156,12.842,20.063,17.645c-0.484,24.898-80.481,51.988-80.74,52.697
			c-0.068,0.189,81.223-53.182,47.623-65.992c-3.869-1.475-4.58-4.125-11.24-5.076c-10.153-1.451-6.89-20.307-6.89-20.307
			s-4.651,1.086-4.533-9.064l-0.604-30.82l-29.673-27.074l29.469,16.68l-0.369-18.855l-38.77-31.184l38.552,20.064l-0.318-16.199
			l-43.31-29.248l43.271,15.713l-0.785-28.523c0,0-51.489-39.344-84.305-63.455c-32.815-24.113-83.498-10.004-99.854-3.824
			c-16.358,6.182-17.02,22.693-17.02,22.693l61.759-5.453l92.826,169.695l-7.117,128.119l-0.135-116.516l-90.65-147.939
			l-67.872,11.662l-2.139,14.141L554,653.957v18.855l17.912,10.154l-18.06,10.813l18.167,11.426l-18.11,10.879l18.139,10.877
			l-18.125,11.24l18.131,10.516l-18.13,11l18.169,10.756L554,781.594v17.887c0,0-4.861,4.443-14.707,8.115
			c-2.021,0.754,5.466,38.781-14.84,64.889c7.325-27.701,4.494-61.805,2.524-61.439c-4.274,0.789-10.081,1.49-15.394,1.49l0,0
			c-5.313,0-10.398-0.701-14.672-1.49c-1.971-0.365-4.869,33.738,2.457,61.439c-20.306-26.107-13.646-64.135-15.671-64.889
			C473.854,803.924,468,799.48,468,799.48v-17.887l-17.094-11.121l18.828-10.756l-17.963-11l18.211-10.516l-18.093-11.24
			l18.14-10.877l-18.142-10.879l18.09-11.426l-18.892-10.813L468,672.813v-18.855l30.474-17.225l-1.476-14.141l-67.705-11.662
			l-90.564,147.939l-0.094,116.516l-7.096-128.119l92.836-169.695l61.765,5.453c0,0-0.658-16.512-17.016-22.693
			c-16.358-6.18-67.04-20.289-99.854,3.824c-32.816,24.111-84.304,63.455-84.304,63.455l-0.786,28.523l43.271-15.713l-43.31,29.248
			l-0.317,16.199l38.551-20.064l-38.77,31.184l-0.369,18.855l29.469-16.68l-29.674,27.074l-0.604,30.82
			c0.118,10.15-4.532,9.064-4.532,9.064s3.263,18.855-6.89,20.307c-6.66,0.951-7.371,3.602-11.24,5.076
			c-33.602,12.811,47.689,66.182,47.621,65.992c-0.257-0.709-80.256-27.799-80.738-52.697c-0.094-4.803,11.844-13.053,20.063-17.645
			c-6.526-12.33,4.888-19.768,8.218-24.658c-2.176-6.285-5.802-14.852-7.01-23.689c1.33-0.334,3.008-0.695,3.008-0.695l2.355-22.98
			l-1.133-0.498l0.363-2.311l-1.314-0.59l0.951-6.256l0.726,0.047l3.717-45.643l-1.677-2.086c0,0,3.398-11.557,3.897-14.277
			c0.499-2.719-0.227-13.961-0.227-13.961s-2.826-16.33-1.903-22.344c0.807-5.266,2.719-8.885,4.079-11.877
			c1.362-0.895,8.693-5.461,11.694-2.266c2.628-1.631,14.563-8.791,14.563-8.791l-0.604-1.211l2.509-1.449l-0.515-1.268l7.887-4.805
			c0.128,0.252,0.726,1.268,0.726,1.268s40.796-25.926,42.272-26.318c1.542-0.41,0.521-4.787,1.33-4.594
			c2.633,0.635,6.527-1.691,10.112-1.172c16.147-17.824,41.991-20.1,41.991-20.1s13.799-1.633,25.402,1.088
			c10.864,2.547,15.048,4.078,26.742,8.52c4.424,1.682,16.835,7.344,16.045,5.547c-0.838-1.9,0.14,0.17-0.514-0.893
			c-3.868-6.285-2.418-15.713,1.934-25.891c-4.348-4.014-10.309-6.103-14.476-3.046c-15.067,11.048-39.538,2.312-49.72-1.507
			s-24.608-41.434-24.608-53.736c0-12.305-13.811-24.859-13.499-30.723s-88.908-49.477-88.908-49.477l89.35,41.027
			c0,0-8.537-24.107-1.758-36.412c-16.322-32.393,2.341-112.645-23.774-132.732c16.322,8.286,23.272,15.467,23.272,15.467
			s-7.381-15.01-12.152-20.786c4.52,3.014,14.162,6.724,14.162,6.724l-0.252-5.523l-43.692-32.142
			c0,0-101.479-17.646-113.083,38.919c-1.45-58.016,104.295-53.483,104.295-53.483l-50.975-46.956l60.516,49.217
			c0,0,35.813,26.984,43.429,32.74c5.282,3.99,9.378,8.704,9.854,12.758l28.494,73.441l2.791-0.559l28.101,87.551l7.978,2.658
			l-1.998,15.145l2.762,20.088c0,0-2.135,24.232-0.156,29.129c1.977,4.896,13.141,14.926,13.141,14.926l54.369-23.9
			c0,0-5.91-15.937-10.84-21.783c-5.272-1.26-27.26-3.555-30.258-14.31c-1.223-4.388-8.703-194.702-8.703-194.702l32.631,175.138
			c0,0-0.8,13.571,6.994,20.392C499.75,427.976,501.316,428.646,503.553,428.586z"/>
	</defs>
	<clipPath id="SVGID_2_">
		<use xlink:href="#SVGID_1_"  overflow="visible"/>
	</clipPath>
	<path clip-path="url(#SVGID_2_)" fill="url(#New_Pattern_16)" stroke="#000000" stroke-miterlimit="10" d="M31.5,494.073
		C123.5,323.987,303.623,209.5,510.926,209.5h0.125c207.303,0,387.25,114.594,479.875,284.68l-0.358-0.749
		C979.794,237.875,769.432,34,511.225,34C253.117,34,41.5,238.443,31.5,493.86V494.073z"/>
</g>
<g>
	<defs>
		<path id="SVGID_3_" d="M503.553,428.587c2.235-0.058,1.695-1.925,4.104-1.925c2.178,0,2.926,2.048,4.984,2.22
			c2.06-0.172,2.824-2.22,5.002-2.22c2.407,0,1.926,1.869,4.159,1.925c2.236,0.06,2.451-0.611,6.579-2.044
			c7.795-6.819,6.993-20.391,6.993-20.391l32.628-175.137c0,0-7.48,190.313-8.702,194.702c-2.999,10.755-24.985,13.05-30.259,14.31
			c-4.93,5.846-10.841,21.782-10.841,21.782l54.371,23.9c0,0,11.163-10.029,13.141-14.925c1.977-4.896-0.156-29.128-0.156-29.128
			l2.762-20.088l-1.998-15.145l7.977-2.658l28.101-87.551l2.792,0.559l28.493-73.441c0.476-4.054,4.572-8.769,9.854-12.759
			c7.616-5.755,43.43-32.74,43.43-32.74l60.517-49.217l-50.976,46.957c0,0,105.745-4.532,104.295,53.483
			c-11.604-56.565-113.083-38.919-113.083-38.919l-43.692,32.141l-0.252,5.524c0,0,9.642-3.71,14.162-6.724
			c-4.771,5.776-12.152,20.786-12.152,20.786s6.95-7.181,23.271-15.467c-26.113,20.088-7.451,100.341-23.773,132.733
			c6.779,12.304-1.759,36.412-1.759,36.412l89.35-41.027c0,0-89.219,43.613-88.907,49.477c0.312,5.862-13.5,18.418-13.5,30.722
			s-14.426,49.919-24.606,53.736c-10.184,3.818-34.652,12.555-49.721,1.507c-4.167-3.057-10.128-0.968-14.476,3.046
			c4.351,10.178,5.802,19.605,1.935,25.892c-0.654,1.063,0.323-1.009-0.515,0.893c-0.79,1.797,11.623-3.866,16.046-5.547
			c11.694-4.441,15.876-5.974,26.741-8.521c11.604-2.72,25.401-1.088,25.401-1.088s25.844,2.275,41.991,20.1
			c3.587-0.52,7.48,1.807,10.114,1.173c0.809-0.193-0.213,4.183,1.328,4.593c1.478,0.393,42.273,26.319,42.273,26.319
			s0.597-1.017,0.726-1.269l7.886,4.805l-0.514,1.269l2.509,1.449l-0.605,1.21c0,0,11.937,7.161,14.565,8.792
			c3-3.196,10.331,1.37,11.694,2.266c1.359,2.992,3.271,6.611,4.078,11.876c0.923,6.015-1.903,22.345-1.903,22.345
			s-0.726,11.241-0.227,13.961s3.897,14.277,3.897,14.277l-1.676,2.085l3.717,45.643l0.725-0.046l0.952,6.255l-1.315,0.59
			l0.363,2.311l-1.134,0.499l2.357,22.979c0,0,1.677,0.362,3.006,0.695c-1.206,8.839-4.835,17.404-7.01,23.69
			c3.331,4.891,14.746,12.328,8.22,24.657c8.218,4.593,20.156,12.843,20.063,17.645c-0.484,24.899-80.481,51.988-80.74,52.698
			c-0.068,0.189,81.223-53.182,47.623-65.992c-3.869-1.476-4.58-4.126-11.24-5.077c-10.153-1.45-6.89-20.306-6.89-20.306
			s-4.651,1.086-4.533-9.064l-0.604-30.821l-29.673-27.073l29.469,16.679l-0.369-18.855l-38.77-31.183l38.552,20.063l-0.318-16.198
			l-43.31-29.248l43.271,15.713l-0.785-28.524c0,0-51.489-39.343-84.305-63.455c-32.815-24.113-83.498-10.004-99.854-3.823
			c-16.358,6.181-17.02,22.692-17.02,22.692l61.759-5.453l92.826,169.696l-7.117,128.119l-0.135-116.516l-90.65-147.94
			l-67.872,11.663l-2.139,14.141L554,653.958v18.855l17.912,10.153l-18.06,10.813l18.167,11.426l-18.11,10.879l18.139,10.878
			l-18.125,11.24l18.131,10.516l-18.13,10.999l18.169,10.757L554,781.594v17.888c0,0-4.861,4.443-14.707,8.115
			c-2.021,0.754,5.466,38.78-14.84,64.889c7.325-27.701,4.494-61.805,2.524-61.439c-4.274,0.789-10.081,1.489-15.395,1.489l0,0
			c-5.313,0-10.397-0.7-14.671-1.489c-1.971-0.365-4.87,33.738,2.456,61.439c-20.305-26.108-13.646-64.135-15.67-64.889
			c-9.845-3.672-15.698-8.115-15.698-8.115v-17.888l-17.095-11.12l18.829-10.757l-17.963-10.999l18.211-10.516l-18.093-11.24
			l18.14-10.878l-18.142-10.879l18.09-11.426l-18.892-10.813L468,672.813v-18.855l30.474-17.225l-1.476-14.141l-67.705-11.663
			l-90.565,147.94l-0.093,116.516l-7.096-128.119l92.836-169.696l61.765,5.453c0,0-0.658-16.512-17.016-22.692
			c-16.358-6.181-67.04-20.29-99.855,3.823c-32.815,24.112-84.303,63.455-84.303,63.455l-0.786,28.524l43.271-15.713l-43.309,29.248
			l-0.318,16.198l38.551-20.063l-38.769,31.183l-0.37,18.855l29.47-16.679l-29.674,27.073l-0.604,30.821
			c0.118,10.15-4.532,9.064-4.532,9.064s3.263,18.855-6.89,20.306c-6.66,0.951-7.371,3.602-11.241,5.077
			c-33.601,12.811,47.69,66.182,47.622,65.992c-0.257-0.71-80.256-27.799-80.739-52.698c-0.093-4.802,11.845-13.052,20.064-17.645
			c-6.527-12.329,4.888-19.767,8.218-24.657c-2.176-6.286-5.802-14.852-7.01-23.69c1.33-0.333,3.007-0.695,3.007-0.695l2.356-22.979
			l-1.133-0.499l0.362-2.311l-1.314-0.59l0.952-6.255l0.726,0.046l3.717-45.643l-1.678-2.085c0,0,3.399-11.558,3.898-14.277
			c0.498-2.72-0.227-13.961-0.227-13.961s-2.826-16.33-1.904-22.345c0.808-5.265,2.72-8.884,4.08-11.876
			c1.361-0.896,8.693-5.462,11.693-2.266c2.629-1.631,14.564-8.792,14.564-8.792l-0.604-1.21l2.509-1.449l-0.515-1.269l7.887-4.805
			c0.128,0.252,0.726,1.269,0.726,1.269s40.796-25.927,42.272-26.319c1.542-0.41,0.521-4.786,1.33-4.593
			c2.632,0.634,6.526-1.692,10.112-1.173c16.147-17.824,41.991-20.1,41.991-20.1s13.799-1.632,25.402,1.088
			c10.864,2.547,15.048,4.079,26.741,8.521c4.424,1.681,16.836,7.344,16.045,5.547c-0.837-1.901,0.141,0.17-0.514-0.893
			c-3.867-6.286-2.417-15.714,1.935-25.892c-4.348-4.014-10.309-6.103-14.476-3.046c-15.067,11.048-39.538,2.311-49.72-1.507
			c-10.182-3.817-24.608-41.433-24.608-53.736s-13.811-24.859-13.499-30.722c0.312-5.863-88.908-49.477-88.908-49.477l89.35,41.027
			c0,0-8.537-24.108-1.758-36.412c-16.322-32.393,2.341-112.645-23.774-132.733c16.322,8.287,23.272,15.467,23.272,15.467
			s-7.382-15.01-12.153-20.786c4.521,3.014,14.162,6.724,14.162,6.724l-0.251-5.524l-43.692-32.141
			c0,0-101.479-17.646-113.083,38.919c-1.45-58.016,104.294-53.483,104.294-53.483l-50.975-46.957l60.517,49.217
			c0,0,35.813,26.985,43.429,32.74c5.281,3.99,9.378,8.705,9.854,12.759l28.495,73.441l2.791-0.559l28.101,87.551l7.977,2.658
			l-1.997,15.145l2.761,20.088c0,0-2.134,24.232-0.156,29.128s13.142,14.925,13.142,14.925l54.368-23.9
			c0,0-5.91-15.936-10.839-21.782c-5.272-1.26-27.26-3.555-30.258-14.31c-1.223-4.388-8.703-194.702-8.703-194.702l32.63,175.137
			c0,0-0.799,13.572,6.995,20.391C499.75,427.976,501.316,428.646,503.553,428.587z"/>
	</defs>
	<clipPath id="SVGID_4_">
		<use xlink:href="#SVGID_3_"  overflow="visible"/>
	</clipPath>
	
		<circle clip-path="url(#SVGID_4_)" fill="url(#New_Pattern_17)" stroke="url(#New_Pattern_17)" stroke-miterlimit="10" cx="512.025" cy="512.006" r="168.75"/>
</g>
<path fill="#FFFF00" stroke="url(#New_Pattern_15)" stroke-miterlimit="10" d="M516.984,461.808"/>
<path stroke="url(#New_Pattern_15)" stroke-miterlimit="10" d="M375.059,269.362l17.225,49.083l-2.292,0.894l25.484,78.929
	l-20.849-6.834C394.627,391.433,381.76,305.929,375.059,269.362z"/>
<path stroke="url(#New_Pattern_15)" stroke-miterlimit="10" d="M274.148,595.52c0,0-4.224,5.65-2.23,9.729
	c1.994,4.08,5.374,9.428,5.374,9.428l57.374-55.841L294.5,581.74v1.934l-3.349,2.842l-0.462-0.545l-2.227,1.571l-0.6-0.907
	L274.148,595.52z"/>
<polygon stroke="url(#New_Pattern_15)" stroke-miterlimit="10" points="260.914,665.486 269.918,739.5 254.054,739.5 
	254.02,716.098 253.5,715.268 253.5,712.91 256.265,712.858 257.483,706.54 256.671,706.437 "/>
<polygon stroke="url(#New_Pattern_15)" stroke-miterlimit="10" points="260.732,760.464 255.656,745.5 269.918,745.5 
	272.517,756.852 "/>
<polygon stroke="url(#New_Pattern_15)" stroke-miterlimit="10" points="396.828,407.874 426.562,415.851 429.462,466.615 "/>
<path stroke="url(#New_Pattern_15)" stroke-miterlimit="10" d="M381.599,461.539l53.665,47.138c0,0-19.58,3.626-34.084-3.626
	C386.675,497.799,381.599,461.539,381.599,461.539z"/>
<path fill="#FFFF00" stroke="url(#New_Pattern_15)" stroke-miterlimit="10" d="M516.984,461.808"/>
<path fill="url(#New_Pattern_5)" stroke="url(#New_Pattern_15)" stroke-miterlimit="10" d="M375.059,269.362l17.225,49.083
	l-2.292,0.894l25.484,78.929l-20.849-6.834C394.627,391.433,381.76,305.929,375.059,269.362z"/>
<path fill="url(#New_Pattern_5)" stroke="url(#New_Pattern_15)" stroke-miterlimit="10" d="M274.148,595.52
	c0,0-4.224,5.65-2.23,9.729c1.994,4.08,5.374,9.428,5.374,9.428l57.374-55.841L294.5,581.74v1.934l-3.349,2.842l-0.462-0.545
	l-2.227,1.571l-0.6-0.907L274.148,595.52z"/>
<polygon fill="url(#New_Pattern_5)" stroke="url(#New_Pattern_15)" stroke-miterlimit="10" points="260.914,665.486 269.918,739.5 
	254.054,739.5 254.02,716.098 253.5,715.268 253.5,712.91 256.265,712.858 257.483,706.54 256.671,706.437 "/>
<polygon fill="url(#New_Pattern_5)" stroke="url(#New_Pattern_15)" stroke-miterlimit="10" points="260.732,760.464 255.656,745.5 
	269.918,745.5 272.517,756.852 "/>
<polygon fill="url(#New_Pattern_5)" stroke="url(#New_Pattern_15)" stroke-miterlimit="10" points="396.828,407.874 
	426.562,415.851 429.462,466.615 "/>
<path fill="url(#New_Pattern_5)" stroke="url(#New_Pattern_15)" stroke-miterlimit="10" d="M381.599,461.539l53.665,47.138
	c0,0-19.58,3.626-34.084-3.626C386.675,497.799,381.599,461.539,381.599,461.539z"/>
<path fill="#FFFF00" stroke="url(#New_Pattern_15)" stroke-miterlimit="10" d="M507.016,461.808"/>
<path fill="url(#New_Pattern_5)" stroke="url(#New_Pattern_15)" stroke-miterlimit="10" d="M648.94,269.362l-17.225,49.083
	l2.292,0.894l-25.483,78.929l20.849-6.834C629.373,391.433,642.239,305.929,648.94,269.362z"/>
<path fill="url(#New_Pattern_5)" stroke="url(#New_Pattern_15)" stroke-miterlimit="10" d="M749.851,595.52
	c0,0,4.226,5.65,2.231,9.729c-1.994,4.08-5.374,9.428-5.374,9.428l-57.873-55.841L728.5,581.74v1.934l3.848,2.842l0.715-0.545
	l2.352,1.571l0.661-0.907L749.851,595.52z"/>
<polygon fill="url(#New_Pattern_5)" stroke="url(#New_Pattern_15)" stroke-miterlimit="10" points="763.087,665.486 754.082,739.5 
	769.945,739.5 769.48,716.098 769.5,715.268 769.5,712.91 767.235,712.858 766.268,706.54 767.204,706.437 "/>
<polygon fill="url(#New_Pattern_5)" stroke="url(#New_Pattern_15)" stroke-miterlimit="10" points="763.268,760.464 768.344,745.5 
	754.082,745.5 751.482,756.852 "/>
<polygon fill="url(#New_Pattern_5)" stroke="url(#New_Pattern_15)" stroke-miterlimit="10" points="627.172,407.874 
	597.438,415.851 594.538,466.615 "/>
<path fill="url(#New_Pattern_5)" stroke="url(#New_Pattern_15)" stroke-miterlimit="10" d="M642.401,461.539l-53.665,47.138
	c0,0,19.58,3.626,34.085-3.626C637.325,497.799,642.401,461.539,642.401,461.539z"/>
<polygon fill="url(#New_Pattern_5)" stroke="url(#New_Pattern_5)" stroke-miterlimit="10" points="490.184,549.5 468.368,512 
	490.184,474.5 533.816,474.5 555.633,512 533.816,549.5 "/>
<polygon fill="url(#New_Pattern_17)" stroke="url(#New_Pattern_17)" stroke-width="8" stroke-miterlimit="10" points="501.31,533 
	490.62,515 501.31,497 522.688,497 533.38,515 522.688,533 "/>
<polygon fill="url(#New_Pattern_5)" points="536.753,771.22 485.263,771.179 485.341,671.826 536.831,671.867 "/>
<g>
	
		<rect x="470.5" y="681.5" fill="url(#New_Pattern_5)" stroke="url(#New_Pattern_5)" stroke-width="5" stroke-miterlimit="10" width="84" height="2"/>
	
		<rect x="470.5" y="705.5" fill="url(#New_Pattern_5)" stroke="url(#New_Pattern_5)" stroke-width="5" stroke-miterlimit="10" width="83" height="2"/>
	
		<rect x="469.5" y="728.5" fill="url(#New_Pattern_5)" stroke="url(#New_Pattern_5)" stroke-width="5" stroke-miterlimit="10" width="84" height="2"/>
	
		<rect x="469.5" y="750.5" fill="url(#New_Pattern_5)" stroke="url(#New_Pattern_5)" stroke-width="5" stroke-miterlimit="10" width="84" height="2"/>
	
		<rect x="468.5" y="773.5" fill="url(#New_Pattern_5)" stroke="url(#New_Pattern_5)" stroke-width="5" stroke-miterlimit="10" width="84" height="2"/>
</g>
</svg>
