<?xml version="1.0" encoding="utf-8"?>
<!-- Generator: Adobe Illustrator 16.0.0, SVG Export Plug-In . SVG Version: 6.00 Build 0)  -->
<!DOCTYPE svg PUBLIC "-//W3C//DTD SVG 1.1//EN" "http://www.w3.org/Graphics/SVG/1.1/DTD/svg11.dtd">
<svg version="1.1" id="Layer_1" xmlns="http://www.w3.org/2000/svg" xmlns:xlink="http://www.w3.org/1999/xlink" x="0px" y="0px"
	 width="1024px" height="1024px" viewBox="0 0 1024 1024" enable-background="new 0 0 1024 1024" xml:space="preserve">
<pattern  width="110.551" height="65" patternUnits="userSpaceOnUse" id="New_Pattern_12" viewBox="38.611 -99.5 110.551 65" overflow="visible">
	<g>
		<polygon fill="none" points="38.611,-99.5 149.162,-99.5 149.162,-34.5 38.611,-34.5 		"/>
		<g>
			
				<polygon fill="#1A1A1A" stroke="#000000" stroke-width="4" stroke-linecap="round" stroke-linejoin="round" stroke-miterlimit="10" points="
				130.879,-66.251 112.551,-34.5 112.551,-34.5 149.173,-34.5 149.173,-34.5 130.879,-66.251 			"/>
			
				<polygon fill="#1A1A1A" stroke="#000000" stroke-width="4" stroke-linecap="round" stroke-linejoin="round" stroke-miterlimit="10" points="
				167.479,-66.251 149.151,-34.5 149.151,-34.5 185.773,-34.5 185.773,-34.5 167.479,-66.251 			"/>
			
				<polygon fill="#1A1A1A" stroke="#000000" stroke-width="4" stroke-linecap="round" stroke-linejoin="round" stroke-miterlimit="10" points="
				149.179,-34.251 130.851,-2.5 130.851,-2.5 167.474,-2.5 167.474,-2.5 149.179,-34.251 			"/>
			
				<polygon fill="#1A1A1A" stroke="#000000" stroke-width="4" stroke-linecap="round" stroke-linejoin="round" stroke-miterlimit="10" points="
				167.445,-2.748 185.773,-34.5 185.773,-34.5 149.151,-34.5 149.151,-34.5 167.445,-2.748 			"/>
			
				<polygon fill="#1A1A1A" stroke="#000000" stroke-width="4" stroke-linecap="round" stroke-linejoin="round" stroke-miterlimit="10" points="
				130.845,-2.748 149.173,-34.5 149.173,-34.5 112.551,-34.5 112.551,-34.5 130.845,-2.748 			"/>
			
				<polygon fill="#1A1A1A" stroke="#000000" stroke-width="4" stroke-linecap="round" stroke-linejoin="round" stroke-miterlimit="10" points="
				149.145,-34.749 167.474,-66.5 167.474,-66.5 130.851,-66.5 130.851,-66.5 149.145,-34.749 			"/>
		</g>
		<g>
			
				<polygon fill="#1A1A1A" stroke="#000000" stroke-width="4" stroke-linecap="round" stroke-linejoin="round" stroke-miterlimit="10" points="
				75.604,-33.751 57.275,-2 57.275,-2 93.898,-2 93.898,-2 75.604,-33.751 			"/>
			
				<polygon fill="#1A1A1A" stroke="#000000" stroke-width="4" stroke-linecap="round" stroke-linejoin="round" stroke-miterlimit="10" points="
				112.204,-33.751 93.875,-2 93.875,-2 130.498,-2 130.498,-2 112.204,-33.751 			"/>
			
				<polygon fill="#1A1A1A" stroke="#000000" stroke-width="4" stroke-linecap="round" stroke-linejoin="round" stroke-miterlimit="10" points="
				93.87,-2.249 112.198,-34 112.198,-34 75.575,-34 75.575,-34 93.87,-2.249 			"/>
		</g>
		<g>
			
				<polygon fill="#1A1A1A" stroke="#000000" stroke-width="4" stroke-linecap="round" stroke-linejoin="round" stroke-miterlimit="10" points="
				20.329,-66.251 2,-34.5 2,-34.5 38.623,-34.5 38.623,-34.5 20.329,-66.251 			"/>
			
				<polygon fill="#1A1A1A" stroke="#000000" stroke-width="4" stroke-linecap="round" stroke-linejoin="round" stroke-miterlimit="10" points="
				56.929,-66.251 38.6,-34.5 38.6,-34.5 75.223,-34.5 75.223,-34.5 56.929,-66.251 			"/>
			
				<polygon fill="#1A1A1A" stroke="#000000" stroke-width="4" stroke-linecap="round" stroke-linejoin="round" stroke-miterlimit="10" points="
				38.628,-34.251 20.3,-2.5 20.3,-2.5 56.923,-2.5 56.923,-2.5 38.628,-34.251 			"/>
			
				<polygon fill="#1A1A1A" stroke="#000000" stroke-width="4" stroke-linecap="round" stroke-linejoin="round" stroke-miterlimit="10" points="
				56.894,-2.748 75.223,-34.5 75.223,-34.5 38.6,-34.5 38.6,-34.5 56.894,-2.748 			"/>
			
				<polygon fill="#1A1A1A" stroke="#000000" stroke-width="4" stroke-linecap="round" stroke-linejoin="round" stroke-miterlimit="10" points="
				20.294,-2.748 38.623,-34.5 38.623,-34.5 2,-34.5 2,-34.5 20.294,-2.748 			"/>
			
				<polygon fill="#1A1A1A" stroke="#000000" stroke-width="4" stroke-linecap="round" stroke-linejoin="round" stroke-miterlimit="10" points="
				38.594,-34.749 56.923,-66.5 56.923,-66.5 20.3,-66.5 20.3,-66.5 38.594,-34.749 			"/>
		</g>
		<g>
			
				<polygon fill="#1A1A1A" stroke="#000000" stroke-width="4" stroke-linecap="round" stroke-linejoin="round" stroke-miterlimit="10" points="
				130.879,-131.251 112.551,-99.5 112.551,-99.5 149.173,-99.5 149.173,-99.5 130.879,-131.251 			"/>
			
				<polygon fill="#1A1A1A" stroke="#000000" stroke-width="4" stroke-linecap="round" stroke-linejoin="round" stroke-miterlimit="10" points="
				167.479,-131.251 149.151,-99.5 149.151,-99.5 185.773,-99.5 185.773,-99.5 167.479,-131.251 			"/>
			
				<polygon fill="#1A1A1A" stroke="#000000" stroke-width="4" stroke-linecap="round" stroke-linejoin="round" stroke-miterlimit="10" points="
				149.179,-99.251 130.851,-67.5 130.851,-67.5 167.474,-67.5 167.474,-67.5 149.179,-99.251 			"/>
			
				<polygon fill="#1A1A1A" stroke="#000000" stroke-width="4" stroke-linecap="round" stroke-linejoin="round" stroke-miterlimit="10" points="
				167.445,-67.748 185.773,-99.5 185.773,-99.5 149.151,-99.5 149.151,-99.5 167.445,-67.748 			"/>
			
				<polygon fill="#1A1A1A" stroke="#000000" stroke-width="4" stroke-linecap="round" stroke-linejoin="round" stroke-miterlimit="10" points="
				130.845,-67.748 149.173,-99.5 149.173,-99.5 112.551,-99.5 112.551,-99.5 130.845,-67.748 			"/>
			
				<polygon fill="#1A1A1A" stroke="#000000" stroke-width="4" stroke-linecap="round" stroke-linejoin="round" stroke-miterlimit="10" points="
				149.145,-99.749 167.474,-131.5 167.474,-131.5 130.851,-131.5 130.851,-131.5 149.145,-99.749 			"/>
		</g>
		<g>
			
				<polygon fill="#1A1A1A" stroke="#000000" stroke-width="4" stroke-linecap="round" stroke-linejoin="round" stroke-miterlimit="10" points="
				75.604,-98.751 57.275,-67 57.275,-67 93.898,-67 93.898,-67 75.604,-98.751 			"/>
			
				<polygon fill="#1A1A1A" stroke="#000000" stroke-width="4" stroke-linecap="round" stroke-linejoin="round" stroke-miterlimit="10" points="
				112.204,-98.751 93.875,-67 93.875,-67 130.498,-67 130.498,-67 112.204,-98.751 			"/>
			
				<polygon fill="#1A1A1A" stroke="#000000" stroke-width="4" stroke-linecap="round" stroke-linejoin="round" stroke-miterlimit="10" points="
				93.904,-66.751 75.575,-35 75.575,-35 112.198,-35 112.198,-35 93.904,-66.751 			"/>
			
				<polygon fill="#1A1A1A" stroke="#000000" stroke-width="4" stroke-linecap="round" stroke-linejoin="round" stroke-miterlimit="10" points="
				112.169,-35.248 130.498,-67 130.498,-67 93.875,-67 93.875,-67 112.169,-35.248 			"/>
			
				<polygon fill="#1A1A1A" stroke="#000000" stroke-width="4" stroke-linecap="round" stroke-linejoin="round" stroke-miterlimit="10" points="
				75.569,-35.248 93.898,-67 93.898,-67 57.275,-67 57.275,-67 75.569,-35.248 			"/>
			
				<polygon fill="#1A1A1A" stroke="#000000" stroke-width="4" stroke-linecap="round" stroke-linejoin="round" stroke-miterlimit="10" points="
				93.87,-67.249 112.198,-99 112.198,-99 75.575,-99 75.575,-99 93.87,-67.249 			"/>
		</g>
		<g>
			
				<polygon fill="#1A1A1A" stroke="#000000" stroke-width="4" stroke-linecap="round" stroke-linejoin="round" stroke-miterlimit="10" points="
				20.329,-131.251 2,-99.5 2,-99.5 38.623,-99.5 38.623,-99.5 20.329,-131.251 			"/>
			
				<polygon fill="#1A1A1A" stroke="#000000" stroke-width="4" stroke-linecap="round" stroke-linejoin="round" stroke-miterlimit="10" points="
				56.929,-131.251 38.6,-99.5 38.6,-99.5 75.223,-99.5 75.223,-99.5 56.929,-131.251 			"/>
			
				<polygon fill="#1A1A1A" stroke="#000000" stroke-width="4" stroke-linecap="round" stroke-linejoin="round" stroke-miterlimit="10" points="
				38.628,-99.251 20.3,-67.5 20.3,-67.5 56.923,-67.5 56.923,-67.5 38.628,-99.251 			"/>
			
				<polygon fill="#1A1A1A" stroke="#000000" stroke-width="4" stroke-linecap="round" stroke-linejoin="round" stroke-miterlimit="10" points="
				56.894,-67.748 75.223,-99.5 75.223,-99.5 38.6,-99.5 38.6,-99.5 56.894,-67.748 			"/>
			
				<polygon fill="#1A1A1A" stroke="#000000" stroke-width="4" stroke-linecap="round" stroke-linejoin="round" stroke-miterlimit="10" points="
				20.294,-67.748 38.623,-99.5 38.623,-99.5 2,-99.5 2,-99.5 20.294,-67.748 			"/>
			
				<polygon fill="#1A1A1A" stroke="#000000" stroke-width="4" stroke-linecap="round" stroke-linejoin="round" stroke-miterlimit="10" points="
				38.594,-99.749 56.923,-131.5 56.923,-131.5 20.3,-131.5 20.3,-131.5 38.594,-99.749 			"/>
		</g>
		<g>
			
				<polygon fill="#1A1A1A" stroke="#000000" stroke-width="4" stroke-linecap="round" stroke-linejoin="round" stroke-miterlimit="10" points="
				93.904,-131.751 75.575,-100 75.575,-100 112.198,-100 112.198,-100 93.904,-131.751 			"/>
			
				<polygon fill="#1A1A1A" stroke="#000000" stroke-width="4" stroke-linecap="round" stroke-linejoin="round" stroke-miterlimit="10" points="
				112.169,-100.248 130.498,-132 130.498,-132 93.875,-132 93.875,-132 112.169,-100.248 			"/>
			
				<polygon fill="#1A1A1A" stroke="#000000" stroke-width="4" stroke-linecap="round" stroke-linejoin="round" stroke-miterlimit="10" points="
				75.569,-100.248 93.898,-132 93.898,-132 57.275,-132 57.275,-132 75.569,-100.248 			"/>
		</g>
	</g>
</pattern>
<pattern  width="110.551" height="65" patternUnits="userSpaceOnUse" id="New_Pattern_15" viewBox="38.611 -99.5 110.551 65" overflow="visible">
	<g>
		<polygon fill="none" points="38.611,-99.5 149.162,-99.5 149.162,-34.5 38.611,-34.5 		"/>
		<g>
			<polygon fill="#FFFFBE" stroke="#FFFF00" stroke-width="4" stroke-linejoin="round" stroke-miterlimit="10" points="
				130.879,-66.251 112.551,-34.5 112.551,-34.5 149.174,-34.5 149.174,-34.5 130.879,-66.251 			"/>
			<polygon fill="#FFFFBE" stroke="#FFFF00" stroke-width="4" stroke-linejoin="round" stroke-miterlimit="10" points="
				167.479,-66.251 149.15,-34.5 149.15,-34.5 185.773,-34.5 185.773,-34.5 167.479,-66.251 			"/>
			<polygon fill="#FFFFBE" stroke="#FFFF00" stroke-width="4" stroke-linejoin="round" stroke-miterlimit="10" points="
				149.18,-34.251 130.851,-2.5 130.851,-2.5 167.474,-2.5 167.474,-2.5 149.18,-34.251 			"/>
			<polygon fill="#FFFFBE" stroke="#FFFF00" stroke-width="4" stroke-linejoin="round" stroke-miterlimit="10" points="
				167.445,-2.748 185.773,-34.5 185.773,-34.5 149.15,-34.5 149.15,-34.5 167.445,-2.748 			"/>
			<polygon fill="#FFFFBE" stroke="#FFFF00" stroke-width="4" stroke-linejoin="round" stroke-miterlimit="10" points="
				130.845,-2.748 149.174,-34.5 149.174,-34.5 112.551,-34.5 112.551,-34.5 130.845,-2.748 			"/>
			<polygon fill="#FFFFBE" stroke="#FFFF00" stroke-width="4" stroke-linejoin="round" stroke-miterlimit="10" points="
				149.145,-34.749 167.474,-66.5 167.474,-66.5 130.851,-66.5 130.851,-66.5 149.145,-34.749 			"/>
		</g>
		<g>
			<polygon fill="#FFFFBE" stroke="#FFFF00" stroke-width="4" stroke-linejoin="round" stroke-miterlimit="10" points="
				75.604,-33.751 57.275,-2 57.275,-2 93.898,-2 93.898,-2 75.604,-33.751 			"/>
			<polygon fill="#FFFFBE" stroke="#FFFF00" stroke-width="4" stroke-linejoin="round" stroke-miterlimit="10" points="
				112.204,-33.751 93.875,-2 93.875,-2 130.498,-2 130.498,-2 112.204,-33.751 			"/>
			<polygon fill="#FFFFBE" stroke="#FFFF00" stroke-width="4" stroke-linejoin="round" stroke-miterlimit="10" points="
				93.869,-2.249 112.198,-34 112.198,-34 75.575,-34 75.575,-34 93.869,-2.249 			"/>
		</g>
		<g>
			<polygon fill="#FFFFBE" stroke="#FFFF00" stroke-width="4" stroke-linejoin="round" stroke-miterlimit="10" points="
				20.328,-66.251 2,-34.5 2,-34.5 38.623,-34.5 38.623,-34.5 20.328,-66.251 			"/>
			<polygon fill="#FFFFBE" stroke="#FFFF00" stroke-width="4" stroke-linejoin="round" stroke-miterlimit="10" points="
				56.929,-66.251 38.6,-34.5 38.6,-34.5 75.223,-34.5 75.223,-34.5 56.929,-66.251 			"/>
			<polygon fill="#FFFFBE" stroke="#FFFF00" stroke-width="4" stroke-linejoin="round" stroke-miterlimit="10" points="
				38.629,-34.251 20.3,-2.5 20.3,-2.5 56.923,-2.5 56.923,-2.5 38.629,-34.251 			"/>
			<polygon fill="#FFFFBE" stroke="#FFFF00" stroke-width="4" stroke-linejoin="round" stroke-miterlimit="10" points="
				56.895,-2.748 75.223,-34.5 75.223,-34.5 38.6,-34.5 38.6,-34.5 56.895,-2.748 			"/>
			<polygon fill="#FFFFBE" stroke="#FFFF00" stroke-width="4" stroke-linejoin="round" stroke-miterlimit="10" points="
				20.294,-2.748 38.623,-34.5 38.623,-34.5 2,-34.5 2,-34.5 20.294,-2.748 			"/>
			<polygon fill="#FFFFBE" stroke="#FFFF00" stroke-width="4" stroke-linejoin="round" stroke-miterlimit="10" points="
				38.594,-34.749 56.923,-66.5 56.923,-66.5 20.3,-66.5 20.3,-66.5 38.594,-34.749 			"/>
		</g>
		<g>
			<polygon fill="#FFFFBE" stroke="#FFFF00" stroke-width="4" stroke-linejoin="round" stroke-miterlimit="10" points="
				130.879,-131.251 112.551,-99.5 112.551,-99.5 149.174,-99.5 149.174,-99.5 130.879,-131.251 			"/>
			<polygon fill="#FFFFBE" stroke="#FFFF00" stroke-width="4" stroke-linejoin="round" stroke-miterlimit="10" points="
				167.479,-131.251 149.15,-99.5 149.15,-99.5 185.773,-99.5 185.773,-99.5 167.479,-131.251 			"/>
			<polygon fill="#FFFFBE" stroke="#FFFF00" stroke-width="4" stroke-linejoin="round" stroke-miterlimit="10" points="
				149.18,-99.251 130.851,-67.5 130.851,-67.5 167.474,-67.5 167.474,-67.5 149.18,-99.251 			"/>
			<polygon fill="#FFFFBE" stroke="#FFFF00" stroke-width="4" stroke-linejoin="round" stroke-miterlimit="10" points="
				167.445,-67.748 185.773,-99.5 185.773,-99.5 149.15,-99.5 149.15,-99.5 167.445,-67.748 			"/>
			<polygon fill="#FFFFBE" stroke="#FFFF00" stroke-width="4" stroke-linejoin="round" stroke-miterlimit="10" points="
				130.845,-67.748 149.174,-99.5 149.174,-99.5 112.551,-99.5 112.551,-99.5 130.845,-67.748 			"/>
			<polygon fill="#FFFFBE" stroke="#FFFF00" stroke-width="4" stroke-linejoin="round" stroke-miterlimit="10" points="
				149.145,-99.749 167.474,-131.5 167.474,-131.5 130.851,-131.5 130.851,-131.5 149.145,-99.749 			"/>
		</g>
		<g>
			<polygon fill="#FFFFBE" stroke="#FFFF00" stroke-width="4" stroke-linejoin="round" stroke-miterlimit="10" points="
				75.604,-98.751 57.275,-67 57.275,-67 93.898,-67 93.898,-67 75.604,-98.751 			"/>
			<polygon fill="#FFFFBE" stroke="#FFFF00" stroke-width="4" stroke-linejoin="round" stroke-miterlimit="10" points="
				112.204,-98.751 93.875,-67 93.875,-67 130.498,-67 130.498,-67 112.204,-98.751 			"/>
			<polygon fill="#FFFFBE" stroke="#FFFF00" stroke-width="4" stroke-linejoin="round" stroke-miterlimit="10" points="
				93.904,-66.751 75.575,-35 75.575,-35 112.198,-35 112.198,-35 93.904,-66.751 			"/>
			<polygon fill="#FFFFBE" stroke="#FFFF00" stroke-width="4" stroke-linejoin="round" stroke-miterlimit="10" points="
				112.17,-35.248 130.498,-67 130.498,-67 93.875,-67 93.875,-67 112.17,-35.248 			"/>
			<polygon fill="#FFFFBE" stroke="#FFFF00" stroke-width="4" stroke-linejoin="round" stroke-miterlimit="10" points="
				75.569,-35.248 93.898,-67 93.898,-67 57.275,-67 57.275,-67 75.569,-35.248 			"/>
			<polygon fill="#FFFFBE" stroke="#FFFF00" stroke-width="4" stroke-linejoin="round" stroke-miterlimit="10" points="
				93.869,-67.249 112.198,-99 112.198,-99 75.575,-99 75.575,-99 93.869,-67.249 			"/>
		</g>
		<g>
			<polygon fill="#FFFFBE" stroke="#FFFF00" stroke-width="4" stroke-linejoin="round" stroke-miterlimit="10" points="
				20.328,-131.251 2,-99.5 2,-99.5 38.623,-99.5 38.623,-99.5 20.328,-131.251 			"/>
			<polygon fill="#FFFFBE" stroke="#FFFF00" stroke-width="4" stroke-linejoin="round" stroke-miterlimit="10" points="
				56.929,-131.251 38.6,-99.5 38.6,-99.5 75.223,-99.5 75.223,-99.5 56.929,-131.251 			"/>
			<polygon fill="#FFFFBE" stroke="#FFFF00" stroke-width="4" stroke-linejoin="round" stroke-miterlimit="10" points="
				38.629,-99.251 20.3,-67.5 20.3,-67.5 56.923,-67.5 56.923,-67.5 38.629,-99.251 			"/>
			<polygon fill="#FFFFBE" stroke="#FFFF00" stroke-width="4" stroke-linejoin="round" stroke-miterlimit="10" points="
				56.895,-67.748 75.223,-99.5 75.223,-99.5 38.6,-99.5 38.6,-99.5 56.895,-67.748 			"/>
			<polygon fill="#FFFFBE" stroke="#FFFF00" stroke-width="4" stroke-linejoin="round" stroke-miterlimit="10" points="
				20.294,-67.748 38.623,-99.5 38.623,-99.5 2,-99.5 2,-99.5 20.294,-67.748 			"/>
			<polygon fill="#FFFFBE" stroke="#FFFF00" stroke-width="4" stroke-linejoin="round" stroke-miterlimit="10" points="
				38.594,-99.749 56.923,-131.5 56.923,-131.5 20.3,-131.5 20.3,-131.5 38.594,-99.749 			"/>
		</g>
		<g>
			<polygon fill="#FFFFBE" stroke="#FFFF00" stroke-width="4" stroke-linejoin="round" stroke-miterlimit="10" points="
				93.904,-131.751 75.575,-100 75.575,-100 112.198,-100 112.198,-100 93.904,-131.751 			"/>
			<polygon fill="#FFFFBE" stroke="#FFFF00" stroke-width="4" stroke-linejoin="round" stroke-miterlimit="10" points="
				112.17,-100.248 130.498,-132 130.498,-132 93.875,-132 93.875,-132 112.17,-100.248 			"/>
			<polygon fill="#FFFFBE" stroke="#FFFF00" stroke-width="4" stroke-linejoin="round" stroke-miterlimit="10" points="
				75.569,-100.248 93.898,-132 93.898,-132 57.275,-132 57.275,-132 75.569,-100.248 			"/>
		</g>
	</g>
</pattern>
<pattern  width="110.551" height="65" patternUnits="userSpaceOnUse" id="New_Pattern_5" viewBox="38.611 -99.5 110.551 65" overflow="visible">
	<g>
		<polygon fill="none" points="38.611,-99.5 149.162,-99.5 149.162,-34.5 38.611,-34.5 		"/>
		<g>
			
				<polygon fill="#6F706F" stroke="#000000" stroke-width="4" stroke-linecap="round" stroke-linejoin="round" stroke-miterlimit="10" points="
				130.879,-66.251 112.551,-34.5 112.551,-34.5 149.173,-34.5 149.173,-34.5 130.879,-66.251 			"/>
			
				<polygon fill="#6F706F" stroke="#000000" stroke-width="4" stroke-linecap="round" stroke-linejoin="round" stroke-miterlimit="10" points="
				167.479,-66.251 149.151,-34.5 149.151,-34.5 185.773,-34.5 185.773,-34.5 167.479,-66.251 			"/>
			
				<polygon fill="#6F706F" stroke="#000000" stroke-width="4" stroke-linecap="round" stroke-linejoin="round" stroke-miterlimit="10" points="
				149.179,-34.251 130.851,-2.5 130.851,-2.5 167.474,-2.5 167.474,-2.5 149.179,-34.251 			"/>
			
				<polygon fill="#6F706F" stroke="#000000" stroke-width="4" stroke-linecap="round" stroke-linejoin="round" stroke-miterlimit="10" points="
				167.445,-2.748 185.773,-34.5 185.773,-34.5 149.151,-34.5 149.151,-34.5 167.445,-2.748 			"/>
			
				<polygon fill="#6F706F" stroke="#000000" stroke-width="4" stroke-linecap="round" stroke-linejoin="round" stroke-miterlimit="10" points="
				130.845,-2.748 149.173,-34.5 149.173,-34.5 112.551,-34.5 112.551,-34.5 130.845,-2.748 			"/>
			
				<polygon fill="#6F706F" stroke="#000000" stroke-width="4" stroke-linecap="round" stroke-linejoin="round" stroke-miterlimit="10" points="
				149.145,-34.749 167.474,-66.5 167.474,-66.5 130.851,-66.5 130.851,-66.5 149.145,-34.749 			"/>
		</g>
		<g>
			
				<polygon fill="#6F706F" stroke="#000000" stroke-width="4" stroke-linecap="round" stroke-linejoin="round" stroke-miterlimit="10" points="
				75.604,-33.751 57.275,-2 57.275,-2 93.898,-2 93.898,-2 75.604,-33.751 			"/>
			
				<polygon fill="#6F706F" stroke="#000000" stroke-width="4" stroke-linecap="round" stroke-linejoin="round" stroke-miterlimit="10" points="
				112.204,-33.751 93.875,-2 93.875,-2 130.498,-2 130.498,-2 112.204,-33.751 			"/>
			
				<polygon fill="#6F706F" stroke="#000000" stroke-width="4" stroke-linecap="round" stroke-linejoin="round" stroke-miterlimit="10" points="
				93.87,-2.249 112.198,-34 112.198,-34 75.575,-34 75.575,-34 93.87,-2.249 			"/>
		</g>
		<g>
			
				<polygon fill="#6F706F" stroke="#000000" stroke-width="4" stroke-linecap="round" stroke-linejoin="round" stroke-miterlimit="10" points="
				20.329,-66.251 2,-34.5 2,-34.5 38.623,-34.5 38.623,-34.5 20.329,-66.251 			"/>
			
				<polygon fill="#6F706F" stroke="#000000" stroke-width="4" stroke-linecap="round" stroke-linejoin="round" stroke-miterlimit="10" points="
				56.929,-66.251 38.6,-34.5 38.6,-34.5 75.223,-34.5 75.223,-34.5 56.929,-66.251 			"/>
			
				<polygon fill="#6F706F" stroke="#000000" stroke-width="4" stroke-linecap="round" stroke-linejoin="round" stroke-miterlimit="10" points="
				38.628,-34.251 20.3,-2.5 20.3,-2.5 56.923,-2.5 56.923,-2.5 38.628,-34.251 			"/>
			
				<polygon fill="#6F706F" stroke="#000000" stroke-width="4" stroke-linecap="round" stroke-linejoin="round" stroke-miterlimit="10" points="
				56.894,-2.748 75.223,-34.5 75.223,-34.5 38.6,-34.5 38.6,-34.5 56.894,-2.748 			"/>
			
				<polygon fill="#6F706F" stroke="#000000" stroke-width="4" stroke-linecap="round" stroke-linejoin="round" stroke-miterlimit="10" points="
				20.294,-2.748 38.623,-34.5 38.623,-34.5 2,-34.5 2,-34.5 20.294,-2.748 			"/>
			
				<polygon fill="#6F706F" stroke="#000000" stroke-width="4" stroke-linecap="round" stroke-linejoin="round" stroke-miterlimit="10" points="
				38.594,-34.749 56.923,-66.5 56.923,-66.5 20.3,-66.5 20.3,-66.5 38.594,-34.749 			"/>
		</g>
		<g>
			
				<polygon fill="#6F706F" stroke="#000000" stroke-width="4" stroke-linecap="round" stroke-linejoin="round" stroke-miterlimit="10" points="
				130.879,-131.251 112.551,-99.5 112.551,-99.5 149.173,-99.5 149.173,-99.5 130.879,-131.251 			"/>
			
				<polygon fill="#6F706F" stroke="#000000" stroke-width="4" stroke-linecap="round" stroke-linejoin="round" stroke-miterlimit="10" points="
				167.479,-131.251 149.151,-99.5 149.151,-99.5 185.773,-99.5 185.773,-99.5 167.479,-131.251 			"/>
			
				<polygon fill="#6F706F" stroke="#000000" stroke-width="4" stroke-linecap="round" stroke-linejoin="round" stroke-miterlimit="10" points="
				149.179,-99.251 130.851,-67.5 130.851,-67.5 167.474,-67.5 167.474,-67.5 149.179,-99.251 			"/>
			
				<polygon fill="#6F706F" stroke="#000000" stroke-width="4" stroke-linecap="round" stroke-linejoin="round" stroke-miterlimit="10" points="
				167.445,-67.748 185.773,-99.5 185.773,-99.5 149.151,-99.5 149.151,-99.5 167.445,-67.748 			"/>
			
				<polygon fill="#6F706F" stroke="#000000" stroke-width="4" stroke-linecap="round" stroke-linejoin="round" stroke-miterlimit="10" points="
				130.845,-67.748 149.173,-99.5 149.173,-99.5 112.551,-99.5 112.551,-99.5 130.845,-67.748 			"/>
			
				<polygon fill="#6F706F" stroke="#000000" stroke-width="4" stroke-linecap="round" stroke-linejoin="round" stroke-miterlimit="10" points="
				149.145,-99.749 167.474,-131.5 167.474,-131.5 130.851,-131.5 130.851,-131.5 149.145,-99.749 			"/>
		</g>
		<g>
			
				<polygon fill="#6F706F" stroke="#000000" stroke-width="4" stroke-linecap="round" stroke-linejoin="round" stroke-miterlimit="10" points="
				75.604,-98.751 57.275,-67 57.275,-67 93.898,-67 93.898,-67 75.604,-98.751 			"/>
			
				<polygon fill="#6F706F" stroke="#000000" stroke-width="4" stroke-linecap="round" stroke-linejoin="round" stroke-miterlimit="10" points="
				112.204,-98.751 93.875,-67 93.875,-67 130.498,-67 130.498,-67 112.204,-98.751 			"/>
			
				<polygon fill="#6F706F" stroke="#000000" stroke-width="4" stroke-linecap="round" stroke-linejoin="round" stroke-miterlimit="10" points="
				93.904,-66.751 75.575,-35 75.575,-35 112.198,-35 112.198,-35 93.904,-66.751 			"/>
			
				<polygon fill="#6F706F" stroke="#000000" stroke-width="4" stroke-linecap="round" stroke-linejoin="round" stroke-miterlimit="10" points="
				112.169,-35.248 130.498,-67 130.498,-67 93.875,-67 93.875,-67 112.169,-35.248 			"/>
			
				<polygon fill="#6F706F" stroke="#000000" stroke-width="4" stroke-linecap="round" stroke-linejoin="round" stroke-miterlimit="10" points="
				75.569,-35.248 93.898,-67 93.898,-67 57.275,-67 57.275,-67 75.569,-35.248 			"/>
			
				<polygon fill="#6F706F" stroke="#000000" stroke-width="4" stroke-linecap="round" stroke-linejoin="round" stroke-miterlimit="10" points="
				93.87,-67.249 112.198,-99 112.198,-99 75.575,-99 75.575,-99 93.87,-67.249 			"/>
		</g>
		<g>
			
				<polygon fill="#6F706F" stroke="#000000" stroke-width="4" stroke-linecap="round" stroke-linejoin="round" stroke-miterlimit="10" points="
				20.329,-131.251 2,-99.5 2,-99.5 38.623,-99.5 38.623,-99.5 20.329,-131.251 			"/>
			
				<polygon fill="#6F706F" stroke="#000000" stroke-width="4" stroke-linecap="round" stroke-linejoin="round" stroke-miterlimit="10" points="
				56.929,-131.251 38.6,-99.5 38.6,-99.5 75.223,-99.5 75.223,-99.5 56.929,-131.251 			"/>
			
				<polygon fill="#6F706F" stroke="#000000" stroke-width="4" stroke-linecap="round" stroke-linejoin="round" stroke-miterlimit="10" points="
				38.628,-99.251 20.3,-67.5 20.3,-67.5 56.923,-67.5 56.923,-67.5 38.628,-99.251 			"/>
			
				<polygon fill="#6F706F" stroke="#000000" stroke-width="4" stroke-linecap="round" stroke-linejoin="round" stroke-miterlimit="10" points="
				56.894,-67.748 75.223,-99.5 75.223,-99.5 38.6,-99.5 38.6,-99.5 56.894,-67.748 			"/>
			
				<polygon fill="#6F706F" stroke="#000000" stroke-width="4" stroke-linecap="round" stroke-linejoin="round" stroke-miterlimit="10" points="
				20.294,-67.748 38.623,-99.5 38.623,-99.5 2,-99.5 2,-99.5 20.294,-67.748 			"/>
			
				<polygon fill="#6F706F" stroke="#000000" stroke-width="4" stroke-linecap="round" stroke-linejoin="round" stroke-miterlimit="10" points="
				38.594,-99.749 56.923,-131.5 56.923,-131.5 20.3,-131.5 20.3,-131.5 38.594,-99.749 			"/>
		</g>
		<g>
			
				<polygon fill="#6F706F" stroke="#000000" stroke-width="4" stroke-linecap="round" stroke-linejoin="round" stroke-miterlimit="10" points="
				93.904,-131.751 75.575,-100 75.575,-100 112.198,-100 112.198,-100 93.904,-131.751 			"/>
			
				<polygon fill="#6F706F" stroke="#000000" stroke-width="4" stroke-linecap="round" stroke-linejoin="round" stroke-miterlimit="10" points="
				112.169,-100.248 130.498,-132 130.498,-132 93.875,-132 93.875,-132 112.169,-100.248 			"/>
			
				<polygon fill="#6F706F" stroke="#000000" stroke-width="4" stroke-linecap="round" stroke-linejoin="round" stroke-miterlimit="10" points="
				75.569,-100.248 93.898,-132 93.898,-132 57.275,-132 57.275,-132 75.569,-100.248 			"/>
		</g>
	</g>
</pattern>
<pattern  width="110.551" height="65" patternUnits="userSpaceOnUse" id="New_Pattern_6" viewBox="38.611 -99.5 110.551 65" overflow="visible">
	<g>
		<polygon fill="none" points="38.611,-99.5 149.162,-99.5 149.162,-34.5 38.611,-34.5 		"/>
		<g>
			
				<polygon fill="#333333" stroke="#000000" stroke-width="4" stroke-linecap="round" stroke-linejoin="round" stroke-miterlimit="10" points="
				130.879,-66.251 112.551,-34.5 112.551,-34.5 149.173,-34.5 149.173,-34.5 130.879,-66.251 			"/>
			
				<polygon fill="#333333" stroke="#000000" stroke-width="4" stroke-linecap="round" stroke-linejoin="round" stroke-miterlimit="10" points="
				167.479,-66.251 149.151,-34.5 149.151,-34.5 185.773,-34.5 185.773,-34.5 167.479,-66.251 			"/>
			
				<polygon fill="#333333" stroke="#000000" stroke-width="4" stroke-linecap="round" stroke-linejoin="round" stroke-miterlimit="10" points="
				149.179,-34.251 130.851,-2.5 130.851,-2.5 167.474,-2.5 167.474,-2.5 149.179,-34.251 			"/>
			
				<polygon fill="#333333" stroke="#000000" stroke-width="4" stroke-linecap="round" stroke-linejoin="round" stroke-miterlimit="10" points="
				167.445,-2.748 185.773,-34.5 185.773,-34.5 149.151,-34.5 149.151,-34.5 167.445,-2.748 			"/>
			
				<polygon fill="#333333" stroke="#000000" stroke-width="4" stroke-linecap="round" stroke-linejoin="round" stroke-miterlimit="10" points="
				130.845,-2.748 149.173,-34.5 149.173,-34.5 112.551,-34.5 112.551,-34.5 130.845,-2.748 			"/>
			
				<polygon fill="#333333" stroke="#000000" stroke-width="4" stroke-linecap="round" stroke-linejoin="round" stroke-miterlimit="10" points="
				149.145,-34.749 167.474,-66.5 167.474,-66.5 130.851,-66.5 130.851,-66.5 149.145,-34.749 			"/>
		</g>
		<g>
			
				<polygon fill="#333333" stroke="#000000" stroke-width="4" stroke-linecap="round" stroke-linejoin="round" stroke-miterlimit="10" points="
				75.604,-33.751 57.275,-2 57.275,-2 93.898,-2 93.898,-2 75.604,-33.751 			"/>
			
				<polygon fill="#333333" stroke="#000000" stroke-width="4" stroke-linecap="round" stroke-linejoin="round" stroke-miterlimit="10" points="
				112.204,-33.751 93.875,-2 93.875,-2 130.498,-2 130.498,-2 112.204,-33.751 			"/>
			
				<polygon fill="#333333" stroke="#000000" stroke-width="4" stroke-linecap="round" stroke-linejoin="round" stroke-miterlimit="10" points="
				93.87,-2.249 112.198,-34 112.198,-34 75.575,-34 75.575,-34 93.87,-2.249 			"/>
		</g>
		<g>
			
				<polygon fill="#333333" stroke="#000000" stroke-width="4" stroke-linecap="round" stroke-linejoin="round" stroke-miterlimit="10" points="
				20.329,-66.251 2,-34.5 2,-34.5 38.623,-34.5 38.623,-34.5 20.329,-66.251 			"/>
			
				<polygon fill="#333333" stroke="#000000" stroke-width="4" stroke-linecap="round" stroke-linejoin="round" stroke-miterlimit="10" points="
				56.929,-66.251 38.6,-34.5 38.6,-34.5 75.223,-34.5 75.223,-34.5 56.929,-66.251 			"/>
			
				<polygon fill="#333333" stroke="#000000" stroke-width="4" stroke-linecap="round" stroke-linejoin="round" stroke-miterlimit="10" points="
				38.628,-34.251 20.3,-2.5 20.3,-2.5 56.923,-2.5 56.923,-2.5 38.628,-34.251 			"/>
			
				<polygon fill="#333333" stroke="#000000" stroke-width="4" stroke-linecap="round" stroke-linejoin="round" stroke-miterlimit="10" points="
				56.894,-2.748 75.223,-34.5 75.223,-34.5 38.6,-34.5 38.6,-34.5 56.894,-2.748 			"/>
			
				<polygon fill="#333333" stroke="#000000" stroke-width="4" stroke-linecap="round" stroke-linejoin="round" stroke-miterlimit="10" points="
				20.294,-2.748 38.623,-34.5 38.623,-34.5 2,-34.5 2,-34.5 20.294,-2.748 			"/>
			
				<polygon fill="#333333" stroke="#000000" stroke-width="4" stroke-linecap="round" stroke-linejoin="round" stroke-miterlimit="10" points="
				38.594,-34.749 56.923,-66.5 56.923,-66.5 20.3,-66.5 20.3,-66.5 38.594,-34.749 			"/>
		</g>
		<g>
			
				<polygon fill="#333333" stroke="#000000" stroke-width="4" stroke-linecap="round" stroke-linejoin="round" stroke-miterlimit="10" points="
				130.879,-131.251 112.551,-99.5 112.551,-99.5 149.173,-99.5 149.173,-99.5 130.879,-131.251 			"/>
			
				<polygon fill="#333333" stroke="#000000" stroke-width="4" stroke-linecap="round" stroke-linejoin="round" stroke-miterlimit="10" points="
				167.479,-131.251 149.151,-99.5 149.151,-99.5 185.773,-99.5 185.773,-99.5 167.479,-131.251 			"/>
			
				<polygon fill="#333333" stroke="#000000" stroke-width="4" stroke-linecap="round" stroke-linejoin="round" stroke-miterlimit="10" points="
				149.179,-99.251 130.851,-67.5 130.851,-67.5 167.474,-67.5 167.474,-67.5 149.179,-99.251 			"/>
			
				<polygon fill="#333333" stroke="#000000" stroke-width="4" stroke-linecap="round" stroke-linejoin="round" stroke-miterlimit="10" points="
				167.445,-67.748 185.773,-99.5 185.773,-99.5 149.151,-99.5 149.151,-99.5 167.445,-67.748 			"/>
			
				<polygon fill="#333333" stroke="#000000" stroke-width="4" stroke-linecap="round" stroke-linejoin="round" stroke-miterlimit="10" points="
				130.845,-67.748 149.173,-99.5 149.173,-99.5 112.551,-99.5 112.551,-99.5 130.845,-67.748 			"/>
			
				<polygon fill="#333333" stroke="#000000" stroke-width="4" stroke-linecap="round" stroke-linejoin="round" stroke-miterlimit="10" points="
				149.145,-99.749 167.474,-131.5 167.474,-131.5 130.851,-131.5 130.851,-131.5 149.145,-99.749 			"/>
		</g>
		<g>
			
				<polygon fill="#333333" stroke="#000000" stroke-width="4" stroke-linecap="round" stroke-linejoin="round" stroke-miterlimit="10" points="
				75.604,-98.751 57.275,-67 57.275,-67 93.898,-67 93.898,-67 75.604,-98.751 			"/>
			
				<polygon fill="#333333" stroke="#000000" stroke-width="4" stroke-linecap="round" stroke-linejoin="round" stroke-miterlimit="10" points="
				112.204,-98.751 93.875,-67 93.875,-67 130.498,-67 130.498,-67 112.204,-98.751 			"/>
			
				<polygon fill="#333333" stroke="#000000" stroke-width="4" stroke-linecap="round" stroke-linejoin="round" stroke-miterlimit="10" points="
				93.904,-66.751 75.575,-35 75.575,-35 112.198,-35 112.198,-35 93.904,-66.751 			"/>
			
				<polygon fill="#333333" stroke="#000000" stroke-width="4" stroke-linecap="round" stroke-linejoin="round" stroke-miterlimit="10" points="
				112.169,-35.248 130.498,-67 130.498,-67 93.875,-67 93.875,-67 112.169,-35.248 			"/>
			
				<polygon fill="#333333" stroke="#000000" stroke-width="4" stroke-linecap="round" stroke-linejoin="round" stroke-miterlimit="10" points="
				75.569,-35.248 93.898,-67 93.898,-67 57.275,-67 57.275,-67 75.569,-35.248 			"/>
			
				<polygon fill="#333333" stroke="#000000" stroke-width="4" stroke-linecap="round" stroke-linejoin="round" stroke-miterlimit="10" points="
				93.87,-67.249 112.198,-99 112.198,-99 75.575,-99 75.575,-99 93.87,-67.249 			"/>
		</g>
		<g>
			
				<polygon fill="#333333" stroke="#000000" stroke-width="4" stroke-linecap="round" stroke-linejoin="round" stroke-miterlimit="10" points="
				20.329,-131.251 2,-99.5 2,-99.5 38.623,-99.5 38.623,-99.5 20.329,-131.251 			"/>
			
				<polygon fill="#333333" stroke="#000000" stroke-width="4" stroke-linecap="round" stroke-linejoin="round" stroke-miterlimit="10" points="
				56.929,-131.251 38.6,-99.5 38.6,-99.5 75.223,-99.5 75.223,-99.5 56.929,-131.251 			"/>
			
				<polygon fill="#333333" stroke="#000000" stroke-width="4" stroke-linecap="round" stroke-linejoin="round" stroke-miterlimit="10" points="
				38.628,-99.251 20.3,-67.5 20.3,-67.5 56.923,-67.5 56.923,-67.5 38.628,-99.251 			"/>
			
				<polygon fill="#333333" stroke="#000000" stroke-width="4" stroke-linecap="round" stroke-linejoin="round" stroke-miterlimit="10" points="
				56.894,-67.748 75.223,-99.5 75.223,-99.5 38.6,-99.5 38.6,-99.5 56.894,-67.748 			"/>
			
				<polygon fill="#333333" stroke="#000000" stroke-width="4" stroke-linecap="round" stroke-linejoin="round" stroke-miterlimit="10" points="
				20.294,-67.748 38.623,-99.5 38.623,-99.5 2,-99.5 2,-99.5 20.294,-67.748 			"/>
			
				<polygon fill="#333333" stroke="#000000" stroke-width="4" stroke-linecap="round" stroke-linejoin="round" stroke-miterlimit="10" points="
				38.594,-99.749 56.923,-131.5 56.923,-131.5 20.3,-131.5 20.3,-131.5 38.594,-99.749 			"/>
		</g>
		<g>
			
				<polygon fill="#333333" stroke="#000000" stroke-width="4" stroke-linecap="round" stroke-linejoin="round" stroke-miterlimit="10" points="
				93.904,-131.751 75.575,-100 75.575,-100 112.198,-100 112.198,-100 93.904,-131.751 			"/>
			
				<polygon fill="#333333" stroke="#000000" stroke-width="4" stroke-linecap="round" stroke-linejoin="round" stroke-miterlimit="10" points="
				112.169,-100.248 130.498,-132 130.498,-132 93.875,-132 93.875,-132 112.169,-100.248 			"/>
			
				<polygon fill="#333333" stroke="#000000" stroke-width="4" stroke-linecap="round" stroke-linejoin="round" stroke-miterlimit="10" points="
				75.569,-100.248 93.898,-132 93.898,-132 57.275,-132 57.275,-132 75.569,-100.248 			"/>
		</g>
	</g>
</pattern>
<pattern  width="110.551" height="65" patternUnits="userSpaceOnUse" id="New_Pattern_7" viewBox="38.611 -99.5 110.551 65" overflow="visible">
	<g>
		<polygon fill="none" points="38.611,-99.5 149.162,-99.5 149.162,-34.5 38.611,-34.5 		"/>
		<g>
			<polygon fill="#FFFFFF" stroke="#B3B3B3" stroke-width="4" stroke-linejoin="round" stroke-miterlimit="10" points="
				130.879,-66.251 112.551,-34.5 112.551,-34.5 149.174,-34.5 149.174,-34.5 130.879,-66.251 			"/>
			<polygon fill="#FFFFFF" stroke="#B3B3B3" stroke-width="4" stroke-linejoin="round" stroke-miterlimit="10" points="
				167.479,-66.251 149.15,-34.5 149.15,-34.5 185.773,-34.5 185.773,-34.5 167.479,-66.251 			"/>
			<polygon fill="#FFFFFF" stroke="#B3B3B3" stroke-width="4" stroke-linejoin="round" stroke-miterlimit="10" points="
				149.18,-34.251 130.851,-2.5 130.851,-2.5 167.474,-2.5 167.474,-2.5 149.18,-34.251 			"/>
			<polygon fill="#FFFFFF" stroke="#B3B3B3" stroke-width="4" stroke-linejoin="round" stroke-miterlimit="10" points="
				167.445,-2.748 185.773,-34.5 185.773,-34.5 149.15,-34.5 149.15,-34.5 167.445,-2.748 			"/>
			<polygon fill="#FFFFFF" stroke="#B3B3B3" stroke-width="4" stroke-linejoin="round" stroke-miterlimit="10" points="
				130.845,-2.748 149.174,-34.5 149.174,-34.5 112.551,-34.5 112.551,-34.5 130.845,-2.748 			"/>
			<polygon fill="#FFFFFF" stroke="#B3B3B3" stroke-width="4" stroke-linejoin="round" stroke-miterlimit="10" points="
				149.145,-34.749 167.474,-66.5 167.474,-66.5 130.851,-66.5 130.851,-66.5 149.145,-34.749 			"/>
		</g>
		<g>
			<polygon fill="#FFFFFF" stroke="#B3B3B3" stroke-width="4" stroke-linejoin="round" stroke-miterlimit="10" points="
				75.604,-33.751 57.275,-2 57.275,-2 93.898,-2 93.898,-2 75.604,-33.751 			"/>
			<polygon fill="#FFFFFF" stroke="#B3B3B3" stroke-width="4" stroke-linejoin="round" stroke-miterlimit="10" points="
				112.204,-33.751 93.875,-2 93.875,-2 130.498,-2 130.498,-2 112.204,-33.751 			"/>
			<polygon fill="#FFFFFF" stroke="#B3B3B3" stroke-width="4" stroke-linejoin="round" stroke-miterlimit="10" points="
				93.869,-2.249 112.198,-34 112.198,-34 75.575,-34 75.575,-34 93.869,-2.249 			"/>
		</g>
		<g>
			<polygon fill="#FFFFFF" stroke="#B3B3B3" stroke-width="4" stroke-linejoin="round" stroke-miterlimit="10" points="
				20.328,-66.251 2,-34.5 2,-34.5 38.623,-34.5 38.623,-34.5 20.328,-66.251 			"/>
			<polygon fill="#FFFFFF" stroke="#B3B3B3" stroke-width="4" stroke-linejoin="round" stroke-miterlimit="10" points="
				56.929,-66.251 38.6,-34.5 38.6,-34.5 75.223,-34.5 75.223,-34.5 56.929,-66.251 			"/>
			<polygon fill="#FFFFFF" stroke="#B3B3B3" stroke-width="4" stroke-linejoin="round" stroke-miterlimit="10" points="
				38.629,-34.251 20.3,-2.5 20.3,-2.5 56.923,-2.5 56.923,-2.5 38.629,-34.251 			"/>
			<polygon fill="#FFFFFF" stroke="#B3B3B3" stroke-width="4" stroke-linejoin="round" stroke-miterlimit="10" points="
				56.895,-2.748 75.223,-34.5 75.223,-34.5 38.6,-34.5 38.6,-34.5 56.895,-2.748 			"/>
			<polygon fill="#FFFFFF" stroke="#B3B3B3" stroke-width="4" stroke-linejoin="round" stroke-miterlimit="10" points="
				20.294,-2.748 38.623,-34.5 38.623,-34.5 2,-34.5 2,-34.5 20.294,-2.748 			"/>
			<polygon fill="#FFFFFF" stroke="#B3B3B3" stroke-width="4" stroke-linejoin="round" stroke-miterlimit="10" points="
				38.594,-34.749 56.923,-66.5 56.923,-66.5 20.3,-66.5 20.3,-66.5 38.594,-34.749 			"/>
		</g>
		<g>
			<polygon fill="#FFFFFF" stroke="#B3B3B3" stroke-width="4" stroke-linejoin="round" stroke-miterlimit="10" points="
				130.879,-131.251 112.551,-99.5 112.551,-99.5 149.174,-99.5 149.174,-99.5 130.879,-131.251 			"/>
			<polygon fill="#FFFFFF" stroke="#B3B3B3" stroke-width="4" stroke-linejoin="round" stroke-miterlimit="10" points="
				167.479,-131.251 149.15,-99.5 149.15,-99.5 185.773,-99.5 185.773,-99.5 167.479,-131.251 			"/>
			<polygon fill="#FFFFFF" stroke="#B3B3B3" stroke-width="4" stroke-linejoin="round" stroke-miterlimit="10" points="
				149.18,-99.251 130.851,-67.5 130.851,-67.5 167.474,-67.5 167.474,-67.5 149.18,-99.251 			"/>
			<polygon fill="#FFFFFF" stroke="#B3B3B3" stroke-width="4" stroke-linejoin="round" stroke-miterlimit="10" points="
				167.445,-67.748 185.773,-99.5 185.773,-99.5 149.15,-99.5 149.15,-99.5 167.445,-67.748 			"/>
			<polygon fill="#FFFFFF" stroke="#B3B3B3" stroke-width="4" stroke-linejoin="round" stroke-miterlimit="10" points="
				130.845,-67.748 149.174,-99.5 149.174,-99.5 112.551,-99.5 112.551,-99.5 130.845,-67.748 			"/>
			<polygon fill="#FFFFFF" stroke="#B3B3B3" stroke-width="4" stroke-linejoin="round" stroke-miterlimit="10" points="
				149.145,-99.749 167.474,-131.5 167.474,-131.5 130.851,-131.5 130.851,-131.5 149.145,-99.749 			"/>
		</g>
		<g>
			<polygon fill="#FFFFFF" stroke="#B3B3B3" stroke-width="4" stroke-linejoin="round" stroke-miterlimit="10" points="
				75.604,-98.751 57.275,-67 57.275,-67 93.898,-67 93.898,-67 75.604,-98.751 			"/>
			<polygon fill="#FFFFFF" stroke="#B3B3B3" stroke-width="4" stroke-linejoin="round" stroke-miterlimit="10" points="
				112.204,-98.751 93.875,-67 93.875,-67 130.498,-67 130.498,-67 112.204,-98.751 			"/>
			<polygon fill="#FFFFFF" stroke="#B3B3B3" stroke-width="4" stroke-linejoin="round" stroke-miterlimit="10" points="
				93.904,-66.751 75.575,-35 75.575,-35 112.198,-35 112.198,-35 93.904,-66.751 			"/>
			<polygon fill="#FFFFFF" stroke="#B3B3B3" stroke-width="4" stroke-linejoin="round" stroke-miterlimit="10" points="
				112.17,-35.248 130.498,-67 130.498,-67 93.875,-67 93.875,-67 112.17,-35.248 			"/>
			<polygon fill="#FFFFFF" stroke="#B3B3B3" stroke-width="4" stroke-linejoin="round" stroke-miterlimit="10" points="
				75.569,-35.248 93.898,-67 93.898,-67 57.275,-67 57.275,-67 75.569,-35.248 			"/>
			<polygon fill="#FFFFFF" stroke="#B3B3B3" stroke-width="4" stroke-linejoin="round" stroke-miterlimit="10" points="
				93.869,-67.249 112.198,-99 112.198,-99 75.575,-99 75.575,-99 93.869,-67.249 			"/>
		</g>
		<g>
			<polygon fill="#FFFFFF" stroke="#B3B3B3" stroke-width="4" stroke-linejoin="round" stroke-miterlimit="10" points="
				20.328,-131.251 2,-99.5 2,-99.5 38.623,-99.5 38.623,-99.5 20.328,-131.251 			"/>
			<polygon fill="#FFFFFF" stroke="#B3B3B3" stroke-width="4" stroke-linejoin="round" stroke-miterlimit="10" points="
				56.929,-131.251 38.6,-99.5 38.6,-99.5 75.223,-99.5 75.223,-99.5 56.929,-131.251 			"/>
			<polygon fill="#FFFFFF" stroke="#B3B3B3" stroke-width="4" stroke-linejoin="round" stroke-miterlimit="10" points="
				38.629,-99.251 20.3,-67.5 20.3,-67.5 56.923,-67.5 56.923,-67.5 38.629,-99.251 			"/>
			<polygon fill="#FFFFFF" stroke="#B3B3B3" stroke-width="4" stroke-linejoin="round" stroke-miterlimit="10" points="
				56.895,-67.748 75.223,-99.5 75.223,-99.5 38.6,-99.5 38.6,-99.5 56.895,-67.748 			"/>
			<polygon fill="#FFFFFF" stroke="#B3B3B3" stroke-width="4" stroke-linejoin="round" stroke-miterlimit="10" points="
				20.294,-67.748 38.623,-99.5 38.623,-99.5 2,-99.5 2,-99.5 20.294,-67.748 			"/>
			<polygon fill="#FFFFFF" stroke="#B3B3B3" stroke-width="4" stroke-linejoin="round" stroke-miterlimit="10" points="
				38.594,-99.749 56.923,-131.5 56.923,-131.5 20.3,-131.5 20.3,-131.5 38.594,-99.749 			"/>
		</g>
		<g>
			<polygon fill="#FFFFFF" stroke="#B3B3B3" stroke-width="4" stroke-linejoin="round" stroke-miterlimit="10" points="
				93.904,-131.751 75.575,-100 75.575,-100 112.198,-100 112.198,-100 93.904,-131.751 			"/>
			<polygon fill="#FFFFFF" stroke="#B3B3B3" stroke-width="4" stroke-linejoin="round" stroke-miterlimit="10" points="
				112.17,-100.248 130.498,-132 130.498,-132 93.875,-132 93.875,-132 112.17,-100.248 			"/>
			<polygon fill="#FFFFFF" stroke="#B3B3B3" stroke-width="4" stroke-linejoin="round" stroke-miterlimit="10" points="
				75.569,-100.248 93.898,-132 93.898,-132 57.275,-132 57.275,-132 75.569,-100.248 			"/>
		</g>
	</g>
</pattern>
<pattern  width="110.551" height="65" patternUnits="userSpaceOnUse" id="New_Pattern_9" viewBox="38.611 -99.5 110.551 65" overflow="visible">
	<g>
		<polygon fill="none" points="38.611,-99.5 149.162,-99.5 149.162,-34.5 38.611,-34.5 		"/>
		<g>
			<polygon fill="#E6E6E6" stroke="#666666" stroke-width="4" stroke-linejoin="round" stroke-miterlimit="10" points="
				130.879,-66.251 112.551,-34.5 112.551,-34.5 149.173,-34.5 149.173,-34.5 130.879,-66.251 			"/>
			<polygon fill="#E6E6E6" stroke="#666666" stroke-width="4" stroke-linejoin="round" stroke-miterlimit="10" points="
				167.479,-66.251 149.151,-34.5 149.151,-34.5 185.773,-34.5 185.773,-34.5 167.479,-66.251 			"/>
			<polygon fill="#E6E6E6" stroke="#666666" stroke-width="4" stroke-linejoin="round" stroke-miterlimit="10" points="
				149.179,-34.251 130.851,-2.5 130.851,-2.5 167.474,-2.5 167.474,-2.5 149.179,-34.251 			"/>
			<polygon fill="#E6E6E6" stroke="#666666" stroke-width="4" stroke-linejoin="round" stroke-miterlimit="10" points="
				167.445,-2.748 185.773,-34.5 185.773,-34.5 149.151,-34.5 149.151,-34.5 167.445,-2.748 			"/>
			<polygon fill="#E6E6E6" stroke="#666666" stroke-width="4" stroke-linejoin="round" stroke-miterlimit="10" points="
				130.845,-2.748 149.173,-34.5 149.173,-34.5 112.551,-34.5 112.551,-34.5 130.845,-2.748 			"/>
			<polygon fill="#E6E6E6" stroke="#666666" stroke-width="4" stroke-linejoin="round" stroke-miterlimit="10" points="
				149.145,-34.749 167.474,-66.5 167.474,-66.5 130.851,-66.5 130.851,-66.5 149.145,-34.749 			"/>
		</g>
		<g>
			<polygon fill="#E6E6E6" stroke="#666666" stroke-width="4" stroke-linejoin="round" stroke-miterlimit="10" points="
				75.604,-33.751 57.275,-2 57.275,-2 93.898,-2 93.898,-2 75.604,-33.751 			"/>
			<polygon fill="#E6E6E6" stroke="#666666" stroke-width="4" stroke-linejoin="round" stroke-miterlimit="10" points="
				112.204,-33.751 93.875,-2 93.875,-2 130.498,-2 130.498,-2 112.204,-33.751 			"/>
			<polygon fill="#E6E6E6" stroke="#666666" stroke-width="4" stroke-linejoin="round" stroke-miterlimit="10" points="
				93.87,-2.249 112.198,-34 112.198,-34 75.575,-34 75.575,-34 93.87,-2.249 			"/>
		</g>
		<g>
			<polygon fill="#E6E6E6" stroke="#666666" stroke-width="4" stroke-linejoin="round" stroke-miterlimit="10" points="
				20.329,-66.251 2,-34.5 2,-34.5 38.623,-34.5 38.623,-34.5 20.329,-66.251 			"/>
			<polygon fill="#E6E6E6" stroke="#666666" stroke-width="4" stroke-linejoin="round" stroke-miterlimit="10" points="
				56.929,-66.251 38.6,-34.5 38.6,-34.5 75.223,-34.5 75.223,-34.5 56.929,-66.251 			"/>
			<polygon fill="#E6E6E6" stroke="#666666" stroke-width="4" stroke-linejoin="round" stroke-miterlimit="10" points="
				38.628,-34.251 20.3,-2.5 20.3,-2.5 56.923,-2.5 56.923,-2.5 38.628,-34.251 			"/>
			<polygon fill="#E6E6E6" stroke="#666666" stroke-width="4" stroke-linejoin="round" stroke-miterlimit="10" points="
				56.894,-2.748 75.223,-34.5 75.223,-34.5 38.6,-34.5 38.6,-34.5 56.894,-2.748 			"/>
			<polygon fill="#E6E6E6" stroke="#666666" stroke-width="4" stroke-linejoin="round" stroke-miterlimit="10" points="
				20.294,-2.748 38.623,-34.5 38.623,-34.5 2,-34.5 2,-34.5 20.294,-2.748 			"/>
			<polygon fill="#E6E6E6" stroke="#666666" stroke-width="4" stroke-linejoin="round" stroke-miterlimit="10" points="
				38.594,-34.749 56.923,-66.5 56.923,-66.5 20.3,-66.5 20.3,-66.5 38.594,-34.749 			"/>
		</g>
		<g>
			<polygon fill="#E6E6E6" stroke="#666666" stroke-width="4" stroke-linejoin="round" stroke-miterlimit="10" points="
				130.879,-131.251 112.551,-99.5 112.551,-99.5 149.173,-99.5 149.173,-99.5 130.879,-131.251 			"/>
			<polygon fill="#E6E6E6" stroke="#666666" stroke-width="4" stroke-linejoin="round" stroke-miterlimit="10" points="
				167.479,-131.251 149.151,-99.5 149.151,-99.5 185.773,-99.5 185.773,-99.5 167.479,-131.251 			"/>
			<polygon fill="#E6E6E6" stroke="#666666" stroke-width="4" stroke-linejoin="round" stroke-miterlimit="10" points="
				149.179,-99.251 130.851,-67.5 130.851,-67.5 167.474,-67.5 167.474,-67.5 149.179,-99.251 			"/>
			<polygon fill="#E6E6E6" stroke="#666666" stroke-width="4" stroke-linejoin="round" stroke-miterlimit="10" points="
				167.445,-67.748 185.773,-99.5 185.773,-99.5 149.151,-99.5 149.151,-99.5 167.445,-67.748 			"/>
			<polygon fill="#E6E6E6" stroke="#666666" stroke-width="4" stroke-linejoin="round" stroke-miterlimit="10" points="
				130.845,-67.748 149.173,-99.5 149.173,-99.5 112.551,-99.5 112.551,-99.5 130.845,-67.748 			"/>
			<polygon fill="#E6E6E6" stroke="#666666" stroke-width="4" stroke-linejoin="round" stroke-miterlimit="10" points="
				149.145,-99.749 167.474,-131.5 167.474,-131.5 130.851,-131.5 130.851,-131.5 149.145,-99.749 			"/>
		</g>
		<g>
			<polygon fill="#E6E6E6" stroke="#666666" stroke-width="4" stroke-linejoin="round" stroke-miterlimit="10" points="
				75.604,-98.751 57.275,-67 57.275,-67 93.898,-67 93.898,-67 75.604,-98.751 			"/>
			<polygon fill="#E6E6E6" stroke="#666666" stroke-width="4" stroke-linejoin="round" stroke-miterlimit="10" points="
				112.204,-98.751 93.875,-67 93.875,-67 130.498,-67 130.498,-67 112.204,-98.751 			"/>
			<polygon fill="#E6E6E6" stroke="#666666" stroke-width="4" stroke-linejoin="round" stroke-miterlimit="10" points="
				93.904,-66.751 75.575,-35 75.575,-35 112.198,-35 112.198,-35 93.904,-66.751 			"/>
			<polygon fill="#E6E6E6" stroke="#666666" stroke-width="4" stroke-linejoin="round" stroke-miterlimit="10" points="
				112.169,-35.248 130.498,-67 130.498,-67 93.875,-67 93.875,-67 112.169,-35.248 			"/>
			<polygon fill="#E6E6E6" stroke="#666666" stroke-width="4" stroke-linejoin="round" stroke-miterlimit="10" points="
				75.569,-35.248 93.898,-67 93.898,-67 57.275,-67 57.275,-67 75.569,-35.248 			"/>
			<polygon fill="#E6E6E6" stroke="#666666" stroke-width="4" stroke-linejoin="round" stroke-miterlimit="10" points="
				93.87,-67.249 112.198,-99 112.198,-99 75.575,-99 75.575,-99 93.87,-67.249 			"/>
		</g>
		<g>
			<polygon fill="#E6E6E6" stroke="#666666" stroke-width="4" stroke-linejoin="round" stroke-miterlimit="10" points="
				20.329,-131.251 2,-99.5 2,-99.5 38.623,-99.5 38.623,-99.5 20.329,-131.251 			"/>
			<polygon fill="#E6E6E6" stroke="#666666" stroke-width="4" stroke-linejoin="round" stroke-miterlimit="10" points="
				56.929,-131.251 38.6,-99.5 38.6,-99.5 75.223,-99.5 75.223,-99.5 56.929,-131.251 			"/>
			<polygon fill="#E6E6E6" stroke="#666666" stroke-width="4" stroke-linejoin="round" stroke-miterlimit="10" points="
				38.628,-99.251 20.3,-67.5 20.3,-67.5 56.923,-67.5 56.923,-67.5 38.628,-99.251 			"/>
			<polygon fill="#E6E6E6" stroke="#666666" stroke-width="4" stroke-linejoin="round" stroke-miterlimit="10" points="
				56.894,-67.748 75.223,-99.5 75.223,-99.5 38.6,-99.5 38.6,-99.5 56.894,-67.748 			"/>
			<polygon fill="#E6E6E6" stroke="#666666" stroke-width="4" stroke-linejoin="round" stroke-miterlimit="10" points="
				20.294,-67.748 38.623,-99.5 38.623,-99.5 2,-99.5 2,-99.5 20.294,-67.748 			"/>
			<polygon fill="#E6E6E6" stroke="#666666" stroke-width="4" stroke-linejoin="round" stroke-miterlimit="10" points="
				38.594,-99.749 56.923,-131.5 56.923,-131.5 20.3,-131.5 20.3,-131.5 38.594,-99.749 			"/>
		</g>
		<g>
			<polygon fill="#E6E6E6" stroke="#666666" stroke-width="4" stroke-linejoin="round" stroke-miterlimit="10" points="
				93.904,-131.751 75.575,-100 75.575,-100 112.198,-100 112.198,-100 93.904,-131.751 			"/>
			<polygon fill="#E6E6E6" stroke="#666666" stroke-width="4" stroke-linejoin="round" stroke-miterlimit="10" points="
				112.169,-100.248 130.498,-132 130.498,-132 93.875,-132 93.875,-132 112.169,-100.248 			"/>
			<polygon fill="#E6E6E6" stroke="#666666" stroke-width="4" stroke-linejoin="round" stroke-miterlimit="10" points="
				75.569,-100.248 93.898,-132 93.898,-132 57.275,-132 57.275,-132 75.569,-100.248 			"/>
		</g>
	</g>
</pattern>
<path fill="#FFFF00" stroke="url(#New_Pattern_15)" stroke-miterlimit="10" d="M516.984,461.808"/>
<path fill="#FFFF00" stroke="url(#New_Pattern_15)" stroke-miterlimit="10" d="M516.984,461.808"/>
<path fill="#FFFF00" stroke="url(#New_Pattern_15)" stroke-miterlimit="10" d="M507.016,461.808"/>
<g>
	<path fill="url(#New_Pattern_12)" d="M768.029,213C788.922,213,805,227.694,805,248.592v305.832
		C805,575.318,788.951,594,768.058,594H470.107l79.112,217.515L352.399,594h-95.114C236.391,594,218,575.318,218,554.424V248.592
		C218,227.694,236.391,213,257.285,213H768 M768.058,195H257.285c-14.703,0-28.662,5.111-39.307,14.392
		C206.385,219.5,200,233.421,200,248.592v305.832c0,14.681,6.202,29.364,17.016,40.287C227.893,605.698,242.571,612,257.285,612
		h87.126l191.461,211.592l61.688,68.176l-31.426-86.405L495.807,612h272.25c15.086,0,29.157-6.336,39.622-17.841
		c9.879-10.861,15.32-24.974,15.32-39.735V248.592C823,218.04,799.38,195,768.058,195L768.058,195z"/>
</g>
<g>
	<path fill="url(#New_Pattern_9)" d="M805,554.166C805,575.061,789.451,594,768.558,594H470.607l79.112,217.516L352.899,594h-95.114
		C236.891,594,218,575.061,218,554.166V248.334C218,227.437,236.891,213,257.785,213h510.773C789.451,213,805,227.437,805,248.334
		V554.166z"/>
</g>
<g>
	<defs>
		<circle id="SVGID_1_" cx="512" cy="512" r="168.75"/>
	</defs>
	<clipPath id="SVGID_2_">
		<use xlink:href="#SVGID_1_"  overflow="visible"/>
	</clipPath>
	<g clip-path="url(#SVGID_2_)">
		<path fill="url(#New_Pattern_5)" d="M768.032,213C788.926,213,805,227.688,805,248.586v305.832
			C805,575.313,788.926,594,768.032,594H470.082l79.112,217.515L352.374,594h-95.114C236.366,594,218,575.313,218,554.418V248.586
			C218,227.688,236.366,213,257.259,213H768 M768.032,195H257.259c-14.703,0-28.649,5.108-39.294,14.389
			C206.372,219.497,200,233.416,200,248.586v305.832c0,14.681,6.189,29.367,17.003,40.29C227.88,605.695,242.545,612,257.259,612
			h87.126l191.461,211.589l61.688,68.175l-31.426-86.403L495.782,612h272.25c15.086,0,29.17-6.339,39.635-17.844
			C817.546,583.295,823,569.18,823,554.418V248.586C823,218.034,799.354,195,768.032,195L768.032,195z"/>
	</g>
</g>
<g>
	<defs>
		<path id="SVGID_3_" d="M805,547.908c0,20.895-9.049,46.092-29.942,46.092H477.107l79.112,217.516L359.399,594h-95.114
			C243.391,594,218,568.803,218,547.908V242.077C218,221.179,243.391,213,264.285,213h510.773c20.894,0,29.942,8.179,29.942,29.077
			V547.908z"/>
	</defs>
	<clipPath id="SVGID_4_">
		<use xlink:href="#SVGID_3_"  overflow="visible"/>
	</clipPath>
	<path clip-path="url(#SVGID_4_)" fill="url(#New_Pattern_5)" d="M31,493.815C123,323.729,304.123,210,511.426,210h0.125
		c207.303,0,387.25,114.215,479.875,284.301l-0.358-0.938C980.294,237.808,769.432,33.837,511.225,33.837
		C253.117,33.837,41,238.185,31,493.603V493.815z"/>
</g>
<g>
	<defs>
		<path id="SVGID_5_" d="M805,547.908c0,20.895-9.049,46.092-29.942,46.092H477.107l79.112,217.516L359.399,594h-95.114
			C243.391,594,218,568.803,218,547.908V242.077C218,221.179,243.391,213,264.285,213h510.773c20.894,0,29.942,8.179,29.942,29.077
			V547.908z"/>
	</defs>
	<clipPath id="SVGID_6_">
		<use xlink:href="#SVGID_5_"  overflow="visible"/>
	</clipPath>
	<circle clip-path="url(#SVGID_6_)" fill="url(#New_Pattern_7)" cx="512.525" cy="511.748" r="168.75"/>
</g>
<g>
	<defs>
		<circle id="SVGID_7_" cx="512" cy="512" r="168.75"/>
	</defs>
	<clipPath id="SVGID_8_">
		<use xlink:href="#SVGID_7_"  overflow="visible"/>
	</clipPath>
	<g clip-path="url(#SVGID_8_)">
		<path fill="url(#New_Pattern_6)" d="M768.029,213C788.922,213,805,227.694,805,248.592v305.832
			C805,575.318,788.951,594,768.058,594H470.107l79.112,217.515L352.399,594h-95.114C236.391,594,218,575.318,218,554.424V248.592
			C218,227.694,236.391,213,257.285,213H768 M768.058,195H257.285c-14.703,0-28.662,5.111-39.307,14.392
			C206.385,219.5,200,233.421,200,248.592v305.832c0,14.681,6.202,29.364,17.016,40.287C227.893,605.698,242.571,612,257.285,612
			h87.126l191.461,211.592l61.688,68.176l-31.426-86.405L495.807,612h272.25c15.086,0,29.157-6.336,39.622-17.841
			c9.879-10.861,15.32-24.974,15.32-39.735V248.592C823,218.04,799.38,195,768.058,195L768.058,195z"/>
	</g>
</g>
<path fill="url(#New_Pattern_6)" stroke="url(#New_Pattern_6)" stroke-miterlimit="10" d="M415.434,497.329l9.821-68.438h-30.844
	l-9.821,68.438h-24.398l9.667-68.438H341.01v-20.716h31.15l6.905-45.268h-29.002v-20.716h31.15l9.667-68.438h24.552l-9.667,68.438
	h30.69l9.821-68.438h24.398l-9.667,68.438h28.849v20.716H458.86l-6.905,45.268h28.849v20.716h-31.15l-9.667,68.438H415.434z
	 M427.403,408.174l6.905-45.268h-30.843l-6.905,45.268H427.403z"/>
<path fill="url(#New_Pattern_6)" stroke="url(#New_Pattern_6)" stroke-miterlimit="10" d="M536.813,366.743v-30.537l-25.166,14.424
	l-9.514-14.424l26.087-15.959l-26.087-16.112l9.514-14.424l25.166,14.424v-30.383h18.874v30.383l25.013-14.424l9.514,14.424
	l-26.086,16.112l26.086,15.959l-9.514,14.424l-25.013-14.424v30.537H536.813z"/>
<path fill="url(#New_Pattern_6)" stroke="url(#New_Pattern_6)" stroke-miterlimit="10" d="M633.792,442.087l-11.969-168.334h40.204
	l-12.276,168.334H633.792z M625.813,497.329v-31.917h32.071v31.917H625.813z"/>
<g>
	<defs>
		<path id="SVGID_9_" d="M415.434,497.329l9.82-68.438h-30.843l-9.821,68.438h-24.398l9.667-68.438H341.01v-20.716h31.15
			l6.905-45.268h-29.002v-20.716h31.15l9.667-68.438h24.552l-9.667,68.438h30.69l9.821-68.438h24.398l-9.668,68.438h28.85v20.716
			h-30.998l-6.904,45.268h28.848v20.716h-31.15l-9.667,68.438H415.434z M427.402,408.174l6.905-45.268h-30.843l-6.905,45.268
			H427.402z"/>
	</defs>
	<clipPath id="SVGID_10_">
		<use xlink:href="#SVGID_9_"  overflow="visible"/>
	</clipPath>
	<circle clip-path="url(#SVGID_10_)" fill="url(#New_Pattern_5)" cx="512.025" cy="512.006" r="168.75"/>
</g>
<g>
	<defs>
		<path id="SVGID_11_" d="M536.813,366.743v-30.536l-25.166,14.424l-9.514-14.424l26.087-15.959l-26.087-16.113l9.514-14.424
			l25.166,14.424v-30.383h18.874v30.383l25.013-14.424l9.514,14.424l-26.086,16.113l26.086,15.959l-9.514,14.424l-25.013-14.424
			v30.536H536.813z"/>
	</defs>
	<clipPath id="SVGID_12_">
		<use xlink:href="#SVGID_11_"  overflow="visible"/>
	</clipPath>
	<circle clip-path="url(#SVGID_12_)" fill="url(#New_Pattern_5)" cx="512.025" cy="512.006" r="168.75"/>
</g>
<g>
	<defs>
		<path id="SVGID_13_" d="M633.792,442.087l-11.969-168.334h40.204l-12.276,168.334H633.792z M625.813,497.328v-31.917h32.071
			v31.917H625.813z"/>
	</defs>
	<clipPath id="SVGID_14_">
		<use xlink:href="#SVGID_13_"  overflow="visible"/>
	</clipPath>
	<circle clip-path="url(#SVGID_14_)" fill="url(#New_Pattern_5)" cx="512.025" cy="512.006" r="168.75"/>
</g>
</svg>
