<?xml version="1.0" encoding="utf-8"?>
<!-- Generator: Adobe Illustrator 16.0.0, SVG Export Plug-In . SVG Version: 6.00 Build 0)  -->
<!DOCTYPE svg PUBLIC "-//W3C//DTD SVG 1.1//EN" "http://www.w3.org/Graphics/SVG/1.1/DTD/svg11.dtd">
<svg version="1.1" id="Layer_1" xmlns="http://www.w3.org/2000/svg" xmlns:xlink="http://www.w3.org/1999/xlink" x="0px" y="0px"
	 width="1024px" height="1024px" viewBox="0 0 1024 1024" enable-background="new 0 0 1024 1024" xml:space="preserve">
<pattern  width="110.551" height="65" patternUnits="userSpaceOnUse" id="New_Pattern" viewBox="38.611 -99.5 110.551 65" overflow="visible">
	<g>
		<polygon fill="none" points="38.611,-99.5 149.162,-99.5 149.162,-34.5 38.611,-34.5 		"/>
		<g>
			<polygon fill="#66FF66" stroke="#009900" stroke-width="4" stroke-linejoin="round" stroke-miterlimit="10" points="
				93.904,-131.751 75.575,-100 75.575,-100 112.198,-100 112.198,-100 93.904,-131.751 			"/>
			<polygon fill="#66FF66" stroke="#009900" stroke-width="4" stroke-linejoin="round" stroke-miterlimit="10" points="
				112.17,-100.248 130.498,-132 130.498,-132 93.875,-132 93.875,-132 112.17,-100.248 			"/>
			<polygon fill="#66FF66" stroke="#009900" stroke-width="4" stroke-linejoin="round" stroke-miterlimit="10" points="
				75.569,-100.248 93.898,-132 93.898,-132 57.275,-132 57.275,-132 75.569,-100.248 			"/>
		</g>
		<g>
			<polygon fill="#66FF66" stroke="#009900" stroke-width="4" stroke-linejoin="round" stroke-miterlimit="10" points="
				20.328,-131.251 2,-99.5 2,-99.5 38.623,-99.5 38.623,-99.5 20.328,-131.251 			"/>
			<polygon fill="#66FF66" stroke="#009900" stroke-width="4" stroke-linejoin="round" stroke-miterlimit="10" points="
				56.929,-131.251 38.6,-99.5 38.6,-99.5 75.223,-99.5 75.223,-99.5 56.929,-131.251 			"/>
			<polygon fill="#66FF66" stroke="#009900" stroke-width="4" stroke-linejoin="round" stroke-miterlimit="10" points="
				38.629,-99.251 20.3,-67.5 20.3,-67.5 56.923,-67.5 56.923,-67.5 38.629,-99.251 			"/>
			<polygon fill="#66FF66" stroke="#009900" stroke-width="4" stroke-linejoin="round" stroke-miterlimit="10" points="
				56.895,-67.748 75.223,-99.5 75.223,-99.5 38.6,-99.5 38.6,-99.5 56.895,-67.748 			"/>
			<polygon fill="#66FF66" stroke="#009900" stroke-width="4" stroke-linejoin="round" stroke-miterlimit="10" points="
				20.294,-67.748 38.623,-99.5 38.623,-99.5 2,-99.5 2,-99.5 20.294,-67.748 			"/>
			<polygon fill="#66FF66" stroke="#009900" stroke-width="4" stroke-linejoin="round" stroke-miterlimit="10" points="
				38.594,-99.749 56.923,-131.5 56.923,-131.5 20.3,-131.5 20.3,-131.5 38.594,-99.749 			"/>
		</g>
		<g>
			<polygon fill="#66FF66" stroke="#009900" stroke-width="4" stroke-linejoin="round" stroke-miterlimit="10" points="
				75.604,-98.751 57.275,-67 57.275,-67 93.898,-67 93.898,-67 75.604,-98.751 			"/>
			<polygon fill="#66FF66" stroke="#009900" stroke-width="4" stroke-linejoin="round" stroke-miterlimit="10" points="
				112.204,-98.751 93.875,-67 93.875,-67 130.498,-67 130.498,-67 112.204,-98.751 			"/>
			<polygon fill="#66FF66" stroke="#009900" stroke-width="4" stroke-linejoin="round" stroke-miterlimit="10" points="
				93.904,-66.751 75.575,-35 75.575,-35 112.198,-35 112.198,-35 93.904,-66.751 			"/>
			<polygon fill="#66FF66" stroke="#009900" stroke-width="4" stroke-linejoin="round" stroke-miterlimit="10" points="
				112.17,-35.248 130.498,-67 130.498,-67 93.875,-67 93.875,-67 112.17,-35.248 			"/>
			<polygon fill="#66FF66" stroke="#009900" stroke-width="4" stroke-linejoin="round" stroke-miterlimit="10" points="
				75.569,-35.248 93.898,-67 93.898,-67 57.275,-67 57.275,-67 75.569,-35.248 			"/>
			<polygon fill="#66FF66" stroke="#009900" stroke-width="4" stroke-linejoin="round" stroke-miterlimit="10" points="
				93.869,-67.249 112.198,-99 112.198,-99 75.575,-99 75.575,-99 93.869,-67.249 			"/>
		</g>
		<g>
			<polygon fill="#66FF66" stroke="#009900" stroke-width="4" stroke-linejoin="round" stroke-miterlimit="10" points="
				130.879,-131.251 112.551,-99.5 112.551,-99.5 149.174,-99.5 149.174,-99.5 130.879,-131.251 			"/>
			<polygon fill="#66FF66" stroke="#009900" stroke-width="4" stroke-linejoin="round" stroke-miterlimit="10" points="
				167.479,-131.251 149.15,-99.5 149.15,-99.5 185.773,-99.5 185.773,-99.5 167.479,-131.251 			"/>
			<polygon fill="#66FF66" stroke="#009900" stroke-width="4" stroke-linejoin="round" stroke-miterlimit="10" points="
				149.18,-99.251 130.851,-67.5 130.851,-67.5 167.474,-67.5 167.474,-67.5 149.18,-99.251 			"/>
			<polygon fill="#66FF66" stroke="#009900" stroke-width="4" stroke-linejoin="round" stroke-miterlimit="10" points="
				167.445,-67.748 185.773,-99.5 185.773,-99.5 149.15,-99.5 149.15,-99.5 167.445,-67.748 			"/>
			<polygon fill="#66FF66" stroke="#009900" stroke-width="4" stroke-linejoin="round" stroke-miterlimit="10" points="
				130.845,-67.748 149.174,-99.5 149.174,-99.5 112.551,-99.5 112.551,-99.5 130.845,-67.748 			"/>
			<polygon fill="#66FF66" stroke="#009900" stroke-width="4" stroke-linejoin="round" stroke-miterlimit="10" points="
				149.145,-99.749 167.474,-131.5 167.474,-131.5 130.851,-131.5 130.851,-131.5 149.145,-99.749 			"/>
		</g>
		<g>
			<polygon fill="#66FF66" stroke="#009900" stroke-width="4" stroke-linejoin="round" stroke-miterlimit="10" points="
				20.328,-66.251 2,-34.5 2,-34.5 38.623,-34.5 38.623,-34.5 20.328,-66.251 			"/>
			<polygon fill="#66FF66" stroke="#009900" stroke-width="4" stroke-linejoin="round" stroke-miterlimit="10" points="
				56.929,-66.251 38.6,-34.5 38.6,-34.5 75.223,-34.5 75.223,-34.5 56.929,-66.251 			"/>
			<polygon fill="#66FF66" stroke="#009900" stroke-width="4" stroke-linejoin="round" stroke-miterlimit="10" points="
				38.629,-34.251 20.3,-2.5 20.3,-2.5 56.923,-2.5 56.923,-2.5 38.629,-34.251 			"/>
			<polygon fill="#66FF66" stroke="#009900" stroke-width="4" stroke-linejoin="round" stroke-miterlimit="10" points="
				56.895,-2.748 75.223,-34.5 75.223,-34.5 38.6,-34.5 38.6,-34.5 56.895,-2.748 			"/>
			<polygon fill="#66FF66" stroke="#009900" stroke-width="4" stroke-linejoin="round" stroke-miterlimit="10" points="
				20.294,-2.748 38.623,-34.5 38.623,-34.5 2,-34.5 2,-34.5 20.294,-2.748 			"/>
			<polygon fill="#66FF66" stroke="#009900" stroke-width="4" stroke-linejoin="round" stroke-miterlimit="10" points="
				38.594,-34.749 56.923,-66.5 56.923,-66.5 20.3,-66.5 20.3,-66.5 38.594,-34.749 			"/>
		</g>
		<g>
			<polygon fill="#66FF66" stroke="#009900" stroke-width="4" stroke-linejoin="round" stroke-miterlimit="10" points="
				75.604,-33.751 57.275,-2 57.275,-2 93.898,-2 93.898,-2 75.604,-33.751 			"/>
			<polygon fill="#66FF66" stroke="#009900" stroke-width="4" stroke-linejoin="round" stroke-miterlimit="10" points="
				112.204,-33.751 93.875,-2 93.875,-2 130.498,-2 130.498,-2 112.204,-33.751 			"/>
			<polygon fill="#66FF66" stroke="#009900" stroke-width="4" stroke-linejoin="round" stroke-miterlimit="10" points="
				93.869,-2.249 112.198,-34 112.198,-34 75.575,-34 75.575,-34 93.869,-2.249 			"/>
		</g>
		<g>
			<polygon fill="#66FF66" stroke="#009900" stroke-width="4" stroke-linejoin="round" stroke-miterlimit="10" points="
				130.879,-66.251 112.551,-34.5 112.551,-34.5 149.174,-34.5 149.174,-34.5 130.879,-66.251 			"/>
			<polygon fill="#66FF66" stroke="#009900" stroke-width="4" stroke-linejoin="round" stroke-miterlimit="10" points="
				167.479,-66.251 149.15,-34.5 149.15,-34.5 185.773,-34.5 185.773,-34.5 167.479,-66.251 			"/>
			<polygon fill="#66FF66" stroke="#009900" stroke-width="4" stroke-linejoin="round" stroke-miterlimit="10" points="
				149.18,-34.251 130.851,-2.5 130.851,-2.5 167.474,-2.5 167.474,-2.5 149.18,-34.251 			"/>
			<polygon fill="#66FF66" stroke="#009900" stroke-width="4" stroke-linejoin="round" stroke-miterlimit="10" points="
				167.445,-2.748 185.773,-34.5 185.773,-34.5 149.15,-34.5 149.15,-34.5 167.445,-2.748 			"/>
			<polygon fill="#66FF66" stroke="#009900" stroke-width="4" stroke-linejoin="round" stroke-miterlimit="10" points="
				130.845,-2.748 149.174,-34.5 149.174,-34.5 112.551,-34.5 112.551,-34.5 130.845,-2.748 			"/>
			<polygon fill="#66FF66" stroke="#009900" stroke-width="4" stroke-linejoin="round" stroke-miterlimit="10" points="
				149.145,-34.749 167.474,-66.5 167.474,-66.5 130.851,-66.5 130.851,-66.5 149.145,-34.749 			"/>
		</g>
	</g>
</pattern>
<pattern  width="110.551" height="65" patternUnits="userSpaceOnUse" id="New_Pattern_15" viewBox="38.611 -99.5 110.551 65" overflow="visible">
	<g>
		<polygon fill="none" points="38.611,-99.5 149.162,-99.5 149.162,-34.5 38.611,-34.5 		"/>
		<g>
			<polygon fill="#FFFFBE" stroke="#FFFF00" stroke-width="4" stroke-linejoin="round" stroke-miterlimit="10" points="
				130.879,-66.251 112.551,-34.5 112.551,-34.5 149.174,-34.5 149.174,-34.5 130.879,-66.251 			"/>
			<polygon fill="#FFFFBE" stroke="#FFFF00" stroke-width="4" stroke-linejoin="round" stroke-miterlimit="10" points="
				167.479,-66.251 149.15,-34.5 149.15,-34.5 185.773,-34.5 185.773,-34.5 167.479,-66.251 			"/>
			<polygon fill="#FFFFBE" stroke="#FFFF00" stroke-width="4" stroke-linejoin="round" stroke-miterlimit="10" points="
				149.18,-34.251 130.851,-2.5 130.851,-2.5 167.474,-2.5 167.474,-2.5 149.18,-34.251 			"/>
			<polygon fill="#FFFFBE" stroke="#FFFF00" stroke-width="4" stroke-linejoin="round" stroke-miterlimit="10" points="
				167.445,-2.748 185.773,-34.5 185.773,-34.5 149.15,-34.5 149.15,-34.5 167.445,-2.748 			"/>
			<polygon fill="#FFFFBE" stroke="#FFFF00" stroke-width="4" stroke-linejoin="round" stroke-miterlimit="10" points="
				130.845,-2.748 149.174,-34.5 149.174,-34.5 112.551,-34.5 112.551,-34.5 130.845,-2.748 			"/>
			<polygon fill="#FFFFBE" stroke="#FFFF00" stroke-width="4" stroke-linejoin="round" stroke-miterlimit="10" points="
				149.145,-34.749 167.474,-66.5 167.474,-66.5 130.851,-66.5 130.851,-66.5 149.145,-34.749 			"/>
		</g>
		<g>
			<polygon fill="#FFFFBE" stroke="#FFFF00" stroke-width="4" stroke-linejoin="round" stroke-miterlimit="10" points="
				75.604,-33.751 57.275,-2 57.275,-2 93.898,-2 93.898,-2 75.604,-33.751 			"/>
			<polygon fill="#FFFFBE" stroke="#FFFF00" stroke-width="4" stroke-linejoin="round" stroke-miterlimit="10" points="
				112.204,-33.751 93.875,-2 93.875,-2 130.498,-2 130.498,-2 112.204,-33.751 			"/>
			<polygon fill="#FFFFBE" stroke="#FFFF00" stroke-width="4" stroke-linejoin="round" stroke-miterlimit="10" points="
				93.869,-2.249 112.198,-34 112.198,-34 75.575,-34 75.575,-34 93.869,-2.249 			"/>
		</g>
		<g>
			<polygon fill="#FFFFBE" stroke="#FFFF00" stroke-width="4" stroke-linejoin="round" stroke-miterlimit="10" points="
				20.328,-66.251 2,-34.5 2,-34.5 38.623,-34.5 38.623,-34.5 20.328,-66.251 			"/>
			<polygon fill="#FFFFBE" stroke="#FFFF00" stroke-width="4" stroke-linejoin="round" stroke-miterlimit="10" points="
				56.929,-66.251 38.6,-34.5 38.6,-34.5 75.223,-34.5 75.223,-34.5 56.929,-66.251 			"/>
			<polygon fill="#FFFFBE" stroke="#FFFF00" stroke-width="4" stroke-linejoin="round" stroke-miterlimit="10" points="
				38.629,-34.251 20.3,-2.5 20.3,-2.5 56.923,-2.5 56.923,-2.5 38.629,-34.251 			"/>
			<polygon fill="#FFFFBE" stroke="#FFFF00" stroke-width="4" stroke-linejoin="round" stroke-miterlimit="10" points="
				56.895,-2.748 75.223,-34.5 75.223,-34.5 38.6,-34.5 38.6,-34.5 56.895,-2.748 			"/>
			<polygon fill="#FFFFBE" stroke="#FFFF00" stroke-width="4" stroke-linejoin="round" stroke-miterlimit="10" points="
				20.294,-2.748 38.623,-34.5 38.623,-34.5 2,-34.5 2,-34.5 20.294,-2.748 			"/>
			<polygon fill="#FFFFBE" stroke="#FFFF00" stroke-width="4" stroke-linejoin="round" stroke-miterlimit="10" points="
				38.594,-34.749 56.923,-66.5 56.923,-66.5 20.3,-66.5 20.3,-66.5 38.594,-34.749 			"/>
		</g>
		<g>
			<polygon fill="#FFFFBE" stroke="#FFFF00" stroke-width="4" stroke-linejoin="round" stroke-miterlimit="10" points="
				130.879,-131.251 112.551,-99.5 112.551,-99.5 149.174,-99.5 149.174,-99.5 130.879,-131.251 			"/>
			<polygon fill="#FFFFBE" stroke="#FFFF00" stroke-width="4" stroke-linejoin="round" stroke-miterlimit="10" points="
				167.479,-131.251 149.15,-99.5 149.15,-99.5 185.773,-99.5 185.773,-99.5 167.479,-131.251 			"/>
			<polygon fill="#FFFFBE" stroke="#FFFF00" stroke-width="4" stroke-linejoin="round" stroke-miterlimit="10" points="
				149.18,-99.251 130.851,-67.5 130.851,-67.5 167.474,-67.5 167.474,-67.5 149.18,-99.251 			"/>
			<polygon fill="#FFFFBE" stroke="#FFFF00" stroke-width="4" stroke-linejoin="round" stroke-miterlimit="10" points="
				167.445,-67.748 185.773,-99.5 185.773,-99.5 149.15,-99.5 149.15,-99.5 167.445,-67.748 			"/>
			<polygon fill="#FFFFBE" stroke="#FFFF00" stroke-width="4" stroke-linejoin="round" stroke-miterlimit="10" points="
				130.845,-67.748 149.174,-99.5 149.174,-99.5 112.551,-99.5 112.551,-99.5 130.845,-67.748 			"/>
			<polygon fill="#FFFFBE" stroke="#FFFF00" stroke-width="4" stroke-linejoin="round" stroke-miterlimit="10" points="
				149.145,-99.749 167.474,-131.5 167.474,-131.5 130.851,-131.5 130.851,-131.5 149.145,-99.749 			"/>
		</g>
		<g>
			<polygon fill="#FFFFBE" stroke="#FFFF00" stroke-width="4" stroke-linejoin="round" stroke-miterlimit="10" points="
				75.604,-98.751 57.275,-67 57.275,-67 93.898,-67 93.898,-67 75.604,-98.751 			"/>
			<polygon fill="#FFFFBE" stroke="#FFFF00" stroke-width="4" stroke-linejoin="round" stroke-miterlimit="10" points="
				112.204,-98.751 93.875,-67 93.875,-67 130.498,-67 130.498,-67 112.204,-98.751 			"/>
			<polygon fill="#FFFFBE" stroke="#FFFF00" stroke-width="4" stroke-linejoin="round" stroke-miterlimit="10" points="
				93.904,-66.751 75.575,-35 75.575,-35 112.198,-35 112.198,-35 93.904,-66.751 			"/>
			<polygon fill="#FFFFBE" stroke="#FFFF00" stroke-width="4" stroke-linejoin="round" stroke-miterlimit="10" points="
				112.17,-35.248 130.498,-67 130.498,-67 93.875,-67 93.875,-67 112.17,-35.248 			"/>
			<polygon fill="#FFFFBE" stroke="#FFFF00" stroke-width="4" stroke-linejoin="round" stroke-miterlimit="10" points="
				75.569,-35.248 93.898,-67 93.898,-67 57.275,-67 57.275,-67 75.569,-35.248 			"/>
			<polygon fill="#FFFFBE" stroke="#FFFF00" stroke-width="4" stroke-linejoin="round" stroke-miterlimit="10" points="
				93.869,-67.249 112.198,-99 112.198,-99 75.575,-99 75.575,-99 93.869,-67.249 			"/>
		</g>
		<g>
			<polygon fill="#FFFFBE" stroke="#FFFF00" stroke-width="4" stroke-linejoin="round" stroke-miterlimit="10" points="
				20.328,-131.251 2,-99.5 2,-99.5 38.623,-99.5 38.623,-99.5 20.328,-131.251 			"/>
			<polygon fill="#FFFFBE" stroke="#FFFF00" stroke-width="4" stroke-linejoin="round" stroke-miterlimit="10" points="
				56.929,-131.251 38.6,-99.5 38.6,-99.5 75.223,-99.5 75.223,-99.5 56.929,-131.251 			"/>
			<polygon fill="#FFFFBE" stroke="#FFFF00" stroke-width="4" stroke-linejoin="round" stroke-miterlimit="10" points="
				38.629,-99.251 20.3,-67.5 20.3,-67.5 56.923,-67.5 56.923,-67.5 38.629,-99.251 			"/>
			<polygon fill="#FFFFBE" stroke="#FFFF00" stroke-width="4" stroke-linejoin="round" stroke-miterlimit="10" points="
				56.895,-67.748 75.223,-99.5 75.223,-99.5 38.6,-99.5 38.6,-99.5 56.895,-67.748 			"/>
			<polygon fill="#FFFFBE" stroke="#FFFF00" stroke-width="4" stroke-linejoin="round" stroke-miterlimit="10" points="
				20.294,-67.748 38.623,-99.5 38.623,-99.5 2,-99.5 2,-99.5 20.294,-67.748 			"/>
			<polygon fill="#FFFFBE" stroke="#FFFF00" stroke-width="4" stroke-linejoin="round" stroke-miterlimit="10" points="
				38.594,-99.749 56.923,-131.5 56.923,-131.5 20.3,-131.5 20.3,-131.5 38.594,-99.749 			"/>
		</g>
		<g>
			<polygon fill="#FFFFBE" stroke="#FFFF00" stroke-width="4" stroke-linejoin="round" stroke-miterlimit="10" points="
				93.904,-131.751 75.575,-100 75.575,-100 112.198,-100 112.198,-100 93.904,-131.751 			"/>
			<polygon fill="#FFFFBE" stroke="#FFFF00" stroke-width="4" stroke-linejoin="round" stroke-miterlimit="10" points="
				112.17,-100.248 130.498,-132 130.498,-132 93.875,-132 93.875,-132 112.17,-100.248 			"/>
			<polygon fill="#FFFFBE" stroke="#FFFF00" stroke-width="4" stroke-linejoin="round" stroke-miterlimit="10" points="
				75.569,-100.248 93.898,-132 93.898,-132 57.275,-132 57.275,-132 75.569,-100.248 			"/>
		</g>
	</g>
</pattern>
<pattern  width="110.551" height="65" patternUnits="userSpaceOnUse" id="New_Pattern_18" viewBox="38.611 -99.5 110.551 65" overflow="visible">
	<g>
		<polygon fill="none" points="38.611,-99.5 149.162,-99.5 149.162,-34.5 38.611,-34.5 		"/>
		<g>
			<polygon fill="#009245" stroke="#006837" stroke-width="4" stroke-linejoin="round" stroke-miterlimit="10" points="
				130.879,-66.251 112.551,-34.5 112.551,-34.5 149.174,-34.5 149.174,-34.5 130.879,-66.251 			"/>
			<polygon fill="#009245" stroke="#006837" stroke-width="4" stroke-linejoin="round" stroke-miterlimit="10" points="
				167.479,-66.251 149.15,-34.5 149.15,-34.5 185.773,-34.5 185.773,-34.5 167.479,-66.251 			"/>
			<polygon fill="#009245" stroke="#006837" stroke-width="4" stroke-linejoin="round" stroke-miterlimit="10" points="
				149.18,-34.251 130.851,-2.5 130.851,-2.5 167.474,-2.5 167.474,-2.5 149.18,-34.251 			"/>
			<polygon fill="#009245" stroke="#006837" stroke-width="4" stroke-linejoin="round" stroke-miterlimit="10" points="
				167.445,-2.748 185.773,-34.5 185.773,-34.5 149.15,-34.5 149.15,-34.5 167.445,-2.748 			"/>
			<polygon fill="#009245" stroke="#006837" stroke-width="4" stroke-linejoin="round" stroke-miterlimit="10" points="
				130.845,-2.748 149.174,-34.5 149.174,-34.5 112.551,-34.5 112.551,-34.5 130.845,-2.748 			"/>
			<polygon fill="#009245" stroke="#006837" stroke-width="4" stroke-linejoin="round" stroke-miterlimit="10" points="
				149.145,-34.749 167.474,-66.5 167.474,-66.5 130.851,-66.5 130.851,-66.5 149.145,-34.749 			"/>
		</g>
		<g>
			<polygon fill="#009245" stroke="#006837" stroke-width="4" stroke-linejoin="round" stroke-miterlimit="10" points="
				75.604,-33.751 57.275,-2 57.275,-2 93.898,-2 93.898,-2 75.604,-33.751 			"/>
			<polygon fill="#009245" stroke="#006837" stroke-width="4" stroke-linejoin="round" stroke-miterlimit="10" points="
				112.204,-33.751 93.875,-2 93.875,-2 130.498,-2 130.498,-2 112.204,-33.751 			"/>
			<polygon fill="#009245" stroke="#006837" stroke-width="4" stroke-linejoin="round" stroke-miterlimit="10" points="
				93.869,-2.249 112.198,-34 112.198,-34 75.575,-34 75.575,-34 93.869,-2.249 			"/>
		</g>
		<g>
			<polygon fill="#009245" stroke="#006837" stroke-width="4" stroke-linejoin="round" stroke-miterlimit="10" points="
				20.328,-66.251 2,-34.5 2,-34.5 38.623,-34.5 38.623,-34.5 20.328,-66.251 			"/>
			<polygon fill="#009245" stroke="#006837" stroke-width="4" stroke-linejoin="round" stroke-miterlimit="10" points="
				56.929,-66.251 38.6,-34.5 38.6,-34.5 75.223,-34.5 75.223,-34.5 56.929,-66.251 			"/>
			<polygon fill="#009245" stroke="#006837" stroke-width="4" stroke-linejoin="round" stroke-miterlimit="10" points="
				38.629,-34.251 20.3,-2.5 20.3,-2.5 56.923,-2.5 56.923,-2.5 38.629,-34.251 			"/>
			<polygon fill="#009245" stroke="#006837" stroke-width="4" stroke-linejoin="round" stroke-miterlimit="10" points="
				56.895,-2.748 75.223,-34.5 75.223,-34.5 38.6,-34.5 38.6,-34.5 56.895,-2.748 			"/>
			<polygon fill="#009245" stroke="#006837" stroke-width="4" stroke-linejoin="round" stroke-miterlimit="10" points="
				20.294,-2.748 38.623,-34.5 38.623,-34.5 2,-34.5 2,-34.5 20.294,-2.748 			"/>
			<polygon fill="#009245" stroke="#006837" stroke-width="4" stroke-linejoin="round" stroke-miterlimit="10" points="
				38.594,-34.749 56.923,-66.5 56.923,-66.5 20.3,-66.5 20.3,-66.5 38.594,-34.749 			"/>
		</g>
		<g>
			<polygon fill="#009245" stroke="#006837" stroke-width="4" stroke-linejoin="round" stroke-miterlimit="10" points="
				130.879,-131.251 112.551,-99.5 112.551,-99.5 149.174,-99.5 149.174,-99.5 130.879,-131.251 			"/>
			<polygon fill="#009245" stroke="#006837" stroke-width="4" stroke-linejoin="round" stroke-miterlimit="10" points="
				167.479,-131.251 149.15,-99.5 149.15,-99.5 185.773,-99.5 185.773,-99.5 167.479,-131.251 			"/>
			<polygon fill="#009245" stroke="#006837" stroke-width="4" stroke-linejoin="round" stroke-miterlimit="10" points="
				149.18,-99.251 130.851,-67.5 130.851,-67.5 167.474,-67.5 167.474,-67.5 149.18,-99.251 			"/>
			<polygon fill="#009245" stroke="#006837" stroke-width="4" stroke-linejoin="round" stroke-miterlimit="10" points="
				167.445,-67.748 185.773,-99.5 185.773,-99.5 149.15,-99.5 149.15,-99.5 167.445,-67.748 			"/>
			<polygon fill="#009245" stroke="#006837" stroke-width="4" stroke-linejoin="round" stroke-miterlimit="10" points="
				130.845,-67.748 149.174,-99.5 149.174,-99.5 112.551,-99.5 112.551,-99.5 130.845,-67.748 			"/>
			<polygon fill="#009245" stroke="#006837" stroke-width="4" stroke-linejoin="round" stroke-miterlimit="10" points="
				149.145,-99.749 167.474,-131.5 167.474,-131.5 130.851,-131.5 130.851,-131.5 149.145,-99.749 			"/>
		</g>
		<g>
			<polygon fill="#009245" stroke="#006837" stroke-width="4" stroke-linejoin="round" stroke-miterlimit="10" points="
				75.604,-98.751 57.275,-67 57.275,-67 93.898,-67 93.898,-67 75.604,-98.751 			"/>
			<polygon fill="#009245" stroke="#006837" stroke-width="4" stroke-linejoin="round" stroke-miterlimit="10" points="
				112.204,-98.751 93.875,-67 93.875,-67 130.498,-67 130.498,-67 112.204,-98.751 			"/>
			<polygon fill="#009245" stroke="#006837" stroke-width="4" stroke-linejoin="round" stroke-miterlimit="10" points="
				93.904,-66.751 75.575,-35 75.575,-35 112.198,-35 112.198,-35 93.904,-66.751 			"/>
			<polygon fill="#009245" stroke="#006837" stroke-width="4" stroke-linejoin="round" stroke-miterlimit="10" points="
				112.17,-35.248 130.498,-67 130.498,-67 93.875,-67 93.875,-67 112.17,-35.248 			"/>
			<polygon fill="#009245" stroke="#006837" stroke-width="4" stroke-linejoin="round" stroke-miterlimit="10" points="
				75.569,-35.248 93.898,-67 93.898,-67 57.275,-67 57.275,-67 75.569,-35.248 			"/>
			<polygon fill="#009245" stroke="#006837" stroke-width="4" stroke-linejoin="round" stroke-miterlimit="10" points="
				93.869,-67.249 112.198,-99 112.198,-99 75.575,-99 75.575,-99 93.869,-67.249 			"/>
		</g>
		<g>
			<polygon fill="#009245" stroke="#006837" stroke-width="4" stroke-linejoin="round" stroke-miterlimit="10" points="
				20.328,-131.251 2,-99.5 2,-99.5 38.623,-99.5 38.623,-99.5 20.328,-131.251 			"/>
			<polygon fill="#009245" stroke="#006837" stroke-width="4" stroke-linejoin="round" stroke-miterlimit="10" points="
				56.929,-131.251 38.6,-99.5 38.6,-99.5 75.223,-99.5 75.223,-99.5 56.929,-131.251 			"/>
			<polygon fill="#009245" stroke="#006837" stroke-width="4" stroke-linejoin="round" stroke-miterlimit="10" points="
				38.629,-99.251 20.3,-67.5 20.3,-67.5 56.923,-67.5 56.923,-67.5 38.629,-99.251 			"/>
			<polygon fill="#009245" stroke="#006837" stroke-width="4" stroke-linejoin="round" stroke-miterlimit="10" points="
				56.895,-67.748 75.223,-99.5 75.223,-99.5 38.6,-99.5 38.6,-99.5 56.895,-67.748 			"/>
			<polygon fill="#009245" stroke="#006837" stroke-width="4" stroke-linejoin="round" stroke-miterlimit="10" points="
				20.294,-67.748 38.623,-99.5 38.623,-99.5 2,-99.5 2,-99.5 20.294,-67.748 			"/>
			<polygon fill="#009245" stroke="#006837" stroke-width="4" stroke-linejoin="round" stroke-miterlimit="10" points="
				38.594,-99.749 56.923,-131.5 56.923,-131.5 20.3,-131.5 20.3,-131.5 38.594,-99.749 			"/>
		</g>
		<g>
			<polygon fill="#009245" stroke="#006837" stroke-width="4" stroke-linejoin="round" stroke-miterlimit="10" points="
				93.904,-131.751 75.575,-100 75.575,-100 112.198,-100 112.198,-100 93.904,-131.751 			"/>
			<polygon fill="#009245" stroke="#006837" stroke-width="4" stroke-linejoin="round" stroke-miterlimit="10" points="
				112.17,-100.248 130.498,-132 130.498,-132 93.875,-132 93.875,-132 112.17,-100.248 			"/>
			<polygon fill="#009245" stroke="#006837" stroke-width="4" stroke-linejoin="round" stroke-miterlimit="10" points="
				75.569,-100.248 93.898,-132 93.898,-132 57.275,-132 57.275,-132 75.569,-100.248 			"/>
		</g>
	</g>
</pattern>
<pattern  width="110.551" height="65" patternUnits="userSpaceOnUse" id="New_Pattern_19" viewBox="38.611 -99.5 110.551 65" overflow="visible">
	<g>
		<polygon fill="none" points="38.611,-99.5 149.162,-99.5 149.162,-34.5 38.611,-34.5 		"/>
		<g>
			
				<polygon fill="#004437" stroke="#000000" stroke-width="4" stroke-linecap="round" stroke-linejoin="round" stroke-miterlimit="10" points="
				130.879,-66.251 112.551,-34.5 112.551,-34.5 149.174,-34.5 149.174,-34.5 130.879,-66.251 			"/>
			
				<polygon fill="#004437" stroke="#000000" stroke-width="4" stroke-linecap="round" stroke-linejoin="round" stroke-miterlimit="10" points="
				167.479,-66.251 149.15,-34.5 149.15,-34.5 185.773,-34.5 185.773,-34.5 167.479,-66.251 			"/>
			
				<polygon fill="#004437" stroke="#000000" stroke-width="4" stroke-linecap="round" stroke-linejoin="round" stroke-miterlimit="10" points="
				149.18,-34.251 130.851,-2.5 130.851,-2.5 167.474,-2.5 167.474,-2.5 149.18,-34.251 			"/>
			
				<polygon fill="#004437" stroke="#000000" stroke-width="4" stroke-linecap="round" stroke-linejoin="round" stroke-miterlimit="10" points="
				167.445,-2.748 185.773,-34.5 185.773,-34.5 149.15,-34.5 149.15,-34.5 167.445,-2.748 			"/>
			
				<polygon fill="#004437" stroke="#000000" stroke-width="4" stroke-linecap="round" stroke-linejoin="round" stroke-miterlimit="10" points="
				130.845,-2.748 149.174,-34.5 149.174,-34.5 112.551,-34.5 112.551,-34.5 130.845,-2.748 			"/>
			
				<polygon fill="#004437" stroke="#000000" stroke-width="4" stroke-linecap="round" stroke-linejoin="round" stroke-miterlimit="10" points="
				149.145,-34.749 167.474,-66.5 167.474,-66.5 130.851,-66.5 130.851,-66.5 149.145,-34.749 			"/>
		</g>
		<g>
			
				<polygon fill="#004437" stroke="#000000" stroke-width="4" stroke-linecap="round" stroke-linejoin="round" stroke-miterlimit="10" points="
				75.604,-33.751 57.275,-2 57.275,-2 93.898,-2 93.898,-2 75.604,-33.751 			"/>
			
				<polygon fill="#004437" stroke="#000000" stroke-width="4" stroke-linecap="round" stroke-linejoin="round" stroke-miterlimit="10" points="
				112.204,-33.751 93.875,-2 93.875,-2 130.498,-2 130.498,-2 112.204,-33.751 			"/>
			
				<polygon fill="#004437" stroke="#000000" stroke-width="4" stroke-linecap="round" stroke-linejoin="round" stroke-miterlimit="10" points="
				93.869,-2.249 112.198,-34 112.198,-34 75.575,-34 75.575,-34 93.869,-2.249 			"/>
		</g>
		<g>
			
				<polygon fill="#004437" stroke="#000000" stroke-width="4" stroke-linecap="round" stroke-linejoin="round" stroke-miterlimit="10" points="
				20.328,-66.251 2,-34.5 2,-34.5 38.623,-34.5 38.623,-34.5 20.328,-66.251 			"/>
			
				<polygon fill="#004437" stroke="#000000" stroke-width="4" stroke-linecap="round" stroke-linejoin="round" stroke-miterlimit="10" points="
				56.929,-66.251 38.6,-34.5 38.6,-34.5 75.223,-34.5 75.223,-34.5 56.929,-66.251 			"/>
			
				<polygon fill="#004437" stroke="#000000" stroke-width="4" stroke-linecap="round" stroke-linejoin="round" stroke-miterlimit="10" points="
				38.629,-34.251 20.3,-2.5 20.3,-2.5 56.923,-2.5 56.923,-2.5 38.629,-34.251 			"/>
			
				<polygon fill="#004437" stroke="#000000" stroke-width="4" stroke-linecap="round" stroke-linejoin="round" stroke-miterlimit="10" points="
				56.895,-2.748 75.223,-34.5 75.223,-34.5 38.6,-34.5 38.6,-34.5 56.895,-2.748 			"/>
			
				<polygon fill="#004437" stroke="#000000" stroke-width="4" stroke-linecap="round" stroke-linejoin="round" stroke-miterlimit="10" points="
				20.294,-2.748 38.623,-34.5 38.623,-34.5 2,-34.5 2,-34.5 20.294,-2.748 			"/>
			
				<polygon fill="#004437" stroke="#000000" stroke-width="4" stroke-linecap="round" stroke-linejoin="round" stroke-miterlimit="10" points="
				38.594,-34.749 56.923,-66.5 56.923,-66.5 20.3,-66.5 20.3,-66.5 38.594,-34.749 			"/>
		</g>
		<g>
			
				<polygon fill="#004437" stroke="#000000" stroke-width="4" stroke-linecap="round" stroke-linejoin="round" stroke-miterlimit="10" points="
				130.879,-131.251 112.551,-99.5 112.551,-99.5 149.174,-99.5 149.174,-99.5 130.879,-131.251 			"/>
			
				<polygon fill="#004437" stroke="#000000" stroke-width="4" stroke-linecap="round" stroke-linejoin="round" stroke-miterlimit="10" points="
				167.479,-131.251 149.15,-99.5 149.15,-99.5 185.773,-99.5 185.773,-99.5 167.479,-131.251 			"/>
			
				<polygon fill="#004437" stroke="#000000" stroke-width="4" stroke-linecap="round" stroke-linejoin="round" stroke-miterlimit="10" points="
				149.18,-99.251 130.851,-67.5 130.851,-67.5 167.474,-67.5 167.474,-67.5 149.18,-99.251 			"/>
			
				<polygon fill="#004437" stroke="#000000" stroke-width="4" stroke-linecap="round" stroke-linejoin="round" stroke-miterlimit="10" points="
				167.445,-67.748 185.773,-99.5 185.773,-99.5 149.15,-99.5 149.15,-99.5 167.445,-67.748 			"/>
			
				<polygon fill="#004437" stroke="#000000" stroke-width="4" stroke-linecap="round" stroke-linejoin="round" stroke-miterlimit="10" points="
				130.845,-67.748 149.174,-99.5 149.174,-99.5 112.551,-99.5 112.551,-99.5 130.845,-67.748 			"/>
			
				<polygon fill="#004437" stroke="#000000" stroke-width="4" stroke-linecap="round" stroke-linejoin="round" stroke-miterlimit="10" points="
				149.145,-99.749 167.474,-131.5 167.474,-131.5 130.851,-131.5 130.851,-131.5 149.145,-99.749 			"/>
		</g>
		<g>
			
				<polygon fill="#004437" stroke="#000000" stroke-width="4" stroke-linecap="round" stroke-linejoin="round" stroke-miterlimit="10" points="
				75.604,-98.751 57.275,-67 57.275,-67 93.898,-67 93.898,-67 75.604,-98.751 			"/>
			
				<polygon fill="#004437" stroke="#000000" stroke-width="4" stroke-linecap="round" stroke-linejoin="round" stroke-miterlimit="10" points="
				112.204,-98.751 93.875,-67 93.875,-67 130.498,-67 130.498,-67 112.204,-98.751 			"/>
			
				<polygon fill="#004437" stroke="#000000" stroke-width="4" stroke-linecap="round" stroke-linejoin="round" stroke-miterlimit="10" points="
				93.904,-66.751 75.575,-35 75.575,-35 112.198,-35 112.198,-35 93.904,-66.751 			"/>
			
				<polygon fill="#004437" stroke="#000000" stroke-width="4" stroke-linecap="round" stroke-linejoin="round" stroke-miterlimit="10" points="
				112.17,-35.248 130.498,-67 130.498,-67 93.875,-67 93.875,-67 112.17,-35.248 			"/>
			
				<polygon fill="#004437" stroke="#000000" stroke-width="4" stroke-linecap="round" stroke-linejoin="round" stroke-miterlimit="10" points="
				75.569,-35.248 93.898,-67 93.898,-67 57.275,-67 57.275,-67 75.569,-35.248 			"/>
			
				<polygon fill="#004437" stroke="#000000" stroke-width="4" stroke-linecap="round" stroke-linejoin="round" stroke-miterlimit="10" points="
				93.869,-67.249 112.198,-99 112.198,-99 75.575,-99 75.575,-99 93.869,-67.249 			"/>
		</g>
		<g>
			
				<polygon fill="#004437" stroke="#000000" stroke-width="4" stroke-linecap="round" stroke-linejoin="round" stroke-miterlimit="10" points="
				20.328,-131.251 2,-99.5 2,-99.5 38.623,-99.5 38.623,-99.5 20.328,-131.251 			"/>
			
				<polygon fill="#004437" stroke="#000000" stroke-width="4" stroke-linecap="round" stroke-linejoin="round" stroke-miterlimit="10" points="
				56.929,-131.251 38.6,-99.5 38.6,-99.5 75.223,-99.5 75.223,-99.5 56.929,-131.251 			"/>
			
				<polygon fill="#004437" stroke="#000000" stroke-width="4" stroke-linecap="round" stroke-linejoin="round" stroke-miterlimit="10" points="
				38.629,-99.251 20.3,-67.5 20.3,-67.5 56.923,-67.5 56.923,-67.5 38.629,-99.251 			"/>
			
				<polygon fill="#004437" stroke="#000000" stroke-width="4" stroke-linecap="round" stroke-linejoin="round" stroke-miterlimit="10" points="
				56.895,-67.748 75.223,-99.5 75.223,-99.5 38.6,-99.5 38.6,-99.5 56.895,-67.748 			"/>
			
				<polygon fill="#004437" stroke="#000000" stroke-width="4" stroke-linecap="round" stroke-linejoin="round" stroke-miterlimit="10" points="
				20.294,-67.748 38.623,-99.5 38.623,-99.5 2,-99.5 2,-99.5 20.294,-67.748 			"/>
			
				<polygon fill="#004437" stroke="#000000" stroke-width="4" stroke-linecap="round" stroke-linejoin="round" stroke-miterlimit="10" points="
				38.594,-99.749 56.923,-131.5 56.923,-131.5 20.3,-131.5 20.3,-131.5 38.594,-99.749 			"/>
		</g>
		<g>
			
				<polygon fill="#004437" stroke="#000000" stroke-width="4" stroke-linecap="round" stroke-linejoin="round" stroke-miterlimit="10" points="
				93.904,-131.751 75.575,-100 75.575,-100 112.198,-100 112.198,-100 93.904,-131.751 			"/>
			
				<polygon fill="#004437" stroke="#000000" stroke-width="4" stroke-linecap="round" stroke-linejoin="round" stroke-miterlimit="10" points="
				112.17,-100.248 130.498,-132 130.498,-132 93.875,-132 93.875,-132 112.17,-100.248 			"/>
			
				<polygon fill="#004437" stroke="#000000" stroke-width="4" stroke-linecap="round" stroke-linejoin="round" stroke-miterlimit="10" points="
				75.569,-100.248 93.898,-132 93.898,-132 57.275,-132 57.275,-132 75.569,-100.248 			"/>
		</g>
	</g>
</pattern>
<pattern  width="110.551" height="65" patternUnits="userSpaceOnUse" id="New_Pattern_4" viewBox="38.611 -99.5 110.551 65" overflow="visible">
	<g>
		<polygon fill="none" points="38.611,-99.5 149.162,-99.5 149.162,-34.5 38.611,-34.5 		"/>
		<g>
			<polygon fill="#CCFFCC" stroke="#009900" stroke-width="4" stroke-linejoin="round" stroke-miterlimit="10" points="
				130.879,-66.251 112.551,-34.5 112.551,-34.5 149.174,-34.5 149.174,-34.5 130.879,-66.251 			"/>
			<polygon fill="#CCFFCC" stroke="#009900" stroke-width="4" stroke-linejoin="round" stroke-miterlimit="10" points="
				167.479,-66.251 149.15,-34.5 149.15,-34.5 185.773,-34.5 185.773,-34.5 167.479,-66.251 			"/>
			<polygon fill="#CCFFCC" stroke="#009900" stroke-width="4" stroke-linejoin="round" stroke-miterlimit="10" points="
				149.18,-34.251 130.851,-2.5 130.851,-2.5 167.474,-2.5 167.474,-2.5 149.18,-34.251 			"/>
			<polygon fill="#CCFFCC" stroke="#009900" stroke-width="4" stroke-linejoin="round" stroke-miterlimit="10" points="
				167.445,-2.748 185.773,-34.5 185.773,-34.5 149.15,-34.5 149.15,-34.5 167.445,-2.748 			"/>
			<polygon fill="#CCFFCC" stroke="#009900" stroke-width="4" stroke-linejoin="round" stroke-miterlimit="10" points="
				130.845,-2.748 149.174,-34.5 149.174,-34.5 112.551,-34.5 112.551,-34.5 130.845,-2.748 			"/>
			<polygon fill="#CCFFCC" stroke="#009900" stroke-width="4" stroke-linejoin="round" stroke-miterlimit="10" points="
				149.145,-34.749 167.474,-66.5 167.474,-66.5 130.851,-66.5 130.851,-66.5 149.145,-34.749 			"/>
		</g>
		<g>
			<polygon fill="#CCFFCC" stroke="#009900" stroke-width="4" stroke-linejoin="round" stroke-miterlimit="10" points="
				75.604,-33.751 57.275,-2 57.275,-2 93.898,-2 93.898,-2 75.604,-33.751 			"/>
			<polygon fill="#CCFFCC" stroke="#009900" stroke-width="4" stroke-linejoin="round" stroke-miterlimit="10" points="
				112.204,-33.751 93.875,-2 93.875,-2 130.498,-2 130.498,-2 112.204,-33.751 			"/>
			<polygon fill="#CCFFCC" stroke="#009900" stroke-width="4" stroke-linejoin="round" stroke-miterlimit="10" points="
				93.869,-2.249 112.198,-34 112.198,-34 75.575,-34 75.575,-34 93.869,-2.249 			"/>
		</g>
		<g>
			<polygon fill="#CCFFCC" stroke="#009900" stroke-width="4" stroke-linejoin="round" stroke-miterlimit="10" points="
				20.328,-66.251 2,-34.5 2,-34.5 38.623,-34.5 38.623,-34.5 20.328,-66.251 			"/>
			<polygon fill="#CCFFCC" stroke="#009900" stroke-width="4" stroke-linejoin="round" stroke-miterlimit="10" points="
				56.929,-66.251 38.6,-34.5 38.6,-34.5 75.223,-34.5 75.223,-34.5 56.929,-66.251 			"/>
			<polygon fill="#CCFFCC" stroke="#009900" stroke-width="4" stroke-linejoin="round" stroke-miterlimit="10" points="
				38.629,-34.251 20.3,-2.5 20.3,-2.5 56.923,-2.5 56.923,-2.5 38.629,-34.251 			"/>
			<polygon fill="#CCFFCC" stroke="#009900" stroke-width="4" stroke-linejoin="round" stroke-miterlimit="10" points="
				56.895,-2.748 75.223,-34.5 75.223,-34.5 38.6,-34.5 38.6,-34.5 56.895,-2.748 			"/>
			<polygon fill="#CCFFCC" stroke="#009900" stroke-width="4" stroke-linejoin="round" stroke-miterlimit="10" points="
				20.294,-2.748 38.623,-34.5 38.623,-34.5 2,-34.5 2,-34.5 20.294,-2.748 			"/>
			<polygon fill="#CCFFCC" stroke="#009900" stroke-width="4" stroke-linejoin="round" stroke-miterlimit="10" points="
				38.594,-34.749 56.923,-66.5 56.923,-66.5 20.3,-66.5 20.3,-66.5 38.594,-34.749 			"/>
		</g>
		<g>
			<polygon fill="#CCFFCC" stroke="#009900" stroke-width="4" stroke-linejoin="round" stroke-miterlimit="10" points="
				130.879,-131.251 112.551,-99.5 112.551,-99.5 149.174,-99.5 149.174,-99.5 130.879,-131.251 			"/>
			<polygon fill="#CCFFCC" stroke="#009900" stroke-width="4" stroke-linejoin="round" stroke-miterlimit="10" points="
				167.479,-131.251 149.15,-99.5 149.15,-99.5 185.773,-99.5 185.773,-99.5 167.479,-131.251 			"/>
			<polygon fill="#CCFFCC" stroke="#009900" stroke-width="4" stroke-linejoin="round" stroke-miterlimit="10" points="
				149.18,-99.251 130.851,-67.5 130.851,-67.5 167.474,-67.5 167.474,-67.5 149.18,-99.251 			"/>
			<polygon fill="#CCFFCC" stroke="#009900" stroke-width="4" stroke-linejoin="round" stroke-miterlimit="10" points="
				167.445,-67.748 185.773,-99.5 185.773,-99.5 149.15,-99.5 149.15,-99.5 167.445,-67.748 			"/>
			<polygon fill="#CCFFCC" stroke="#009900" stroke-width="4" stroke-linejoin="round" stroke-miterlimit="10" points="
				130.845,-67.748 149.174,-99.5 149.174,-99.5 112.551,-99.5 112.551,-99.5 130.845,-67.748 			"/>
			<polygon fill="#CCFFCC" stroke="#009900" stroke-width="4" stroke-linejoin="round" stroke-miterlimit="10" points="
				149.145,-99.749 167.474,-131.5 167.474,-131.5 130.851,-131.5 130.851,-131.5 149.145,-99.749 			"/>
		</g>
		<g>
			<polygon fill="#CCFFCC" stroke="#009900" stroke-width="4" stroke-linejoin="round" stroke-miterlimit="10" points="
				75.604,-98.751 57.275,-67 57.275,-67 93.898,-67 93.898,-67 75.604,-98.751 			"/>
			<polygon fill="#CCFFCC" stroke="#009900" stroke-width="4" stroke-linejoin="round" stroke-miterlimit="10" points="
				112.204,-98.751 93.875,-67 93.875,-67 130.498,-67 130.498,-67 112.204,-98.751 			"/>
			<polygon fill="#CCFFCC" stroke="#009900" stroke-width="4" stroke-linejoin="round" stroke-miterlimit="10" points="
				93.904,-66.751 75.575,-35 75.575,-35 112.198,-35 112.198,-35 93.904,-66.751 			"/>
			<polygon fill="#CCFFCC" stroke="#009900" stroke-width="4" stroke-linejoin="round" stroke-miterlimit="10" points="
				112.17,-35.248 130.498,-67 130.498,-67 93.875,-67 93.875,-67 112.17,-35.248 			"/>
			<polygon fill="#CCFFCC" stroke="#009900" stroke-width="4" stroke-linejoin="round" stroke-miterlimit="10" points="
				75.569,-35.248 93.898,-67 93.898,-67 57.275,-67 57.275,-67 75.569,-35.248 			"/>
			<polygon fill="#CCFFCC" stroke="#009900" stroke-width="4" stroke-linejoin="round" stroke-miterlimit="10" points="
				93.869,-67.249 112.198,-99 112.198,-99 75.575,-99 75.575,-99 93.869,-67.249 			"/>
		</g>
		<g>
			<polygon fill="#CCFFCC" stroke="#009900" stroke-width="4" stroke-linejoin="round" stroke-miterlimit="10" points="
				20.328,-131.251 2,-99.5 2,-99.5 38.623,-99.5 38.623,-99.5 20.328,-131.251 			"/>
			<polygon fill="#CCFFCC" stroke="#009900" stroke-width="4" stroke-linejoin="round" stroke-miterlimit="10" points="
				56.929,-131.251 38.6,-99.5 38.6,-99.5 75.223,-99.5 75.223,-99.5 56.929,-131.251 			"/>
			<polygon fill="#CCFFCC" stroke="#009900" stroke-width="4" stroke-linejoin="round" stroke-miterlimit="10" points="
				38.629,-99.251 20.3,-67.5 20.3,-67.5 56.923,-67.5 56.923,-67.5 38.629,-99.251 			"/>
			<polygon fill="#CCFFCC" stroke="#009900" stroke-width="4" stroke-linejoin="round" stroke-miterlimit="10" points="
				56.895,-67.748 75.223,-99.5 75.223,-99.5 38.6,-99.5 38.6,-99.5 56.895,-67.748 			"/>
			<polygon fill="#CCFFCC" stroke="#009900" stroke-width="4" stroke-linejoin="round" stroke-miterlimit="10" points="
				20.294,-67.748 38.623,-99.5 38.623,-99.5 2,-99.5 2,-99.5 20.294,-67.748 			"/>
			<polygon fill="#CCFFCC" stroke="#009900" stroke-width="4" stroke-linejoin="round" stroke-miterlimit="10" points="
				38.594,-99.749 56.923,-131.5 56.923,-131.5 20.3,-131.5 20.3,-131.5 38.594,-99.749 			"/>
		</g>
		<g>
			<polygon fill="#CCFFCC" stroke="#009900" stroke-width="4" stroke-linejoin="round" stroke-miterlimit="10" points="
				93.904,-131.751 75.575,-100 75.575,-100 112.198,-100 112.198,-100 93.904,-131.751 			"/>
			<polygon fill="#CCFFCC" stroke="#009900" stroke-width="4" stroke-linejoin="round" stroke-miterlimit="10" points="
				112.17,-100.248 130.498,-132 130.498,-132 93.875,-132 93.875,-132 112.17,-100.248 			"/>
			<polygon fill="#CCFFCC" stroke="#009900" stroke-width="4" stroke-linejoin="round" stroke-miterlimit="10" points="
				75.569,-100.248 93.898,-132 93.898,-132 57.275,-132 57.275,-132 75.569,-100.248 			"/>
		</g>
	</g>
</pattern>
<pattern  width="110.551" height="65" patternUnits="userSpaceOnUse" id="New_Pattern_7" viewBox="38.611 -99.5 110.551 65" overflow="visible">
	<g>
		<polygon fill="none" points="38.611,-99.5 149.162,-99.5 149.162,-34.5 38.611,-34.5 		"/>
		<g>
			<polygon fill="#FFFFFF" stroke="#B3B3B3" stroke-width="4" stroke-linejoin="round" stroke-miterlimit="10" points="
				130.879,-66.251 112.551,-34.5 112.551,-34.5 149.174,-34.5 149.174,-34.5 130.879,-66.251 			"/>
			<polygon fill="#FFFFFF" stroke="#B3B3B3" stroke-width="4" stroke-linejoin="round" stroke-miterlimit="10" points="
				167.479,-66.251 149.15,-34.5 149.15,-34.5 185.773,-34.5 185.773,-34.5 167.479,-66.251 			"/>
			<polygon fill="#FFFFFF" stroke="#B3B3B3" stroke-width="4" stroke-linejoin="round" stroke-miterlimit="10" points="
				149.18,-34.251 130.851,-2.5 130.851,-2.5 167.474,-2.5 167.474,-2.5 149.18,-34.251 			"/>
			<polygon fill="#FFFFFF" stroke="#B3B3B3" stroke-width="4" stroke-linejoin="round" stroke-miterlimit="10" points="
				167.445,-2.748 185.773,-34.5 185.773,-34.5 149.15,-34.5 149.15,-34.5 167.445,-2.748 			"/>
			<polygon fill="#FFFFFF" stroke="#B3B3B3" stroke-width="4" stroke-linejoin="round" stroke-miterlimit="10" points="
				130.845,-2.748 149.174,-34.5 149.174,-34.5 112.551,-34.5 112.551,-34.5 130.845,-2.748 			"/>
			<polygon fill="#FFFFFF" stroke="#B3B3B3" stroke-width="4" stroke-linejoin="round" stroke-miterlimit="10" points="
				149.145,-34.749 167.474,-66.5 167.474,-66.5 130.851,-66.5 130.851,-66.5 149.145,-34.749 			"/>
		</g>
		<g>
			<polygon fill="#FFFFFF" stroke="#B3B3B3" stroke-width="4" stroke-linejoin="round" stroke-miterlimit="10" points="
				75.604,-33.751 57.275,-2 57.275,-2 93.898,-2 93.898,-2 75.604,-33.751 			"/>
			<polygon fill="#FFFFFF" stroke="#B3B3B3" stroke-width="4" stroke-linejoin="round" stroke-miterlimit="10" points="
				112.204,-33.751 93.875,-2 93.875,-2 130.498,-2 130.498,-2 112.204,-33.751 			"/>
			<polygon fill="#FFFFFF" stroke="#B3B3B3" stroke-width="4" stroke-linejoin="round" stroke-miterlimit="10" points="
				93.869,-2.249 112.198,-34 112.198,-34 75.575,-34 75.575,-34 93.869,-2.249 			"/>
		</g>
		<g>
			<polygon fill="#FFFFFF" stroke="#B3B3B3" stroke-width="4" stroke-linejoin="round" stroke-miterlimit="10" points="
				20.328,-66.251 2,-34.5 2,-34.5 38.623,-34.5 38.623,-34.5 20.328,-66.251 			"/>
			<polygon fill="#FFFFFF" stroke="#B3B3B3" stroke-width="4" stroke-linejoin="round" stroke-miterlimit="10" points="
				56.929,-66.251 38.6,-34.5 38.6,-34.5 75.223,-34.5 75.223,-34.5 56.929,-66.251 			"/>
			<polygon fill="#FFFFFF" stroke="#B3B3B3" stroke-width="4" stroke-linejoin="round" stroke-miterlimit="10" points="
				38.629,-34.251 20.3,-2.5 20.3,-2.5 56.923,-2.5 56.923,-2.5 38.629,-34.251 			"/>
			<polygon fill="#FFFFFF" stroke="#B3B3B3" stroke-width="4" stroke-linejoin="round" stroke-miterlimit="10" points="
				56.895,-2.748 75.223,-34.5 75.223,-34.5 38.6,-34.5 38.6,-34.5 56.895,-2.748 			"/>
			<polygon fill="#FFFFFF" stroke="#B3B3B3" stroke-width="4" stroke-linejoin="round" stroke-miterlimit="10" points="
				20.294,-2.748 38.623,-34.5 38.623,-34.5 2,-34.5 2,-34.5 20.294,-2.748 			"/>
			<polygon fill="#FFFFFF" stroke="#B3B3B3" stroke-width="4" stroke-linejoin="round" stroke-miterlimit="10" points="
				38.594,-34.749 56.923,-66.5 56.923,-66.5 20.3,-66.5 20.3,-66.5 38.594,-34.749 			"/>
		</g>
		<g>
			<polygon fill="#FFFFFF" stroke="#B3B3B3" stroke-width="4" stroke-linejoin="round" stroke-miterlimit="10" points="
				130.879,-131.251 112.551,-99.5 112.551,-99.5 149.174,-99.5 149.174,-99.5 130.879,-131.251 			"/>
			<polygon fill="#FFFFFF" stroke="#B3B3B3" stroke-width="4" stroke-linejoin="round" stroke-miterlimit="10" points="
				167.479,-131.251 149.15,-99.5 149.15,-99.5 185.773,-99.5 185.773,-99.5 167.479,-131.251 			"/>
			<polygon fill="#FFFFFF" stroke="#B3B3B3" stroke-width="4" stroke-linejoin="round" stroke-miterlimit="10" points="
				149.18,-99.251 130.851,-67.5 130.851,-67.5 167.474,-67.5 167.474,-67.5 149.18,-99.251 			"/>
			<polygon fill="#FFFFFF" stroke="#B3B3B3" stroke-width="4" stroke-linejoin="round" stroke-miterlimit="10" points="
				167.445,-67.748 185.773,-99.5 185.773,-99.5 149.15,-99.5 149.15,-99.5 167.445,-67.748 			"/>
			<polygon fill="#FFFFFF" stroke="#B3B3B3" stroke-width="4" stroke-linejoin="round" stroke-miterlimit="10" points="
				130.845,-67.748 149.174,-99.5 149.174,-99.5 112.551,-99.5 112.551,-99.5 130.845,-67.748 			"/>
			<polygon fill="#FFFFFF" stroke="#B3B3B3" stroke-width="4" stroke-linejoin="round" stroke-miterlimit="10" points="
				149.145,-99.749 167.474,-131.5 167.474,-131.5 130.851,-131.5 130.851,-131.5 149.145,-99.749 			"/>
		</g>
		<g>
			<polygon fill="#FFFFFF" stroke="#B3B3B3" stroke-width="4" stroke-linejoin="round" stroke-miterlimit="10" points="
				75.604,-98.751 57.275,-67 57.275,-67 93.898,-67 93.898,-67 75.604,-98.751 			"/>
			<polygon fill="#FFFFFF" stroke="#B3B3B3" stroke-width="4" stroke-linejoin="round" stroke-miterlimit="10" points="
				112.204,-98.751 93.875,-67 93.875,-67 130.498,-67 130.498,-67 112.204,-98.751 			"/>
			<polygon fill="#FFFFFF" stroke="#B3B3B3" stroke-width="4" stroke-linejoin="round" stroke-miterlimit="10" points="
				93.904,-66.751 75.575,-35 75.575,-35 112.198,-35 112.198,-35 93.904,-66.751 			"/>
			<polygon fill="#FFFFFF" stroke="#B3B3B3" stroke-width="4" stroke-linejoin="round" stroke-miterlimit="10" points="
				112.17,-35.248 130.498,-67 130.498,-67 93.875,-67 93.875,-67 112.17,-35.248 			"/>
			<polygon fill="#FFFFFF" stroke="#B3B3B3" stroke-width="4" stroke-linejoin="round" stroke-miterlimit="10" points="
				75.569,-35.248 93.898,-67 93.898,-67 57.275,-67 57.275,-67 75.569,-35.248 			"/>
			<polygon fill="#FFFFFF" stroke="#B3B3B3" stroke-width="4" stroke-linejoin="round" stroke-miterlimit="10" points="
				93.869,-67.249 112.198,-99 112.198,-99 75.575,-99 75.575,-99 93.869,-67.249 			"/>
		</g>
		<g>
			<polygon fill="#FFFFFF" stroke="#B3B3B3" stroke-width="4" stroke-linejoin="round" stroke-miterlimit="10" points="
				20.328,-131.251 2,-99.5 2,-99.5 38.623,-99.5 38.623,-99.5 20.328,-131.251 			"/>
			<polygon fill="#FFFFFF" stroke="#B3B3B3" stroke-width="4" stroke-linejoin="round" stroke-miterlimit="10" points="
				56.929,-131.251 38.6,-99.5 38.6,-99.5 75.223,-99.5 75.223,-99.5 56.929,-131.251 			"/>
			<polygon fill="#FFFFFF" stroke="#B3B3B3" stroke-width="4" stroke-linejoin="round" stroke-miterlimit="10" points="
				38.629,-99.251 20.3,-67.5 20.3,-67.5 56.923,-67.5 56.923,-67.5 38.629,-99.251 			"/>
			<polygon fill="#FFFFFF" stroke="#B3B3B3" stroke-width="4" stroke-linejoin="round" stroke-miterlimit="10" points="
				56.895,-67.748 75.223,-99.5 75.223,-99.5 38.6,-99.5 38.6,-99.5 56.895,-67.748 			"/>
			<polygon fill="#FFFFFF" stroke="#B3B3B3" stroke-width="4" stroke-linejoin="round" stroke-miterlimit="10" points="
				20.294,-67.748 38.623,-99.5 38.623,-99.5 2,-99.5 2,-99.5 20.294,-67.748 			"/>
			<polygon fill="#FFFFFF" stroke="#B3B3B3" stroke-width="4" stroke-linejoin="round" stroke-miterlimit="10" points="
				38.594,-99.749 56.923,-131.5 56.923,-131.5 20.3,-131.5 20.3,-131.5 38.594,-99.749 			"/>
		</g>
		<g>
			<polygon fill="#FFFFFF" stroke="#B3B3B3" stroke-width="4" stroke-linejoin="round" stroke-miterlimit="10" points="
				93.904,-131.751 75.575,-100 75.575,-100 112.198,-100 112.198,-100 93.904,-131.751 			"/>
			<polygon fill="#FFFFFF" stroke="#B3B3B3" stroke-width="4" stroke-linejoin="round" stroke-miterlimit="10" points="
				112.17,-100.248 130.498,-132 130.498,-132 93.875,-132 93.875,-132 112.17,-100.248 			"/>
			<polygon fill="#FFFFFF" stroke="#B3B3B3" stroke-width="4" stroke-linejoin="round" stroke-miterlimit="10" points="
				75.569,-100.248 93.898,-132 93.898,-132 57.275,-132 57.275,-132 75.569,-100.248 			"/>
		</g>
	</g>
</pattern>
<pattern  width="110.551" height="65" patternUnits="userSpaceOnUse" id="New_Pattern_9" viewBox="38.611 -99.5 110.551 65" overflow="visible">
	<g>
		<polygon fill="none" points="38.611,-99.5 149.162,-99.5 149.162,-34.5 38.611,-34.5 		"/>
		<g>
			<polygon fill="#E6E6E6" stroke="#666666" stroke-width="4" stroke-linejoin="round" stroke-miterlimit="10" points="
				130.879,-66.251 112.551,-34.5 112.551,-34.5 149.173,-34.5 149.173,-34.5 130.879,-66.251 			"/>
			<polygon fill="#E6E6E6" stroke="#666666" stroke-width="4" stroke-linejoin="round" stroke-miterlimit="10" points="
				167.479,-66.251 149.151,-34.5 149.151,-34.5 185.773,-34.5 185.773,-34.5 167.479,-66.251 			"/>
			<polygon fill="#E6E6E6" stroke="#666666" stroke-width="4" stroke-linejoin="round" stroke-miterlimit="10" points="
				149.179,-34.251 130.851,-2.5 130.851,-2.5 167.474,-2.5 167.474,-2.5 149.179,-34.251 			"/>
			<polygon fill="#E6E6E6" stroke="#666666" stroke-width="4" stroke-linejoin="round" stroke-miterlimit="10" points="
				167.445,-2.748 185.773,-34.5 185.773,-34.5 149.151,-34.5 149.151,-34.5 167.445,-2.748 			"/>
			<polygon fill="#E6E6E6" stroke="#666666" stroke-width="4" stroke-linejoin="round" stroke-miterlimit="10" points="
				130.845,-2.748 149.173,-34.5 149.173,-34.5 112.551,-34.5 112.551,-34.5 130.845,-2.748 			"/>
			<polygon fill="#E6E6E6" stroke="#666666" stroke-width="4" stroke-linejoin="round" stroke-miterlimit="10" points="
				149.145,-34.749 167.474,-66.5 167.474,-66.5 130.851,-66.5 130.851,-66.5 149.145,-34.749 			"/>
		</g>
		<g>
			<polygon fill="#E6E6E6" stroke="#666666" stroke-width="4" stroke-linejoin="round" stroke-miterlimit="10" points="
				75.604,-33.751 57.275,-2 57.275,-2 93.898,-2 93.898,-2 75.604,-33.751 			"/>
			<polygon fill="#E6E6E6" stroke="#666666" stroke-width="4" stroke-linejoin="round" stroke-miterlimit="10" points="
				112.204,-33.751 93.875,-2 93.875,-2 130.498,-2 130.498,-2 112.204,-33.751 			"/>
			<polygon fill="#E6E6E6" stroke="#666666" stroke-width="4" stroke-linejoin="round" stroke-miterlimit="10" points="
				93.87,-2.249 112.198,-34 112.198,-34 75.575,-34 75.575,-34 93.87,-2.249 			"/>
		</g>
		<g>
			<polygon fill="#E6E6E6" stroke="#666666" stroke-width="4" stroke-linejoin="round" stroke-miterlimit="10" points="
				20.329,-66.251 2,-34.5 2,-34.5 38.623,-34.5 38.623,-34.5 20.329,-66.251 			"/>
			<polygon fill="#E6E6E6" stroke="#666666" stroke-width="4" stroke-linejoin="round" stroke-miterlimit="10" points="
				56.929,-66.251 38.6,-34.5 38.6,-34.5 75.223,-34.5 75.223,-34.5 56.929,-66.251 			"/>
			<polygon fill="#E6E6E6" stroke="#666666" stroke-width="4" stroke-linejoin="round" stroke-miterlimit="10" points="
				38.628,-34.251 20.3,-2.5 20.3,-2.5 56.923,-2.5 56.923,-2.5 38.628,-34.251 			"/>
			<polygon fill="#E6E6E6" stroke="#666666" stroke-width="4" stroke-linejoin="round" stroke-miterlimit="10" points="
				56.894,-2.748 75.223,-34.5 75.223,-34.5 38.6,-34.5 38.6,-34.5 56.894,-2.748 			"/>
			<polygon fill="#E6E6E6" stroke="#666666" stroke-width="4" stroke-linejoin="round" stroke-miterlimit="10" points="
				20.294,-2.748 38.623,-34.5 38.623,-34.5 2,-34.5 2,-34.5 20.294,-2.748 			"/>
			<polygon fill="#E6E6E6" stroke="#666666" stroke-width="4" stroke-linejoin="round" stroke-miterlimit="10" points="
				38.594,-34.749 56.923,-66.5 56.923,-66.5 20.3,-66.5 20.3,-66.5 38.594,-34.749 			"/>
		</g>
		<g>
			<polygon fill="#E6E6E6" stroke="#666666" stroke-width="4" stroke-linejoin="round" stroke-miterlimit="10" points="
				130.879,-131.251 112.551,-99.5 112.551,-99.5 149.173,-99.5 149.173,-99.5 130.879,-131.251 			"/>
			<polygon fill="#E6E6E6" stroke="#666666" stroke-width="4" stroke-linejoin="round" stroke-miterlimit="10" points="
				167.479,-131.251 149.151,-99.5 149.151,-99.5 185.773,-99.5 185.773,-99.5 167.479,-131.251 			"/>
			<polygon fill="#E6E6E6" stroke="#666666" stroke-width="4" stroke-linejoin="round" stroke-miterlimit="10" points="
				149.179,-99.251 130.851,-67.5 130.851,-67.5 167.474,-67.5 167.474,-67.5 149.179,-99.251 			"/>
			<polygon fill="#E6E6E6" stroke="#666666" stroke-width="4" stroke-linejoin="round" stroke-miterlimit="10" points="
				167.445,-67.748 185.773,-99.5 185.773,-99.5 149.151,-99.5 149.151,-99.5 167.445,-67.748 			"/>
			<polygon fill="#E6E6E6" stroke="#666666" stroke-width="4" stroke-linejoin="round" stroke-miterlimit="10" points="
				130.845,-67.748 149.173,-99.5 149.173,-99.5 112.551,-99.5 112.551,-99.5 130.845,-67.748 			"/>
			<polygon fill="#E6E6E6" stroke="#666666" stroke-width="4" stroke-linejoin="round" stroke-miterlimit="10" points="
				149.145,-99.749 167.474,-131.5 167.474,-131.5 130.851,-131.5 130.851,-131.5 149.145,-99.749 			"/>
		</g>
		<g>
			<polygon fill="#E6E6E6" stroke="#666666" stroke-width="4" stroke-linejoin="round" stroke-miterlimit="10" points="
				75.604,-98.751 57.275,-67 57.275,-67 93.898,-67 93.898,-67 75.604,-98.751 			"/>
			<polygon fill="#E6E6E6" stroke="#666666" stroke-width="4" stroke-linejoin="round" stroke-miterlimit="10" points="
				112.204,-98.751 93.875,-67 93.875,-67 130.498,-67 130.498,-67 112.204,-98.751 			"/>
			<polygon fill="#E6E6E6" stroke="#666666" stroke-width="4" stroke-linejoin="round" stroke-miterlimit="10" points="
				93.904,-66.751 75.575,-35 75.575,-35 112.198,-35 112.198,-35 93.904,-66.751 			"/>
			<polygon fill="#E6E6E6" stroke="#666666" stroke-width="4" stroke-linejoin="round" stroke-miterlimit="10" points="
				112.169,-35.248 130.498,-67 130.498,-67 93.875,-67 93.875,-67 112.169,-35.248 			"/>
			<polygon fill="#E6E6E6" stroke="#666666" stroke-width="4" stroke-linejoin="round" stroke-miterlimit="10" points="
				75.569,-35.248 93.898,-67 93.898,-67 57.275,-67 57.275,-67 75.569,-35.248 			"/>
			<polygon fill="#E6E6E6" stroke="#666666" stroke-width="4" stroke-linejoin="round" stroke-miterlimit="10" points="
				93.87,-67.249 112.198,-99 112.198,-99 75.575,-99 75.575,-99 93.87,-67.249 			"/>
		</g>
		<g>
			<polygon fill="#E6E6E6" stroke="#666666" stroke-width="4" stroke-linejoin="round" stroke-miterlimit="10" points="
				20.329,-131.251 2,-99.5 2,-99.5 38.623,-99.5 38.623,-99.5 20.329,-131.251 			"/>
			<polygon fill="#E6E6E6" stroke="#666666" stroke-width="4" stroke-linejoin="round" stroke-miterlimit="10" points="
				56.929,-131.251 38.6,-99.5 38.6,-99.5 75.223,-99.5 75.223,-99.5 56.929,-131.251 			"/>
			<polygon fill="#E6E6E6" stroke="#666666" stroke-width="4" stroke-linejoin="round" stroke-miterlimit="10" points="
				38.628,-99.251 20.3,-67.5 20.3,-67.5 56.923,-67.5 56.923,-67.5 38.628,-99.251 			"/>
			<polygon fill="#E6E6E6" stroke="#666666" stroke-width="4" stroke-linejoin="round" stroke-miterlimit="10" points="
				56.894,-67.748 75.223,-99.5 75.223,-99.5 38.6,-99.5 38.6,-99.5 56.894,-67.748 			"/>
			<polygon fill="#E6E6E6" stroke="#666666" stroke-width="4" stroke-linejoin="round" stroke-miterlimit="10" points="
				20.294,-67.748 38.623,-99.5 38.623,-99.5 2,-99.5 2,-99.5 20.294,-67.748 			"/>
			<polygon fill="#E6E6E6" stroke="#666666" stroke-width="4" stroke-linejoin="round" stroke-miterlimit="10" points="
				38.594,-99.749 56.923,-131.5 56.923,-131.5 20.3,-131.5 20.3,-131.5 38.594,-99.749 			"/>
		</g>
		<g>
			<polygon fill="#E6E6E6" stroke="#666666" stroke-width="4" stroke-linejoin="round" stroke-miterlimit="10" points="
				93.904,-131.751 75.575,-100 75.575,-100 112.198,-100 112.198,-100 93.904,-131.751 			"/>
			<polygon fill="#E6E6E6" stroke="#666666" stroke-width="4" stroke-linejoin="round" stroke-miterlimit="10" points="
				112.169,-100.248 130.498,-132 130.498,-132 93.875,-132 93.875,-132 112.169,-100.248 			"/>
			<polygon fill="#E6E6E6" stroke="#666666" stroke-width="4" stroke-linejoin="round" stroke-miterlimit="10" points="
				75.569,-100.248 93.898,-132 93.898,-132 57.275,-132 57.275,-132 75.569,-100.248 			"/>
		</g>
	</g>
</pattern>
<path fill="#FFFF00" stroke="url(#New_Pattern_15)" stroke-miterlimit="10" d="M516.984,461.808"/>
<path fill="#FFFF00" stroke="url(#New_Pattern_15)" stroke-miterlimit="10" d="M516.984,461.808"/>
<path fill="#FFFF00" stroke="url(#New_Pattern_15)" stroke-miterlimit="10" d="M507.016,461.808"/>
<path fill="url(#New_Pattern)" d="M852.997,786.874c4.127-7.544,6.69-19.258,2.443-22.616c-4.25-3.355-6.377-5.036-6.377-5.036
	l-1.6-2.074l-12.809-8.856l-4.547-0.313c0,0-49.276-26.241-61.393-43.009c-12.114-16.768-30.598-46.208-43.659-59.422
	c-13.064-13.219-28.294-20.702-28.294-20.702s18.167,22.463,25.674,31.759c7.512,9.302-2.51,23.827-2.51,23.827l-2.563,9.779
	l-5.024,1.881l-2.552,6.04l-5.742,0.455l-5.976,9.172l-3.559,13.162l-3.133,4.629l-11.3-4.976l-9.696,7.722l12.73,12.311
	c0,0,57.657,6.797,71.021,15.092c13.373,8.298,49.75,30.937,49.75,30.937l2.282,4.037l13.567,8.107l2.128,0.182l7.951,4.878
	C844.068,802.387,848.861,794.419,852.997,786.874z"/>
<path fill="url(#New_Pattern)" d="M414.908,583.189l35.661,17.832l-0.584,6.034l-3.424,0.293l-2.056,9.265
	c0,0,3.058,1.714,1.287,5.888c-1.735,4.072-5.364,3.84-5.364,3.84c-7.651,18.06-24.13,61.116-32.046,80.679
	c-10.609,26.242-22.389,122.86-30.808,138.244l-3.901-3.279l4.495-15.403l-2.821-2.18c0,0,1.993-21.463-1.65-26.578
	c-3.638-5.099-22.191-3.995-22.191-3.995l-3.161,6.262l-28.818-26.759l-5.777,7.568l0.283-6.846c0,0-11.399,7.777-18.085,10.395
	c-6.691,2.622-18.692,0.72-18.692,0.72l-8.994,7.567l-4.812-2.759c1.997-8.479,81.464-92.063,93.803-108.754
	c12.354-16.664,33.004-55.655,44.302-74.819c0,0-2.58-2.016-0.363-6.403c2.221-4.382,6.216-2.919,6.216-2.919l3.749-5.796
	l-1.293-4.583L414.908,583.189z"/>
<g>
	<defs>
		<path id="SVGID_1_" d="M414.908,583.189l35.661,17.832l-0.584,6.034l-3.424,0.293l-2.056,9.265c0,0,3.058,1.714,1.287,5.888
			c-1.735,4.072-5.364,3.84-5.364,3.84c-7.651,18.06-24.13,61.116-32.046,80.679c-10.609,26.242-22.389,122.86-30.808,138.244
			l-3.901-3.279l4.495-15.403l-2.821-2.18c0,0,1.993-21.463-1.65-26.578c-3.638-5.099-22.191-3.995-22.191-3.995l-3.161,6.262
			l-28.818-26.759l-5.777,7.568l0.283-6.846c0,0-11.399,7.777-18.085,10.395c-6.691,2.622-18.692,0.72-18.692,0.72l-8.994,7.567
			l-4.812-2.759c1.997-8.479,81.464-92.063,93.803-108.754c12.354-16.664,33.004-55.655,44.302-74.819c0,0-2.58-2.016-0.363-6.403
			c2.221-4.382,6.216-2.919,6.216-2.919l3.749-5.796l-1.293-4.583L414.908,583.189z"/>
	</defs>
	<clipPath id="SVGID_2_">
		<use xlink:href="#SVGID_1_"  overflow="visible"/>
	</clipPath>
	<circle clip-path="url(#SVGID_2_)" fill="url(#New_Pattern_4)" cx="512.025" cy="512.006" r="168.75"/>
</g>
<path fill="url(#New_Pattern)" d="M249.371,843.548c3.91,3.852,7.561,0.742,7.561,0.742l33.044-27.542c0,0,0.659-3.182-1.233-5.809
	c-1.893-2.629-6.039-2.146-6.039-2.146s-1.875-8.993-4.423-12.442l-4.999-1.532c0,0-45.511-73.286-51.543-82.668
	c-6.039-9.391-9.83-35.552-12.588-42.658c-2.769-7.096-30.357-41.466-28.825-36.764c1.521,4.708-5.804,0.493-5.804,0.493
	l9.316,10.757l0.167,6.329c0,0,8.343,16.884,6.781,17.417c-1.551,0.541-6.804-4.638-5.613,2.5l-5.11,6.888l-9.872,7.696
	l-5.516,5.525c0,0-2.514,2.853-8.607,4.679c-1.361,6.188-1.679,12.855-4.032,18.05c-3.543,7.861-8.44,14.475-6.928,19.788
	c4.38,7.711,6.517,5.24,11.473,10.268c4.952,5.026,7.352,17.146,7.352,17.146l72.121,64.695c0,0,0.755,2.226,1.463,6.464
	c2.753,3.455,10.851,6.997,10.851,6.997S247.125,841.334,249.371,843.548z"/>
<path fill="none" stroke="url(#New_Pattern_9)" stroke-width="10.3671" stroke-linecap="round" stroke-miterlimit="10" d="
	M267.897,176.889c-13.849-1.958-27.836-3.045-41.852-3.271"/>
<path fill="none" stroke="url(#New_Pattern_9)" stroke-width="10.3671" stroke-linecap="round" stroke-miterlimit="10" d="
	M340.636,195.553c-14.692-5.578-29.755-10.098-45.043-13.575"/>
<path fill="url(#New_Pattern_7)" d="M414.46,239.796c-1.029,0-2.067-0.306-2.974-0.941c-14.421-10.121-29.997-19.24-46.295-27.104
	c-2.578-1.244-3.66-4.342-2.416-6.921c1.244-2.578,4.342-3.661,6.921-2.416c16.803,8.106,32.867,17.512,47.747,27.955
	c2.343,1.645,2.909,4.877,1.265,7.221C417.698,239.027,416.092,239.796,414.46,239.796z"/>
<g>
	<defs>
		<path id="SVGID_3_" d="M414.46,239.796c-1.029,0-2.067-0.306-2.974-0.941c-14.421-10.121-29.997-19.24-46.295-27.104
			c-2.578-1.244-3.66-4.342-2.416-6.921c1.244-2.578,4.342-3.661,6.921-2.416c16.803,8.106,32.867,17.512,47.747,27.955
			c2.343,1.645,2.909,4.877,1.265,7.221C417.698,239.027,416.092,239.796,414.46,239.796z"/>
	</defs>
	<clipPath id="SVGID_4_">
		<use xlink:href="#SVGID_3_"  overflow="visible"/>
	</clipPath>
	<path clip-path="url(#SVGID_4_)" fill="url(#New_Pattern_9)" d="M31,494.073C123,323.987,303.623,210,510.926,210h0.125
		c207.303,0,387.25,114.344,479.875,284.43l-0.358-0.873C979.794,238.001,769.182,34.063,510.975,34.063
		C252.867,34.063,41,238.443,31,493.86V494.073z"/>
</g>
<path fill="none" stroke="url(#New_Pattern_7)" stroke-width="10.3671" stroke-linecap="round" stroke-miterlimit="10" d="
	M476.728,291.272c-12.218-14.309-25.452-27.377-39.529-39.183"/>
<path fill="url(#New_Pattern)" d="M276.865,470.957c0.387-1.113,3.1-3.238,3.1-3.238s-1-1.629,0.945-2.997
	c2.194-1.525,3.245,0.364,3.245,0.364l112.191-95.999c0,0,12.622-27.861,20.328-37.79c7.698-9.912,178.453-125.46,178.453-125.46
	s9.966-5.192,20.344-1.358c10.375,3.833,30.236,33.236,30.236,33.236l-0.081-0.139c0,0,20.834,28.736,20.885,39.792
	c0.042,11.063-8.305,18.704-8.305,18.704S491.228,416.946,479.271,420.795c-11.954,3.839-42.437,6.142-42.437,6.142L308.25,499.493
	c0,0,1.423,1.651-0.773,3.181c-1.955,1.368-3.136-0.139-3.136-0.139s-2.922,1.831-4.106,1.802"/>
<g>
	<defs>
		<path id="SVGID_5_" d="M277.177,470.957c0.387-1.113,3.1-3.238,3.1-3.238s-1-1.629,0.945-2.997
			c2.194-1.525,3.245,0.364,3.245,0.364l112.191-95.999c0,0,12.622-27.861,20.328-37.79c7.698-9.912,178.453-125.46,178.453-125.46
			s9.965-5.192,20.344-1.358c10.375,3.833,30.236,33.236,30.236,33.236l-0.082-0.139c0,0,20.834,28.736,20.885,39.792
			c0.043,11.063-8.305,18.704-8.305,18.704S491.54,416.946,479.582,420.795c-11.954,3.839-42.436,6.142-42.436,6.142
			l-128.584,72.555c0,0,1.423,1.651-0.773,3.181c-1.955,1.368-3.136-0.139-3.136-0.139s-2.922,1.831-4.106,1.802"/>
	</defs>
	<clipPath id="SVGID_6_">
		<use xlink:href="#SVGID_5_"  overflow="visible"/>
	</clipPath>
	<path clip-path="url(#SVGID_6_)" fill="url(#New_Pattern_18)" d="M31,494.073C123,323.987,303.935,210,511.238,210h0.125
		c207.303,0,387.25,114.344,479.875,284.43l-0.359-0.873C980.105,238.001,769.338,34.063,511.131,34.063
		C253.023,34.063,41,238.443,31,493.86V494.073z"/>
</g>
<g>
	<defs>
		<path id="SVGID_7_" d="M276.177,471.255c0.387-1.113,3.1-3.238,3.1-3.238s-1-1.629,0.945-2.997
			c2.194-1.525,3.245,0.364,3.245,0.364l112.191-95.999c0,0,12.622-27.861,20.328-37.79c7.698-9.912,178.452-125.46,178.452-125.46
			s9.966-5.192,20.344-1.358c10.375,3.833,30.236,33.236,30.236,33.236l-0.081-0.139c0,0,20.834,28.736,20.885,39.792
			c0.042,11.063-8.305,18.704-8.305,18.704S490.54,417.244,478.582,421.094c-11.954,3.839-42.436,6.142-42.436,6.142
			l-128.584,72.556c0,0,1.423,1.651-0.773,3.181c-1.955,1.368-3.136-0.139-3.136-0.139s-2.922,1.83-4.106,1.802"/>
	</defs>
	<clipPath id="SVGID_8_">
		<use xlink:href="#SVGID_7_"  overflow="visible"/>
	</clipPath>
	<circle clip-path="url(#SVGID_8_)" fill="url(#New_Pattern_4)" cx="511.337" cy="512.304" r="168.75"/>
</g>
<path fill="url(#New_Pattern_18)" d="M639.188,242.181c0,0-20.958-27.634-24.873-29.902c-3.918-2.274-12.741-2.363-12.741-2.363
	s-1.142,4.002,1.112,7.991c-4.656-4.086-7.193-1.59-7.193-1.59S439.415,317.851,423.03,336.545
	c-10.941,12.496-19.592,23.409-9.157,41.882c-10.693-9.158-12.811-2.963-12.811-2.963s-110.515,90.435-114.029,92.762
	c-3.087,2.038-5.732,6.065-7.272,6.295c-1.179,0.177-3.278-2.445-2.896-3.564c0.387-1.113,3.1-3.238,3.1-3.238s-1-1.629,0.945-2.997
	c2.194-1.525,3.245,0.364,3.245,0.364l112.191-95.999c0,0,12.622-27.861,20.328-37.79c7.698-9.912,178.453-125.46,178.453-125.46
	s9.966-5.192,20.344-1.358c10.375,3.833,30.236,33.236,30.236,33.236l-0.081-0.139c0,0,20.834,28.736,20.885,39.792
	c0.042,11.063-8.305,18.704-8.305,18.704S491.228,416.946,479.271,420.795c-11.954,3.839-42.437,6.142-42.437,6.142L308.25,499.493
	c0,0,1.423,1.651-0.773,3.181c-1.955,1.368-3.136-0.139-3.136-0.139s-2.922,1.831-4.106,1.802c-1.188-0.014-2.923-2.882-2.354-3.941
	c0.738-1.369,5.419-2.482,8.398-4.674c3.393-2.505,126.184-75.391,126.184-75.391s6.546,0.125,1.604-13.058
	c13.786,16.124,27.003,11.739,42.487,5.729c23.174-9.003,171.993-120.9,171.993-120.9s3.212-1.54,0.969-7.311
	c2.972,3.482,7.113,3.784,7.113,3.784s2.941-8.325,2.145-12.783C657.982,271.335,639.188,242.181,639.188,242.181z"/>
<g>
	<defs>
		<path id="SVGID_9_" d="M639.188,242.181c0,0-20.958-27.634-24.873-29.902c-3.918-2.274-12.741-2.363-12.741-2.363
			s-1.142,4.002,1.112,7.991c-4.656-4.086-7.193-1.59-7.193-1.59S439.415,317.851,423.03,336.545
			c-10.941,12.496-19.592,23.409-9.157,41.882c-10.693-9.158-12.811-2.963-12.811-2.963s-110.515,90.435-114.029,92.762
			c-3.087,2.038-5.732,6.065-7.272,6.295c-1.179,0.177-3.278-2.445-2.896-3.563c0.387-1.113,3.1-3.238,3.1-3.238
			s-1-1.629,0.945-2.997c2.194-1.525,3.245,0.364,3.245,0.364l112.191-95.999c0,0,12.622-27.861,20.328-37.79
			c7.698-9.912,178.453-125.46,178.453-125.46s9.966-5.192,20.344-1.358c10.375,3.833,30.236,33.236,30.236,33.236l-0.081-0.139
			c0,0,20.834,28.736,20.885,39.792c0.042,11.063-8.305,18.704-8.305,18.704S491.228,416.946,479.271,420.795
			c-11.954,3.839-42.437,6.142-42.437,6.142L308.25,499.492c0,0,1.423,1.652-0.773,3.182c-1.955,1.367-3.136-0.139-3.136-0.139
			s-2.922,1.83-4.106,1.801c-1.188-0.014-2.923-2.881-2.354-3.941c0.738-1.369,5.419-2.481,8.398-4.674
			c3.393-2.505,126.184-75.39,126.184-75.39s6.546,0.125,1.604-13.058c13.786,16.124,27.003,11.739,42.487,5.729
			c23.174-9.003,171.993-120.9,171.993-120.9s3.212-1.54,0.969-7.311c2.972,3.482,7.113,3.784,7.113,3.784s2.941-8.325,2.145-12.783
			C657.982,271.335,639.188,242.181,639.188,242.181z"/>
	</defs>
	<clipPath id="SVGID_10_">
		<use xlink:href="#SVGID_9_"  overflow="visible"/>
	</clipPath>
	<circle clip-path="url(#SVGID_10_)" fill="url(#New_Pattern)" cx="512" cy="512" r="168.75"/>
</g>
<g>
	<defs>
		<path id="SVGID_11_" d="M639.188,242.181c0,0-20.958-27.634-24.873-29.902c-3.918-2.274-12.741-2.363-12.741-2.363
			s-1.142,4.002,1.112,7.991c-4.656-4.086-7.193-1.59-7.193-1.59S439.415,317.851,423.03,336.545
			c-10.941,12.496-19.592,23.409-9.157,41.882c-10.693-9.158-12.811-2.963-12.811-2.963s-110.515,90.435-114.029,92.762
			c-3.087,2.038-5.732,6.065-7.272,6.295c-1.179,0.177-3.278-2.445-2.896-3.564c0.387-1.113,3.1-3.238,3.1-3.238
			s-1-1.629,0.945-2.997c2.194-1.525,3.245,0.364,3.245,0.364l112.191-95.999c0,0,12.622-27.861,20.328-37.79
			c7.698-9.912,178.453-125.46,178.453-125.46s9.966-5.192,20.344-1.358c10.375,3.833,30.236,33.236,30.236,33.236l-0.081-0.139
			c0,0,20.834,28.736,20.885,39.792c0.042,11.063-8.305,18.704-8.305,18.704S491.228,416.946,479.271,420.795
			c-11.954,3.839-42.437,6.142-42.437,6.142L308.25,499.493c0,0,1.423,1.651-0.773,3.181c-1.955,1.368-3.136-0.139-3.136-0.139
			s-2.922,1.831-4.106,1.802c-1.188-0.014-2.923-2.882-2.354-3.941c0.738-1.369,5.419-2.482,8.398-4.674
			c3.393-2.505,126.184-75.391,126.184-75.391s6.546,0.125,1.604-13.058c13.786,16.124,27.003,11.739,42.487,5.729
			c23.174-9.003,171.993-120.9,171.993-120.9s3.212-1.54,0.969-7.311c2.972,3.482,7.113,3.784,7.113,3.784s2.941-8.325,2.145-12.783
			C657.982,271.335,639.188,242.181,639.188,242.181z"/>
	</defs>
	<clipPath id="SVGID_12_">
		<use xlink:href="#SVGID_11_"  overflow="visible"/>
	</clipPath>
	<path clip-path="url(#SVGID_12_)" fill="url(#New_Pattern_19)" d="M31,492.073C123,321.987,306.16,211,513.463,211h0.125
		c207.303,0,387.25,112.844,479.875,282.93l-0.358-1.623C982.331,236.751,770.45,32.438,512.243,32.438
		C254.136,32.438,41,236.443,31,491.86V492.073z"/>
</g>
<path fill="none" stroke="#FFFF00" stroke-width="2.7104" stroke-miterlimit="10" d="M615,357.467"/>
<path fill="#00FF00" d="M240.154,706.089c-2.326-1.966-4.334-4.15-6.321-6.306"/>
<path fill="url(#New_Pattern)" d="M350.881,646.637c0,0-4.994,6.701-7.325,7.973c-2.332,1.263-13.708,4.913-13.708,4.913
	s5.416-10.323,5.85-16.077l-13.884-37.56c-3.862-4.483-12.36-13.377-18.763-24.403c-2.205,1.834-2.937,2.619-4.82,4.375
	c0.928,3.774,0.883,5.642-1.549,10.266c-2.439,4.624-11.364,7.166-15.623,8.323c-4.253,1.149-16.118,1.647-24.348,3.029
	c-6.725,1.132-29.758,5.633-29.758,5.633l-0.938,1.447c0,0,3.217,5.875,3.589,8.784c0.366,2.936,6.288,17.992,6.288,17.992
	l7.117,1.354c4.055,10.022-0.407,30.076-2.899,32.515c-2.499,2.44-11.05,7.219-11.05,7.219s7.582,12.134,17.814,15.611
	l-13.041,1.753c1.987,2.155,3.995,4.34,6.321,6.306c15.136-2.341,32.613-5.04,35.479-5.468c5.197-0.772,14.874-0.881,14.874-0.881
	s26.773-4.172,35.983-11.183c9.206-6.999,13.095-11.292,19.127-19.112c6.037-7.824,9.427-24.29,9.427-24.29L350.881,646.637z"/>
<path fill="url(#New_Pattern)" d="M850.122,693.939c4.839-4.322,10.346-16.218,10.346-16.218s4.525,12.649,4.993,15.594
	c0.46,2.95-2.104,11.992-2.104,11.992l1.525,4.727c0,0,12.374-14.29,15.228-25.029c2.853-10.733,4.022-17.14,3.97-30.144
	c-0.044-13.015-14.636-39.76-14.636-39.76s-6.524-8.71-9.389-13.876c-2.867-5.176-32.038-58.524-32.038-58.524
	s14.58,1.773,18.427,2.92c3.85,1.148,16.087,11.308,16.087,11.308l6.119-6.198c0,0,0.082,1.011,2.479,1.024
	c4.411-1.723,25.279-26.842,25.279-26.842s-4.229-7.51-3.696-12.245c0.533-4.753,2.752-6.986,2.752-6.986l-4.767-11.655
	l-4.136,2.608c0,0-9.008-12.132-10.742-16.375c-8.83,0.282-7.701,2.325-6.501,13.538c0.626,5.753-3.293,9.849-3.293,9.849
	s-1.911,11.653-3.619,11.528c-0.749-0.059-10.283,7.658-22.398,11.325c-5.523,1.66-18.48,4.602-18.48,4.602l-3.704-5.243l-6.07,3.31
	c0,0,0.413,2.153-0.32,2.208c-2.686,0.204-4.304,0.262-4.304,0.262l0.456,5.261l8.556,2.178l21.929,38.258
	c-10.104-6.752-26.119-5.217-26.119-5.217s1.586,10.899,1.117,14.799c-0.471,3.893-15.313,21.593-27.03,24.83l-6.077-5.426
	c0,0-17.488,5.016-20.358,6.698c-2.85,1.657-10.294,2.805-10.294,2.805l-0.649,1.828c0,0,11.74,23.634,15.331,30.408
	c4.396,8.29,12.068,19.219,13.953,23.801c1.881,4.591,5.718,14.295,3.259,19.635c-2.462,5.333-4.098,6.651-8.1,8.405
	c-0.279,2.882-0.48,4.071-0.608,7.294c14.221-1.829,27.971-0.33,34.613,0.049"/>
<path fill="url(#New_Pattern)" d="M548.076,814.993l-4.703,0.624c-9.904-8.957-4.07-21.899-4.07-21.899l-2.922-1.982
	c0,0-35.643,13.448-46.482,5.21c-0.778-15.808-1.319-41.923-1.319-41.923s1.457-19.086,26.359-47.884
	c-15.951-9.673-78.307,36.583-78.307,36.583l-42.292,67.783c-4.94,9.937-5.293,33.055,22.845,56.604
	c29.575,24.745,55.792,29.229,72.722,17.514l60.714-67.079L548.076,814.993z"/>
<path fill="url(#New_Pattern)" d="M715.658,584.565l19.105,38.377c0,0,1.845,3.31-3.671,5.944c-4.602,2.202-5.227,0.702-5.227,0.702
	s-13.518,8.87-21.111,8.836c0,0-44.103,34.969-54.509,41.34c-10.401,6.385-29.026,12.053-36.871,19.8
	c-7.853,7.778-6.345,21.055-16.917,25.908c-14.538,6.675-40.708,11.23-40.708,11.23l-31.754,15.85l-6.885-8.243
	c0,0,37.152-41.059,37.621-55.363c0,0-15.031-4.392-38.629,0.887c-23.594,5.282-52.698,19.5-52.698,19.5l-2.748-8.763
	c11.402-3.532,54.584-36.792,57.677-38.854c3.109-2.067,23.525-22.432,23.525-22.432c5.662-0.671,6.416-10.614,6.416-10.614
	c9.275-4.906,28.866,6.152,37.63,3.408c8.765-2.732,20.258-9.293,38.92-16.268c18.67-6.962,60.443-17.503,60.443-17.503
	c3.24-6.399,20.239-8.881,20.239-8.881s-0.755-3.06,3.216-5.086C712.69,582.308,715.658,584.565,715.658,584.565z"/>
<g>
	<defs>
		<path id="SVGID_13_" d="M715.799,584.543l19.105,38.377c0,0,1.846,3.31-3.67,5.944c-4.602,2.202-5.227,0.702-5.227,0.702
			s-13.518,8.87-21.111,8.836c0,0-44.104,34.969-54.51,41.34c-10.4,6.385-29.025,12.053-36.871,19.8
			c-7.852,7.778-6.344,21.055-16.916,25.908c-14.539,6.675-40.709,11.23-40.709,11.23l-31.754,15.85l-6.885-8.243
			c0,0,37.152-41.059,37.621-55.363c0,0-15.031-4.392-38.629,0.887c-23.594,5.282-52.698,19.5-52.698,19.5l-2.748-8.763
			c11.402-3.532,54.584-36.792,57.678-38.854c3.109-2.067,23.525-22.432,23.525-22.432c5.662-0.671,6.416-10.614,6.416-10.614
			c9.275-4.906,28.865,6.152,37.629,3.408c8.766-2.732,20.258-9.293,38.92-16.268c18.67-6.962,60.443-17.503,60.443-17.503
			c3.24-6.399,20.24-8.881,20.24-8.881s-0.756-3.06,3.215-5.086C712.832,582.285,715.799,584.543,715.799,584.543z"/>
	</defs>
	<clipPath id="SVGID_14_">
		<use xlink:href="#SVGID_13_"  overflow="visible"/>
	</clipPath>
	<circle clip-path="url(#SVGID_14_)" fill="url(#New_Pattern_4)" cx="512.166" cy="511.983" r="168.75"/>
</g>
<path fill="url(#New_Pattern)" d="M728.019,761.438c5.221-0.556,6.103,3.954,6.103,3.954l8.304,40.285c0,0-1.393,2.775-4.379,3.612
	c-2.989,0.835-5.799-1.992-5.799-1.992s-6.763,5.606-10.724,6.671l-4.646-1.829c0,0-77.714,27.708-87.813,31.131
	c-10.118,3.432-28.532,20.74-34.83,24.411c-6.302,3.658-47.42,12.936-43.464,10.332c3.939-2.618-4.049-3.826-4.049-3.826
	l13.376-2.498l3.896-4.635c0,0,16.303-7.661,15.45-8.992c-0.845-1.324-7.858-0.584-2.711-5.209l0.28-8.206l-2.803-11.64
	l-0.836-7.413c0,0-0.182-3.634-3.649-8.626c2.672-5.445,6.404-10.619,7.735-15.903c2.032-8.001,2.316-15.859,6.614-18.938
	c7.867-3.154,7.989-0.038,14.694-0.839c6.698-0.814,15.719-8.451,15.719-8.451l92.491-5.426c0,0,1.89-1.219,4.943-3.974
	c4.119-0.937,12.285,1.233,12.285,1.233S725.019,761.762,728.019,761.438z"/>
</svg>
